%TF.GenerationSoftware,KiCad,Pcbnew,5.1.9+dfsg1-1*%
%TF.CreationDate,2021-11-29T12:28:50+01:00*%
%TF.ProjectId,Esp8266AquariumLight,45737038-3236-4364-9171-75617269756d,rev?*%
%TF.SameCoordinates,Original*%
%TF.FileFunction,Copper,L2,Bot*%
%TF.FilePolarity,Positive*%
%FSLAX46Y46*%
G04 Gerber Fmt 4.6, Leading zero omitted, Abs format (unit mm)*
G04 Created by KiCad (PCBNEW 5.1.9+dfsg1-1) date 2021-11-29 12:28:50*
%MOMM*%
%LPD*%
G01*
G04 APERTURE LIST*
%TA.AperFunction,ComponentPad*%
%ADD10C,2.700000*%
%TD*%
%TA.AperFunction,ComponentPad*%
%ADD11C,1.600000*%
%TD*%
%TA.AperFunction,ComponentPad*%
%ADD12R,1.600000X1.600000*%
%TD*%
%TA.AperFunction,ComponentPad*%
%ADD13O,1.700000X1.700000*%
%TD*%
%TA.AperFunction,ComponentPad*%
%ADD14R,1.700000X1.700000*%
%TD*%
%TA.AperFunction,ComponentPad*%
%ADD15C,1.524000*%
%TD*%
%TA.AperFunction,SMDPad,CuDef*%
%ADD16R,2.500000X1.000000*%
%TD*%
%TA.AperFunction,SMDPad,CuDef*%
%ADD17R,1.000000X1.800000*%
%TD*%
%TA.AperFunction,SMDPad,CuDef*%
%ADD18R,1.800000X1.100000*%
%TD*%
%TA.AperFunction,SMDPad,CuDef*%
%ADD19R,4.599940X0.998220*%
%TD*%
%TA.AperFunction,SMDPad,CuDef*%
%ADD20R,3.398520X1.597660*%
%TD*%
%TA.AperFunction,ViaPad*%
%ADD21C,0.800000*%
%TD*%
%TA.AperFunction,Conductor*%
%ADD22C,0.250000*%
%TD*%
%TA.AperFunction,Conductor*%
%ADD23C,0.400000*%
%TD*%
%TA.AperFunction,Conductor*%
%ADD24C,0.254000*%
%TD*%
%TA.AperFunction,Conductor*%
%ADD25C,0.100000*%
%TD*%
G04 APERTURE END LIST*
D10*
%TO.P,J1,2*%
%TO.N,/V12*%
X186130000Y-105320000D03*
%TO.P,J1,1*%
%TO.N,GND*%
%TA.AperFunction,ComponentPad*%
G36*
G01*
X192480000Y-104220001D02*
X192480000Y-106419999D01*
G75*
G02*
X192229999Y-106670000I-250001J0D01*
G01*
X190030001Y-106670000D01*
G75*
G02*
X189780000Y-106419999I0J250001D01*
G01*
X189780000Y-104220001D01*
G75*
G02*
X190030001Y-103970000I250001J0D01*
G01*
X192229999Y-103970000D01*
G75*
G02*
X192480000Y-104220001I0J-250001D01*
G01*
G37*
%TD.AperFunction*%
%TD*%
D11*
%TO.P,C1,2*%
%TO.N,GND*%
X187630000Y-125550000D03*
D12*
%TO.P,C1,1*%
%TO.N,/VIN*%
X187630000Y-123050000D03*
%TD*%
D13*
%TO.P,J3,3*%
%TO.N,GND*%
X180210000Y-103124000D03*
%TO.P,J3,2*%
%TO.N,/ONEWIRE*%
X177670000Y-103124000D03*
D14*
%TO.P,J3,1*%
%TO.N,/3V3*%
X175130000Y-103124000D03*
%TD*%
D13*
%TO.P,J2,6*%
%TO.N,/BTN_LED+*%
X111252000Y-119888000D03*
%TO.P,J2,5*%
%TO.N,/FAN+*%
X108712000Y-119888000D03*
%TO.P,J2,4*%
%TO.N,GND*%
X111252000Y-117348000D03*
%TO.P,J2,3*%
X108712000Y-117348000D03*
%TO.P,J2,2*%
%TO.N,/BTN*%
X111252000Y-114808000D03*
D14*
%TO.P,J2,1*%
%TO.N,/BTN_LED-*%
X108712000Y-114808000D03*
%TD*%
D15*
%TO.P,U5,5*%
%TO.N,N/C*%
X197875000Y-122080000D03*
%TO.P,U5,4*%
%TO.N,/LED_B*%
X197875000Y-119540000D03*
%TO.P,U5,3*%
%TO.N,GND*%
X197875000Y-117000000D03*
%TO.P,U5,2*%
X197875000Y-112000000D03*
%TO.P,U5,1*%
%TO.N,/V12*%
X197875000Y-107000000D03*
%TD*%
%TO.P,U4,5*%
%TO.N,N/C*%
X102475000Y-106920000D03*
%TO.P,U4,4*%
%TO.N,/LED_W*%
X102475000Y-109460000D03*
%TO.P,U4,3*%
%TO.N,GND*%
X102475000Y-112000000D03*
%TO.P,U4,2*%
X102475000Y-117000000D03*
%TO.P,U4,1*%
%TO.N,/V12*%
X102475000Y-122000000D03*
%TD*%
D16*
%TO.P,U2,22*%
%TO.N,/RX*%
X133950000Y-108925000D03*
%TO.P,U2,21*%
%TO.N,/TX*%
X133950000Y-110925000D03*
%TO.P,U2,20*%
%TO.N,/FAN*%
X133950000Y-112925000D03*
%TO.P,U2,19*%
%TO.N,/BTN*%
X133950000Y-114925000D03*
%TO.P,U2,18*%
%TO.N,/GPIO0*%
X133950000Y-116925000D03*
%TO.P,U2,17*%
%TO.N,/GPIO2*%
X133950000Y-118925000D03*
%TO.P,U2,16*%
%TO.N,/GPIO15*%
X133950000Y-120925000D03*
%TO.P,U2,15*%
%TO.N,GND*%
X133950000Y-122925000D03*
D17*
%TO.P,U2,14*%
%TO.N,N/C*%
X136550000Y-124425000D03*
%TO.P,U2,13*%
X138550000Y-124425000D03*
%TO.P,U2,12*%
X140550000Y-124425000D03*
%TO.P,U2,11*%
X142550000Y-124425000D03*
%TO.P,U2,10*%
X144550000Y-124425000D03*
%TO.P,U2,9*%
X146550000Y-124425000D03*
D16*
%TO.P,U2,8*%
%TO.N,/3V3*%
X149150000Y-122925000D03*
%TO.P,U2,7*%
%TO.N,/LED_B*%
X149150000Y-120925000D03*
%TO.P,U2,6*%
%TO.N,/BTN_LED*%
X149150000Y-118925000D03*
%TO.P,U2,5*%
%TO.N,/ONEWIRE*%
X149150000Y-116925000D03*
%TO.P,U2,4*%
%TO.N,/LED_W*%
X149150000Y-114925000D03*
%TO.P,U2,3*%
%TO.N,/EN*%
X149150000Y-112925000D03*
%TO.P,U2,2*%
%TO.N,N/C*%
X149150000Y-110925000D03*
%TO.P,U2,1*%
%TO.N,/RST*%
X149150000Y-108925000D03*
%TD*%
D18*
%TO.P,SW3,2*%
%TO.N,GND*%
X117804000Y-123262000D03*
X124004000Y-123262000D03*
%TO.P,SW3,1*%
%TO.N,/GPIO0*%
X117804000Y-119562000D03*
X124004000Y-119562000D03*
%TD*%
%TO.P,SW2,2*%
%TO.N,GND*%
X185320000Y-117080000D03*
X191520000Y-117080000D03*
%TO.P,SW2,1*%
%TO.N,/RST*%
X185320000Y-113380000D03*
X191520000Y-113380000D03*
%TD*%
D19*
%TO.P,J4,4*%
%TO.N,Net-(D3-Pad2)*%
X155782520Y-105890000D03*
%TO.P,J4,1*%
%TO.N,/TX*%
X155782520Y-111888980D03*
%TO.P,J4,2*%
%TO.N,/RX*%
X155782520Y-109890000D03*
%TO.P,J4,3*%
%TO.N,GND*%
X155782520Y-107891020D03*
D20*
%TO.P,J4,NC1*%
%TO.N,N/C*%
X160979360Y-114289280D03*
%TO.P,J4,NC2*%
X160979360Y-103490720D03*
%TD*%
D11*
%TO.P,C5,2*%
%TO.N,GND*%
X166775000Y-125600000D03*
D12*
%TO.P,C5,1*%
%TO.N,/5V*%
X166775000Y-123100000D03*
%TD*%
D21*
%TO.N,GND*%
X128524000Y-109220000D03*
X130048000Y-101600000D03*
X114554000Y-103378000D03*
X136050000Y-111960000D03*
X147000000Y-115960000D03*
X136150000Y-115760000D03*
X136080000Y-117920000D03*
X136030000Y-109890000D03*
X145796000Y-122936000D03*
X173228000Y-104140000D03*
X178816000Y-104394000D03*
X131826000Y-109220000D03*
X131826000Y-111760000D03*
X131826000Y-113792000D03*
X131826000Y-115824000D03*
X131826000Y-118110000D03*
X131826000Y-122174000D03*
X176530000Y-104902000D03*
X152490000Y-107760000D03*
X161100000Y-117940000D03*
%TO.N,/3V3*%
X151130000Y-122936000D03*
X155702000Y-119126000D03*
X166940000Y-101970000D03*
%TO.N,/V12*%
X190754000Y-128016000D03*
%TO.N,/GPIO0*%
X138930000Y-118250000D03*
%TO.N,/GPIO2*%
X139192000Y-120526000D03*
%TO.N,/RST*%
X141986000Y-113414000D03*
X150580000Y-108920000D03*
X157910000Y-102340000D03*
%TO.N,/EN*%
X145470000Y-113660000D03*
%TO.N,/GPIO15*%
X137480000Y-122300000D03*
%TO.N,/TX*%
X138880000Y-110900000D03*
X152908000Y-113060000D03*
%TO.N,/RX*%
X145870000Y-109100000D03*
X152654000Y-110520000D03*
%TO.N,/LED_W*%
X138430000Y-114300000D03*
X131064000Y-110744000D03*
%TO.N,/ONEWIRE*%
X152400000Y-117094000D03*
X164830000Y-102680000D03*
%TO.N,/BTN_LED*%
X144526000Y-122174000D03*
%TO.N,/FAN*%
X126746000Y-104140000D03*
%TO.N,Net-(D3-Pad2)*%
X153860000Y-105030000D03*
%TO.N,/BTN_LED+*%
X118360000Y-124900000D03*
%TO.N,Net-(JP1-Pad2)*%
X119634000Y-104140000D03*
X118364000Y-114554000D03*
%TD*%
D22*
%TO.N,/3V3*%
X149175000Y-122950000D02*
X149150000Y-122925000D01*
X149161000Y-122936000D02*
X149150000Y-122925000D01*
X151130000Y-122936000D02*
X149161000Y-122936000D01*
X166940000Y-118000000D02*
X166940000Y-101970000D01*
X166068000Y-118872000D02*
X166940000Y-118000000D01*
X155956000Y-118872000D02*
X166068000Y-118872000D01*
X155702000Y-119126000D02*
X155956000Y-118872000D01*
D23*
%TO.N,/V12*%
X190754000Y-128016000D02*
X103378000Y-128016000D01*
X102475000Y-127113000D02*
X102475000Y-122000000D01*
X103378000Y-128016000D02*
X102475000Y-127113000D01*
D22*
%TO.N,/GPIO0*%
X134035000Y-116840000D02*
X133950000Y-116925000D01*
X123450000Y-119500000D02*
X128404000Y-119500000D01*
X130979000Y-116925000D02*
X133950000Y-116925000D01*
X128404000Y-119500000D02*
X130979000Y-116925000D01*
X117250000Y-119500000D02*
X123450000Y-119500000D01*
X137605000Y-116925000D02*
X133950000Y-116925000D01*
X138930000Y-118250000D02*
X137605000Y-116925000D01*
%TO.N,/GPIO2*%
X134003000Y-118872000D02*
X133950000Y-118925000D01*
X137591000Y-118925000D02*
X133950000Y-118925000D01*
X139192000Y-120526000D02*
X137591000Y-118925000D01*
%TO.N,/RST*%
X149109000Y-108966000D02*
X149150000Y-108925000D01*
X149150000Y-108925000D02*
X147195000Y-108925000D01*
X147195000Y-108925000D02*
X147000000Y-109120000D01*
X150575000Y-108925000D02*
X150580000Y-108920000D01*
X149150000Y-108925000D02*
X150575000Y-108925000D01*
X183360000Y-113380000D02*
X185320000Y-113380000D01*
X185320000Y-113380000D02*
X191520000Y-113380000D01*
X185320000Y-113380000D02*
X171010000Y-113380000D01*
X169080000Y-111450000D02*
X169080000Y-107270000D01*
X171010000Y-113380000D02*
X169080000Y-111450000D01*
X144336000Y-113414000D02*
X147000000Y-110750000D01*
X141986000Y-113414000D02*
X144336000Y-113414000D01*
X147000000Y-109120000D02*
X147000000Y-110750000D01*
X169080000Y-107270000D02*
X169080000Y-102040000D01*
X169080000Y-102040000D02*
X168120000Y-101080000D01*
X159170000Y-101080000D02*
X157910000Y-102340000D01*
X168120000Y-101080000D02*
X159170000Y-101080000D01*
%TO.N,/EN*%
X149045000Y-113030000D02*
X149150000Y-112925000D01*
X146205000Y-112925000D02*
X149150000Y-112925000D01*
X145470000Y-113660000D02*
X146205000Y-112925000D01*
%TO.N,/GPIO15*%
X133929000Y-120904000D02*
X133950000Y-120925000D01*
X133971000Y-120904000D02*
X133950000Y-120925000D01*
X136105000Y-120925000D02*
X137480000Y-122300000D01*
X133950000Y-120925000D02*
X136105000Y-120925000D01*
%TO.N,/TX*%
X134023000Y-110998000D02*
X133950000Y-110925000D01*
X133950000Y-110925000D02*
X138885000Y-110925000D01*
X155771500Y-111900000D02*
X155782520Y-111888980D01*
X155782520Y-111888980D02*
X153287020Y-111888980D01*
X152908000Y-112268000D02*
X152908000Y-113060000D01*
X153287020Y-111888980D02*
X152908000Y-112268000D01*
%TO.N,/RX*%
X145695000Y-108925000D02*
X145870000Y-109100000D01*
X133950000Y-108925000D02*
X145695000Y-108925000D01*
X155762520Y-109870000D02*
X155782520Y-109890000D01*
X153284000Y-109890000D02*
X152654000Y-110520000D01*
X155782520Y-109890000D02*
X153284000Y-109890000D01*
%TO.N,/LED_W*%
X149150000Y-114925000D02*
X144735000Y-114925000D01*
X144110000Y-114300000D02*
X138430000Y-114300000D01*
X144735000Y-114925000D02*
X144110000Y-114300000D01*
X102475000Y-109460000D02*
X104154000Y-109460000D01*
X104154000Y-109460000D02*
X105664000Y-107950000D01*
X105664000Y-107950000D02*
X105664000Y-103886000D01*
X105664000Y-103886000D02*
X107442000Y-102108000D01*
X107442000Y-102108000D02*
X128270000Y-102108000D01*
X128270000Y-102108000D02*
X129540000Y-103378000D01*
X129540000Y-109220000D02*
X129540000Y-103378000D01*
X131064000Y-110744000D02*
X129540000Y-109220000D01*
%TO.N,/BTN*%
X111369000Y-114925000D02*
X111252000Y-114808000D01*
X133950000Y-114925000D02*
X123327000Y-114925000D01*
X123327000Y-114925000D02*
X121666000Y-116586000D01*
X115824000Y-116586000D02*
X114163000Y-114925000D01*
X121666000Y-116586000D02*
X115824000Y-116586000D01*
X114163000Y-114925000D02*
X111369000Y-114925000D01*
%TO.N,/LED_B*%
X149150000Y-120925000D02*
X191749000Y-120925000D01*
X193134000Y-119540000D02*
X197875000Y-119540000D01*
X191749000Y-120925000D02*
X193134000Y-119540000D01*
%TO.N,/ONEWIRE*%
X149319000Y-117094000D02*
X149150000Y-116925000D01*
X152400000Y-117094000D02*
X149319000Y-117094000D01*
X164846000Y-116344000D02*
X164846000Y-104264000D01*
X164096000Y-117094000D02*
X164846000Y-116344000D01*
X152400000Y-117094000D02*
X164096000Y-117094000D01*
X164846000Y-102696000D02*
X164830000Y-102680000D01*
X164846000Y-104264000D02*
X164846000Y-102696000D01*
%TO.N,/BTN_LED*%
X149150000Y-118925000D02*
X144981000Y-118925000D01*
X144526000Y-119380000D02*
X144526000Y-122174000D01*
X144981000Y-118925000D02*
X144526000Y-119380000D01*
%TO.N,/FAN*%
X127911000Y-112925000D02*
X130407000Y-112925000D01*
X126746000Y-111760000D02*
X127911000Y-112925000D01*
X130407000Y-112925000D02*
X129943000Y-112925000D01*
X133950000Y-112925000D02*
X130407000Y-112925000D01*
X126746000Y-104140000D02*
X126746000Y-104902000D01*
X126746000Y-104902000D02*
X126746000Y-111760000D01*
X126746000Y-104648000D02*
X126746000Y-104902000D01*
%TO.N,Net-(D3-Pad2)*%
X154922520Y-105030000D02*
X155782520Y-105890000D01*
X153860000Y-105030000D02*
X154922520Y-105030000D01*
%TO.N,/BTN_LED+*%
X111240000Y-119900000D02*
X111252000Y-119888000D01*
X118360000Y-124900000D02*
X113760000Y-124900000D01*
X111252000Y-122392000D02*
X111252000Y-119888000D01*
X113760000Y-124900000D02*
X111252000Y-122392000D01*
D23*
%TO.N,Net-(JP1-Pad2)*%
X119634000Y-112268000D02*
X118364000Y-113538000D01*
X118364000Y-114554000D02*
X118364000Y-113538000D01*
X119634000Y-104394000D02*
X119634000Y-112268000D01*
%TD*%
D24*
%TO.N,GND*%
X129174775Y-100698147D02*
X129517967Y-100801763D01*
X129834489Y-100970062D01*
X130112299Y-101196637D01*
X130340806Y-101472856D01*
X130511310Y-101788197D01*
X130617319Y-102130656D01*
X130658000Y-102517713D01*
X130658001Y-105532419D01*
X130660886Y-105561709D01*
X130660777Y-105577271D01*
X130661677Y-105586442D01*
X130712678Y-106071684D01*
X130724699Y-106130247D01*
X130735914Y-106189040D01*
X130738578Y-106197862D01*
X130882858Y-106663956D01*
X130906033Y-106719086D01*
X130928447Y-106774565D01*
X130932774Y-106782701D01*
X131164838Y-107211894D01*
X131198271Y-107261461D01*
X131231042Y-107311540D01*
X131236867Y-107318681D01*
X131547875Y-107694627D01*
X131590311Y-107736767D01*
X131632174Y-107779517D01*
X131639275Y-107785391D01*
X132017382Y-108093767D01*
X132067191Y-108126859D01*
X132116563Y-108160666D01*
X132120215Y-108162640D01*
X132110498Y-108180820D01*
X132074188Y-108300518D01*
X132061928Y-108425000D01*
X132061928Y-109425000D01*
X132074188Y-109549482D01*
X132110498Y-109669180D01*
X132169463Y-109779494D01*
X132248815Y-109876185D01*
X132308296Y-109925000D01*
X132248815Y-109973815D01*
X132169463Y-110070506D01*
X132110498Y-110180820D01*
X132074188Y-110300518D01*
X132061928Y-110425000D01*
X132061928Y-110455686D01*
X132059226Y-110442102D01*
X131981205Y-110253744D01*
X131867937Y-110084226D01*
X131723774Y-109940063D01*
X131554256Y-109826795D01*
X131365898Y-109748774D01*
X131165939Y-109709000D01*
X131103802Y-109709000D01*
X130300000Y-108905199D01*
X130300000Y-103415322D01*
X130303676Y-103377999D01*
X130300000Y-103340676D01*
X130300000Y-103340667D01*
X130289003Y-103229014D01*
X130245546Y-103085753D01*
X130174974Y-102953724D01*
X130080001Y-102837999D01*
X130051003Y-102814201D01*
X128833804Y-101597003D01*
X128810001Y-101567999D01*
X128694276Y-101473026D01*
X128562247Y-101402454D01*
X128418986Y-101358997D01*
X128307333Y-101348000D01*
X128307322Y-101348000D01*
X128270000Y-101344324D01*
X128232678Y-101348000D01*
X107479325Y-101348000D01*
X107442000Y-101344324D01*
X107404675Y-101348000D01*
X107404667Y-101348000D01*
X107293014Y-101358997D01*
X107149753Y-101402454D01*
X107017724Y-101473026D01*
X106901999Y-101567999D01*
X106878201Y-101596997D01*
X105152998Y-103322201D01*
X105124000Y-103345999D01*
X105100202Y-103374997D01*
X105100201Y-103374998D01*
X105029026Y-103461724D01*
X104958454Y-103593754D01*
X104914998Y-103737015D01*
X104900324Y-103886000D01*
X104904001Y-103923332D01*
X104904000Y-107635197D01*
X103839199Y-108700000D01*
X103647341Y-108700000D01*
X103560120Y-108569465D01*
X103365535Y-108374880D01*
X103136727Y-108221995D01*
X103059485Y-108190000D01*
X103136727Y-108158005D01*
X103365535Y-108005120D01*
X103560120Y-107810535D01*
X103713005Y-107581727D01*
X103818314Y-107327490D01*
X103872000Y-107057592D01*
X103872000Y-106782408D01*
X103818314Y-106512510D01*
X103713005Y-106258273D01*
X103560120Y-106029465D01*
X103365535Y-105834880D01*
X103136727Y-105681995D01*
X102882490Y-105576686D01*
X102612592Y-105523000D01*
X102337408Y-105523000D01*
X102067510Y-105576686D01*
X101813273Y-105681995D01*
X101584465Y-105834880D01*
X101389880Y-106029465D01*
X101236995Y-106258273D01*
X101131686Y-106512510D01*
X101078000Y-106782408D01*
X101078000Y-107057592D01*
X101131686Y-107327490D01*
X101236995Y-107581727D01*
X101389880Y-107810535D01*
X101584465Y-108005120D01*
X101813273Y-108158005D01*
X101890515Y-108190000D01*
X101813273Y-108221995D01*
X101584465Y-108374880D01*
X101389880Y-108569465D01*
X101236995Y-108798273D01*
X101131686Y-109052510D01*
X101078000Y-109322408D01*
X101078000Y-109597592D01*
X101131686Y-109867490D01*
X101236995Y-110121727D01*
X101389880Y-110350535D01*
X101584465Y-110545120D01*
X101813273Y-110698005D01*
X101884943Y-110727692D01*
X101871977Y-110732364D01*
X101756020Y-110794344D01*
X101689040Y-111034435D01*
X102475000Y-111820395D01*
X103260960Y-111034435D01*
X103193980Y-110794344D01*
X103058240Y-110730515D01*
X103136727Y-110698005D01*
X103365535Y-110545120D01*
X103560120Y-110350535D01*
X103647341Y-110220000D01*
X104116678Y-110220000D01*
X104154000Y-110223676D01*
X104191322Y-110220000D01*
X104191333Y-110220000D01*
X104302986Y-110209003D01*
X104446247Y-110165546D01*
X104578276Y-110094974D01*
X104694001Y-110000001D01*
X104717803Y-109970998D01*
X106175009Y-108513794D01*
X106204001Y-108490001D01*
X106227795Y-108461008D01*
X106227799Y-108461004D01*
X106298973Y-108374277D01*
X106298974Y-108374276D01*
X106369546Y-108242247D01*
X106413003Y-108098986D01*
X106424000Y-107987333D01*
X106424000Y-107987324D01*
X106427676Y-107950001D01*
X106424000Y-107912678D01*
X106424000Y-104200801D01*
X107756802Y-102868000D01*
X127955199Y-102868000D01*
X128780001Y-103692803D01*
X128780000Y-109182677D01*
X128776324Y-109220000D01*
X128780000Y-109257322D01*
X128780000Y-109257332D01*
X128790997Y-109368985D01*
X128818606Y-109460000D01*
X128834454Y-109512246D01*
X128905026Y-109644276D01*
X128929422Y-109674002D01*
X128999999Y-109760001D01*
X129029002Y-109783803D01*
X130029000Y-110783802D01*
X130029000Y-110845939D01*
X130068774Y-111045898D01*
X130146795Y-111234256D01*
X130260063Y-111403774D01*
X130404226Y-111547937D01*
X130573744Y-111661205D01*
X130762102Y-111739226D01*
X130962061Y-111779000D01*
X131165939Y-111779000D01*
X131365898Y-111739226D01*
X131554256Y-111661205D01*
X131723774Y-111547937D01*
X131867937Y-111403774D01*
X131981205Y-111234256D01*
X132059226Y-111045898D01*
X132061928Y-111032314D01*
X132061928Y-111425000D01*
X132074188Y-111549482D01*
X132110498Y-111669180D01*
X132169463Y-111779494D01*
X132248815Y-111876185D01*
X132308296Y-111925000D01*
X132248815Y-111973815D01*
X132169463Y-112070506D01*
X132118954Y-112165000D01*
X128225802Y-112165000D01*
X127506000Y-111445199D01*
X127506000Y-104843711D01*
X127549937Y-104799774D01*
X127663205Y-104630256D01*
X127741226Y-104441898D01*
X127781000Y-104241939D01*
X127781000Y-104038061D01*
X127741226Y-103838102D01*
X127663205Y-103649744D01*
X127549937Y-103480226D01*
X127405774Y-103336063D01*
X127236256Y-103222795D01*
X127047898Y-103144774D01*
X126847939Y-103105000D01*
X126644061Y-103105000D01*
X126444102Y-103144774D01*
X126255744Y-103222795D01*
X126086226Y-103336063D01*
X125942063Y-103480226D01*
X125828795Y-103649744D01*
X125750774Y-103838102D01*
X125711000Y-104038061D01*
X125711000Y-104241939D01*
X125750774Y-104441898D01*
X125828795Y-104630256D01*
X125942063Y-104799774D01*
X125986000Y-104843711D01*
X125986000Y-104864668D01*
X125986001Y-111722668D01*
X125982324Y-111760000D01*
X125996998Y-111908985D01*
X126040454Y-112052246D01*
X126111026Y-112184276D01*
X126157167Y-112240498D01*
X126206000Y-112300001D01*
X126234998Y-112323799D01*
X127347201Y-113436003D01*
X127370999Y-113465001D01*
X127486724Y-113559974D01*
X127618753Y-113630546D01*
X127762014Y-113674003D01*
X127873667Y-113685000D01*
X127873677Y-113685000D01*
X127911000Y-113688676D01*
X127948323Y-113685000D01*
X132118954Y-113685000D01*
X132169463Y-113779494D01*
X132248815Y-113876185D01*
X132308296Y-113925000D01*
X132248815Y-113973815D01*
X132169463Y-114070506D01*
X132118954Y-114165000D01*
X123364325Y-114165000D01*
X123327000Y-114161324D01*
X123289675Y-114165000D01*
X123289667Y-114165000D01*
X123178014Y-114175997D01*
X123034753Y-114219454D01*
X122902724Y-114290026D01*
X122786999Y-114384999D01*
X122763202Y-114413996D01*
X121351199Y-115826000D01*
X116138802Y-115826000D01*
X114764863Y-114452061D01*
X117329000Y-114452061D01*
X117329000Y-114655939D01*
X117368774Y-114855898D01*
X117446795Y-115044256D01*
X117560063Y-115213774D01*
X117704226Y-115357937D01*
X117873744Y-115471205D01*
X118062102Y-115549226D01*
X118262061Y-115589000D01*
X118465939Y-115589000D01*
X118665898Y-115549226D01*
X118854256Y-115471205D01*
X119023774Y-115357937D01*
X119167937Y-115213774D01*
X119281205Y-115044256D01*
X119359226Y-114855898D01*
X119399000Y-114655939D01*
X119399000Y-114452061D01*
X119359226Y-114252102D01*
X119281205Y-114063744D01*
X119199000Y-113940715D01*
X119199000Y-113883867D01*
X120195426Y-112887442D01*
X120227291Y-112861291D01*
X120331636Y-112734146D01*
X120409172Y-112589087D01*
X120456918Y-112431689D01*
X120469000Y-112309019D01*
X120469000Y-112309017D01*
X120473040Y-112268001D01*
X120469000Y-112226985D01*
X120469000Y-104753285D01*
X120551205Y-104630256D01*
X120629226Y-104441898D01*
X120669000Y-104241939D01*
X120669000Y-104038061D01*
X120629226Y-103838102D01*
X120551205Y-103649744D01*
X120437937Y-103480226D01*
X120293774Y-103336063D01*
X120124256Y-103222795D01*
X119935898Y-103144774D01*
X119735939Y-103105000D01*
X119532061Y-103105000D01*
X119332102Y-103144774D01*
X119143744Y-103222795D01*
X118974226Y-103336063D01*
X118830063Y-103480226D01*
X118716795Y-103649744D01*
X118638774Y-103838102D01*
X118599000Y-104038061D01*
X118599000Y-104241939D01*
X118638774Y-104441898D01*
X118716795Y-104630256D01*
X118799000Y-104753285D01*
X118799001Y-111922131D01*
X117802574Y-112918559D01*
X117770710Y-112944709D01*
X117713925Y-113013902D01*
X117666364Y-113071855D01*
X117588828Y-113216914D01*
X117541082Y-113374312D01*
X117524960Y-113538000D01*
X117529001Y-113579028D01*
X117529001Y-113940714D01*
X117446795Y-114063744D01*
X117368774Y-114252102D01*
X117329000Y-114452061D01*
X114764863Y-114452061D01*
X114726804Y-114414003D01*
X114703001Y-114384999D01*
X114587276Y-114290026D01*
X114455247Y-114219454D01*
X114311986Y-114175997D01*
X114200333Y-114165000D01*
X114200322Y-114165000D01*
X114163000Y-114161324D01*
X114125678Y-114165000D01*
X112593013Y-114165000D01*
X112567990Y-114104589D01*
X112405475Y-113861368D01*
X112198632Y-113654525D01*
X111955411Y-113492010D01*
X111685158Y-113380068D01*
X111398260Y-113323000D01*
X111105740Y-113323000D01*
X110818842Y-113380068D01*
X110548589Y-113492010D01*
X110305368Y-113654525D01*
X110173513Y-113786380D01*
X110151502Y-113713820D01*
X110092537Y-113603506D01*
X110013185Y-113506815D01*
X109916494Y-113427463D01*
X109806180Y-113368498D01*
X109686482Y-113332188D01*
X109562000Y-113319928D01*
X107862000Y-113319928D01*
X107737518Y-113332188D01*
X107617820Y-113368498D01*
X107507506Y-113427463D01*
X107410815Y-113506815D01*
X107331463Y-113603506D01*
X107272498Y-113713820D01*
X107236188Y-113833518D01*
X107223928Y-113958000D01*
X107223928Y-115658000D01*
X107236188Y-115782482D01*
X107272498Y-115902180D01*
X107331463Y-116012494D01*
X107410815Y-116109185D01*
X107507506Y-116188537D01*
X107617820Y-116247502D01*
X107698466Y-116271966D01*
X107614412Y-116347731D01*
X107440359Y-116581080D01*
X107315175Y-116843901D01*
X107270524Y-116991110D01*
X107391845Y-117221000D01*
X108585000Y-117221000D01*
X108585000Y-117201000D01*
X108839000Y-117201000D01*
X108839000Y-117221000D01*
X111125000Y-117221000D01*
X111125000Y-117201000D01*
X111379000Y-117201000D01*
X111379000Y-117221000D01*
X112572155Y-117221000D01*
X112693476Y-116991110D01*
X112648825Y-116843901D01*
X112523641Y-116581080D01*
X112349588Y-116347731D01*
X112133355Y-116152822D01*
X112016466Y-116083195D01*
X112198632Y-115961475D01*
X112405475Y-115754632D01*
X112452002Y-115685000D01*
X113848199Y-115685000D01*
X115260201Y-117097003D01*
X115283999Y-117126001D01*
X115399724Y-117220974D01*
X115531753Y-117291546D01*
X115675014Y-117335003D01*
X115786667Y-117346000D01*
X115786675Y-117346000D01*
X115824000Y-117349676D01*
X115861325Y-117346000D01*
X121628678Y-117346000D01*
X121666000Y-117349676D01*
X121703322Y-117346000D01*
X121703333Y-117346000D01*
X121814986Y-117335003D01*
X121958247Y-117291546D01*
X122090276Y-117220974D01*
X122206001Y-117126001D01*
X122229804Y-117096997D01*
X123641802Y-115685000D01*
X132118954Y-115685000D01*
X132169463Y-115779494D01*
X132248815Y-115876185D01*
X132308296Y-115925000D01*
X132248815Y-115973815D01*
X132169463Y-116070506D01*
X132118954Y-116165000D01*
X131016323Y-116165000D01*
X130979000Y-116161324D01*
X130941677Y-116165000D01*
X130941667Y-116165000D01*
X130830014Y-116175997D01*
X130704601Y-116214040D01*
X130686753Y-116219454D01*
X130554723Y-116290026D01*
X130484410Y-116347731D01*
X130438999Y-116384999D01*
X130415201Y-116413997D01*
X128089199Y-118740000D01*
X125478632Y-118740000D01*
X125434537Y-118657506D01*
X125355185Y-118560815D01*
X125258494Y-118481463D01*
X125148180Y-118422498D01*
X125028482Y-118386188D01*
X124904000Y-118373928D01*
X123104000Y-118373928D01*
X122979518Y-118386188D01*
X122859820Y-118422498D01*
X122749506Y-118481463D01*
X122652815Y-118560815D01*
X122573463Y-118657506D01*
X122529368Y-118740000D01*
X119278632Y-118740000D01*
X119234537Y-118657506D01*
X119155185Y-118560815D01*
X119058494Y-118481463D01*
X118948180Y-118422498D01*
X118828482Y-118386188D01*
X118704000Y-118373928D01*
X116904000Y-118373928D01*
X116779518Y-118386188D01*
X116659820Y-118422498D01*
X116549506Y-118481463D01*
X116452815Y-118560815D01*
X116373463Y-118657506D01*
X116314498Y-118767820D01*
X116278188Y-118887518D01*
X116265928Y-119012000D01*
X116265928Y-120112000D01*
X116278188Y-120236482D01*
X116314498Y-120356180D01*
X116373463Y-120466494D01*
X116452815Y-120563185D01*
X116549506Y-120642537D01*
X116659820Y-120701502D01*
X116779518Y-120737812D01*
X116904000Y-120750072D01*
X118704000Y-120750072D01*
X118828482Y-120737812D01*
X118948180Y-120701502D01*
X119058494Y-120642537D01*
X119155185Y-120563185D01*
X119234537Y-120466494D01*
X119293502Y-120356180D01*
X119322678Y-120260000D01*
X122485322Y-120260000D01*
X122514498Y-120356180D01*
X122573463Y-120466494D01*
X122652815Y-120563185D01*
X122749506Y-120642537D01*
X122859820Y-120701502D01*
X122979518Y-120737812D01*
X123104000Y-120750072D01*
X124904000Y-120750072D01*
X125028482Y-120737812D01*
X125148180Y-120701502D01*
X125258494Y-120642537D01*
X125355185Y-120563185D01*
X125434537Y-120466494D01*
X125493502Y-120356180D01*
X125522678Y-120260000D01*
X128366678Y-120260000D01*
X128404000Y-120263676D01*
X128441322Y-120260000D01*
X128441333Y-120260000D01*
X128552986Y-120249003D01*
X128696247Y-120205546D01*
X128828276Y-120134974D01*
X128944001Y-120040001D01*
X128967804Y-120010997D01*
X131293802Y-117685000D01*
X132118954Y-117685000D01*
X132169463Y-117779494D01*
X132248815Y-117876185D01*
X132308296Y-117925000D01*
X132248815Y-117973815D01*
X132169463Y-118070506D01*
X132110498Y-118180820D01*
X132074188Y-118300518D01*
X132061928Y-118425000D01*
X132061928Y-119425000D01*
X132074188Y-119549482D01*
X132110498Y-119669180D01*
X132169463Y-119779494D01*
X132248815Y-119876185D01*
X132308296Y-119925000D01*
X132248815Y-119973815D01*
X132169463Y-120070506D01*
X132110498Y-120180820D01*
X132074188Y-120300518D01*
X132061928Y-120425000D01*
X132061928Y-121425000D01*
X132074188Y-121549482D01*
X132110498Y-121669180D01*
X132169463Y-121779494D01*
X132248815Y-121876185D01*
X132308296Y-121925000D01*
X132248815Y-121973815D01*
X132169463Y-122070506D01*
X132110498Y-122180820D01*
X132074188Y-122300518D01*
X132061928Y-122425000D01*
X132065000Y-122639250D01*
X132223750Y-122798000D01*
X133823000Y-122798000D01*
X133823000Y-122778000D01*
X134077000Y-122778000D01*
X134077000Y-122798000D01*
X135676250Y-122798000D01*
X135835000Y-122639250D01*
X135838072Y-122425000D01*
X135825812Y-122300518D01*
X135789502Y-122180820D01*
X135730537Y-122070506D01*
X135651185Y-121973815D01*
X135591704Y-121925000D01*
X135651185Y-121876185D01*
X135730537Y-121779494D01*
X135781046Y-121685000D01*
X135790199Y-121685000D01*
X136445000Y-122339802D01*
X136445000Y-122401939D01*
X136484774Y-122601898D01*
X136562795Y-122790256D01*
X136627389Y-122886928D01*
X136050000Y-122886928D01*
X135925518Y-122899188D01*
X135805820Y-122935498D01*
X135695506Y-122994463D01*
X135625397Y-123052000D01*
X134077000Y-123052000D01*
X134077000Y-123901250D01*
X134235750Y-124060000D01*
X135200000Y-124063072D01*
X135324482Y-124050812D01*
X135411928Y-124024286D01*
X135411928Y-125325000D01*
X135424188Y-125449482D01*
X135460498Y-125569180D01*
X135519463Y-125679494D01*
X135598815Y-125776185D01*
X135695506Y-125855537D01*
X135805820Y-125914502D01*
X135925518Y-125950812D01*
X136050000Y-125963072D01*
X137050000Y-125963072D01*
X137174482Y-125950812D01*
X137294180Y-125914502D01*
X137404494Y-125855537D01*
X137501185Y-125776185D01*
X137550000Y-125716704D01*
X137598815Y-125776185D01*
X137695506Y-125855537D01*
X137805820Y-125914502D01*
X137925518Y-125950812D01*
X138050000Y-125963072D01*
X139050000Y-125963072D01*
X139174482Y-125950812D01*
X139294180Y-125914502D01*
X139404494Y-125855537D01*
X139501185Y-125776185D01*
X139550000Y-125716704D01*
X139598815Y-125776185D01*
X139695506Y-125855537D01*
X139805820Y-125914502D01*
X139925518Y-125950812D01*
X140050000Y-125963072D01*
X141050000Y-125963072D01*
X141174482Y-125950812D01*
X141294180Y-125914502D01*
X141404494Y-125855537D01*
X141501185Y-125776185D01*
X141550000Y-125716704D01*
X141598815Y-125776185D01*
X141695506Y-125855537D01*
X141805820Y-125914502D01*
X141925518Y-125950812D01*
X142050000Y-125963072D01*
X143050000Y-125963072D01*
X143174482Y-125950812D01*
X143294180Y-125914502D01*
X143404494Y-125855537D01*
X143501185Y-125776185D01*
X143550000Y-125716704D01*
X143598815Y-125776185D01*
X143695506Y-125855537D01*
X143805820Y-125914502D01*
X143925518Y-125950812D01*
X144050000Y-125963072D01*
X145050000Y-125963072D01*
X145174482Y-125950812D01*
X145294180Y-125914502D01*
X145404494Y-125855537D01*
X145501185Y-125776185D01*
X145550000Y-125716704D01*
X145598815Y-125776185D01*
X145695506Y-125855537D01*
X145805820Y-125914502D01*
X145925518Y-125950812D01*
X146050000Y-125963072D01*
X147050000Y-125963072D01*
X147174482Y-125950812D01*
X147294180Y-125914502D01*
X147404494Y-125855537D01*
X147501185Y-125776185D01*
X147580537Y-125679494D01*
X147585338Y-125670512D01*
X165334783Y-125670512D01*
X165376213Y-125950130D01*
X165471397Y-126216292D01*
X165538329Y-126341514D01*
X165782298Y-126413097D01*
X166595395Y-125600000D01*
X166954605Y-125600000D01*
X167767702Y-126413097D01*
X168011671Y-126341514D01*
X168132571Y-126086004D01*
X168201300Y-125811816D01*
X168210730Y-125620512D01*
X186189783Y-125620512D01*
X186231213Y-125900130D01*
X186326397Y-126166292D01*
X186393329Y-126291514D01*
X186637298Y-126363097D01*
X187450395Y-125550000D01*
X187809605Y-125550000D01*
X188622702Y-126363097D01*
X188866671Y-126291514D01*
X188987571Y-126036004D01*
X189056300Y-125761816D01*
X189070217Y-125479488D01*
X189028787Y-125199870D01*
X188933603Y-124933708D01*
X188866671Y-124808486D01*
X188622702Y-124736903D01*
X187809605Y-125550000D01*
X187450395Y-125550000D01*
X186637298Y-124736903D01*
X186393329Y-124808486D01*
X186272429Y-125063996D01*
X186203700Y-125338184D01*
X186189783Y-125620512D01*
X168210730Y-125620512D01*
X168215217Y-125529488D01*
X168173787Y-125249870D01*
X168078603Y-124983708D01*
X168011671Y-124858486D01*
X167767702Y-124786903D01*
X166954605Y-125600000D01*
X166595395Y-125600000D01*
X165782298Y-124786903D01*
X165538329Y-124858486D01*
X165417429Y-125113996D01*
X165348700Y-125388184D01*
X165334783Y-125670512D01*
X147585338Y-125670512D01*
X147639502Y-125569180D01*
X147675812Y-125449482D01*
X147688072Y-125325000D01*
X147688072Y-124024286D01*
X147775518Y-124050812D01*
X147900000Y-124063072D01*
X150400000Y-124063072D01*
X150524482Y-124050812D01*
X150644180Y-124014502D01*
X150754494Y-123955537D01*
X150798871Y-123919118D01*
X150828102Y-123931226D01*
X151028061Y-123971000D01*
X151231939Y-123971000D01*
X151431898Y-123931226D01*
X151620256Y-123853205D01*
X151789774Y-123739937D01*
X151933937Y-123595774D01*
X152047205Y-123426256D01*
X152125226Y-123237898D01*
X152165000Y-123037939D01*
X152165000Y-122834061D01*
X152125226Y-122634102D01*
X152047205Y-122445744D01*
X151933937Y-122276226D01*
X151789774Y-122132063D01*
X151620256Y-122018795D01*
X151431898Y-121940774D01*
X151231939Y-121901000D01*
X151028061Y-121901000D01*
X150828102Y-121940774D01*
X150816686Y-121945503D01*
X150791704Y-121925000D01*
X150851185Y-121876185D01*
X150930537Y-121779494D01*
X150981046Y-121685000D01*
X165814876Y-121685000D01*
X165730820Y-121710498D01*
X165620506Y-121769463D01*
X165523815Y-121848815D01*
X165444463Y-121945506D01*
X165385498Y-122055820D01*
X165349188Y-122175518D01*
X165336928Y-122300000D01*
X165336928Y-123900000D01*
X165349188Y-124024482D01*
X165385498Y-124144180D01*
X165444463Y-124254494D01*
X165523815Y-124351185D01*
X165620506Y-124430537D01*
X165730820Y-124489502D01*
X165850518Y-124525812D01*
X165975000Y-124538072D01*
X165982215Y-124538072D01*
X165961903Y-124607298D01*
X166775000Y-125420395D01*
X167588097Y-124607298D01*
X167567785Y-124538072D01*
X167575000Y-124538072D01*
X167699482Y-124525812D01*
X167819180Y-124489502D01*
X167929494Y-124430537D01*
X168026185Y-124351185D01*
X168105537Y-124254494D01*
X168164502Y-124144180D01*
X168200812Y-124024482D01*
X168213072Y-123900000D01*
X168213072Y-122300000D01*
X168200812Y-122175518D01*
X168164502Y-122055820D01*
X168105537Y-121945506D01*
X168026185Y-121848815D01*
X167929494Y-121769463D01*
X167819180Y-121710498D01*
X167735124Y-121685000D01*
X186539981Y-121685000D01*
X186475506Y-121719463D01*
X186378815Y-121798815D01*
X186299463Y-121895506D01*
X186240498Y-122005820D01*
X186204188Y-122125518D01*
X186191928Y-122250000D01*
X186191928Y-123850000D01*
X186204188Y-123974482D01*
X186240498Y-124094180D01*
X186299463Y-124204494D01*
X186378815Y-124301185D01*
X186475506Y-124380537D01*
X186585820Y-124439502D01*
X186705518Y-124475812D01*
X186830000Y-124488072D01*
X186837215Y-124488072D01*
X186816903Y-124557298D01*
X187630000Y-125370395D01*
X188443097Y-124557298D01*
X188422785Y-124488072D01*
X188430000Y-124488072D01*
X188554482Y-124475812D01*
X188674180Y-124439502D01*
X188784494Y-124380537D01*
X188881185Y-124301185D01*
X188960537Y-124204494D01*
X189019502Y-124094180D01*
X189055812Y-123974482D01*
X189068072Y-123850000D01*
X189068072Y-122250000D01*
X189055812Y-122125518D01*
X189019502Y-122005820D01*
X188960537Y-121895506D01*
X188881185Y-121798815D01*
X188784494Y-121719463D01*
X188720019Y-121685000D01*
X191711678Y-121685000D01*
X191749000Y-121688676D01*
X191786322Y-121685000D01*
X191786333Y-121685000D01*
X191897986Y-121674003D01*
X192041247Y-121630546D01*
X192173276Y-121559974D01*
X192289001Y-121465001D01*
X192312804Y-121435997D01*
X193448802Y-120300000D01*
X196702659Y-120300000D01*
X196789880Y-120430535D01*
X196984465Y-120625120D01*
X197213273Y-120778005D01*
X197290515Y-120810000D01*
X197213273Y-120841995D01*
X196984465Y-120994880D01*
X196789880Y-121189465D01*
X196636995Y-121418273D01*
X196531686Y-121672510D01*
X196478000Y-121942408D01*
X196478000Y-122217592D01*
X196531686Y-122487490D01*
X196636995Y-122741727D01*
X196789880Y-122970535D01*
X196984465Y-123165120D01*
X197213273Y-123318005D01*
X197467510Y-123423314D01*
X197737408Y-123477000D01*
X198012592Y-123477000D01*
X198282490Y-123423314D01*
X198536727Y-123318005D01*
X198765535Y-123165120D01*
X198960120Y-122970535D01*
X199113005Y-122741727D01*
X199215001Y-122495489D01*
X199215001Y-128314473D01*
X191751050Y-128308728D01*
X191789000Y-128117939D01*
X191789000Y-127914061D01*
X191749226Y-127714102D01*
X191671205Y-127525744D01*
X191557937Y-127356226D01*
X191413774Y-127212063D01*
X191244256Y-127098795D01*
X191055898Y-127020774D01*
X190855939Y-126981000D01*
X190652061Y-126981000D01*
X190452102Y-127020774D01*
X190263744Y-127098795D01*
X190140715Y-127181000D01*
X103723868Y-127181000D01*
X103310000Y-126767132D01*
X103310000Y-126592702D01*
X165961903Y-126592702D01*
X166033486Y-126836671D01*
X166288996Y-126957571D01*
X166563184Y-127026300D01*
X166845512Y-127040217D01*
X167125130Y-126998787D01*
X167391292Y-126903603D01*
X167516514Y-126836671D01*
X167588097Y-126592702D01*
X167538097Y-126542702D01*
X186816903Y-126542702D01*
X186888486Y-126786671D01*
X187143996Y-126907571D01*
X187418184Y-126976300D01*
X187700512Y-126990217D01*
X187980130Y-126948787D01*
X188246292Y-126853603D01*
X188371514Y-126786671D01*
X188443097Y-126542702D01*
X187630000Y-125729605D01*
X186816903Y-126542702D01*
X167538097Y-126542702D01*
X166775000Y-125779605D01*
X165961903Y-126592702D01*
X103310000Y-126592702D01*
X103310000Y-123122227D01*
X103365535Y-123085120D01*
X103560120Y-122890535D01*
X103713005Y-122661727D01*
X103818314Y-122407490D01*
X103872000Y-122137592D01*
X103872000Y-121862408D01*
X103818314Y-121592510D01*
X103713005Y-121338273D01*
X103560120Y-121109465D01*
X103365535Y-120914880D01*
X103136727Y-120761995D01*
X102882490Y-120656686D01*
X102612592Y-120603000D01*
X102337408Y-120603000D01*
X102067510Y-120656686D01*
X101813273Y-120761995D01*
X101584465Y-120914880D01*
X101389880Y-121109465D01*
X101236995Y-121338273D01*
X101131686Y-121592510D01*
X101078000Y-121862408D01*
X101078000Y-122137592D01*
X101131686Y-122407490D01*
X101236995Y-122661727D01*
X101389880Y-122890535D01*
X101584465Y-123085120D01*
X101640001Y-123122228D01*
X101640000Y-127071981D01*
X101635960Y-127113000D01*
X101643847Y-127193082D01*
X101652082Y-127276688D01*
X101699828Y-127434086D01*
X101777364Y-127579145D01*
X101881709Y-127706291D01*
X101913578Y-127732445D01*
X102495032Y-128313900D01*
X100685000Y-128314698D01*
X100685000Y-119741740D01*
X107227000Y-119741740D01*
X107227000Y-120034260D01*
X107284068Y-120321158D01*
X107396010Y-120591411D01*
X107558525Y-120834632D01*
X107765368Y-121041475D01*
X108008589Y-121203990D01*
X108278842Y-121315932D01*
X108565740Y-121373000D01*
X108858260Y-121373000D01*
X109145158Y-121315932D01*
X109415411Y-121203990D01*
X109658632Y-121041475D01*
X109865475Y-120834632D01*
X109982000Y-120660240D01*
X110098525Y-120834632D01*
X110305368Y-121041475D01*
X110492000Y-121166179D01*
X110492000Y-122354677D01*
X110488324Y-122392000D01*
X110492000Y-122429322D01*
X110492000Y-122429332D01*
X110502997Y-122540985D01*
X110532805Y-122639250D01*
X110546454Y-122684246D01*
X110617026Y-122816276D01*
X110631622Y-122834061D01*
X110711999Y-122932001D01*
X110741003Y-122955804D01*
X113196201Y-125411003D01*
X113219999Y-125440001D01*
X113248997Y-125463799D01*
X113335724Y-125534974D01*
X113467753Y-125605546D01*
X113611014Y-125649003D01*
X113760000Y-125663677D01*
X113797333Y-125660000D01*
X117656289Y-125660000D01*
X117700226Y-125703937D01*
X117869744Y-125817205D01*
X118058102Y-125895226D01*
X118258061Y-125935000D01*
X118461939Y-125935000D01*
X118661898Y-125895226D01*
X118850256Y-125817205D01*
X119019774Y-125703937D01*
X119163937Y-125559774D01*
X119277205Y-125390256D01*
X119355226Y-125201898D01*
X119395000Y-125001939D01*
X119395000Y-124798061D01*
X119355226Y-124598102D01*
X119277205Y-124409744D01*
X119168465Y-124247003D01*
X119234537Y-124166494D01*
X119293502Y-124056180D01*
X119329812Y-123936482D01*
X119342072Y-123812000D01*
X122465928Y-123812000D01*
X122478188Y-123936482D01*
X122514498Y-124056180D01*
X122573463Y-124166494D01*
X122652815Y-124263185D01*
X122749506Y-124342537D01*
X122859820Y-124401502D01*
X122979518Y-124437812D01*
X123104000Y-124450072D01*
X123718250Y-124447000D01*
X123877000Y-124288250D01*
X123877000Y-123389000D01*
X124131000Y-123389000D01*
X124131000Y-124288250D01*
X124289750Y-124447000D01*
X124904000Y-124450072D01*
X125028482Y-124437812D01*
X125148180Y-124401502D01*
X125258494Y-124342537D01*
X125355185Y-124263185D01*
X125434537Y-124166494D01*
X125493502Y-124056180D01*
X125529812Y-123936482D01*
X125542072Y-123812000D01*
X125539000Y-123547750D01*
X125416250Y-123425000D01*
X132061928Y-123425000D01*
X132074188Y-123549482D01*
X132110498Y-123669180D01*
X132169463Y-123779494D01*
X132248815Y-123876185D01*
X132345506Y-123955537D01*
X132455820Y-124014502D01*
X132575518Y-124050812D01*
X132700000Y-124063072D01*
X133664250Y-124060000D01*
X133823000Y-123901250D01*
X133823000Y-123052000D01*
X132223750Y-123052000D01*
X132065000Y-123210750D01*
X132061928Y-123425000D01*
X125416250Y-123425000D01*
X125380250Y-123389000D01*
X124131000Y-123389000D01*
X123877000Y-123389000D01*
X122627750Y-123389000D01*
X122469000Y-123547750D01*
X122465928Y-123812000D01*
X119342072Y-123812000D01*
X119339000Y-123547750D01*
X119180250Y-123389000D01*
X117931000Y-123389000D01*
X117931000Y-123409000D01*
X117677000Y-123409000D01*
X117677000Y-123389000D01*
X116427750Y-123389000D01*
X116269000Y-123547750D01*
X116265928Y-123812000D01*
X116278188Y-123936482D01*
X116314498Y-124056180D01*
X116359301Y-124140000D01*
X114074802Y-124140000D01*
X112646802Y-122712000D01*
X116265928Y-122712000D01*
X116269000Y-122976250D01*
X116427750Y-123135000D01*
X117677000Y-123135000D01*
X117677000Y-122235750D01*
X117931000Y-122235750D01*
X117931000Y-123135000D01*
X119180250Y-123135000D01*
X119339000Y-122976250D01*
X119342072Y-122712000D01*
X122465928Y-122712000D01*
X122469000Y-122976250D01*
X122627750Y-123135000D01*
X123877000Y-123135000D01*
X123877000Y-122235750D01*
X124131000Y-122235750D01*
X124131000Y-123135000D01*
X125380250Y-123135000D01*
X125539000Y-122976250D01*
X125542072Y-122712000D01*
X125529812Y-122587518D01*
X125493502Y-122467820D01*
X125434537Y-122357506D01*
X125355185Y-122260815D01*
X125258494Y-122181463D01*
X125148180Y-122122498D01*
X125028482Y-122086188D01*
X124904000Y-122073928D01*
X124289750Y-122077000D01*
X124131000Y-122235750D01*
X123877000Y-122235750D01*
X123718250Y-122077000D01*
X123104000Y-122073928D01*
X122979518Y-122086188D01*
X122859820Y-122122498D01*
X122749506Y-122181463D01*
X122652815Y-122260815D01*
X122573463Y-122357506D01*
X122514498Y-122467820D01*
X122478188Y-122587518D01*
X122465928Y-122712000D01*
X119342072Y-122712000D01*
X119329812Y-122587518D01*
X119293502Y-122467820D01*
X119234537Y-122357506D01*
X119155185Y-122260815D01*
X119058494Y-122181463D01*
X118948180Y-122122498D01*
X118828482Y-122086188D01*
X118704000Y-122073928D01*
X118089750Y-122077000D01*
X117931000Y-122235750D01*
X117677000Y-122235750D01*
X117518250Y-122077000D01*
X116904000Y-122073928D01*
X116779518Y-122086188D01*
X116659820Y-122122498D01*
X116549506Y-122181463D01*
X116452815Y-122260815D01*
X116373463Y-122357506D01*
X116314498Y-122467820D01*
X116278188Y-122587518D01*
X116265928Y-122712000D01*
X112646802Y-122712000D01*
X112012000Y-122077199D01*
X112012000Y-121166178D01*
X112198632Y-121041475D01*
X112405475Y-120834632D01*
X112567990Y-120591411D01*
X112679932Y-120321158D01*
X112737000Y-120034260D01*
X112737000Y-119741740D01*
X112679932Y-119454842D01*
X112567990Y-119184589D01*
X112405475Y-118941368D01*
X112198632Y-118734525D01*
X112016466Y-118612805D01*
X112133355Y-118543178D01*
X112349588Y-118348269D01*
X112523641Y-118114920D01*
X112648825Y-117852099D01*
X112693476Y-117704890D01*
X112572155Y-117475000D01*
X111379000Y-117475000D01*
X111379000Y-117495000D01*
X111125000Y-117495000D01*
X111125000Y-117475000D01*
X108839000Y-117475000D01*
X108839000Y-117495000D01*
X108585000Y-117495000D01*
X108585000Y-117475000D01*
X107391845Y-117475000D01*
X107270524Y-117704890D01*
X107315175Y-117852099D01*
X107440359Y-118114920D01*
X107614412Y-118348269D01*
X107830645Y-118543178D01*
X107947534Y-118612805D01*
X107765368Y-118734525D01*
X107558525Y-118941368D01*
X107396010Y-119184589D01*
X107284068Y-119454842D01*
X107227000Y-119741740D01*
X100685000Y-119741740D01*
X100685000Y-117965565D01*
X101689040Y-117965565D01*
X101756020Y-118205656D01*
X102005048Y-118322756D01*
X102272135Y-118389023D01*
X102547017Y-118401910D01*
X102819133Y-118360922D01*
X103078023Y-118267636D01*
X103193980Y-118205656D01*
X103260960Y-117965565D01*
X102475000Y-117179605D01*
X101689040Y-117965565D01*
X100685000Y-117965565D01*
X100685000Y-117072017D01*
X101073090Y-117072017D01*
X101114078Y-117344133D01*
X101207364Y-117603023D01*
X101269344Y-117718980D01*
X101509435Y-117785960D01*
X102295395Y-117000000D01*
X102654605Y-117000000D01*
X103440565Y-117785960D01*
X103680656Y-117718980D01*
X103797756Y-117469952D01*
X103864023Y-117202865D01*
X103876910Y-116927983D01*
X103835922Y-116655867D01*
X103742636Y-116396977D01*
X103680656Y-116281020D01*
X103440565Y-116214040D01*
X102654605Y-117000000D01*
X102295395Y-117000000D01*
X101509435Y-116214040D01*
X101269344Y-116281020D01*
X101152244Y-116530048D01*
X101085977Y-116797135D01*
X101073090Y-117072017D01*
X100685000Y-117072017D01*
X100685000Y-116034435D01*
X101689040Y-116034435D01*
X102475000Y-116820395D01*
X103260960Y-116034435D01*
X103193980Y-115794344D01*
X102944952Y-115677244D01*
X102677865Y-115610977D01*
X102402983Y-115598090D01*
X102130867Y-115639078D01*
X101871977Y-115732364D01*
X101756020Y-115794344D01*
X101689040Y-116034435D01*
X100685000Y-116034435D01*
X100685000Y-112965565D01*
X101689040Y-112965565D01*
X101756020Y-113205656D01*
X102005048Y-113322756D01*
X102272135Y-113389023D01*
X102547017Y-113401910D01*
X102819133Y-113360922D01*
X103078023Y-113267636D01*
X103193980Y-113205656D01*
X103260960Y-112965565D01*
X102475000Y-112179605D01*
X101689040Y-112965565D01*
X100685000Y-112965565D01*
X100685000Y-112072017D01*
X101073090Y-112072017D01*
X101114078Y-112344133D01*
X101207364Y-112603023D01*
X101269344Y-112718980D01*
X101509435Y-112785960D01*
X102295395Y-112000000D01*
X102654605Y-112000000D01*
X103440565Y-112785960D01*
X103680656Y-112718980D01*
X103797756Y-112469952D01*
X103864023Y-112202865D01*
X103876910Y-111927983D01*
X103835922Y-111655867D01*
X103742636Y-111396977D01*
X103680656Y-111281020D01*
X103440565Y-111214040D01*
X102654605Y-112000000D01*
X102295395Y-112000000D01*
X101509435Y-111214040D01*
X101269344Y-111281020D01*
X101152244Y-111530048D01*
X101085977Y-111797135D01*
X101073090Y-112072017D01*
X100685000Y-112072017D01*
X100685000Y-100660000D01*
X128785721Y-100660000D01*
X129174775Y-100698147D01*
%TA.AperFunction,Conductor*%
D25*
G36*
X129174775Y-100698147D02*
G01*
X129517967Y-100801763D01*
X129834489Y-100970062D01*
X130112299Y-101196637D01*
X130340806Y-101472856D01*
X130511310Y-101788197D01*
X130617319Y-102130656D01*
X130658000Y-102517713D01*
X130658001Y-105532419D01*
X130660886Y-105561709D01*
X130660777Y-105577271D01*
X130661677Y-105586442D01*
X130712678Y-106071684D01*
X130724699Y-106130247D01*
X130735914Y-106189040D01*
X130738578Y-106197862D01*
X130882858Y-106663956D01*
X130906033Y-106719086D01*
X130928447Y-106774565D01*
X130932774Y-106782701D01*
X131164838Y-107211894D01*
X131198271Y-107261461D01*
X131231042Y-107311540D01*
X131236867Y-107318681D01*
X131547875Y-107694627D01*
X131590311Y-107736767D01*
X131632174Y-107779517D01*
X131639275Y-107785391D01*
X132017382Y-108093767D01*
X132067191Y-108126859D01*
X132116563Y-108160666D01*
X132120215Y-108162640D01*
X132110498Y-108180820D01*
X132074188Y-108300518D01*
X132061928Y-108425000D01*
X132061928Y-109425000D01*
X132074188Y-109549482D01*
X132110498Y-109669180D01*
X132169463Y-109779494D01*
X132248815Y-109876185D01*
X132308296Y-109925000D01*
X132248815Y-109973815D01*
X132169463Y-110070506D01*
X132110498Y-110180820D01*
X132074188Y-110300518D01*
X132061928Y-110425000D01*
X132061928Y-110455686D01*
X132059226Y-110442102D01*
X131981205Y-110253744D01*
X131867937Y-110084226D01*
X131723774Y-109940063D01*
X131554256Y-109826795D01*
X131365898Y-109748774D01*
X131165939Y-109709000D01*
X131103802Y-109709000D01*
X130300000Y-108905199D01*
X130300000Y-103415322D01*
X130303676Y-103377999D01*
X130300000Y-103340676D01*
X130300000Y-103340667D01*
X130289003Y-103229014D01*
X130245546Y-103085753D01*
X130174974Y-102953724D01*
X130080001Y-102837999D01*
X130051003Y-102814201D01*
X128833804Y-101597003D01*
X128810001Y-101567999D01*
X128694276Y-101473026D01*
X128562247Y-101402454D01*
X128418986Y-101358997D01*
X128307333Y-101348000D01*
X128307322Y-101348000D01*
X128270000Y-101344324D01*
X128232678Y-101348000D01*
X107479325Y-101348000D01*
X107442000Y-101344324D01*
X107404675Y-101348000D01*
X107404667Y-101348000D01*
X107293014Y-101358997D01*
X107149753Y-101402454D01*
X107017724Y-101473026D01*
X106901999Y-101567999D01*
X106878201Y-101596997D01*
X105152998Y-103322201D01*
X105124000Y-103345999D01*
X105100202Y-103374997D01*
X105100201Y-103374998D01*
X105029026Y-103461724D01*
X104958454Y-103593754D01*
X104914998Y-103737015D01*
X104900324Y-103886000D01*
X104904001Y-103923332D01*
X104904000Y-107635197D01*
X103839199Y-108700000D01*
X103647341Y-108700000D01*
X103560120Y-108569465D01*
X103365535Y-108374880D01*
X103136727Y-108221995D01*
X103059485Y-108190000D01*
X103136727Y-108158005D01*
X103365535Y-108005120D01*
X103560120Y-107810535D01*
X103713005Y-107581727D01*
X103818314Y-107327490D01*
X103872000Y-107057592D01*
X103872000Y-106782408D01*
X103818314Y-106512510D01*
X103713005Y-106258273D01*
X103560120Y-106029465D01*
X103365535Y-105834880D01*
X103136727Y-105681995D01*
X102882490Y-105576686D01*
X102612592Y-105523000D01*
X102337408Y-105523000D01*
X102067510Y-105576686D01*
X101813273Y-105681995D01*
X101584465Y-105834880D01*
X101389880Y-106029465D01*
X101236995Y-106258273D01*
X101131686Y-106512510D01*
X101078000Y-106782408D01*
X101078000Y-107057592D01*
X101131686Y-107327490D01*
X101236995Y-107581727D01*
X101389880Y-107810535D01*
X101584465Y-108005120D01*
X101813273Y-108158005D01*
X101890515Y-108190000D01*
X101813273Y-108221995D01*
X101584465Y-108374880D01*
X101389880Y-108569465D01*
X101236995Y-108798273D01*
X101131686Y-109052510D01*
X101078000Y-109322408D01*
X101078000Y-109597592D01*
X101131686Y-109867490D01*
X101236995Y-110121727D01*
X101389880Y-110350535D01*
X101584465Y-110545120D01*
X101813273Y-110698005D01*
X101884943Y-110727692D01*
X101871977Y-110732364D01*
X101756020Y-110794344D01*
X101689040Y-111034435D01*
X102475000Y-111820395D01*
X103260960Y-111034435D01*
X103193980Y-110794344D01*
X103058240Y-110730515D01*
X103136727Y-110698005D01*
X103365535Y-110545120D01*
X103560120Y-110350535D01*
X103647341Y-110220000D01*
X104116678Y-110220000D01*
X104154000Y-110223676D01*
X104191322Y-110220000D01*
X104191333Y-110220000D01*
X104302986Y-110209003D01*
X104446247Y-110165546D01*
X104578276Y-110094974D01*
X104694001Y-110000001D01*
X104717803Y-109970998D01*
X106175009Y-108513794D01*
X106204001Y-108490001D01*
X106227795Y-108461008D01*
X106227799Y-108461004D01*
X106298973Y-108374277D01*
X106298974Y-108374276D01*
X106369546Y-108242247D01*
X106413003Y-108098986D01*
X106424000Y-107987333D01*
X106424000Y-107987324D01*
X106427676Y-107950001D01*
X106424000Y-107912678D01*
X106424000Y-104200801D01*
X107756802Y-102868000D01*
X127955199Y-102868000D01*
X128780001Y-103692803D01*
X128780000Y-109182677D01*
X128776324Y-109220000D01*
X128780000Y-109257322D01*
X128780000Y-109257332D01*
X128790997Y-109368985D01*
X128818606Y-109460000D01*
X128834454Y-109512246D01*
X128905026Y-109644276D01*
X128929422Y-109674002D01*
X128999999Y-109760001D01*
X129029002Y-109783803D01*
X130029000Y-110783802D01*
X130029000Y-110845939D01*
X130068774Y-111045898D01*
X130146795Y-111234256D01*
X130260063Y-111403774D01*
X130404226Y-111547937D01*
X130573744Y-111661205D01*
X130762102Y-111739226D01*
X130962061Y-111779000D01*
X131165939Y-111779000D01*
X131365898Y-111739226D01*
X131554256Y-111661205D01*
X131723774Y-111547937D01*
X131867937Y-111403774D01*
X131981205Y-111234256D01*
X132059226Y-111045898D01*
X132061928Y-111032314D01*
X132061928Y-111425000D01*
X132074188Y-111549482D01*
X132110498Y-111669180D01*
X132169463Y-111779494D01*
X132248815Y-111876185D01*
X132308296Y-111925000D01*
X132248815Y-111973815D01*
X132169463Y-112070506D01*
X132118954Y-112165000D01*
X128225802Y-112165000D01*
X127506000Y-111445199D01*
X127506000Y-104843711D01*
X127549937Y-104799774D01*
X127663205Y-104630256D01*
X127741226Y-104441898D01*
X127781000Y-104241939D01*
X127781000Y-104038061D01*
X127741226Y-103838102D01*
X127663205Y-103649744D01*
X127549937Y-103480226D01*
X127405774Y-103336063D01*
X127236256Y-103222795D01*
X127047898Y-103144774D01*
X126847939Y-103105000D01*
X126644061Y-103105000D01*
X126444102Y-103144774D01*
X126255744Y-103222795D01*
X126086226Y-103336063D01*
X125942063Y-103480226D01*
X125828795Y-103649744D01*
X125750774Y-103838102D01*
X125711000Y-104038061D01*
X125711000Y-104241939D01*
X125750774Y-104441898D01*
X125828795Y-104630256D01*
X125942063Y-104799774D01*
X125986000Y-104843711D01*
X125986000Y-104864668D01*
X125986001Y-111722668D01*
X125982324Y-111760000D01*
X125996998Y-111908985D01*
X126040454Y-112052246D01*
X126111026Y-112184276D01*
X126157167Y-112240498D01*
X126206000Y-112300001D01*
X126234998Y-112323799D01*
X127347201Y-113436003D01*
X127370999Y-113465001D01*
X127486724Y-113559974D01*
X127618753Y-113630546D01*
X127762014Y-113674003D01*
X127873667Y-113685000D01*
X127873677Y-113685000D01*
X127911000Y-113688676D01*
X127948323Y-113685000D01*
X132118954Y-113685000D01*
X132169463Y-113779494D01*
X132248815Y-113876185D01*
X132308296Y-113925000D01*
X132248815Y-113973815D01*
X132169463Y-114070506D01*
X132118954Y-114165000D01*
X123364325Y-114165000D01*
X123327000Y-114161324D01*
X123289675Y-114165000D01*
X123289667Y-114165000D01*
X123178014Y-114175997D01*
X123034753Y-114219454D01*
X122902724Y-114290026D01*
X122786999Y-114384999D01*
X122763202Y-114413996D01*
X121351199Y-115826000D01*
X116138802Y-115826000D01*
X114764863Y-114452061D01*
X117329000Y-114452061D01*
X117329000Y-114655939D01*
X117368774Y-114855898D01*
X117446795Y-115044256D01*
X117560063Y-115213774D01*
X117704226Y-115357937D01*
X117873744Y-115471205D01*
X118062102Y-115549226D01*
X118262061Y-115589000D01*
X118465939Y-115589000D01*
X118665898Y-115549226D01*
X118854256Y-115471205D01*
X119023774Y-115357937D01*
X119167937Y-115213774D01*
X119281205Y-115044256D01*
X119359226Y-114855898D01*
X119399000Y-114655939D01*
X119399000Y-114452061D01*
X119359226Y-114252102D01*
X119281205Y-114063744D01*
X119199000Y-113940715D01*
X119199000Y-113883867D01*
X120195426Y-112887442D01*
X120227291Y-112861291D01*
X120331636Y-112734146D01*
X120409172Y-112589087D01*
X120456918Y-112431689D01*
X120469000Y-112309019D01*
X120469000Y-112309017D01*
X120473040Y-112268001D01*
X120469000Y-112226985D01*
X120469000Y-104753285D01*
X120551205Y-104630256D01*
X120629226Y-104441898D01*
X120669000Y-104241939D01*
X120669000Y-104038061D01*
X120629226Y-103838102D01*
X120551205Y-103649744D01*
X120437937Y-103480226D01*
X120293774Y-103336063D01*
X120124256Y-103222795D01*
X119935898Y-103144774D01*
X119735939Y-103105000D01*
X119532061Y-103105000D01*
X119332102Y-103144774D01*
X119143744Y-103222795D01*
X118974226Y-103336063D01*
X118830063Y-103480226D01*
X118716795Y-103649744D01*
X118638774Y-103838102D01*
X118599000Y-104038061D01*
X118599000Y-104241939D01*
X118638774Y-104441898D01*
X118716795Y-104630256D01*
X118799000Y-104753285D01*
X118799001Y-111922131D01*
X117802574Y-112918559D01*
X117770710Y-112944709D01*
X117713925Y-113013902D01*
X117666364Y-113071855D01*
X117588828Y-113216914D01*
X117541082Y-113374312D01*
X117524960Y-113538000D01*
X117529001Y-113579028D01*
X117529001Y-113940714D01*
X117446795Y-114063744D01*
X117368774Y-114252102D01*
X117329000Y-114452061D01*
X114764863Y-114452061D01*
X114726804Y-114414003D01*
X114703001Y-114384999D01*
X114587276Y-114290026D01*
X114455247Y-114219454D01*
X114311986Y-114175997D01*
X114200333Y-114165000D01*
X114200322Y-114165000D01*
X114163000Y-114161324D01*
X114125678Y-114165000D01*
X112593013Y-114165000D01*
X112567990Y-114104589D01*
X112405475Y-113861368D01*
X112198632Y-113654525D01*
X111955411Y-113492010D01*
X111685158Y-113380068D01*
X111398260Y-113323000D01*
X111105740Y-113323000D01*
X110818842Y-113380068D01*
X110548589Y-113492010D01*
X110305368Y-113654525D01*
X110173513Y-113786380D01*
X110151502Y-113713820D01*
X110092537Y-113603506D01*
X110013185Y-113506815D01*
X109916494Y-113427463D01*
X109806180Y-113368498D01*
X109686482Y-113332188D01*
X109562000Y-113319928D01*
X107862000Y-113319928D01*
X107737518Y-113332188D01*
X107617820Y-113368498D01*
X107507506Y-113427463D01*
X107410815Y-113506815D01*
X107331463Y-113603506D01*
X107272498Y-113713820D01*
X107236188Y-113833518D01*
X107223928Y-113958000D01*
X107223928Y-115658000D01*
X107236188Y-115782482D01*
X107272498Y-115902180D01*
X107331463Y-116012494D01*
X107410815Y-116109185D01*
X107507506Y-116188537D01*
X107617820Y-116247502D01*
X107698466Y-116271966D01*
X107614412Y-116347731D01*
X107440359Y-116581080D01*
X107315175Y-116843901D01*
X107270524Y-116991110D01*
X107391845Y-117221000D01*
X108585000Y-117221000D01*
X108585000Y-117201000D01*
X108839000Y-117201000D01*
X108839000Y-117221000D01*
X111125000Y-117221000D01*
X111125000Y-117201000D01*
X111379000Y-117201000D01*
X111379000Y-117221000D01*
X112572155Y-117221000D01*
X112693476Y-116991110D01*
X112648825Y-116843901D01*
X112523641Y-116581080D01*
X112349588Y-116347731D01*
X112133355Y-116152822D01*
X112016466Y-116083195D01*
X112198632Y-115961475D01*
X112405475Y-115754632D01*
X112452002Y-115685000D01*
X113848199Y-115685000D01*
X115260201Y-117097003D01*
X115283999Y-117126001D01*
X115399724Y-117220974D01*
X115531753Y-117291546D01*
X115675014Y-117335003D01*
X115786667Y-117346000D01*
X115786675Y-117346000D01*
X115824000Y-117349676D01*
X115861325Y-117346000D01*
X121628678Y-117346000D01*
X121666000Y-117349676D01*
X121703322Y-117346000D01*
X121703333Y-117346000D01*
X121814986Y-117335003D01*
X121958247Y-117291546D01*
X122090276Y-117220974D01*
X122206001Y-117126001D01*
X122229804Y-117096997D01*
X123641802Y-115685000D01*
X132118954Y-115685000D01*
X132169463Y-115779494D01*
X132248815Y-115876185D01*
X132308296Y-115925000D01*
X132248815Y-115973815D01*
X132169463Y-116070506D01*
X132118954Y-116165000D01*
X131016323Y-116165000D01*
X130979000Y-116161324D01*
X130941677Y-116165000D01*
X130941667Y-116165000D01*
X130830014Y-116175997D01*
X130704601Y-116214040D01*
X130686753Y-116219454D01*
X130554723Y-116290026D01*
X130484410Y-116347731D01*
X130438999Y-116384999D01*
X130415201Y-116413997D01*
X128089199Y-118740000D01*
X125478632Y-118740000D01*
X125434537Y-118657506D01*
X125355185Y-118560815D01*
X125258494Y-118481463D01*
X125148180Y-118422498D01*
X125028482Y-118386188D01*
X124904000Y-118373928D01*
X123104000Y-118373928D01*
X122979518Y-118386188D01*
X122859820Y-118422498D01*
X122749506Y-118481463D01*
X122652815Y-118560815D01*
X122573463Y-118657506D01*
X122529368Y-118740000D01*
X119278632Y-118740000D01*
X119234537Y-118657506D01*
X119155185Y-118560815D01*
X119058494Y-118481463D01*
X118948180Y-118422498D01*
X118828482Y-118386188D01*
X118704000Y-118373928D01*
X116904000Y-118373928D01*
X116779518Y-118386188D01*
X116659820Y-118422498D01*
X116549506Y-118481463D01*
X116452815Y-118560815D01*
X116373463Y-118657506D01*
X116314498Y-118767820D01*
X116278188Y-118887518D01*
X116265928Y-119012000D01*
X116265928Y-120112000D01*
X116278188Y-120236482D01*
X116314498Y-120356180D01*
X116373463Y-120466494D01*
X116452815Y-120563185D01*
X116549506Y-120642537D01*
X116659820Y-120701502D01*
X116779518Y-120737812D01*
X116904000Y-120750072D01*
X118704000Y-120750072D01*
X118828482Y-120737812D01*
X118948180Y-120701502D01*
X119058494Y-120642537D01*
X119155185Y-120563185D01*
X119234537Y-120466494D01*
X119293502Y-120356180D01*
X119322678Y-120260000D01*
X122485322Y-120260000D01*
X122514498Y-120356180D01*
X122573463Y-120466494D01*
X122652815Y-120563185D01*
X122749506Y-120642537D01*
X122859820Y-120701502D01*
X122979518Y-120737812D01*
X123104000Y-120750072D01*
X124904000Y-120750072D01*
X125028482Y-120737812D01*
X125148180Y-120701502D01*
X125258494Y-120642537D01*
X125355185Y-120563185D01*
X125434537Y-120466494D01*
X125493502Y-120356180D01*
X125522678Y-120260000D01*
X128366678Y-120260000D01*
X128404000Y-120263676D01*
X128441322Y-120260000D01*
X128441333Y-120260000D01*
X128552986Y-120249003D01*
X128696247Y-120205546D01*
X128828276Y-120134974D01*
X128944001Y-120040001D01*
X128967804Y-120010997D01*
X131293802Y-117685000D01*
X132118954Y-117685000D01*
X132169463Y-117779494D01*
X132248815Y-117876185D01*
X132308296Y-117925000D01*
X132248815Y-117973815D01*
X132169463Y-118070506D01*
X132110498Y-118180820D01*
X132074188Y-118300518D01*
X132061928Y-118425000D01*
X132061928Y-119425000D01*
X132074188Y-119549482D01*
X132110498Y-119669180D01*
X132169463Y-119779494D01*
X132248815Y-119876185D01*
X132308296Y-119925000D01*
X132248815Y-119973815D01*
X132169463Y-120070506D01*
X132110498Y-120180820D01*
X132074188Y-120300518D01*
X132061928Y-120425000D01*
X132061928Y-121425000D01*
X132074188Y-121549482D01*
X132110498Y-121669180D01*
X132169463Y-121779494D01*
X132248815Y-121876185D01*
X132308296Y-121925000D01*
X132248815Y-121973815D01*
X132169463Y-122070506D01*
X132110498Y-122180820D01*
X132074188Y-122300518D01*
X132061928Y-122425000D01*
X132065000Y-122639250D01*
X132223750Y-122798000D01*
X133823000Y-122798000D01*
X133823000Y-122778000D01*
X134077000Y-122778000D01*
X134077000Y-122798000D01*
X135676250Y-122798000D01*
X135835000Y-122639250D01*
X135838072Y-122425000D01*
X135825812Y-122300518D01*
X135789502Y-122180820D01*
X135730537Y-122070506D01*
X135651185Y-121973815D01*
X135591704Y-121925000D01*
X135651185Y-121876185D01*
X135730537Y-121779494D01*
X135781046Y-121685000D01*
X135790199Y-121685000D01*
X136445000Y-122339802D01*
X136445000Y-122401939D01*
X136484774Y-122601898D01*
X136562795Y-122790256D01*
X136627389Y-122886928D01*
X136050000Y-122886928D01*
X135925518Y-122899188D01*
X135805820Y-122935498D01*
X135695506Y-122994463D01*
X135625397Y-123052000D01*
X134077000Y-123052000D01*
X134077000Y-123901250D01*
X134235750Y-124060000D01*
X135200000Y-124063072D01*
X135324482Y-124050812D01*
X135411928Y-124024286D01*
X135411928Y-125325000D01*
X135424188Y-125449482D01*
X135460498Y-125569180D01*
X135519463Y-125679494D01*
X135598815Y-125776185D01*
X135695506Y-125855537D01*
X135805820Y-125914502D01*
X135925518Y-125950812D01*
X136050000Y-125963072D01*
X137050000Y-125963072D01*
X137174482Y-125950812D01*
X137294180Y-125914502D01*
X137404494Y-125855537D01*
X137501185Y-125776185D01*
X137550000Y-125716704D01*
X137598815Y-125776185D01*
X137695506Y-125855537D01*
X137805820Y-125914502D01*
X137925518Y-125950812D01*
X138050000Y-125963072D01*
X139050000Y-125963072D01*
X139174482Y-125950812D01*
X139294180Y-125914502D01*
X139404494Y-125855537D01*
X139501185Y-125776185D01*
X139550000Y-125716704D01*
X139598815Y-125776185D01*
X139695506Y-125855537D01*
X139805820Y-125914502D01*
X139925518Y-125950812D01*
X140050000Y-125963072D01*
X141050000Y-125963072D01*
X141174482Y-125950812D01*
X141294180Y-125914502D01*
X141404494Y-125855537D01*
X141501185Y-125776185D01*
X141550000Y-125716704D01*
X141598815Y-125776185D01*
X141695506Y-125855537D01*
X141805820Y-125914502D01*
X141925518Y-125950812D01*
X142050000Y-125963072D01*
X143050000Y-125963072D01*
X143174482Y-125950812D01*
X143294180Y-125914502D01*
X143404494Y-125855537D01*
X143501185Y-125776185D01*
X143550000Y-125716704D01*
X143598815Y-125776185D01*
X143695506Y-125855537D01*
X143805820Y-125914502D01*
X143925518Y-125950812D01*
X144050000Y-125963072D01*
X145050000Y-125963072D01*
X145174482Y-125950812D01*
X145294180Y-125914502D01*
X145404494Y-125855537D01*
X145501185Y-125776185D01*
X145550000Y-125716704D01*
X145598815Y-125776185D01*
X145695506Y-125855537D01*
X145805820Y-125914502D01*
X145925518Y-125950812D01*
X146050000Y-125963072D01*
X147050000Y-125963072D01*
X147174482Y-125950812D01*
X147294180Y-125914502D01*
X147404494Y-125855537D01*
X147501185Y-125776185D01*
X147580537Y-125679494D01*
X147585338Y-125670512D01*
X165334783Y-125670512D01*
X165376213Y-125950130D01*
X165471397Y-126216292D01*
X165538329Y-126341514D01*
X165782298Y-126413097D01*
X166595395Y-125600000D01*
X166954605Y-125600000D01*
X167767702Y-126413097D01*
X168011671Y-126341514D01*
X168132571Y-126086004D01*
X168201300Y-125811816D01*
X168210730Y-125620512D01*
X186189783Y-125620512D01*
X186231213Y-125900130D01*
X186326397Y-126166292D01*
X186393329Y-126291514D01*
X186637298Y-126363097D01*
X187450395Y-125550000D01*
X187809605Y-125550000D01*
X188622702Y-126363097D01*
X188866671Y-126291514D01*
X188987571Y-126036004D01*
X189056300Y-125761816D01*
X189070217Y-125479488D01*
X189028787Y-125199870D01*
X188933603Y-124933708D01*
X188866671Y-124808486D01*
X188622702Y-124736903D01*
X187809605Y-125550000D01*
X187450395Y-125550000D01*
X186637298Y-124736903D01*
X186393329Y-124808486D01*
X186272429Y-125063996D01*
X186203700Y-125338184D01*
X186189783Y-125620512D01*
X168210730Y-125620512D01*
X168215217Y-125529488D01*
X168173787Y-125249870D01*
X168078603Y-124983708D01*
X168011671Y-124858486D01*
X167767702Y-124786903D01*
X166954605Y-125600000D01*
X166595395Y-125600000D01*
X165782298Y-124786903D01*
X165538329Y-124858486D01*
X165417429Y-125113996D01*
X165348700Y-125388184D01*
X165334783Y-125670512D01*
X147585338Y-125670512D01*
X147639502Y-125569180D01*
X147675812Y-125449482D01*
X147688072Y-125325000D01*
X147688072Y-124024286D01*
X147775518Y-124050812D01*
X147900000Y-124063072D01*
X150400000Y-124063072D01*
X150524482Y-124050812D01*
X150644180Y-124014502D01*
X150754494Y-123955537D01*
X150798871Y-123919118D01*
X150828102Y-123931226D01*
X151028061Y-123971000D01*
X151231939Y-123971000D01*
X151431898Y-123931226D01*
X151620256Y-123853205D01*
X151789774Y-123739937D01*
X151933937Y-123595774D01*
X152047205Y-123426256D01*
X152125226Y-123237898D01*
X152165000Y-123037939D01*
X152165000Y-122834061D01*
X152125226Y-122634102D01*
X152047205Y-122445744D01*
X151933937Y-122276226D01*
X151789774Y-122132063D01*
X151620256Y-122018795D01*
X151431898Y-121940774D01*
X151231939Y-121901000D01*
X151028061Y-121901000D01*
X150828102Y-121940774D01*
X150816686Y-121945503D01*
X150791704Y-121925000D01*
X150851185Y-121876185D01*
X150930537Y-121779494D01*
X150981046Y-121685000D01*
X165814876Y-121685000D01*
X165730820Y-121710498D01*
X165620506Y-121769463D01*
X165523815Y-121848815D01*
X165444463Y-121945506D01*
X165385498Y-122055820D01*
X165349188Y-122175518D01*
X165336928Y-122300000D01*
X165336928Y-123900000D01*
X165349188Y-124024482D01*
X165385498Y-124144180D01*
X165444463Y-124254494D01*
X165523815Y-124351185D01*
X165620506Y-124430537D01*
X165730820Y-124489502D01*
X165850518Y-124525812D01*
X165975000Y-124538072D01*
X165982215Y-124538072D01*
X165961903Y-124607298D01*
X166775000Y-125420395D01*
X167588097Y-124607298D01*
X167567785Y-124538072D01*
X167575000Y-124538072D01*
X167699482Y-124525812D01*
X167819180Y-124489502D01*
X167929494Y-124430537D01*
X168026185Y-124351185D01*
X168105537Y-124254494D01*
X168164502Y-124144180D01*
X168200812Y-124024482D01*
X168213072Y-123900000D01*
X168213072Y-122300000D01*
X168200812Y-122175518D01*
X168164502Y-122055820D01*
X168105537Y-121945506D01*
X168026185Y-121848815D01*
X167929494Y-121769463D01*
X167819180Y-121710498D01*
X167735124Y-121685000D01*
X186539981Y-121685000D01*
X186475506Y-121719463D01*
X186378815Y-121798815D01*
X186299463Y-121895506D01*
X186240498Y-122005820D01*
X186204188Y-122125518D01*
X186191928Y-122250000D01*
X186191928Y-123850000D01*
X186204188Y-123974482D01*
X186240498Y-124094180D01*
X186299463Y-124204494D01*
X186378815Y-124301185D01*
X186475506Y-124380537D01*
X186585820Y-124439502D01*
X186705518Y-124475812D01*
X186830000Y-124488072D01*
X186837215Y-124488072D01*
X186816903Y-124557298D01*
X187630000Y-125370395D01*
X188443097Y-124557298D01*
X188422785Y-124488072D01*
X188430000Y-124488072D01*
X188554482Y-124475812D01*
X188674180Y-124439502D01*
X188784494Y-124380537D01*
X188881185Y-124301185D01*
X188960537Y-124204494D01*
X189019502Y-124094180D01*
X189055812Y-123974482D01*
X189068072Y-123850000D01*
X189068072Y-122250000D01*
X189055812Y-122125518D01*
X189019502Y-122005820D01*
X188960537Y-121895506D01*
X188881185Y-121798815D01*
X188784494Y-121719463D01*
X188720019Y-121685000D01*
X191711678Y-121685000D01*
X191749000Y-121688676D01*
X191786322Y-121685000D01*
X191786333Y-121685000D01*
X191897986Y-121674003D01*
X192041247Y-121630546D01*
X192173276Y-121559974D01*
X192289001Y-121465001D01*
X192312804Y-121435997D01*
X193448802Y-120300000D01*
X196702659Y-120300000D01*
X196789880Y-120430535D01*
X196984465Y-120625120D01*
X197213273Y-120778005D01*
X197290515Y-120810000D01*
X197213273Y-120841995D01*
X196984465Y-120994880D01*
X196789880Y-121189465D01*
X196636995Y-121418273D01*
X196531686Y-121672510D01*
X196478000Y-121942408D01*
X196478000Y-122217592D01*
X196531686Y-122487490D01*
X196636995Y-122741727D01*
X196789880Y-122970535D01*
X196984465Y-123165120D01*
X197213273Y-123318005D01*
X197467510Y-123423314D01*
X197737408Y-123477000D01*
X198012592Y-123477000D01*
X198282490Y-123423314D01*
X198536727Y-123318005D01*
X198765535Y-123165120D01*
X198960120Y-122970535D01*
X199113005Y-122741727D01*
X199215001Y-122495489D01*
X199215001Y-128314473D01*
X191751050Y-128308728D01*
X191789000Y-128117939D01*
X191789000Y-127914061D01*
X191749226Y-127714102D01*
X191671205Y-127525744D01*
X191557937Y-127356226D01*
X191413774Y-127212063D01*
X191244256Y-127098795D01*
X191055898Y-127020774D01*
X190855939Y-126981000D01*
X190652061Y-126981000D01*
X190452102Y-127020774D01*
X190263744Y-127098795D01*
X190140715Y-127181000D01*
X103723868Y-127181000D01*
X103310000Y-126767132D01*
X103310000Y-126592702D01*
X165961903Y-126592702D01*
X166033486Y-126836671D01*
X166288996Y-126957571D01*
X166563184Y-127026300D01*
X166845512Y-127040217D01*
X167125130Y-126998787D01*
X167391292Y-126903603D01*
X167516514Y-126836671D01*
X167588097Y-126592702D01*
X167538097Y-126542702D01*
X186816903Y-126542702D01*
X186888486Y-126786671D01*
X187143996Y-126907571D01*
X187418184Y-126976300D01*
X187700512Y-126990217D01*
X187980130Y-126948787D01*
X188246292Y-126853603D01*
X188371514Y-126786671D01*
X188443097Y-126542702D01*
X187630000Y-125729605D01*
X186816903Y-126542702D01*
X167538097Y-126542702D01*
X166775000Y-125779605D01*
X165961903Y-126592702D01*
X103310000Y-126592702D01*
X103310000Y-123122227D01*
X103365535Y-123085120D01*
X103560120Y-122890535D01*
X103713005Y-122661727D01*
X103818314Y-122407490D01*
X103872000Y-122137592D01*
X103872000Y-121862408D01*
X103818314Y-121592510D01*
X103713005Y-121338273D01*
X103560120Y-121109465D01*
X103365535Y-120914880D01*
X103136727Y-120761995D01*
X102882490Y-120656686D01*
X102612592Y-120603000D01*
X102337408Y-120603000D01*
X102067510Y-120656686D01*
X101813273Y-120761995D01*
X101584465Y-120914880D01*
X101389880Y-121109465D01*
X101236995Y-121338273D01*
X101131686Y-121592510D01*
X101078000Y-121862408D01*
X101078000Y-122137592D01*
X101131686Y-122407490D01*
X101236995Y-122661727D01*
X101389880Y-122890535D01*
X101584465Y-123085120D01*
X101640001Y-123122228D01*
X101640000Y-127071981D01*
X101635960Y-127113000D01*
X101643847Y-127193082D01*
X101652082Y-127276688D01*
X101699828Y-127434086D01*
X101777364Y-127579145D01*
X101881709Y-127706291D01*
X101913578Y-127732445D01*
X102495032Y-128313900D01*
X100685000Y-128314698D01*
X100685000Y-119741740D01*
X107227000Y-119741740D01*
X107227000Y-120034260D01*
X107284068Y-120321158D01*
X107396010Y-120591411D01*
X107558525Y-120834632D01*
X107765368Y-121041475D01*
X108008589Y-121203990D01*
X108278842Y-121315932D01*
X108565740Y-121373000D01*
X108858260Y-121373000D01*
X109145158Y-121315932D01*
X109415411Y-121203990D01*
X109658632Y-121041475D01*
X109865475Y-120834632D01*
X109982000Y-120660240D01*
X110098525Y-120834632D01*
X110305368Y-121041475D01*
X110492000Y-121166179D01*
X110492000Y-122354677D01*
X110488324Y-122392000D01*
X110492000Y-122429322D01*
X110492000Y-122429332D01*
X110502997Y-122540985D01*
X110532805Y-122639250D01*
X110546454Y-122684246D01*
X110617026Y-122816276D01*
X110631622Y-122834061D01*
X110711999Y-122932001D01*
X110741003Y-122955804D01*
X113196201Y-125411003D01*
X113219999Y-125440001D01*
X113248997Y-125463799D01*
X113335724Y-125534974D01*
X113467753Y-125605546D01*
X113611014Y-125649003D01*
X113760000Y-125663677D01*
X113797333Y-125660000D01*
X117656289Y-125660000D01*
X117700226Y-125703937D01*
X117869744Y-125817205D01*
X118058102Y-125895226D01*
X118258061Y-125935000D01*
X118461939Y-125935000D01*
X118661898Y-125895226D01*
X118850256Y-125817205D01*
X119019774Y-125703937D01*
X119163937Y-125559774D01*
X119277205Y-125390256D01*
X119355226Y-125201898D01*
X119395000Y-125001939D01*
X119395000Y-124798061D01*
X119355226Y-124598102D01*
X119277205Y-124409744D01*
X119168465Y-124247003D01*
X119234537Y-124166494D01*
X119293502Y-124056180D01*
X119329812Y-123936482D01*
X119342072Y-123812000D01*
X122465928Y-123812000D01*
X122478188Y-123936482D01*
X122514498Y-124056180D01*
X122573463Y-124166494D01*
X122652815Y-124263185D01*
X122749506Y-124342537D01*
X122859820Y-124401502D01*
X122979518Y-124437812D01*
X123104000Y-124450072D01*
X123718250Y-124447000D01*
X123877000Y-124288250D01*
X123877000Y-123389000D01*
X124131000Y-123389000D01*
X124131000Y-124288250D01*
X124289750Y-124447000D01*
X124904000Y-124450072D01*
X125028482Y-124437812D01*
X125148180Y-124401502D01*
X125258494Y-124342537D01*
X125355185Y-124263185D01*
X125434537Y-124166494D01*
X125493502Y-124056180D01*
X125529812Y-123936482D01*
X125542072Y-123812000D01*
X125539000Y-123547750D01*
X125416250Y-123425000D01*
X132061928Y-123425000D01*
X132074188Y-123549482D01*
X132110498Y-123669180D01*
X132169463Y-123779494D01*
X132248815Y-123876185D01*
X132345506Y-123955537D01*
X132455820Y-124014502D01*
X132575518Y-124050812D01*
X132700000Y-124063072D01*
X133664250Y-124060000D01*
X133823000Y-123901250D01*
X133823000Y-123052000D01*
X132223750Y-123052000D01*
X132065000Y-123210750D01*
X132061928Y-123425000D01*
X125416250Y-123425000D01*
X125380250Y-123389000D01*
X124131000Y-123389000D01*
X123877000Y-123389000D01*
X122627750Y-123389000D01*
X122469000Y-123547750D01*
X122465928Y-123812000D01*
X119342072Y-123812000D01*
X119339000Y-123547750D01*
X119180250Y-123389000D01*
X117931000Y-123389000D01*
X117931000Y-123409000D01*
X117677000Y-123409000D01*
X117677000Y-123389000D01*
X116427750Y-123389000D01*
X116269000Y-123547750D01*
X116265928Y-123812000D01*
X116278188Y-123936482D01*
X116314498Y-124056180D01*
X116359301Y-124140000D01*
X114074802Y-124140000D01*
X112646802Y-122712000D01*
X116265928Y-122712000D01*
X116269000Y-122976250D01*
X116427750Y-123135000D01*
X117677000Y-123135000D01*
X117677000Y-122235750D01*
X117931000Y-122235750D01*
X117931000Y-123135000D01*
X119180250Y-123135000D01*
X119339000Y-122976250D01*
X119342072Y-122712000D01*
X122465928Y-122712000D01*
X122469000Y-122976250D01*
X122627750Y-123135000D01*
X123877000Y-123135000D01*
X123877000Y-122235750D01*
X124131000Y-122235750D01*
X124131000Y-123135000D01*
X125380250Y-123135000D01*
X125539000Y-122976250D01*
X125542072Y-122712000D01*
X125529812Y-122587518D01*
X125493502Y-122467820D01*
X125434537Y-122357506D01*
X125355185Y-122260815D01*
X125258494Y-122181463D01*
X125148180Y-122122498D01*
X125028482Y-122086188D01*
X124904000Y-122073928D01*
X124289750Y-122077000D01*
X124131000Y-122235750D01*
X123877000Y-122235750D01*
X123718250Y-122077000D01*
X123104000Y-122073928D01*
X122979518Y-122086188D01*
X122859820Y-122122498D01*
X122749506Y-122181463D01*
X122652815Y-122260815D01*
X122573463Y-122357506D01*
X122514498Y-122467820D01*
X122478188Y-122587518D01*
X122465928Y-122712000D01*
X119342072Y-122712000D01*
X119329812Y-122587518D01*
X119293502Y-122467820D01*
X119234537Y-122357506D01*
X119155185Y-122260815D01*
X119058494Y-122181463D01*
X118948180Y-122122498D01*
X118828482Y-122086188D01*
X118704000Y-122073928D01*
X118089750Y-122077000D01*
X117931000Y-122235750D01*
X117677000Y-122235750D01*
X117518250Y-122077000D01*
X116904000Y-122073928D01*
X116779518Y-122086188D01*
X116659820Y-122122498D01*
X116549506Y-122181463D01*
X116452815Y-122260815D01*
X116373463Y-122357506D01*
X116314498Y-122467820D01*
X116278188Y-122587518D01*
X116265928Y-122712000D01*
X112646802Y-122712000D01*
X112012000Y-122077199D01*
X112012000Y-121166178D01*
X112198632Y-121041475D01*
X112405475Y-120834632D01*
X112567990Y-120591411D01*
X112679932Y-120321158D01*
X112737000Y-120034260D01*
X112737000Y-119741740D01*
X112679932Y-119454842D01*
X112567990Y-119184589D01*
X112405475Y-118941368D01*
X112198632Y-118734525D01*
X112016466Y-118612805D01*
X112133355Y-118543178D01*
X112349588Y-118348269D01*
X112523641Y-118114920D01*
X112648825Y-117852099D01*
X112693476Y-117704890D01*
X112572155Y-117475000D01*
X111379000Y-117475000D01*
X111379000Y-117495000D01*
X111125000Y-117495000D01*
X111125000Y-117475000D01*
X108839000Y-117475000D01*
X108839000Y-117495000D01*
X108585000Y-117495000D01*
X108585000Y-117475000D01*
X107391845Y-117475000D01*
X107270524Y-117704890D01*
X107315175Y-117852099D01*
X107440359Y-118114920D01*
X107614412Y-118348269D01*
X107830645Y-118543178D01*
X107947534Y-118612805D01*
X107765368Y-118734525D01*
X107558525Y-118941368D01*
X107396010Y-119184589D01*
X107284068Y-119454842D01*
X107227000Y-119741740D01*
X100685000Y-119741740D01*
X100685000Y-117965565D01*
X101689040Y-117965565D01*
X101756020Y-118205656D01*
X102005048Y-118322756D01*
X102272135Y-118389023D01*
X102547017Y-118401910D01*
X102819133Y-118360922D01*
X103078023Y-118267636D01*
X103193980Y-118205656D01*
X103260960Y-117965565D01*
X102475000Y-117179605D01*
X101689040Y-117965565D01*
X100685000Y-117965565D01*
X100685000Y-117072017D01*
X101073090Y-117072017D01*
X101114078Y-117344133D01*
X101207364Y-117603023D01*
X101269344Y-117718980D01*
X101509435Y-117785960D01*
X102295395Y-117000000D01*
X102654605Y-117000000D01*
X103440565Y-117785960D01*
X103680656Y-117718980D01*
X103797756Y-117469952D01*
X103864023Y-117202865D01*
X103876910Y-116927983D01*
X103835922Y-116655867D01*
X103742636Y-116396977D01*
X103680656Y-116281020D01*
X103440565Y-116214040D01*
X102654605Y-117000000D01*
X102295395Y-117000000D01*
X101509435Y-116214040D01*
X101269344Y-116281020D01*
X101152244Y-116530048D01*
X101085977Y-116797135D01*
X101073090Y-117072017D01*
X100685000Y-117072017D01*
X100685000Y-116034435D01*
X101689040Y-116034435D01*
X102475000Y-116820395D01*
X103260960Y-116034435D01*
X103193980Y-115794344D01*
X102944952Y-115677244D01*
X102677865Y-115610977D01*
X102402983Y-115598090D01*
X102130867Y-115639078D01*
X101871977Y-115732364D01*
X101756020Y-115794344D01*
X101689040Y-116034435D01*
X100685000Y-116034435D01*
X100685000Y-112965565D01*
X101689040Y-112965565D01*
X101756020Y-113205656D01*
X102005048Y-113322756D01*
X102272135Y-113389023D01*
X102547017Y-113401910D01*
X102819133Y-113360922D01*
X103078023Y-113267636D01*
X103193980Y-113205656D01*
X103260960Y-112965565D01*
X102475000Y-112179605D01*
X101689040Y-112965565D01*
X100685000Y-112965565D01*
X100685000Y-112072017D01*
X101073090Y-112072017D01*
X101114078Y-112344133D01*
X101207364Y-112603023D01*
X101269344Y-112718980D01*
X101509435Y-112785960D01*
X102295395Y-112000000D01*
X102654605Y-112000000D01*
X103440565Y-112785960D01*
X103680656Y-112718980D01*
X103797756Y-112469952D01*
X103864023Y-112202865D01*
X103876910Y-111927983D01*
X103835922Y-111655867D01*
X103742636Y-111396977D01*
X103680656Y-111281020D01*
X103440565Y-111214040D01*
X102654605Y-112000000D01*
X102295395Y-112000000D01*
X101509435Y-111214040D01*
X101269344Y-111281020D01*
X101152244Y-111530048D01*
X101085977Y-111797135D01*
X101073090Y-112072017D01*
X100685000Y-112072017D01*
X100685000Y-100660000D01*
X128785721Y-100660000D01*
X129174775Y-100698147D01*
G37*
%TD.AperFunction*%
D24*
X145066063Y-109759774D02*
X145210226Y-109903937D01*
X145379744Y-110017205D01*
X145568102Y-110095226D01*
X145768061Y-110135000D01*
X145971939Y-110135000D01*
X146171898Y-110095226D01*
X146240001Y-110067017D01*
X146240001Y-110435197D01*
X144021199Y-112654000D01*
X142689711Y-112654000D01*
X142645774Y-112610063D01*
X142476256Y-112496795D01*
X142287898Y-112418774D01*
X142087939Y-112379000D01*
X141884061Y-112379000D01*
X141684102Y-112418774D01*
X141495744Y-112496795D01*
X141326226Y-112610063D01*
X141182063Y-112754226D01*
X141068795Y-112923744D01*
X140990774Y-113112102D01*
X140951000Y-113312061D01*
X140951000Y-113515939D01*
X140955786Y-113540000D01*
X139133711Y-113540000D01*
X139089774Y-113496063D01*
X138920256Y-113382795D01*
X138731898Y-113304774D01*
X138531939Y-113265000D01*
X138328061Y-113265000D01*
X138128102Y-113304774D01*
X137939744Y-113382795D01*
X137770226Y-113496063D01*
X137626063Y-113640226D01*
X137512795Y-113809744D01*
X137434774Y-113998102D01*
X137395000Y-114198061D01*
X137395000Y-114401939D01*
X137434774Y-114601898D01*
X137512795Y-114790256D01*
X137626063Y-114959774D01*
X137770226Y-115103937D01*
X137939744Y-115217205D01*
X138128102Y-115295226D01*
X138328061Y-115335000D01*
X138531939Y-115335000D01*
X138731898Y-115295226D01*
X138920256Y-115217205D01*
X139089774Y-115103937D01*
X139133711Y-115060000D01*
X143795198Y-115060000D01*
X144171205Y-115436008D01*
X144194999Y-115465001D01*
X144223992Y-115488795D01*
X144223996Y-115488799D01*
X144294685Y-115546811D01*
X144310724Y-115559974D01*
X144442753Y-115630546D01*
X144586014Y-115674003D01*
X144697667Y-115685000D01*
X144697676Y-115685000D01*
X144734999Y-115688676D01*
X144772322Y-115685000D01*
X147318954Y-115685000D01*
X147369463Y-115779494D01*
X147448815Y-115876185D01*
X147508296Y-115925000D01*
X147448815Y-115973815D01*
X147369463Y-116070506D01*
X147310498Y-116180820D01*
X147274188Y-116300518D01*
X147261928Y-116425000D01*
X147261928Y-117425000D01*
X147274188Y-117549482D01*
X147310498Y-117669180D01*
X147369463Y-117779494D01*
X147448815Y-117876185D01*
X147508296Y-117925000D01*
X147448815Y-117973815D01*
X147369463Y-118070506D01*
X147318954Y-118165000D01*
X145018322Y-118165000D01*
X144980999Y-118161324D01*
X144943676Y-118165000D01*
X144943667Y-118165000D01*
X144832014Y-118175997D01*
X144688753Y-118219454D01*
X144556724Y-118290026D01*
X144440999Y-118384999D01*
X144417196Y-118414003D01*
X144015003Y-118816196D01*
X143985999Y-118839999D01*
X143947002Y-118887518D01*
X143891026Y-118955724D01*
X143856142Y-119020987D01*
X143820454Y-119087754D01*
X143776997Y-119231015D01*
X143766000Y-119342668D01*
X143766000Y-119342678D01*
X143762324Y-119380000D01*
X143766000Y-119417323D01*
X143766001Y-121470288D01*
X143722063Y-121514226D01*
X143608795Y-121683744D01*
X143530774Y-121872102D01*
X143491000Y-122072061D01*
X143491000Y-122275939D01*
X143530774Y-122475898D01*
X143608795Y-122664256D01*
X143722063Y-122833774D01*
X143819605Y-122931316D01*
X143805820Y-122935498D01*
X143695506Y-122994463D01*
X143598815Y-123073815D01*
X143550000Y-123133296D01*
X143501185Y-123073815D01*
X143404494Y-122994463D01*
X143294180Y-122935498D01*
X143174482Y-122899188D01*
X143050000Y-122886928D01*
X142050000Y-122886928D01*
X141925518Y-122899188D01*
X141805820Y-122935498D01*
X141695506Y-122994463D01*
X141598815Y-123073815D01*
X141550000Y-123133296D01*
X141501185Y-123073815D01*
X141404494Y-122994463D01*
X141294180Y-122935498D01*
X141174482Y-122899188D01*
X141050000Y-122886928D01*
X140050000Y-122886928D01*
X139925518Y-122899188D01*
X139805820Y-122935498D01*
X139695506Y-122994463D01*
X139598815Y-123073815D01*
X139550000Y-123133296D01*
X139501185Y-123073815D01*
X139404494Y-122994463D01*
X139294180Y-122935498D01*
X139174482Y-122899188D01*
X139050000Y-122886928D01*
X138332611Y-122886928D01*
X138397205Y-122790256D01*
X138475226Y-122601898D01*
X138515000Y-122401939D01*
X138515000Y-122198061D01*
X138475226Y-121998102D01*
X138397205Y-121809744D01*
X138283937Y-121640226D01*
X138139774Y-121496063D01*
X137970256Y-121382795D01*
X137781898Y-121304774D01*
X137581939Y-121265000D01*
X137519802Y-121265000D01*
X136668804Y-120414003D01*
X136645001Y-120384999D01*
X136529276Y-120290026D01*
X136397247Y-120219454D01*
X136253986Y-120175997D01*
X136142333Y-120165000D01*
X136142322Y-120165000D01*
X136105000Y-120161324D01*
X136067678Y-120165000D01*
X135781046Y-120165000D01*
X135730537Y-120070506D01*
X135651185Y-119973815D01*
X135591704Y-119925000D01*
X135651185Y-119876185D01*
X135730537Y-119779494D01*
X135781046Y-119685000D01*
X137276199Y-119685000D01*
X138157000Y-120565802D01*
X138157000Y-120627939D01*
X138196774Y-120827898D01*
X138274795Y-121016256D01*
X138388063Y-121185774D01*
X138532226Y-121329937D01*
X138701744Y-121443205D01*
X138890102Y-121521226D01*
X139090061Y-121561000D01*
X139293939Y-121561000D01*
X139493898Y-121521226D01*
X139682256Y-121443205D01*
X139851774Y-121329937D01*
X139995937Y-121185774D01*
X140109205Y-121016256D01*
X140187226Y-120827898D01*
X140227000Y-120627939D01*
X140227000Y-120424061D01*
X140187226Y-120224102D01*
X140109205Y-120035744D01*
X139995937Y-119866226D01*
X139851774Y-119722063D01*
X139682256Y-119608795D01*
X139493898Y-119530774D01*
X139293939Y-119491000D01*
X139231802Y-119491000D01*
X139025802Y-119285000D01*
X139031939Y-119285000D01*
X139231898Y-119245226D01*
X139420256Y-119167205D01*
X139589774Y-119053937D01*
X139733937Y-118909774D01*
X139847205Y-118740256D01*
X139925226Y-118551898D01*
X139965000Y-118351939D01*
X139965000Y-118148061D01*
X139925226Y-117948102D01*
X139847205Y-117759744D01*
X139733937Y-117590226D01*
X139589774Y-117446063D01*
X139420256Y-117332795D01*
X139231898Y-117254774D01*
X139031939Y-117215000D01*
X138969802Y-117215000D01*
X138168804Y-116414003D01*
X138145001Y-116384999D01*
X138029276Y-116290026D01*
X137897247Y-116219454D01*
X137753986Y-116175997D01*
X137642333Y-116165000D01*
X137642322Y-116165000D01*
X137605000Y-116161324D01*
X137567678Y-116165000D01*
X135781046Y-116165000D01*
X135730537Y-116070506D01*
X135651185Y-115973815D01*
X135591704Y-115925000D01*
X135651185Y-115876185D01*
X135730537Y-115779494D01*
X135789502Y-115669180D01*
X135825812Y-115549482D01*
X135838072Y-115425000D01*
X135838072Y-114425000D01*
X135825812Y-114300518D01*
X135789502Y-114180820D01*
X135730537Y-114070506D01*
X135651185Y-113973815D01*
X135591704Y-113925000D01*
X135651185Y-113876185D01*
X135730537Y-113779494D01*
X135789502Y-113669180D01*
X135825812Y-113549482D01*
X135838072Y-113425000D01*
X135838072Y-112425000D01*
X135825812Y-112300518D01*
X135789502Y-112180820D01*
X135730537Y-112070506D01*
X135651185Y-111973815D01*
X135591704Y-111925000D01*
X135651185Y-111876185D01*
X135730537Y-111779494D01*
X135781046Y-111685000D01*
X138201289Y-111685000D01*
X138220226Y-111703937D01*
X138389744Y-111817205D01*
X138578102Y-111895226D01*
X138778061Y-111935000D01*
X138981939Y-111935000D01*
X139181898Y-111895226D01*
X139370256Y-111817205D01*
X139539774Y-111703937D01*
X139683937Y-111559774D01*
X139797205Y-111390256D01*
X139875226Y-111201898D01*
X139915000Y-111001939D01*
X139915000Y-110798061D01*
X139875226Y-110598102D01*
X139797205Y-110409744D01*
X139683937Y-110240226D01*
X139539774Y-110096063D01*
X139370256Y-109982795D01*
X139181898Y-109904774D01*
X138981939Y-109865000D01*
X138778061Y-109865000D01*
X138578102Y-109904774D01*
X138389744Y-109982795D01*
X138220226Y-110096063D01*
X138151289Y-110165000D01*
X135781046Y-110165000D01*
X135730537Y-110070506D01*
X135651185Y-109973815D01*
X135591704Y-109925000D01*
X135651185Y-109876185D01*
X135730537Y-109779494D01*
X135781046Y-109685000D01*
X145016101Y-109685000D01*
X145066063Y-109759774D01*
%TA.AperFunction,Conductor*%
D25*
G36*
X145066063Y-109759774D02*
G01*
X145210226Y-109903937D01*
X145379744Y-110017205D01*
X145568102Y-110095226D01*
X145768061Y-110135000D01*
X145971939Y-110135000D01*
X146171898Y-110095226D01*
X146240001Y-110067017D01*
X146240001Y-110435197D01*
X144021199Y-112654000D01*
X142689711Y-112654000D01*
X142645774Y-112610063D01*
X142476256Y-112496795D01*
X142287898Y-112418774D01*
X142087939Y-112379000D01*
X141884061Y-112379000D01*
X141684102Y-112418774D01*
X141495744Y-112496795D01*
X141326226Y-112610063D01*
X141182063Y-112754226D01*
X141068795Y-112923744D01*
X140990774Y-113112102D01*
X140951000Y-113312061D01*
X140951000Y-113515939D01*
X140955786Y-113540000D01*
X139133711Y-113540000D01*
X139089774Y-113496063D01*
X138920256Y-113382795D01*
X138731898Y-113304774D01*
X138531939Y-113265000D01*
X138328061Y-113265000D01*
X138128102Y-113304774D01*
X137939744Y-113382795D01*
X137770226Y-113496063D01*
X137626063Y-113640226D01*
X137512795Y-113809744D01*
X137434774Y-113998102D01*
X137395000Y-114198061D01*
X137395000Y-114401939D01*
X137434774Y-114601898D01*
X137512795Y-114790256D01*
X137626063Y-114959774D01*
X137770226Y-115103937D01*
X137939744Y-115217205D01*
X138128102Y-115295226D01*
X138328061Y-115335000D01*
X138531939Y-115335000D01*
X138731898Y-115295226D01*
X138920256Y-115217205D01*
X139089774Y-115103937D01*
X139133711Y-115060000D01*
X143795198Y-115060000D01*
X144171205Y-115436008D01*
X144194999Y-115465001D01*
X144223992Y-115488795D01*
X144223996Y-115488799D01*
X144294685Y-115546811D01*
X144310724Y-115559974D01*
X144442753Y-115630546D01*
X144586014Y-115674003D01*
X144697667Y-115685000D01*
X144697676Y-115685000D01*
X144734999Y-115688676D01*
X144772322Y-115685000D01*
X147318954Y-115685000D01*
X147369463Y-115779494D01*
X147448815Y-115876185D01*
X147508296Y-115925000D01*
X147448815Y-115973815D01*
X147369463Y-116070506D01*
X147310498Y-116180820D01*
X147274188Y-116300518D01*
X147261928Y-116425000D01*
X147261928Y-117425000D01*
X147274188Y-117549482D01*
X147310498Y-117669180D01*
X147369463Y-117779494D01*
X147448815Y-117876185D01*
X147508296Y-117925000D01*
X147448815Y-117973815D01*
X147369463Y-118070506D01*
X147318954Y-118165000D01*
X145018322Y-118165000D01*
X144980999Y-118161324D01*
X144943676Y-118165000D01*
X144943667Y-118165000D01*
X144832014Y-118175997D01*
X144688753Y-118219454D01*
X144556724Y-118290026D01*
X144440999Y-118384999D01*
X144417196Y-118414003D01*
X144015003Y-118816196D01*
X143985999Y-118839999D01*
X143947002Y-118887518D01*
X143891026Y-118955724D01*
X143856142Y-119020987D01*
X143820454Y-119087754D01*
X143776997Y-119231015D01*
X143766000Y-119342668D01*
X143766000Y-119342678D01*
X143762324Y-119380000D01*
X143766000Y-119417323D01*
X143766001Y-121470288D01*
X143722063Y-121514226D01*
X143608795Y-121683744D01*
X143530774Y-121872102D01*
X143491000Y-122072061D01*
X143491000Y-122275939D01*
X143530774Y-122475898D01*
X143608795Y-122664256D01*
X143722063Y-122833774D01*
X143819605Y-122931316D01*
X143805820Y-122935498D01*
X143695506Y-122994463D01*
X143598815Y-123073815D01*
X143550000Y-123133296D01*
X143501185Y-123073815D01*
X143404494Y-122994463D01*
X143294180Y-122935498D01*
X143174482Y-122899188D01*
X143050000Y-122886928D01*
X142050000Y-122886928D01*
X141925518Y-122899188D01*
X141805820Y-122935498D01*
X141695506Y-122994463D01*
X141598815Y-123073815D01*
X141550000Y-123133296D01*
X141501185Y-123073815D01*
X141404494Y-122994463D01*
X141294180Y-122935498D01*
X141174482Y-122899188D01*
X141050000Y-122886928D01*
X140050000Y-122886928D01*
X139925518Y-122899188D01*
X139805820Y-122935498D01*
X139695506Y-122994463D01*
X139598815Y-123073815D01*
X139550000Y-123133296D01*
X139501185Y-123073815D01*
X139404494Y-122994463D01*
X139294180Y-122935498D01*
X139174482Y-122899188D01*
X139050000Y-122886928D01*
X138332611Y-122886928D01*
X138397205Y-122790256D01*
X138475226Y-122601898D01*
X138515000Y-122401939D01*
X138515000Y-122198061D01*
X138475226Y-121998102D01*
X138397205Y-121809744D01*
X138283937Y-121640226D01*
X138139774Y-121496063D01*
X137970256Y-121382795D01*
X137781898Y-121304774D01*
X137581939Y-121265000D01*
X137519802Y-121265000D01*
X136668804Y-120414003D01*
X136645001Y-120384999D01*
X136529276Y-120290026D01*
X136397247Y-120219454D01*
X136253986Y-120175997D01*
X136142333Y-120165000D01*
X136142322Y-120165000D01*
X136105000Y-120161324D01*
X136067678Y-120165000D01*
X135781046Y-120165000D01*
X135730537Y-120070506D01*
X135651185Y-119973815D01*
X135591704Y-119925000D01*
X135651185Y-119876185D01*
X135730537Y-119779494D01*
X135781046Y-119685000D01*
X137276199Y-119685000D01*
X138157000Y-120565802D01*
X138157000Y-120627939D01*
X138196774Y-120827898D01*
X138274795Y-121016256D01*
X138388063Y-121185774D01*
X138532226Y-121329937D01*
X138701744Y-121443205D01*
X138890102Y-121521226D01*
X139090061Y-121561000D01*
X139293939Y-121561000D01*
X139493898Y-121521226D01*
X139682256Y-121443205D01*
X139851774Y-121329937D01*
X139995937Y-121185774D01*
X140109205Y-121016256D01*
X140187226Y-120827898D01*
X140227000Y-120627939D01*
X140227000Y-120424061D01*
X140187226Y-120224102D01*
X140109205Y-120035744D01*
X139995937Y-119866226D01*
X139851774Y-119722063D01*
X139682256Y-119608795D01*
X139493898Y-119530774D01*
X139293939Y-119491000D01*
X139231802Y-119491000D01*
X139025802Y-119285000D01*
X139031939Y-119285000D01*
X139231898Y-119245226D01*
X139420256Y-119167205D01*
X139589774Y-119053937D01*
X139733937Y-118909774D01*
X139847205Y-118740256D01*
X139925226Y-118551898D01*
X139965000Y-118351939D01*
X139965000Y-118148061D01*
X139925226Y-117948102D01*
X139847205Y-117759744D01*
X139733937Y-117590226D01*
X139589774Y-117446063D01*
X139420256Y-117332795D01*
X139231898Y-117254774D01*
X139031939Y-117215000D01*
X138969802Y-117215000D01*
X138168804Y-116414003D01*
X138145001Y-116384999D01*
X138029276Y-116290026D01*
X137897247Y-116219454D01*
X137753986Y-116175997D01*
X137642333Y-116165000D01*
X137642322Y-116165000D01*
X137605000Y-116161324D01*
X137567678Y-116165000D01*
X135781046Y-116165000D01*
X135730537Y-116070506D01*
X135651185Y-115973815D01*
X135591704Y-115925000D01*
X135651185Y-115876185D01*
X135730537Y-115779494D01*
X135789502Y-115669180D01*
X135825812Y-115549482D01*
X135838072Y-115425000D01*
X135838072Y-114425000D01*
X135825812Y-114300518D01*
X135789502Y-114180820D01*
X135730537Y-114070506D01*
X135651185Y-113973815D01*
X135591704Y-113925000D01*
X135651185Y-113876185D01*
X135730537Y-113779494D01*
X135789502Y-113669180D01*
X135825812Y-113549482D01*
X135838072Y-113425000D01*
X135838072Y-112425000D01*
X135825812Y-112300518D01*
X135789502Y-112180820D01*
X135730537Y-112070506D01*
X135651185Y-111973815D01*
X135591704Y-111925000D01*
X135651185Y-111876185D01*
X135730537Y-111779494D01*
X135781046Y-111685000D01*
X138201289Y-111685000D01*
X138220226Y-111703937D01*
X138389744Y-111817205D01*
X138578102Y-111895226D01*
X138778061Y-111935000D01*
X138981939Y-111935000D01*
X139181898Y-111895226D01*
X139370256Y-111817205D01*
X139539774Y-111703937D01*
X139683937Y-111559774D01*
X139797205Y-111390256D01*
X139875226Y-111201898D01*
X139915000Y-111001939D01*
X139915000Y-110798061D01*
X139875226Y-110598102D01*
X139797205Y-110409744D01*
X139683937Y-110240226D01*
X139539774Y-110096063D01*
X139370256Y-109982795D01*
X139181898Y-109904774D01*
X138981939Y-109865000D01*
X138778061Y-109865000D01*
X138578102Y-109904774D01*
X138389744Y-109982795D01*
X138220226Y-110096063D01*
X138151289Y-110165000D01*
X135781046Y-110165000D01*
X135730537Y-110070506D01*
X135651185Y-109973815D01*
X135591704Y-109925000D01*
X135651185Y-109876185D01*
X135730537Y-109779494D01*
X135781046Y-109685000D01*
X145016101Y-109685000D01*
X145066063Y-109759774D01*
G37*
%TD.AperFunction*%
D24*
X147369463Y-119779494D02*
X147448815Y-119876185D01*
X147508296Y-119925000D01*
X147448815Y-119973815D01*
X147369463Y-120070506D01*
X147310498Y-120180820D01*
X147274188Y-120300518D01*
X147261928Y-120425000D01*
X147261928Y-121425000D01*
X147274188Y-121549482D01*
X147310498Y-121669180D01*
X147369463Y-121779494D01*
X147448815Y-121876185D01*
X147508296Y-121925000D01*
X147448815Y-121973815D01*
X147369463Y-122070506D01*
X147310498Y-122180820D01*
X147274188Y-122300518D01*
X147261928Y-122425000D01*
X147261928Y-122925714D01*
X147174482Y-122899188D01*
X147050000Y-122886928D01*
X146050000Y-122886928D01*
X145925518Y-122899188D01*
X145805820Y-122935498D01*
X145695506Y-122994463D01*
X145598815Y-123073815D01*
X145550000Y-123133296D01*
X145501185Y-123073815D01*
X145404494Y-122994463D01*
X145294180Y-122935498D01*
X145243566Y-122920145D01*
X145329937Y-122833774D01*
X145443205Y-122664256D01*
X145521226Y-122475898D01*
X145561000Y-122275939D01*
X145561000Y-122072061D01*
X145521226Y-121872102D01*
X145443205Y-121683744D01*
X145329937Y-121514226D01*
X145286000Y-121470289D01*
X145286000Y-119694801D01*
X145295801Y-119685000D01*
X147318954Y-119685000D01*
X147369463Y-119779494D01*
%TA.AperFunction,Conductor*%
D25*
G36*
X147369463Y-119779494D02*
G01*
X147448815Y-119876185D01*
X147508296Y-119925000D01*
X147448815Y-119973815D01*
X147369463Y-120070506D01*
X147310498Y-120180820D01*
X147274188Y-120300518D01*
X147261928Y-120425000D01*
X147261928Y-121425000D01*
X147274188Y-121549482D01*
X147310498Y-121669180D01*
X147369463Y-121779494D01*
X147448815Y-121876185D01*
X147508296Y-121925000D01*
X147448815Y-121973815D01*
X147369463Y-122070506D01*
X147310498Y-122180820D01*
X147274188Y-122300518D01*
X147261928Y-122425000D01*
X147261928Y-122925714D01*
X147174482Y-122899188D01*
X147050000Y-122886928D01*
X146050000Y-122886928D01*
X145925518Y-122899188D01*
X145805820Y-122935498D01*
X145695506Y-122994463D01*
X145598815Y-123073815D01*
X145550000Y-123133296D01*
X145501185Y-123073815D01*
X145404494Y-122994463D01*
X145294180Y-122935498D01*
X145243566Y-122920145D01*
X145329937Y-122833774D01*
X145443205Y-122664256D01*
X145521226Y-122475898D01*
X145561000Y-122275939D01*
X145561000Y-122072061D01*
X145521226Y-121872102D01*
X145443205Y-121683744D01*
X145329937Y-121514226D01*
X145286000Y-121470289D01*
X145286000Y-119694801D01*
X145295801Y-119685000D01*
X147318954Y-119685000D01*
X147369463Y-119779494D01*
G37*
%TD.AperFunction*%
D24*
X199215000Y-106584510D02*
X199113005Y-106338273D01*
X198960120Y-106109465D01*
X198765535Y-105914880D01*
X198536727Y-105761995D01*
X198282490Y-105656686D01*
X198012592Y-105603000D01*
X197737408Y-105603000D01*
X197467510Y-105656686D01*
X197213273Y-105761995D01*
X196984465Y-105914880D01*
X196789880Y-106109465D01*
X196636995Y-106338273D01*
X196531686Y-106592510D01*
X196478000Y-106862408D01*
X196478000Y-107137592D01*
X196531686Y-107407490D01*
X196636995Y-107661727D01*
X196789880Y-107890535D01*
X196984465Y-108085120D01*
X197213273Y-108238005D01*
X197467510Y-108343314D01*
X197737408Y-108397000D01*
X198012592Y-108397000D01*
X198282490Y-108343314D01*
X198536727Y-108238005D01*
X198765535Y-108085120D01*
X198960120Y-107890535D01*
X199113005Y-107661727D01*
X199215000Y-107415490D01*
X199215000Y-111597805D01*
X199142636Y-111396977D01*
X199080656Y-111281020D01*
X198840565Y-111214040D01*
X198054605Y-112000000D01*
X198840565Y-112785960D01*
X199080656Y-112718980D01*
X199197756Y-112469952D01*
X199215000Y-112400449D01*
X199215001Y-116597805D01*
X199142636Y-116396977D01*
X199080656Y-116281020D01*
X198840565Y-116214040D01*
X198054605Y-117000000D01*
X198840565Y-117785960D01*
X199080656Y-117718980D01*
X199197756Y-117469952D01*
X199215001Y-117400448D01*
X199215001Y-119124511D01*
X199113005Y-118878273D01*
X198960120Y-118649465D01*
X198765535Y-118454880D01*
X198536727Y-118301995D01*
X198465057Y-118272308D01*
X198478023Y-118267636D01*
X198593980Y-118205656D01*
X198660960Y-117965565D01*
X197875000Y-117179605D01*
X197089040Y-117965565D01*
X197156020Y-118205656D01*
X197291760Y-118269485D01*
X197213273Y-118301995D01*
X196984465Y-118454880D01*
X196789880Y-118649465D01*
X196702659Y-118780000D01*
X193171325Y-118780000D01*
X193134000Y-118776324D01*
X193096675Y-118780000D01*
X193096667Y-118780000D01*
X192985014Y-118790997D01*
X192841753Y-118834454D01*
X192709724Y-118905026D01*
X192593999Y-118999999D01*
X192570201Y-119028997D01*
X191434199Y-120165000D01*
X150981046Y-120165000D01*
X150930537Y-120070506D01*
X150851185Y-119973815D01*
X150791704Y-119925000D01*
X150851185Y-119876185D01*
X150930537Y-119779494D01*
X150989502Y-119669180D01*
X151025812Y-119549482D01*
X151038072Y-119425000D01*
X151038072Y-118425000D01*
X151025812Y-118300518D01*
X150989502Y-118180820D01*
X150930537Y-118070506D01*
X150851185Y-117973815D01*
X150791704Y-117925000D01*
X150851185Y-117876185D01*
X150869392Y-117854000D01*
X151696289Y-117854000D01*
X151740226Y-117897937D01*
X151909744Y-118011205D01*
X152098102Y-118089226D01*
X152298061Y-118129000D01*
X152501939Y-118129000D01*
X152701898Y-118089226D01*
X152890256Y-118011205D01*
X153059774Y-117897937D01*
X153103711Y-117854000D01*
X164058678Y-117854000D01*
X164096000Y-117857676D01*
X164133322Y-117854000D01*
X164133333Y-117854000D01*
X164244986Y-117843003D01*
X164388247Y-117799546D01*
X164520276Y-117728974D01*
X164636001Y-117634001D01*
X164659803Y-117604998D01*
X165357004Y-116907798D01*
X165386001Y-116884001D01*
X165480974Y-116768276D01*
X165551546Y-116636247D01*
X165595003Y-116492986D01*
X165606000Y-116381333D01*
X165606000Y-116381324D01*
X165609676Y-116344001D01*
X165606000Y-116306678D01*
X165606000Y-103367711D01*
X165633937Y-103339774D01*
X165747205Y-103170256D01*
X165825226Y-102981898D01*
X165865000Y-102781939D01*
X165865000Y-102578061D01*
X165825226Y-102378102D01*
X165747205Y-102189744D01*
X165633937Y-102020226D01*
X165489774Y-101876063D01*
X165435802Y-101840000D01*
X165910582Y-101840000D01*
X165905000Y-101868061D01*
X165905000Y-102071939D01*
X165944774Y-102271898D01*
X166022795Y-102460256D01*
X166136063Y-102629774D01*
X166180001Y-102673712D01*
X166180000Y-117685198D01*
X165753199Y-118112000D01*
X155993322Y-118112000D01*
X155955999Y-118108324D01*
X155918676Y-118112000D01*
X155918667Y-118112000D01*
X155912545Y-118112603D01*
X155803939Y-118091000D01*
X155600061Y-118091000D01*
X155400102Y-118130774D01*
X155211744Y-118208795D01*
X155042226Y-118322063D01*
X154898063Y-118466226D01*
X154784795Y-118635744D01*
X154706774Y-118824102D01*
X154667000Y-119024061D01*
X154667000Y-119227939D01*
X154706774Y-119427898D01*
X154784795Y-119616256D01*
X154898063Y-119785774D01*
X155042226Y-119929937D01*
X155211744Y-120043205D01*
X155400102Y-120121226D01*
X155600061Y-120161000D01*
X155803939Y-120161000D01*
X156003898Y-120121226D01*
X156192256Y-120043205D01*
X156361774Y-119929937D01*
X156505937Y-119785774D01*
X156608685Y-119632000D01*
X166030678Y-119632000D01*
X166068000Y-119635676D01*
X166105322Y-119632000D01*
X166105333Y-119632000D01*
X166216986Y-119621003D01*
X166360247Y-119577546D01*
X166492276Y-119506974D01*
X166608001Y-119412001D01*
X166631803Y-119382998D01*
X167451004Y-118563798D01*
X167480001Y-118540001D01*
X167574974Y-118424276D01*
X167645546Y-118292247D01*
X167689003Y-118148986D01*
X167700000Y-118037333D01*
X167700000Y-118037324D01*
X167703676Y-118000001D01*
X167700000Y-117962678D01*
X167700000Y-117630000D01*
X183781928Y-117630000D01*
X183794188Y-117754482D01*
X183830498Y-117874180D01*
X183889463Y-117984494D01*
X183968815Y-118081185D01*
X184065506Y-118160537D01*
X184175820Y-118219502D01*
X184295518Y-118255812D01*
X184420000Y-118268072D01*
X185034250Y-118265000D01*
X185193000Y-118106250D01*
X185193000Y-117207000D01*
X185447000Y-117207000D01*
X185447000Y-118106250D01*
X185605750Y-118265000D01*
X186220000Y-118268072D01*
X186344482Y-118255812D01*
X186464180Y-118219502D01*
X186574494Y-118160537D01*
X186671185Y-118081185D01*
X186750537Y-117984494D01*
X186809502Y-117874180D01*
X186845812Y-117754482D01*
X186858072Y-117630000D01*
X189981928Y-117630000D01*
X189994188Y-117754482D01*
X190030498Y-117874180D01*
X190089463Y-117984494D01*
X190168815Y-118081185D01*
X190265506Y-118160537D01*
X190375820Y-118219502D01*
X190495518Y-118255812D01*
X190620000Y-118268072D01*
X191234250Y-118265000D01*
X191393000Y-118106250D01*
X191393000Y-117207000D01*
X191647000Y-117207000D01*
X191647000Y-118106250D01*
X191805750Y-118265000D01*
X192420000Y-118268072D01*
X192544482Y-118255812D01*
X192664180Y-118219502D01*
X192774494Y-118160537D01*
X192871185Y-118081185D01*
X192950537Y-117984494D01*
X193009502Y-117874180D01*
X193045812Y-117754482D01*
X193058072Y-117630000D01*
X193055000Y-117365750D01*
X192896250Y-117207000D01*
X191647000Y-117207000D01*
X191393000Y-117207000D01*
X190143750Y-117207000D01*
X189985000Y-117365750D01*
X189981928Y-117630000D01*
X186858072Y-117630000D01*
X186855000Y-117365750D01*
X186696250Y-117207000D01*
X185447000Y-117207000D01*
X185193000Y-117207000D01*
X183943750Y-117207000D01*
X183785000Y-117365750D01*
X183781928Y-117630000D01*
X167700000Y-117630000D01*
X167700000Y-117072017D01*
X196473090Y-117072017D01*
X196514078Y-117344133D01*
X196607364Y-117603023D01*
X196669344Y-117718980D01*
X196909435Y-117785960D01*
X197695395Y-117000000D01*
X196909435Y-116214040D01*
X196669344Y-116281020D01*
X196552244Y-116530048D01*
X196485977Y-116797135D01*
X196473090Y-117072017D01*
X167700000Y-117072017D01*
X167700000Y-116530000D01*
X183781928Y-116530000D01*
X183785000Y-116794250D01*
X183943750Y-116953000D01*
X185193000Y-116953000D01*
X185193000Y-116053750D01*
X185447000Y-116053750D01*
X185447000Y-116953000D01*
X186696250Y-116953000D01*
X186855000Y-116794250D01*
X186858072Y-116530000D01*
X189981928Y-116530000D01*
X189985000Y-116794250D01*
X190143750Y-116953000D01*
X191393000Y-116953000D01*
X191393000Y-116053750D01*
X191647000Y-116053750D01*
X191647000Y-116953000D01*
X192896250Y-116953000D01*
X193055000Y-116794250D01*
X193058072Y-116530000D01*
X193045812Y-116405518D01*
X193009502Y-116285820D01*
X192950537Y-116175506D01*
X192871185Y-116078815D01*
X192817108Y-116034435D01*
X197089040Y-116034435D01*
X197875000Y-116820395D01*
X198660960Y-116034435D01*
X198593980Y-115794344D01*
X198344952Y-115677244D01*
X198077865Y-115610977D01*
X197802983Y-115598090D01*
X197530867Y-115639078D01*
X197271977Y-115732364D01*
X197156020Y-115794344D01*
X197089040Y-116034435D01*
X192817108Y-116034435D01*
X192774494Y-115999463D01*
X192664180Y-115940498D01*
X192544482Y-115904188D01*
X192420000Y-115891928D01*
X191805750Y-115895000D01*
X191647000Y-116053750D01*
X191393000Y-116053750D01*
X191234250Y-115895000D01*
X190620000Y-115891928D01*
X190495518Y-115904188D01*
X190375820Y-115940498D01*
X190265506Y-115999463D01*
X190168815Y-116078815D01*
X190089463Y-116175506D01*
X190030498Y-116285820D01*
X189994188Y-116405518D01*
X189981928Y-116530000D01*
X186858072Y-116530000D01*
X186845812Y-116405518D01*
X186809502Y-116285820D01*
X186750537Y-116175506D01*
X186671185Y-116078815D01*
X186574494Y-115999463D01*
X186464180Y-115940498D01*
X186344482Y-115904188D01*
X186220000Y-115891928D01*
X185605750Y-115895000D01*
X185447000Y-116053750D01*
X185193000Y-116053750D01*
X185034250Y-115895000D01*
X184420000Y-115891928D01*
X184295518Y-115904188D01*
X184175820Y-115940498D01*
X184065506Y-115999463D01*
X183968815Y-116078815D01*
X183889463Y-116175506D01*
X183830498Y-116285820D01*
X183794188Y-116405518D01*
X183781928Y-116530000D01*
X167700000Y-116530000D01*
X167700000Y-102673711D01*
X167743937Y-102629774D01*
X167857205Y-102460256D01*
X167935226Y-102271898D01*
X167975000Y-102071939D01*
X167975000Y-102009801D01*
X168320001Y-102354803D01*
X168320000Y-107307332D01*
X168320001Y-107307342D01*
X168320000Y-111412677D01*
X168316324Y-111450000D01*
X168320000Y-111487322D01*
X168320000Y-111487332D01*
X168330997Y-111598985D01*
X168370132Y-111727999D01*
X168374454Y-111742246D01*
X168445026Y-111874276D01*
X168473511Y-111908985D01*
X168539999Y-111990001D01*
X168569003Y-112013804D01*
X170446201Y-113891003D01*
X170469999Y-113920001D01*
X170585724Y-114014974D01*
X170717753Y-114085546D01*
X170861014Y-114129003D01*
X170972667Y-114140000D01*
X170972676Y-114140000D01*
X171009999Y-114143676D01*
X171047322Y-114140000D01*
X183820130Y-114140000D01*
X183830498Y-114174180D01*
X183889463Y-114284494D01*
X183968815Y-114381185D01*
X184065506Y-114460537D01*
X184175820Y-114519502D01*
X184295518Y-114555812D01*
X184420000Y-114568072D01*
X186220000Y-114568072D01*
X186344482Y-114555812D01*
X186464180Y-114519502D01*
X186574494Y-114460537D01*
X186671185Y-114381185D01*
X186750537Y-114284494D01*
X186809502Y-114174180D01*
X186819870Y-114140000D01*
X190020130Y-114140000D01*
X190030498Y-114174180D01*
X190089463Y-114284494D01*
X190168815Y-114381185D01*
X190265506Y-114460537D01*
X190375820Y-114519502D01*
X190495518Y-114555812D01*
X190620000Y-114568072D01*
X192420000Y-114568072D01*
X192544482Y-114555812D01*
X192664180Y-114519502D01*
X192774494Y-114460537D01*
X192871185Y-114381185D01*
X192950537Y-114284494D01*
X193009502Y-114174180D01*
X193045812Y-114054482D01*
X193058072Y-113930000D01*
X193058072Y-112965565D01*
X197089040Y-112965565D01*
X197156020Y-113205656D01*
X197405048Y-113322756D01*
X197672135Y-113389023D01*
X197947017Y-113401910D01*
X198219133Y-113360922D01*
X198478023Y-113267636D01*
X198593980Y-113205656D01*
X198660960Y-112965565D01*
X197875000Y-112179605D01*
X197089040Y-112965565D01*
X193058072Y-112965565D01*
X193058072Y-112830000D01*
X193045812Y-112705518D01*
X193009502Y-112585820D01*
X192950537Y-112475506D01*
X192871185Y-112378815D01*
X192774494Y-112299463D01*
X192664180Y-112240498D01*
X192544482Y-112204188D01*
X192420000Y-112191928D01*
X190620000Y-112191928D01*
X190495518Y-112204188D01*
X190375820Y-112240498D01*
X190265506Y-112299463D01*
X190168815Y-112378815D01*
X190089463Y-112475506D01*
X190030498Y-112585820D01*
X190020130Y-112620000D01*
X186819870Y-112620000D01*
X186809502Y-112585820D01*
X186750537Y-112475506D01*
X186671185Y-112378815D01*
X186574494Y-112299463D01*
X186464180Y-112240498D01*
X186344482Y-112204188D01*
X186220000Y-112191928D01*
X184420000Y-112191928D01*
X184295518Y-112204188D01*
X184175820Y-112240498D01*
X184065506Y-112299463D01*
X183968815Y-112378815D01*
X183889463Y-112475506D01*
X183830498Y-112585820D01*
X183820130Y-112620000D01*
X171324802Y-112620000D01*
X170776819Y-112072017D01*
X196473090Y-112072017D01*
X196514078Y-112344133D01*
X196607364Y-112603023D01*
X196669344Y-112718980D01*
X196909435Y-112785960D01*
X197695395Y-112000000D01*
X196909435Y-111214040D01*
X196669344Y-111281020D01*
X196552244Y-111530048D01*
X196485977Y-111797135D01*
X196473090Y-112072017D01*
X170776819Y-112072017D01*
X169840000Y-111135199D01*
X169840000Y-111034435D01*
X197089040Y-111034435D01*
X197875000Y-111820395D01*
X198660960Y-111034435D01*
X198593980Y-110794344D01*
X198344952Y-110677244D01*
X198077865Y-110610977D01*
X197802983Y-110598090D01*
X197530867Y-110639078D01*
X197271977Y-110732364D01*
X197156020Y-110794344D01*
X197089040Y-111034435D01*
X169840000Y-111034435D01*
X169840000Y-105124495D01*
X184145000Y-105124495D01*
X184145000Y-105515505D01*
X184221282Y-105899003D01*
X184370915Y-106260250D01*
X184588149Y-106585364D01*
X184864636Y-106861851D01*
X185189750Y-107079085D01*
X185550997Y-107228718D01*
X185934495Y-107305000D01*
X186325505Y-107305000D01*
X186709003Y-107228718D01*
X187070250Y-107079085D01*
X187395364Y-106861851D01*
X187587215Y-106670000D01*
X189141928Y-106670000D01*
X189154188Y-106794482D01*
X189190498Y-106914180D01*
X189249463Y-107024494D01*
X189328815Y-107121185D01*
X189425506Y-107200537D01*
X189535820Y-107259502D01*
X189655518Y-107295812D01*
X189780000Y-107308072D01*
X190844250Y-107305000D01*
X191003000Y-107146250D01*
X191003000Y-105447000D01*
X191257000Y-105447000D01*
X191257000Y-107146250D01*
X191415750Y-107305000D01*
X192480000Y-107308072D01*
X192604482Y-107295812D01*
X192724180Y-107259502D01*
X192834494Y-107200537D01*
X192931185Y-107121185D01*
X193010537Y-107024494D01*
X193069502Y-106914180D01*
X193105812Y-106794482D01*
X193118072Y-106670000D01*
X193115000Y-105605750D01*
X192956250Y-105447000D01*
X191257000Y-105447000D01*
X191003000Y-105447000D01*
X189303750Y-105447000D01*
X189145000Y-105605750D01*
X189141928Y-106670000D01*
X187587215Y-106670000D01*
X187671851Y-106585364D01*
X187889085Y-106260250D01*
X188038718Y-105899003D01*
X188115000Y-105515505D01*
X188115000Y-105124495D01*
X188038718Y-104740997D01*
X187889085Y-104379750D01*
X187671851Y-104054636D01*
X187587215Y-103970000D01*
X189141928Y-103970000D01*
X189145000Y-105034250D01*
X189303750Y-105193000D01*
X191003000Y-105193000D01*
X191003000Y-103493750D01*
X191257000Y-103493750D01*
X191257000Y-105193000D01*
X192956250Y-105193000D01*
X193115000Y-105034250D01*
X193118072Y-103970000D01*
X193105812Y-103845518D01*
X193069502Y-103725820D01*
X193010537Y-103615506D01*
X192931185Y-103518815D01*
X192834494Y-103439463D01*
X192724180Y-103380498D01*
X192604482Y-103344188D01*
X192480000Y-103331928D01*
X191415750Y-103335000D01*
X191257000Y-103493750D01*
X191003000Y-103493750D01*
X190844250Y-103335000D01*
X189780000Y-103331928D01*
X189655518Y-103344188D01*
X189535820Y-103380498D01*
X189425506Y-103439463D01*
X189328815Y-103518815D01*
X189249463Y-103615506D01*
X189190498Y-103725820D01*
X189154188Y-103845518D01*
X189141928Y-103970000D01*
X187587215Y-103970000D01*
X187395364Y-103778149D01*
X187070250Y-103560915D01*
X186709003Y-103411282D01*
X186325505Y-103335000D01*
X185934495Y-103335000D01*
X185550997Y-103411282D01*
X185189750Y-103560915D01*
X184864636Y-103778149D01*
X184588149Y-104054636D01*
X184370915Y-104379750D01*
X184221282Y-104740997D01*
X184145000Y-105124495D01*
X169840000Y-105124495D01*
X169840000Y-102274000D01*
X173641928Y-102274000D01*
X173641928Y-103974000D01*
X173654188Y-104098482D01*
X173690498Y-104218180D01*
X173749463Y-104328494D01*
X173828815Y-104425185D01*
X173925506Y-104504537D01*
X174035820Y-104563502D01*
X174155518Y-104599812D01*
X174280000Y-104612072D01*
X175980000Y-104612072D01*
X176104482Y-104599812D01*
X176224180Y-104563502D01*
X176334494Y-104504537D01*
X176431185Y-104425185D01*
X176510537Y-104328494D01*
X176569502Y-104218180D01*
X176591513Y-104145620D01*
X176723368Y-104277475D01*
X176966589Y-104439990D01*
X177236842Y-104551932D01*
X177523740Y-104609000D01*
X177816260Y-104609000D01*
X178103158Y-104551932D01*
X178373411Y-104439990D01*
X178616632Y-104277475D01*
X178823475Y-104070632D01*
X178945195Y-103888466D01*
X179014822Y-104005355D01*
X179209731Y-104221588D01*
X179443080Y-104395641D01*
X179705901Y-104520825D01*
X179853110Y-104565476D01*
X180083000Y-104444155D01*
X180083000Y-103251000D01*
X180337000Y-103251000D01*
X180337000Y-104444155D01*
X180566890Y-104565476D01*
X180714099Y-104520825D01*
X180976920Y-104395641D01*
X181210269Y-104221588D01*
X181405178Y-104005355D01*
X181554157Y-103755252D01*
X181651481Y-103480891D01*
X181530814Y-103251000D01*
X180337000Y-103251000D01*
X180083000Y-103251000D01*
X180063000Y-103251000D01*
X180063000Y-102997000D01*
X180083000Y-102997000D01*
X180083000Y-101803845D01*
X180337000Y-101803845D01*
X180337000Y-102997000D01*
X181530814Y-102997000D01*
X181651481Y-102767109D01*
X181554157Y-102492748D01*
X181405178Y-102242645D01*
X181210269Y-102026412D01*
X180976920Y-101852359D01*
X180714099Y-101727175D01*
X180566890Y-101682524D01*
X180337000Y-101803845D01*
X180083000Y-101803845D01*
X179853110Y-101682524D01*
X179705901Y-101727175D01*
X179443080Y-101852359D01*
X179209731Y-102026412D01*
X179014822Y-102242645D01*
X178945195Y-102359534D01*
X178823475Y-102177368D01*
X178616632Y-101970525D01*
X178373411Y-101808010D01*
X178103158Y-101696068D01*
X177816260Y-101639000D01*
X177523740Y-101639000D01*
X177236842Y-101696068D01*
X176966589Y-101808010D01*
X176723368Y-101970525D01*
X176591513Y-102102380D01*
X176569502Y-102029820D01*
X176510537Y-101919506D01*
X176431185Y-101822815D01*
X176334494Y-101743463D01*
X176224180Y-101684498D01*
X176104482Y-101648188D01*
X175980000Y-101635928D01*
X174280000Y-101635928D01*
X174155518Y-101648188D01*
X174035820Y-101684498D01*
X173925506Y-101743463D01*
X173828815Y-101822815D01*
X173749463Y-101919506D01*
X173690498Y-102029820D01*
X173654188Y-102149518D01*
X173641928Y-102274000D01*
X169840000Y-102274000D01*
X169840000Y-102077322D01*
X169843676Y-102039999D01*
X169840000Y-102002677D01*
X169840000Y-102002667D01*
X169829003Y-101891014D01*
X169785546Y-101747753D01*
X169762460Y-101704563D01*
X169714974Y-101615723D01*
X169643799Y-101528997D01*
X169620001Y-101499999D01*
X169591003Y-101476201D01*
X168774801Y-100660000D01*
X199215000Y-100660000D01*
X199215000Y-106584510D01*
%TA.AperFunction,Conductor*%
D25*
G36*
X199215000Y-106584510D02*
G01*
X199113005Y-106338273D01*
X198960120Y-106109465D01*
X198765535Y-105914880D01*
X198536727Y-105761995D01*
X198282490Y-105656686D01*
X198012592Y-105603000D01*
X197737408Y-105603000D01*
X197467510Y-105656686D01*
X197213273Y-105761995D01*
X196984465Y-105914880D01*
X196789880Y-106109465D01*
X196636995Y-106338273D01*
X196531686Y-106592510D01*
X196478000Y-106862408D01*
X196478000Y-107137592D01*
X196531686Y-107407490D01*
X196636995Y-107661727D01*
X196789880Y-107890535D01*
X196984465Y-108085120D01*
X197213273Y-108238005D01*
X197467510Y-108343314D01*
X197737408Y-108397000D01*
X198012592Y-108397000D01*
X198282490Y-108343314D01*
X198536727Y-108238005D01*
X198765535Y-108085120D01*
X198960120Y-107890535D01*
X199113005Y-107661727D01*
X199215000Y-107415490D01*
X199215000Y-111597805D01*
X199142636Y-111396977D01*
X199080656Y-111281020D01*
X198840565Y-111214040D01*
X198054605Y-112000000D01*
X198840565Y-112785960D01*
X199080656Y-112718980D01*
X199197756Y-112469952D01*
X199215000Y-112400449D01*
X199215001Y-116597805D01*
X199142636Y-116396977D01*
X199080656Y-116281020D01*
X198840565Y-116214040D01*
X198054605Y-117000000D01*
X198840565Y-117785960D01*
X199080656Y-117718980D01*
X199197756Y-117469952D01*
X199215001Y-117400448D01*
X199215001Y-119124511D01*
X199113005Y-118878273D01*
X198960120Y-118649465D01*
X198765535Y-118454880D01*
X198536727Y-118301995D01*
X198465057Y-118272308D01*
X198478023Y-118267636D01*
X198593980Y-118205656D01*
X198660960Y-117965565D01*
X197875000Y-117179605D01*
X197089040Y-117965565D01*
X197156020Y-118205656D01*
X197291760Y-118269485D01*
X197213273Y-118301995D01*
X196984465Y-118454880D01*
X196789880Y-118649465D01*
X196702659Y-118780000D01*
X193171325Y-118780000D01*
X193134000Y-118776324D01*
X193096675Y-118780000D01*
X193096667Y-118780000D01*
X192985014Y-118790997D01*
X192841753Y-118834454D01*
X192709724Y-118905026D01*
X192593999Y-118999999D01*
X192570201Y-119028997D01*
X191434199Y-120165000D01*
X150981046Y-120165000D01*
X150930537Y-120070506D01*
X150851185Y-119973815D01*
X150791704Y-119925000D01*
X150851185Y-119876185D01*
X150930537Y-119779494D01*
X150989502Y-119669180D01*
X151025812Y-119549482D01*
X151038072Y-119425000D01*
X151038072Y-118425000D01*
X151025812Y-118300518D01*
X150989502Y-118180820D01*
X150930537Y-118070506D01*
X150851185Y-117973815D01*
X150791704Y-117925000D01*
X150851185Y-117876185D01*
X150869392Y-117854000D01*
X151696289Y-117854000D01*
X151740226Y-117897937D01*
X151909744Y-118011205D01*
X152098102Y-118089226D01*
X152298061Y-118129000D01*
X152501939Y-118129000D01*
X152701898Y-118089226D01*
X152890256Y-118011205D01*
X153059774Y-117897937D01*
X153103711Y-117854000D01*
X164058678Y-117854000D01*
X164096000Y-117857676D01*
X164133322Y-117854000D01*
X164133333Y-117854000D01*
X164244986Y-117843003D01*
X164388247Y-117799546D01*
X164520276Y-117728974D01*
X164636001Y-117634001D01*
X164659803Y-117604998D01*
X165357004Y-116907798D01*
X165386001Y-116884001D01*
X165480974Y-116768276D01*
X165551546Y-116636247D01*
X165595003Y-116492986D01*
X165606000Y-116381333D01*
X165606000Y-116381324D01*
X165609676Y-116344001D01*
X165606000Y-116306678D01*
X165606000Y-103367711D01*
X165633937Y-103339774D01*
X165747205Y-103170256D01*
X165825226Y-102981898D01*
X165865000Y-102781939D01*
X165865000Y-102578061D01*
X165825226Y-102378102D01*
X165747205Y-102189744D01*
X165633937Y-102020226D01*
X165489774Y-101876063D01*
X165435802Y-101840000D01*
X165910582Y-101840000D01*
X165905000Y-101868061D01*
X165905000Y-102071939D01*
X165944774Y-102271898D01*
X166022795Y-102460256D01*
X166136063Y-102629774D01*
X166180001Y-102673712D01*
X166180000Y-117685198D01*
X165753199Y-118112000D01*
X155993322Y-118112000D01*
X155955999Y-118108324D01*
X155918676Y-118112000D01*
X155918667Y-118112000D01*
X155912545Y-118112603D01*
X155803939Y-118091000D01*
X155600061Y-118091000D01*
X155400102Y-118130774D01*
X155211744Y-118208795D01*
X155042226Y-118322063D01*
X154898063Y-118466226D01*
X154784795Y-118635744D01*
X154706774Y-118824102D01*
X154667000Y-119024061D01*
X154667000Y-119227939D01*
X154706774Y-119427898D01*
X154784795Y-119616256D01*
X154898063Y-119785774D01*
X155042226Y-119929937D01*
X155211744Y-120043205D01*
X155400102Y-120121226D01*
X155600061Y-120161000D01*
X155803939Y-120161000D01*
X156003898Y-120121226D01*
X156192256Y-120043205D01*
X156361774Y-119929937D01*
X156505937Y-119785774D01*
X156608685Y-119632000D01*
X166030678Y-119632000D01*
X166068000Y-119635676D01*
X166105322Y-119632000D01*
X166105333Y-119632000D01*
X166216986Y-119621003D01*
X166360247Y-119577546D01*
X166492276Y-119506974D01*
X166608001Y-119412001D01*
X166631803Y-119382998D01*
X167451004Y-118563798D01*
X167480001Y-118540001D01*
X167574974Y-118424276D01*
X167645546Y-118292247D01*
X167689003Y-118148986D01*
X167700000Y-118037333D01*
X167700000Y-118037324D01*
X167703676Y-118000001D01*
X167700000Y-117962678D01*
X167700000Y-117630000D01*
X183781928Y-117630000D01*
X183794188Y-117754482D01*
X183830498Y-117874180D01*
X183889463Y-117984494D01*
X183968815Y-118081185D01*
X184065506Y-118160537D01*
X184175820Y-118219502D01*
X184295518Y-118255812D01*
X184420000Y-118268072D01*
X185034250Y-118265000D01*
X185193000Y-118106250D01*
X185193000Y-117207000D01*
X185447000Y-117207000D01*
X185447000Y-118106250D01*
X185605750Y-118265000D01*
X186220000Y-118268072D01*
X186344482Y-118255812D01*
X186464180Y-118219502D01*
X186574494Y-118160537D01*
X186671185Y-118081185D01*
X186750537Y-117984494D01*
X186809502Y-117874180D01*
X186845812Y-117754482D01*
X186858072Y-117630000D01*
X189981928Y-117630000D01*
X189994188Y-117754482D01*
X190030498Y-117874180D01*
X190089463Y-117984494D01*
X190168815Y-118081185D01*
X190265506Y-118160537D01*
X190375820Y-118219502D01*
X190495518Y-118255812D01*
X190620000Y-118268072D01*
X191234250Y-118265000D01*
X191393000Y-118106250D01*
X191393000Y-117207000D01*
X191647000Y-117207000D01*
X191647000Y-118106250D01*
X191805750Y-118265000D01*
X192420000Y-118268072D01*
X192544482Y-118255812D01*
X192664180Y-118219502D01*
X192774494Y-118160537D01*
X192871185Y-118081185D01*
X192950537Y-117984494D01*
X193009502Y-117874180D01*
X193045812Y-117754482D01*
X193058072Y-117630000D01*
X193055000Y-117365750D01*
X192896250Y-117207000D01*
X191647000Y-117207000D01*
X191393000Y-117207000D01*
X190143750Y-117207000D01*
X189985000Y-117365750D01*
X189981928Y-117630000D01*
X186858072Y-117630000D01*
X186855000Y-117365750D01*
X186696250Y-117207000D01*
X185447000Y-117207000D01*
X185193000Y-117207000D01*
X183943750Y-117207000D01*
X183785000Y-117365750D01*
X183781928Y-117630000D01*
X167700000Y-117630000D01*
X167700000Y-117072017D01*
X196473090Y-117072017D01*
X196514078Y-117344133D01*
X196607364Y-117603023D01*
X196669344Y-117718980D01*
X196909435Y-117785960D01*
X197695395Y-117000000D01*
X196909435Y-116214040D01*
X196669344Y-116281020D01*
X196552244Y-116530048D01*
X196485977Y-116797135D01*
X196473090Y-117072017D01*
X167700000Y-117072017D01*
X167700000Y-116530000D01*
X183781928Y-116530000D01*
X183785000Y-116794250D01*
X183943750Y-116953000D01*
X185193000Y-116953000D01*
X185193000Y-116053750D01*
X185447000Y-116053750D01*
X185447000Y-116953000D01*
X186696250Y-116953000D01*
X186855000Y-116794250D01*
X186858072Y-116530000D01*
X189981928Y-116530000D01*
X189985000Y-116794250D01*
X190143750Y-116953000D01*
X191393000Y-116953000D01*
X191393000Y-116053750D01*
X191647000Y-116053750D01*
X191647000Y-116953000D01*
X192896250Y-116953000D01*
X193055000Y-116794250D01*
X193058072Y-116530000D01*
X193045812Y-116405518D01*
X193009502Y-116285820D01*
X192950537Y-116175506D01*
X192871185Y-116078815D01*
X192817108Y-116034435D01*
X197089040Y-116034435D01*
X197875000Y-116820395D01*
X198660960Y-116034435D01*
X198593980Y-115794344D01*
X198344952Y-115677244D01*
X198077865Y-115610977D01*
X197802983Y-115598090D01*
X197530867Y-115639078D01*
X197271977Y-115732364D01*
X197156020Y-115794344D01*
X197089040Y-116034435D01*
X192817108Y-116034435D01*
X192774494Y-115999463D01*
X192664180Y-115940498D01*
X192544482Y-115904188D01*
X192420000Y-115891928D01*
X191805750Y-115895000D01*
X191647000Y-116053750D01*
X191393000Y-116053750D01*
X191234250Y-115895000D01*
X190620000Y-115891928D01*
X190495518Y-115904188D01*
X190375820Y-115940498D01*
X190265506Y-115999463D01*
X190168815Y-116078815D01*
X190089463Y-116175506D01*
X190030498Y-116285820D01*
X189994188Y-116405518D01*
X189981928Y-116530000D01*
X186858072Y-116530000D01*
X186845812Y-116405518D01*
X186809502Y-116285820D01*
X186750537Y-116175506D01*
X186671185Y-116078815D01*
X186574494Y-115999463D01*
X186464180Y-115940498D01*
X186344482Y-115904188D01*
X186220000Y-115891928D01*
X185605750Y-115895000D01*
X185447000Y-116053750D01*
X185193000Y-116053750D01*
X185034250Y-115895000D01*
X184420000Y-115891928D01*
X184295518Y-115904188D01*
X184175820Y-115940498D01*
X184065506Y-115999463D01*
X183968815Y-116078815D01*
X183889463Y-116175506D01*
X183830498Y-116285820D01*
X183794188Y-116405518D01*
X183781928Y-116530000D01*
X167700000Y-116530000D01*
X167700000Y-102673711D01*
X167743937Y-102629774D01*
X167857205Y-102460256D01*
X167935226Y-102271898D01*
X167975000Y-102071939D01*
X167975000Y-102009801D01*
X168320001Y-102354803D01*
X168320000Y-107307332D01*
X168320001Y-107307342D01*
X168320000Y-111412677D01*
X168316324Y-111450000D01*
X168320000Y-111487322D01*
X168320000Y-111487332D01*
X168330997Y-111598985D01*
X168370132Y-111727999D01*
X168374454Y-111742246D01*
X168445026Y-111874276D01*
X168473511Y-111908985D01*
X168539999Y-111990001D01*
X168569003Y-112013804D01*
X170446201Y-113891003D01*
X170469999Y-113920001D01*
X170585724Y-114014974D01*
X170717753Y-114085546D01*
X170861014Y-114129003D01*
X170972667Y-114140000D01*
X170972676Y-114140000D01*
X171009999Y-114143676D01*
X171047322Y-114140000D01*
X183820130Y-114140000D01*
X183830498Y-114174180D01*
X183889463Y-114284494D01*
X183968815Y-114381185D01*
X184065506Y-114460537D01*
X184175820Y-114519502D01*
X184295518Y-114555812D01*
X184420000Y-114568072D01*
X186220000Y-114568072D01*
X186344482Y-114555812D01*
X186464180Y-114519502D01*
X186574494Y-114460537D01*
X186671185Y-114381185D01*
X186750537Y-114284494D01*
X186809502Y-114174180D01*
X186819870Y-114140000D01*
X190020130Y-114140000D01*
X190030498Y-114174180D01*
X190089463Y-114284494D01*
X190168815Y-114381185D01*
X190265506Y-114460537D01*
X190375820Y-114519502D01*
X190495518Y-114555812D01*
X190620000Y-114568072D01*
X192420000Y-114568072D01*
X192544482Y-114555812D01*
X192664180Y-114519502D01*
X192774494Y-114460537D01*
X192871185Y-114381185D01*
X192950537Y-114284494D01*
X193009502Y-114174180D01*
X193045812Y-114054482D01*
X193058072Y-113930000D01*
X193058072Y-112965565D01*
X197089040Y-112965565D01*
X197156020Y-113205656D01*
X197405048Y-113322756D01*
X197672135Y-113389023D01*
X197947017Y-113401910D01*
X198219133Y-113360922D01*
X198478023Y-113267636D01*
X198593980Y-113205656D01*
X198660960Y-112965565D01*
X197875000Y-112179605D01*
X197089040Y-112965565D01*
X193058072Y-112965565D01*
X193058072Y-112830000D01*
X193045812Y-112705518D01*
X193009502Y-112585820D01*
X192950537Y-112475506D01*
X192871185Y-112378815D01*
X192774494Y-112299463D01*
X192664180Y-112240498D01*
X192544482Y-112204188D01*
X192420000Y-112191928D01*
X190620000Y-112191928D01*
X190495518Y-112204188D01*
X190375820Y-112240498D01*
X190265506Y-112299463D01*
X190168815Y-112378815D01*
X190089463Y-112475506D01*
X190030498Y-112585820D01*
X190020130Y-112620000D01*
X186819870Y-112620000D01*
X186809502Y-112585820D01*
X186750537Y-112475506D01*
X186671185Y-112378815D01*
X186574494Y-112299463D01*
X186464180Y-112240498D01*
X186344482Y-112204188D01*
X186220000Y-112191928D01*
X184420000Y-112191928D01*
X184295518Y-112204188D01*
X184175820Y-112240498D01*
X184065506Y-112299463D01*
X183968815Y-112378815D01*
X183889463Y-112475506D01*
X183830498Y-112585820D01*
X183820130Y-112620000D01*
X171324802Y-112620000D01*
X170776819Y-112072017D01*
X196473090Y-112072017D01*
X196514078Y-112344133D01*
X196607364Y-112603023D01*
X196669344Y-112718980D01*
X196909435Y-112785960D01*
X197695395Y-112000000D01*
X196909435Y-111214040D01*
X196669344Y-111281020D01*
X196552244Y-111530048D01*
X196485977Y-111797135D01*
X196473090Y-112072017D01*
X170776819Y-112072017D01*
X169840000Y-111135199D01*
X169840000Y-111034435D01*
X197089040Y-111034435D01*
X197875000Y-111820395D01*
X198660960Y-111034435D01*
X198593980Y-110794344D01*
X198344952Y-110677244D01*
X198077865Y-110610977D01*
X197802983Y-110598090D01*
X197530867Y-110639078D01*
X197271977Y-110732364D01*
X197156020Y-110794344D01*
X197089040Y-111034435D01*
X169840000Y-111034435D01*
X169840000Y-105124495D01*
X184145000Y-105124495D01*
X184145000Y-105515505D01*
X184221282Y-105899003D01*
X184370915Y-106260250D01*
X184588149Y-106585364D01*
X184864636Y-106861851D01*
X185189750Y-107079085D01*
X185550997Y-107228718D01*
X185934495Y-107305000D01*
X186325505Y-107305000D01*
X186709003Y-107228718D01*
X187070250Y-107079085D01*
X187395364Y-106861851D01*
X187587215Y-106670000D01*
X189141928Y-106670000D01*
X189154188Y-106794482D01*
X189190498Y-106914180D01*
X189249463Y-107024494D01*
X189328815Y-107121185D01*
X189425506Y-107200537D01*
X189535820Y-107259502D01*
X189655518Y-107295812D01*
X189780000Y-107308072D01*
X190844250Y-107305000D01*
X191003000Y-107146250D01*
X191003000Y-105447000D01*
X191257000Y-105447000D01*
X191257000Y-107146250D01*
X191415750Y-107305000D01*
X192480000Y-107308072D01*
X192604482Y-107295812D01*
X192724180Y-107259502D01*
X192834494Y-107200537D01*
X192931185Y-107121185D01*
X193010537Y-107024494D01*
X193069502Y-106914180D01*
X193105812Y-106794482D01*
X193118072Y-106670000D01*
X193115000Y-105605750D01*
X192956250Y-105447000D01*
X191257000Y-105447000D01*
X191003000Y-105447000D01*
X189303750Y-105447000D01*
X189145000Y-105605750D01*
X189141928Y-106670000D01*
X187587215Y-106670000D01*
X187671851Y-106585364D01*
X187889085Y-106260250D01*
X188038718Y-105899003D01*
X188115000Y-105515505D01*
X188115000Y-105124495D01*
X188038718Y-104740997D01*
X187889085Y-104379750D01*
X187671851Y-104054636D01*
X187587215Y-103970000D01*
X189141928Y-103970000D01*
X189145000Y-105034250D01*
X189303750Y-105193000D01*
X191003000Y-105193000D01*
X191003000Y-103493750D01*
X191257000Y-103493750D01*
X191257000Y-105193000D01*
X192956250Y-105193000D01*
X193115000Y-105034250D01*
X193118072Y-103970000D01*
X193105812Y-103845518D01*
X193069502Y-103725820D01*
X193010537Y-103615506D01*
X192931185Y-103518815D01*
X192834494Y-103439463D01*
X192724180Y-103380498D01*
X192604482Y-103344188D01*
X192480000Y-103331928D01*
X191415750Y-103335000D01*
X191257000Y-103493750D01*
X191003000Y-103493750D01*
X190844250Y-103335000D01*
X189780000Y-103331928D01*
X189655518Y-103344188D01*
X189535820Y-103380498D01*
X189425506Y-103439463D01*
X189328815Y-103518815D01*
X189249463Y-103615506D01*
X189190498Y-103725820D01*
X189154188Y-103845518D01*
X189141928Y-103970000D01*
X187587215Y-103970000D01*
X187395364Y-103778149D01*
X187070250Y-103560915D01*
X186709003Y-103411282D01*
X186325505Y-103335000D01*
X185934495Y-103335000D01*
X185550997Y-103411282D01*
X185189750Y-103560915D01*
X184864636Y-103778149D01*
X184588149Y-104054636D01*
X184370915Y-104379750D01*
X184221282Y-104740997D01*
X184145000Y-105124495D01*
X169840000Y-105124495D01*
X169840000Y-102274000D01*
X173641928Y-102274000D01*
X173641928Y-103974000D01*
X173654188Y-104098482D01*
X173690498Y-104218180D01*
X173749463Y-104328494D01*
X173828815Y-104425185D01*
X173925506Y-104504537D01*
X174035820Y-104563502D01*
X174155518Y-104599812D01*
X174280000Y-104612072D01*
X175980000Y-104612072D01*
X176104482Y-104599812D01*
X176224180Y-104563502D01*
X176334494Y-104504537D01*
X176431185Y-104425185D01*
X176510537Y-104328494D01*
X176569502Y-104218180D01*
X176591513Y-104145620D01*
X176723368Y-104277475D01*
X176966589Y-104439990D01*
X177236842Y-104551932D01*
X177523740Y-104609000D01*
X177816260Y-104609000D01*
X178103158Y-104551932D01*
X178373411Y-104439990D01*
X178616632Y-104277475D01*
X178823475Y-104070632D01*
X178945195Y-103888466D01*
X179014822Y-104005355D01*
X179209731Y-104221588D01*
X179443080Y-104395641D01*
X179705901Y-104520825D01*
X179853110Y-104565476D01*
X180083000Y-104444155D01*
X180083000Y-103251000D01*
X180337000Y-103251000D01*
X180337000Y-104444155D01*
X180566890Y-104565476D01*
X180714099Y-104520825D01*
X180976920Y-104395641D01*
X181210269Y-104221588D01*
X181405178Y-104005355D01*
X181554157Y-103755252D01*
X181651481Y-103480891D01*
X181530814Y-103251000D01*
X180337000Y-103251000D01*
X180083000Y-103251000D01*
X180063000Y-103251000D01*
X180063000Y-102997000D01*
X180083000Y-102997000D01*
X180083000Y-101803845D01*
X180337000Y-101803845D01*
X180337000Y-102997000D01*
X181530814Y-102997000D01*
X181651481Y-102767109D01*
X181554157Y-102492748D01*
X181405178Y-102242645D01*
X181210269Y-102026412D01*
X180976920Y-101852359D01*
X180714099Y-101727175D01*
X180566890Y-101682524D01*
X180337000Y-101803845D01*
X180083000Y-101803845D01*
X179853110Y-101682524D01*
X179705901Y-101727175D01*
X179443080Y-101852359D01*
X179209731Y-102026412D01*
X179014822Y-102242645D01*
X178945195Y-102359534D01*
X178823475Y-102177368D01*
X178616632Y-101970525D01*
X178373411Y-101808010D01*
X178103158Y-101696068D01*
X177816260Y-101639000D01*
X177523740Y-101639000D01*
X177236842Y-101696068D01*
X176966589Y-101808010D01*
X176723368Y-101970525D01*
X176591513Y-102102380D01*
X176569502Y-102029820D01*
X176510537Y-101919506D01*
X176431185Y-101822815D01*
X176334494Y-101743463D01*
X176224180Y-101684498D01*
X176104482Y-101648188D01*
X175980000Y-101635928D01*
X174280000Y-101635928D01*
X174155518Y-101648188D01*
X174035820Y-101684498D01*
X173925506Y-101743463D01*
X173828815Y-101822815D01*
X173749463Y-101919506D01*
X173690498Y-102029820D01*
X173654188Y-102149518D01*
X173641928Y-102274000D01*
X169840000Y-102274000D01*
X169840000Y-102077322D01*
X169843676Y-102039999D01*
X169840000Y-102002677D01*
X169840000Y-102002667D01*
X169829003Y-101891014D01*
X169785546Y-101747753D01*
X169762460Y-101704563D01*
X169714974Y-101615723D01*
X169643799Y-101528997D01*
X169620001Y-101499999D01*
X169591003Y-101476201D01*
X168774801Y-100660000D01*
X199215000Y-100660000D01*
X199215000Y-106584510D01*
G37*
%TD.AperFunction*%
D24*
X137799139Y-118193941D02*
X137739986Y-118175997D01*
X137628333Y-118165000D01*
X137628322Y-118165000D01*
X137591000Y-118161324D01*
X137553678Y-118165000D01*
X135781046Y-118165000D01*
X135730537Y-118070506D01*
X135651185Y-117973815D01*
X135591704Y-117925000D01*
X135651185Y-117876185D01*
X135730537Y-117779494D01*
X135781046Y-117685000D01*
X137290199Y-117685000D01*
X137799139Y-118193941D01*
%TA.AperFunction,Conductor*%
D25*
G36*
X137799139Y-118193941D02*
G01*
X137739986Y-118175997D01*
X137628333Y-118165000D01*
X137628322Y-118165000D01*
X137591000Y-118161324D01*
X137553678Y-118165000D01*
X135781046Y-118165000D01*
X135730537Y-118070506D01*
X135651185Y-117973815D01*
X135591704Y-117925000D01*
X135651185Y-117876185D01*
X135730537Y-117779494D01*
X135781046Y-117685000D01*
X137290199Y-117685000D01*
X137799139Y-118193941D01*
G37*
%TD.AperFunction*%
D24*
X157870199Y-101305000D02*
X157808061Y-101305000D01*
X157608102Y-101344774D01*
X157419744Y-101422795D01*
X157250226Y-101536063D01*
X157106063Y-101680226D01*
X156992795Y-101849744D01*
X156914774Y-102038102D01*
X156875000Y-102238061D01*
X156875000Y-102441939D01*
X156914774Y-102641898D01*
X156992795Y-102830256D01*
X157106063Y-102999774D01*
X157250226Y-103143937D01*
X157419744Y-103257205D01*
X157608102Y-103335226D01*
X157808061Y-103375000D01*
X158011939Y-103375000D01*
X158211898Y-103335226D01*
X158400256Y-103257205D01*
X158569774Y-103143937D01*
X158642028Y-103071683D01*
X158642028Y-104289550D01*
X158654288Y-104414032D01*
X158690598Y-104533730D01*
X158749563Y-104644044D01*
X158828915Y-104740735D01*
X158925606Y-104820087D01*
X159035920Y-104879052D01*
X159155618Y-104915362D01*
X159280100Y-104927622D01*
X162678620Y-104927622D01*
X162803102Y-104915362D01*
X162922800Y-104879052D01*
X163033114Y-104820087D01*
X163129805Y-104740735D01*
X163209157Y-104644044D01*
X163268122Y-104533730D01*
X163304432Y-104414032D01*
X163316692Y-104289550D01*
X163316692Y-102691890D01*
X163304432Y-102567408D01*
X163268122Y-102447710D01*
X163209157Y-102337396D01*
X163129805Y-102240705D01*
X163033114Y-102161353D01*
X162922800Y-102102388D01*
X162803102Y-102066078D01*
X162678620Y-102053818D01*
X159280100Y-102053818D01*
X159269988Y-102054814D01*
X159484802Y-101840000D01*
X164224198Y-101840000D01*
X164170226Y-101876063D01*
X164026063Y-102020226D01*
X163912795Y-102189744D01*
X163834774Y-102378102D01*
X163795000Y-102578061D01*
X163795000Y-102781939D01*
X163834774Y-102981898D01*
X163912795Y-103170256D01*
X164026063Y-103339774D01*
X164086001Y-103399712D01*
X164086000Y-104301332D01*
X164086001Y-104301342D01*
X164086000Y-116029198D01*
X163781199Y-116334000D01*
X153103711Y-116334000D01*
X153059774Y-116290063D01*
X152890256Y-116176795D01*
X152701898Y-116098774D01*
X152501939Y-116059000D01*
X152298061Y-116059000D01*
X152098102Y-116098774D01*
X151909744Y-116176795D01*
X151740226Y-116290063D01*
X151696289Y-116334000D01*
X151029110Y-116334000D01*
X151025812Y-116300518D01*
X150989502Y-116180820D01*
X150930537Y-116070506D01*
X150851185Y-115973815D01*
X150791704Y-115925000D01*
X150851185Y-115876185D01*
X150930537Y-115779494D01*
X150989502Y-115669180D01*
X151025812Y-115549482D01*
X151038072Y-115425000D01*
X151038072Y-114425000D01*
X151025812Y-114300518D01*
X150989502Y-114180820D01*
X150930537Y-114070506D01*
X150851185Y-113973815D01*
X150791704Y-113925000D01*
X150851185Y-113876185D01*
X150930537Y-113779494D01*
X150989502Y-113669180D01*
X151025812Y-113549482D01*
X151038072Y-113425000D01*
X151038072Y-112425000D01*
X151025812Y-112300518D01*
X150989502Y-112180820D01*
X150930537Y-112070506D01*
X150851185Y-111973815D01*
X150791704Y-111925000D01*
X150851185Y-111876185D01*
X150930537Y-111779494D01*
X150989502Y-111669180D01*
X151025812Y-111549482D01*
X151038072Y-111425000D01*
X151038072Y-110425000D01*
X151037389Y-110418061D01*
X151619000Y-110418061D01*
X151619000Y-110621939D01*
X151658774Y-110821898D01*
X151736795Y-111010256D01*
X151850063Y-111179774D01*
X151994226Y-111323937D01*
X152163744Y-111437205D01*
X152352102Y-111515226D01*
X152547172Y-111554027D01*
X152397003Y-111704196D01*
X152367999Y-111727999D01*
X152326144Y-111779000D01*
X152273026Y-111843724D01*
X152213260Y-111955537D01*
X152202454Y-111975754D01*
X152158997Y-112119015D01*
X152148000Y-112230668D01*
X152148000Y-112230678D01*
X152144324Y-112268000D01*
X152148000Y-112305322D01*
X152148000Y-112356289D01*
X152104063Y-112400226D01*
X151990795Y-112569744D01*
X151912774Y-112758102D01*
X151873000Y-112958061D01*
X151873000Y-113161939D01*
X151912774Y-113361898D01*
X151990795Y-113550256D01*
X152104063Y-113719774D01*
X152248226Y-113863937D01*
X152417744Y-113977205D01*
X152606102Y-114055226D01*
X152806061Y-114095000D01*
X153009939Y-114095000D01*
X153209898Y-114055226D01*
X153398256Y-113977205D01*
X153567774Y-113863937D01*
X153711937Y-113719774D01*
X153825205Y-113550256D01*
X153849977Y-113490450D01*
X158642028Y-113490450D01*
X158642028Y-115088110D01*
X158654288Y-115212592D01*
X158690598Y-115332290D01*
X158749563Y-115442604D01*
X158828915Y-115539295D01*
X158925606Y-115618647D01*
X159035920Y-115677612D01*
X159155618Y-115713922D01*
X159280100Y-115726182D01*
X162678620Y-115726182D01*
X162803102Y-115713922D01*
X162922800Y-115677612D01*
X163033114Y-115618647D01*
X163129805Y-115539295D01*
X163209157Y-115442604D01*
X163268122Y-115332290D01*
X163304432Y-115212592D01*
X163316692Y-115088110D01*
X163316692Y-113490450D01*
X163304432Y-113365968D01*
X163268122Y-113246270D01*
X163209157Y-113135956D01*
X163129805Y-113039265D01*
X163033114Y-112959913D01*
X162922800Y-112900948D01*
X162803102Y-112864638D01*
X162678620Y-112852378D01*
X159280100Y-112852378D01*
X159155618Y-112864638D01*
X159035920Y-112900948D01*
X158925606Y-112959913D01*
X158828915Y-113039265D01*
X158749563Y-113135956D01*
X158690598Y-113246270D01*
X158654288Y-113365968D01*
X158642028Y-113490450D01*
X153849977Y-113490450D01*
X153903226Y-113361898D01*
X153943000Y-113161939D01*
X153943000Y-113026162D01*
X158082490Y-113026162D01*
X158206972Y-113013902D01*
X158326670Y-112977592D01*
X158436984Y-112918627D01*
X158533675Y-112839275D01*
X158613027Y-112742584D01*
X158671992Y-112632270D01*
X158708302Y-112512572D01*
X158720562Y-112388090D01*
X158720562Y-111389870D01*
X158708302Y-111265388D01*
X158671992Y-111145690D01*
X158613027Y-111035376D01*
X158533675Y-110938685D01*
X158473731Y-110889490D01*
X158533675Y-110840295D01*
X158613027Y-110743604D01*
X158671992Y-110633290D01*
X158708302Y-110513592D01*
X158720562Y-110389110D01*
X158720562Y-109390890D01*
X158708302Y-109266408D01*
X158671992Y-109146710D01*
X158613027Y-109036396D01*
X158533675Y-108939705D01*
X158473731Y-108890510D01*
X158533675Y-108841315D01*
X158613027Y-108744624D01*
X158671992Y-108634310D01*
X158708302Y-108514612D01*
X158720562Y-108390130D01*
X158717490Y-108176770D01*
X158558740Y-108018020D01*
X155909520Y-108018020D01*
X155909520Y-108038020D01*
X155655520Y-108038020D01*
X155655520Y-108018020D01*
X153006300Y-108018020D01*
X152847550Y-108176770D01*
X152844478Y-108390130D01*
X152856738Y-108514612D01*
X152893048Y-108634310D01*
X152952013Y-108744624D01*
X153031365Y-108841315D01*
X153091309Y-108890510D01*
X153031365Y-108939705D01*
X152952013Y-109036396D01*
X152893048Y-109146710D01*
X152860281Y-109254728D01*
X152859724Y-109255026D01*
X152743999Y-109349999D01*
X152720200Y-109378998D01*
X152614198Y-109485000D01*
X152552061Y-109485000D01*
X152352102Y-109524774D01*
X152163744Y-109602795D01*
X151994226Y-109716063D01*
X151850063Y-109860226D01*
X151736795Y-110029744D01*
X151658774Y-110218102D01*
X151619000Y-110418061D01*
X151037389Y-110418061D01*
X151025812Y-110300518D01*
X150989502Y-110180820D01*
X150930537Y-110070506D01*
X150851185Y-109973815D01*
X150799713Y-109931573D01*
X150881898Y-109915226D01*
X151070256Y-109837205D01*
X151239774Y-109723937D01*
X151383937Y-109579774D01*
X151497205Y-109410256D01*
X151575226Y-109221898D01*
X151615000Y-109021939D01*
X151615000Y-108818061D01*
X151575226Y-108618102D01*
X151497205Y-108429744D01*
X151383937Y-108260226D01*
X151239774Y-108116063D01*
X151178195Y-108074917D01*
X151546627Y-107770125D01*
X151588767Y-107727689D01*
X151631517Y-107685826D01*
X151637391Y-107678725D01*
X151945767Y-107300618D01*
X151978859Y-107250809D01*
X152012666Y-107201437D01*
X152017047Y-107193333D01*
X152017051Y-107193325D01*
X152246111Y-106762527D01*
X152268910Y-106707212D01*
X152292471Y-106652240D01*
X152295196Y-106643437D01*
X152436219Y-106176348D01*
X152447845Y-106117631D01*
X152460275Y-106059155D01*
X152461238Y-106049991D01*
X152508850Y-105564404D01*
X152508850Y-105564402D01*
X152512000Y-105532419D01*
X152512000Y-104928061D01*
X152825000Y-104928061D01*
X152825000Y-105131939D01*
X152855085Y-105283189D01*
X152844478Y-105390890D01*
X152844478Y-106389110D01*
X152856738Y-106513592D01*
X152893048Y-106633290D01*
X152952013Y-106743604D01*
X153031365Y-106840295D01*
X153092552Y-106890510D01*
X153031365Y-106940725D01*
X152952013Y-107037416D01*
X152893048Y-107147730D01*
X152856738Y-107267428D01*
X152844478Y-107391910D01*
X152847550Y-107605270D01*
X153006300Y-107764020D01*
X155655520Y-107764020D01*
X155655520Y-107744020D01*
X155909520Y-107744020D01*
X155909520Y-107764020D01*
X158558740Y-107764020D01*
X158717490Y-107605270D01*
X158720562Y-107391910D01*
X158708302Y-107267428D01*
X158671992Y-107147730D01*
X158613027Y-107037416D01*
X158533675Y-106940725D01*
X158472488Y-106890510D01*
X158533675Y-106840295D01*
X158613027Y-106743604D01*
X158671992Y-106633290D01*
X158708302Y-106513592D01*
X158720562Y-106389110D01*
X158720562Y-105390890D01*
X158708302Y-105266408D01*
X158671992Y-105146710D01*
X158613027Y-105036396D01*
X158533675Y-104939705D01*
X158436984Y-104860353D01*
X158326670Y-104801388D01*
X158206972Y-104765078D01*
X158082490Y-104752818D01*
X155720139Y-104752818D01*
X155486323Y-104519002D01*
X155462521Y-104489999D01*
X155346796Y-104395026D01*
X155214767Y-104324454D01*
X155071506Y-104280997D01*
X154959853Y-104270000D01*
X154959842Y-104270000D01*
X154922520Y-104266324D01*
X154885198Y-104270000D01*
X154563711Y-104270000D01*
X154519774Y-104226063D01*
X154350256Y-104112795D01*
X154161898Y-104034774D01*
X153961939Y-103995000D01*
X153758061Y-103995000D01*
X153558102Y-104034774D01*
X153369744Y-104112795D01*
X153200226Y-104226063D01*
X153056063Y-104370226D01*
X152942795Y-104539744D01*
X152864774Y-104728102D01*
X152825000Y-104928061D01*
X152512000Y-104928061D01*
X152512000Y-102532276D01*
X152550147Y-102143225D01*
X152653763Y-101800033D01*
X152822062Y-101483511D01*
X153048637Y-101205701D01*
X153324856Y-100977194D01*
X153640197Y-100806690D01*
X153982656Y-100700681D01*
X154369712Y-100660000D01*
X158515198Y-100660000D01*
X157870199Y-101305000D01*
%TA.AperFunction,Conductor*%
D25*
G36*
X157870199Y-101305000D02*
G01*
X157808061Y-101305000D01*
X157608102Y-101344774D01*
X157419744Y-101422795D01*
X157250226Y-101536063D01*
X157106063Y-101680226D01*
X156992795Y-101849744D01*
X156914774Y-102038102D01*
X156875000Y-102238061D01*
X156875000Y-102441939D01*
X156914774Y-102641898D01*
X156992795Y-102830256D01*
X157106063Y-102999774D01*
X157250226Y-103143937D01*
X157419744Y-103257205D01*
X157608102Y-103335226D01*
X157808061Y-103375000D01*
X158011939Y-103375000D01*
X158211898Y-103335226D01*
X158400256Y-103257205D01*
X158569774Y-103143937D01*
X158642028Y-103071683D01*
X158642028Y-104289550D01*
X158654288Y-104414032D01*
X158690598Y-104533730D01*
X158749563Y-104644044D01*
X158828915Y-104740735D01*
X158925606Y-104820087D01*
X159035920Y-104879052D01*
X159155618Y-104915362D01*
X159280100Y-104927622D01*
X162678620Y-104927622D01*
X162803102Y-104915362D01*
X162922800Y-104879052D01*
X163033114Y-104820087D01*
X163129805Y-104740735D01*
X163209157Y-104644044D01*
X163268122Y-104533730D01*
X163304432Y-104414032D01*
X163316692Y-104289550D01*
X163316692Y-102691890D01*
X163304432Y-102567408D01*
X163268122Y-102447710D01*
X163209157Y-102337396D01*
X163129805Y-102240705D01*
X163033114Y-102161353D01*
X162922800Y-102102388D01*
X162803102Y-102066078D01*
X162678620Y-102053818D01*
X159280100Y-102053818D01*
X159269988Y-102054814D01*
X159484802Y-101840000D01*
X164224198Y-101840000D01*
X164170226Y-101876063D01*
X164026063Y-102020226D01*
X163912795Y-102189744D01*
X163834774Y-102378102D01*
X163795000Y-102578061D01*
X163795000Y-102781939D01*
X163834774Y-102981898D01*
X163912795Y-103170256D01*
X164026063Y-103339774D01*
X164086001Y-103399712D01*
X164086000Y-104301332D01*
X164086001Y-104301342D01*
X164086000Y-116029198D01*
X163781199Y-116334000D01*
X153103711Y-116334000D01*
X153059774Y-116290063D01*
X152890256Y-116176795D01*
X152701898Y-116098774D01*
X152501939Y-116059000D01*
X152298061Y-116059000D01*
X152098102Y-116098774D01*
X151909744Y-116176795D01*
X151740226Y-116290063D01*
X151696289Y-116334000D01*
X151029110Y-116334000D01*
X151025812Y-116300518D01*
X150989502Y-116180820D01*
X150930537Y-116070506D01*
X150851185Y-115973815D01*
X150791704Y-115925000D01*
X150851185Y-115876185D01*
X150930537Y-115779494D01*
X150989502Y-115669180D01*
X151025812Y-115549482D01*
X151038072Y-115425000D01*
X151038072Y-114425000D01*
X151025812Y-114300518D01*
X150989502Y-114180820D01*
X150930537Y-114070506D01*
X150851185Y-113973815D01*
X150791704Y-113925000D01*
X150851185Y-113876185D01*
X150930537Y-113779494D01*
X150989502Y-113669180D01*
X151025812Y-113549482D01*
X151038072Y-113425000D01*
X151038072Y-112425000D01*
X151025812Y-112300518D01*
X150989502Y-112180820D01*
X150930537Y-112070506D01*
X150851185Y-111973815D01*
X150791704Y-111925000D01*
X150851185Y-111876185D01*
X150930537Y-111779494D01*
X150989502Y-111669180D01*
X151025812Y-111549482D01*
X151038072Y-111425000D01*
X151038072Y-110425000D01*
X151037389Y-110418061D01*
X151619000Y-110418061D01*
X151619000Y-110621939D01*
X151658774Y-110821898D01*
X151736795Y-111010256D01*
X151850063Y-111179774D01*
X151994226Y-111323937D01*
X152163744Y-111437205D01*
X152352102Y-111515226D01*
X152547172Y-111554027D01*
X152397003Y-111704196D01*
X152367999Y-111727999D01*
X152326144Y-111779000D01*
X152273026Y-111843724D01*
X152213260Y-111955537D01*
X152202454Y-111975754D01*
X152158997Y-112119015D01*
X152148000Y-112230668D01*
X152148000Y-112230678D01*
X152144324Y-112268000D01*
X152148000Y-112305322D01*
X152148000Y-112356289D01*
X152104063Y-112400226D01*
X151990795Y-112569744D01*
X151912774Y-112758102D01*
X151873000Y-112958061D01*
X151873000Y-113161939D01*
X151912774Y-113361898D01*
X151990795Y-113550256D01*
X152104063Y-113719774D01*
X152248226Y-113863937D01*
X152417744Y-113977205D01*
X152606102Y-114055226D01*
X152806061Y-114095000D01*
X153009939Y-114095000D01*
X153209898Y-114055226D01*
X153398256Y-113977205D01*
X153567774Y-113863937D01*
X153711937Y-113719774D01*
X153825205Y-113550256D01*
X153849977Y-113490450D01*
X158642028Y-113490450D01*
X158642028Y-115088110D01*
X158654288Y-115212592D01*
X158690598Y-115332290D01*
X158749563Y-115442604D01*
X158828915Y-115539295D01*
X158925606Y-115618647D01*
X159035920Y-115677612D01*
X159155618Y-115713922D01*
X159280100Y-115726182D01*
X162678620Y-115726182D01*
X162803102Y-115713922D01*
X162922800Y-115677612D01*
X163033114Y-115618647D01*
X163129805Y-115539295D01*
X163209157Y-115442604D01*
X163268122Y-115332290D01*
X163304432Y-115212592D01*
X163316692Y-115088110D01*
X163316692Y-113490450D01*
X163304432Y-113365968D01*
X163268122Y-113246270D01*
X163209157Y-113135956D01*
X163129805Y-113039265D01*
X163033114Y-112959913D01*
X162922800Y-112900948D01*
X162803102Y-112864638D01*
X162678620Y-112852378D01*
X159280100Y-112852378D01*
X159155618Y-112864638D01*
X159035920Y-112900948D01*
X158925606Y-112959913D01*
X158828915Y-113039265D01*
X158749563Y-113135956D01*
X158690598Y-113246270D01*
X158654288Y-113365968D01*
X158642028Y-113490450D01*
X153849977Y-113490450D01*
X153903226Y-113361898D01*
X153943000Y-113161939D01*
X153943000Y-113026162D01*
X158082490Y-113026162D01*
X158206972Y-113013902D01*
X158326670Y-112977592D01*
X158436984Y-112918627D01*
X158533675Y-112839275D01*
X158613027Y-112742584D01*
X158671992Y-112632270D01*
X158708302Y-112512572D01*
X158720562Y-112388090D01*
X158720562Y-111389870D01*
X158708302Y-111265388D01*
X158671992Y-111145690D01*
X158613027Y-111035376D01*
X158533675Y-110938685D01*
X158473731Y-110889490D01*
X158533675Y-110840295D01*
X158613027Y-110743604D01*
X158671992Y-110633290D01*
X158708302Y-110513592D01*
X158720562Y-110389110D01*
X158720562Y-109390890D01*
X158708302Y-109266408D01*
X158671992Y-109146710D01*
X158613027Y-109036396D01*
X158533675Y-108939705D01*
X158473731Y-108890510D01*
X158533675Y-108841315D01*
X158613027Y-108744624D01*
X158671992Y-108634310D01*
X158708302Y-108514612D01*
X158720562Y-108390130D01*
X158717490Y-108176770D01*
X158558740Y-108018020D01*
X155909520Y-108018020D01*
X155909520Y-108038020D01*
X155655520Y-108038020D01*
X155655520Y-108018020D01*
X153006300Y-108018020D01*
X152847550Y-108176770D01*
X152844478Y-108390130D01*
X152856738Y-108514612D01*
X152893048Y-108634310D01*
X152952013Y-108744624D01*
X153031365Y-108841315D01*
X153091309Y-108890510D01*
X153031365Y-108939705D01*
X152952013Y-109036396D01*
X152893048Y-109146710D01*
X152860281Y-109254728D01*
X152859724Y-109255026D01*
X152743999Y-109349999D01*
X152720200Y-109378998D01*
X152614198Y-109485000D01*
X152552061Y-109485000D01*
X152352102Y-109524774D01*
X152163744Y-109602795D01*
X151994226Y-109716063D01*
X151850063Y-109860226D01*
X151736795Y-110029744D01*
X151658774Y-110218102D01*
X151619000Y-110418061D01*
X151037389Y-110418061D01*
X151025812Y-110300518D01*
X150989502Y-110180820D01*
X150930537Y-110070506D01*
X150851185Y-109973815D01*
X150799713Y-109931573D01*
X150881898Y-109915226D01*
X151070256Y-109837205D01*
X151239774Y-109723937D01*
X151383937Y-109579774D01*
X151497205Y-109410256D01*
X151575226Y-109221898D01*
X151615000Y-109021939D01*
X151615000Y-108818061D01*
X151575226Y-108618102D01*
X151497205Y-108429744D01*
X151383937Y-108260226D01*
X151239774Y-108116063D01*
X151178195Y-108074917D01*
X151546627Y-107770125D01*
X151588767Y-107727689D01*
X151631517Y-107685826D01*
X151637391Y-107678725D01*
X151945767Y-107300618D01*
X151978859Y-107250809D01*
X152012666Y-107201437D01*
X152017047Y-107193333D01*
X152017051Y-107193325D01*
X152246111Y-106762527D01*
X152268910Y-106707212D01*
X152292471Y-106652240D01*
X152295196Y-106643437D01*
X152436219Y-106176348D01*
X152447845Y-106117631D01*
X152460275Y-106059155D01*
X152461238Y-106049991D01*
X152508850Y-105564404D01*
X152508850Y-105564402D01*
X152512000Y-105532419D01*
X152512000Y-104928061D01*
X152825000Y-104928061D01*
X152825000Y-105131939D01*
X152855085Y-105283189D01*
X152844478Y-105390890D01*
X152844478Y-106389110D01*
X152856738Y-106513592D01*
X152893048Y-106633290D01*
X152952013Y-106743604D01*
X153031365Y-106840295D01*
X153092552Y-106890510D01*
X153031365Y-106940725D01*
X152952013Y-107037416D01*
X152893048Y-107147730D01*
X152856738Y-107267428D01*
X152844478Y-107391910D01*
X152847550Y-107605270D01*
X153006300Y-107764020D01*
X155655520Y-107764020D01*
X155655520Y-107744020D01*
X155909520Y-107744020D01*
X155909520Y-107764020D01*
X158558740Y-107764020D01*
X158717490Y-107605270D01*
X158720562Y-107391910D01*
X158708302Y-107267428D01*
X158671992Y-107147730D01*
X158613027Y-107037416D01*
X158533675Y-106940725D01*
X158472488Y-106890510D01*
X158533675Y-106840295D01*
X158613027Y-106743604D01*
X158671992Y-106633290D01*
X158708302Y-106513592D01*
X158720562Y-106389110D01*
X158720562Y-105390890D01*
X158708302Y-105266408D01*
X158671992Y-105146710D01*
X158613027Y-105036396D01*
X158533675Y-104939705D01*
X158436984Y-104860353D01*
X158326670Y-104801388D01*
X158206972Y-104765078D01*
X158082490Y-104752818D01*
X155720139Y-104752818D01*
X155486323Y-104519002D01*
X155462521Y-104489999D01*
X155346796Y-104395026D01*
X155214767Y-104324454D01*
X155071506Y-104280997D01*
X154959853Y-104270000D01*
X154959842Y-104270000D01*
X154922520Y-104266324D01*
X154885198Y-104270000D01*
X154563711Y-104270000D01*
X154519774Y-104226063D01*
X154350256Y-104112795D01*
X154161898Y-104034774D01*
X153961939Y-103995000D01*
X153758061Y-103995000D01*
X153558102Y-104034774D01*
X153369744Y-104112795D01*
X153200226Y-104226063D01*
X153056063Y-104370226D01*
X152942795Y-104539744D01*
X152864774Y-104728102D01*
X152825000Y-104928061D01*
X152512000Y-104928061D01*
X152512000Y-102532276D01*
X152550147Y-102143225D01*
X152653763Y-101800033D01*
X152822062Y-101483511D01*
X153048637Y-101205701D01*
X153324856Y-100977194D01*
X153640197Y-100806690D01*
X153982656Y-100700681D01*
X154369712Y-100660000D01*
X158515198Y-100660000D01*
X157870199Y-101305000D01*
G37*
%TD.AperFunction*%
%TD*%
M02*
