%TF.GenerationSoftware,KiCad,Pcbnew,5.1.9+dfsg1-1*%
%TF.CreationDate,2021-11-29T12:28:50+01:00*%
%TF.ProjectId,Esp8266AquariumLight,45737038-3236-4364-9171-75617269756d,rev?*%
%TF.SameCoordinates,Original*%
%TF.FileFunction,Soldermask,Bot*%
%TF.FilePolarity,Negative*%
%FSLAX46Y46*%
G04 Gerber Fmt 4.6, Leading zero omitted, Abs format (unit mm)*
G04 Created by KiCad (PCBNEW 5.1.9+dfsg1-1) date 2021-11-29 12:28:50*
%MOMM*%
%LPD*%
G01*
G04 APERTURE LIST*
%ADD10C,2.700000*%
%ADD11C,1.600000*%
%ADD12R,1.600000X1.600000*%
%ADD13O,1.700000X1.700000*%
%ADD14R,1.700000X1.700000*%
%ADD15C,1.524000*%
%ADD16R,2.500000X1.000000*%
%ADD17R,1.000000X1.800000*%
%ADD18R,1.800000X1.100000*%
%ADD19R,4.599940X0.998220*%
%ADD20R,3.398520X1.597660*%
G04 APERTURE END LIST*
D10*
%TO.C,J1*%
X186130000Y-105320000D03*
G36*
G01*
X192480000Y-104220001D02*
X192480000Y-106419999D01*
G75*
G02*
X192229999Y-106670000I-250001J0D01*
G01*
X190030001Y-106670000D01*
G75*
G02*
X189780000Y-106419999I0J250001D01*
G01*
X189780000Y-104220001D01*
G75*
G02*
X190030001Y-103970000I250001J0D01*
G01*
X192229999Y-103970000D01*
G75*
G02*
X192480000Y-104220001I0J-250001D01*
G01*
G37*
%TD*%
D11*
%TO.C,C1*%
X187630000Y-125550000D03*
D12*
X187630000Y-123050000D03*
%TD*%
D13*
%TO.C,J3*%
X180210000Y-103124000D03*
X177670000Y-103124000D03*
D14*
X175130000Y-103124000D03*
%TD*%
D13*
%TO.C,J2*%
X111252000Y-119888000D03*
X108712000Y-119888000D03*
X111252000Y-117348000D03*
X108712000Y-117348000D03*
X111252000Y-114808000D03*
D14*
X108712000Y-114808000D03*
%TD*%
D15*
%TO.C,U5*%
X197875000Y-122080000D03*
X197875000Y-119540000D03*
X197875000Y-117000000D03*
X197875000Y-112000000D03*
X197875000Y-107000000D03*
%TD*%
%TO.C,U4*%
X102475000Y-106920000D03*
X102475000Y-109460000D03*
X102475000Y-112000000D03*
X102475000Y-117000000D03*
X102475000Y-122000000D03*
%TD*%
D16*
%TO.C,U2*%
X133950000Y-108925000D03*
X133950000Y-110925000D03*
X133950000Y-112925000D03*
X133950000Y-114925000D03*
X133950000Y-116925000D03*
X133950000Y-118925000D03*
X133950000Y-120925000D03*
X133950000Y-122925000D03*
D17*
X136550000Y-124425000D03*
X138550000Y-124425000D03*
X140550000Y-124425000D03*
X142550000Y-124425000D03*
X144550000Y-124425000D03*
X146550000Y-124425000D03*
D16*
X149150000Y-122925000D03*
X149150000Y-120925000D03*
X149150000Y-118925000D03*
X149150000Y-116925000D03*
X149150000Y-114925000D03*
X149150000Y-112925000D03*
X149150000Y-110925000D03*
X149150000Y-108925000D03*
%TD*%
D18*
%TO.C,SW3*%
X117804000Y-123262000D03*
X124004000Y-123262000D03*
X117804000Y-119562000D03*
X124004000Y-119562000D03*
%TD*%
%TO.C,SW2*%
X185320000Y-117080000D03*
X191520000Y-117080000D03*
X185320000Y-113380000D03*
X191520000Y-113380000D03*
%TD*%
D19*
%TO.C,J4*%
X155782520Y-105890000D03*
X155782520Y-111888980D03*
X155782520Y-109890000D03*
X155782520Y-107891020D03*
D20*
X160979360Y-114289280D03*
X160979360Y-103490720D03*
%TD*%
D11*
%TO.C,C5*%
X166775000Y-125600000D03*
D12*
X166775000Y-123100000D03*
%TD*%
M02*
