%TF.GenerationSoftware,KiCad,Pcbnew,5.1.9+dfsg1-1*%
%TF.CreationDate,2021-11-29T12:28:50+01:00*%
%TF.ProjectId,Esp8266AquariumLight,45737038-3236-4364-9171-75617269756d,rev?*%
%TF.SameCoordinates,Original*%
%TF.FileFunction,Legend,Bot*%
%TF.FilePolarity,Positive*%
%FSLAX46Y46*%
G04 Gerber Fmt 4.6, Leading zero omitted, Abs format (unit mm)*
G04 Created by KiCad (PCBNEW 5.1.9+dfsg1-1) date 2021-11-29 12:28:50*
%MOMM*%
%LPD*%
G01*
G04 APERTURE LIST*
%ADD10C,0.150000*%
%ADD11C,0.120000*%
%ADD12C,0.127000*%
%ADD13C,0.203200*%
%ADD14C,0.025400*%
G04 APERTURE END LIST*
D10*
X164006738Y-105943380D02*
X164482928Y-105943380D01*
X164530547Y-106419571D01*
X164482928Y-106371952D01*
X164387690Y-106324333D01*
X164149595Y-106324333D01*
X164054357Y-106371952D01*
X164006738Y-106419571D01*
X163959119Y-106514809D01*
X163959119Y-106752904D01*
X164006738Y-106848142D01*
X164054357Y-106895761D01*
X164149595Y-106943380D01*
X164387690Y-106943380D01*
X164482928Y-106895761D01*
X164530547Y-106848142D01*
X163673404Y-105943380D02*
X163340071Y-106943380D01*
X163006738Y-105943380D01*
X165197214Y-107641000D02*
X165292452Y-107593380D01*
X165435309Y-107593380D01*
X165578166Y-107641000D01*
X165673404Y-107736238D01*
X165721023Y-107831476D01*
X165768642Y-108021952D01*
X165768642Y-108164809D01*
X165721023Y-108355285D01*
X165673404Y-108450523D01*
X165578166Y-108545761D01*
X165435309Y-108593380D01*
X165340071Y-108593380D01*
X165197214Y-108545761D01*
X165149595Y-108498142D01*
X165149595Y-108164809D01*
X165340071Y-108164809D01*
X164721023Y-108593380D02*
X164721023Y-107593380D01*
X164149595Y-108593380D01*
X164149595Y-107593380D01*
X163673404Y-108593380D02*
X163673404Y-107593380D01*
X163435309Y-107593380D01*
X163292452Y-107641000D01*
X163197214Y-107736238D01*
X163149595Y-107831476D01*
X163101976Y-108021952D01*
X163101976Y-108164809D01*
X163149595Y-108355285D01*
X163197214Y-108450523D01*
X163292452Y-108545761D01*
X163435309Y-108593380D01*
X163673404Y-108593380D01*
X164054357Y-110243380D02*
X164387690Y-109767190D01*
X164625785Y-110243380D02*
X164625785Y-109243380D01*
X164244833Y-109243380D01*
X164149595Y-109291000D01*
X164101976Y-109338619D01*
X164054357Y-109433857D01*
X164054357Y-109576714D01*
X164101976Y-109671952D01*
X164149595Y-109719571D01*
X164244833Y-109767190D01*
X164625785Y-109767190D01*
X163721023Y-109243380D02*
X163054357Y-110243380D01*
X163054357Y-109243380D02*
X163721023Y-110243380D01*
X164530547Y-110893380D02*
X163959119Y-110893380D01*
X164244833Y-111893380D02*
X164244833Y-110893380D01*
X163721023Y-110893380D02*
X163054357Y-111893380D01*
X163054357Y-110893380D02*
X163721023Y-111893380D01*
X181800000Y-100846000D02*
X181895238Y-100798380D01*
X182038095Y-100798380D01*
X182180952Y-100846000D01*
X182276190Y-100941238D01*
X182323809Y-101036476D01*
X182371428Y-101226952D01*
X182371428Y-101369809D01*
X182323809Y-101560285D01*
X182276190Y-101655523D01*
X182180952Y-101750761D01*
X182038095Y-101798380D01*
X181942857Y-101798380D01*
X181800000Y-101750761D01*
X181752380Y-101703142D01*
X181752380Y-101369809D01*
X181942857Y-101369809D01*
X181323809Y-101798380D02*
X181323809Y-100798380D01*
X180752380Y-101798380D01*
X180752380Y-100798380D01*
X180276190Y-101798380D02*
X180276190Y-100798380D01*
X180038095Y-100798380D01*
X179895238Y-100846000D01*
X179800000Y-100941238D01*
X179752380Y-101036476D01*
X179704761Y-101226952D01*
X179704761Y-101369809D01*
X179752380Y-101560285D01*
X179800000Y-101655523D01*
X179895238Y-101750761D01*
X180038095Y-101798380D01*
X180276190Y-101798380D01*
X178323809Y-100798380D02*
X178133333Y-100798380D01*
X178038095Y-100846000D01*
X177942857Y-100941238D01*
X177895238Y-101131714D01*
X177895238Y-101465047D01*
X177942857Y-101655523D01*
X178038095Y-101750761D01*
X178133333Y-101798380D01*
X178323809Y-101798380D01*
X178419047Y-101750761D01*
X178514285Y-101655523D01*
X178561904Y-101465047D01*
X178561904Y-101131714D01*
X178514285Y-100941238D01*
X178419047Y-100846000D01*
X178323809Y-100798380D01*
X177561904Y-100798380D02*
X177323809Y-101798380D01*
X177133333Y-101084095D01*
X176942857Y-101798380D01*
X176704761Y-100798380D01*
X175657142Y-100798380D02*
X175038095Y-100798380D01*
X175371428Y-101179333D01*
X175228571Y-101179333D01*
X175133333Y-101226952D01*
X175085714Y-101274571D01*
X175038095Y-101369809D01*
X175038095Y-101607904D01*
X175085714Y-101703142D01*
X175133333Y-101750761D01*
X175228571Y-101798380D01*
X175514285Y-101798380D01*
X175609523Y-101750761D01*
X175657142Y-101703142D01*
X174752380Y-100798380D02*
X174419047Y-101798380D01*
X174085714Y-100798380D01*
X173847619Y-100798380D02*
X173228571Y-100798380D01*
X173561904Y-101179333D01*
X173419047Y-101179333D01*
X173323809Y-101226952D01*
X173276190Y-101274571D01*
X173228571Y-101369809D01*
X173228571Y-101607904D01*
X173276190Y-101703142D01*
X173323809Y-101750761D01*
X173419047Y-101798380D01*
X173704761Y-101798380D01*
X173800000Y-101750761D01*
X173847619Y-101703142D01*
X128022571Y-104433714D02*
X128022571Y-105243238D01*
X128070190Y-105338476D01*
X128117809Y-105386095D01*
X128213047Y-105433714D01*
X128355904Y-105433714D01*
X128451142Y-105386095D01*
X128022571Y-105052761D02*
X128117809Y-105100380D01*
X128308285Y-105100380D01*
X128403523Y-105052761D01*
X128451142Y-105005142D01*
X128498761Y-104909904D01*
X128498761Y-104624190D01*
X128451142Y-104528952D01*
X128403523Y-104481333D01*
X128308285Y-104433714D01*
X128117809Y-104433714D01*
X128022571Y-104481333D01*
X127641619Y-104433714D02*
X127403523Y-105100380D01*
X127165428Y-104433714D01*
X126641619Y-105100380D02*
X126736857Y-105052761D01*
X126784476Y-105005142D01*
X126832095Y-104909904D01*
X126832095Y-104624190D01*
X126784476Y-104528952D01*
X126736857Y-104481333D01*
X126641619Y-104433714D01*
X126498761Y-104433714D01*
X126403523Y-104481333D01*
X126355904Y-104528952D01*
X126308285Y-104624190D01*
X126308285Y-104909904D01*
X126355904Y-105005142D01*
X126403523Y-105052761D01*
X126498761Y-105100380D01*
X126641619Y-105100380D01*
X125879714Y-105100380D02*
X125879714Y-104433714D01*
X125879714Y-104100380D02*
X125927333Y-104148000D01*
X125879714Y-104195619D01*
X125832095Y-104148000D01*
X125879714Y-104100380D01*
X125879714Y-104195619D01*
X124974952Y-104433714D02*
X124974952Y-105243238D01*
X125022571Y-105338476D01*
X125070190Y-105386095D01*
X125165428Y-105433714D01*
X125308285Y-105433714D01*
X125403523Y-105386095D01*
X124974952Y-105052761D02*
X125070190Y-105100380D01*
X125260666Y-105100380D01*
X125355904Y-105052761D01*
X125403523Y-105005142D01*
X125451142Y-104909904D01*
X125451142Y-104624190D01*
X125403523Y-104528952D01*
X125355904Y-104481333D01*
X125260666Y-104433714D01*
X125070190Y-104433714D01*
X124974952Y-104481333D01*
X124641619Y-104433714D02*
X124260666Y-104433714D01*
X124498761Y-104100380D02*
X124498761Y-104957523D01*
X124451142Y-105052761D01*
X124355904Y-105100380D01*
X124260666Y-105100380D01*
X123784476Y-105100380D02*
X123879714Y-105052761D01*
X123927333Y-104957523D01*
X123927333Y-104100380D01*
X122974952Y-105100380D02*
X122974952Y-104576571D01*
X123022571Y-104481333D01*
X123117809Y-104433714D01*
X123308285Y-104433714D01*
X123403523Y-104481333D01*
X122974952Y-105052761D02*
X123070190Y-105100380D01*
X123308285Y-105100380D01*
X123403523Y-105052761D01*
X123451142Y-104957523D01*
X123451142Y-104862285D01*
X123403523Y-104767047D01*
X123308285Y-104719428D01*
X123070190Y-104719428D01*
X122974952Y-104671809D01*
X122117809Y-105052761D02*
X122213047Y-105100380D01*
X122403523Y-105100380D01*
X122498761Y-105052761D01*
X122546380Y-104957523D01*
X122546380Y-104576571D01*
X122498761Y-104481333D01*
X122403523Y-104433714D01*
X122213047Y-104433714D01*
X122117809Y-104481333D01*
X122070190Y-104576571D01*
X122070190Y-104671809D01*
X122546380Y-104767047D01*
X121641619Y-104433714D02*
X121641619Y-105100380D01*
X121641619Y-104528952D02*
X121594000Y-104481333D01*
X121498761Y-104433714D01*
X121355904Y-104433714D01*
X121260666Y-104481333D01*
X121213047Y-104576571D01*
X121213047Y-105100380D01*
X120308285Y-105100380D02*
X120308285Y-104100380D01*
X120308285Y-105052761D02*
X120403523Y-105100380D01*
X120594000Y-105100380D01*
X120689238Y-105052761D01*
X120736857Y-105005142D01*
X120784476Y-104909904D01*
X120784476Y-104624190D01*
X120736857Y-104528952D01*
X120689238Y-104481333D01*
X120594000Y-104433714D01*
X120403523Y-104433714D01*
X120308285Y-104481333D01*
X119451142Y-105052761D02*
X119546380Y-105100380D01*
X119736857Y-105100380D01*
X119832095Y-105052761D01*
X119879714Y-104957523D01*
X119879714Y-104576571D01*
X119832095Y-104481333D01*
X119736857Y-104433714D01*
X119546380Y-104433714D01*
X119451142Y-104481333D01*
X119403523Y-104576571D01*
X119403523Y-104671809D01*
X119879714Y-104767047D01*
X118974952Y-105100380D02*
X118974952Y-104433714D01*
X118974952Y-104624190D02*
X118927333Y-104528952D01*
X118879714Y-104481333D01*
X118784476Y-104433714D01*
X118689238Y-104433714D01*
X117736857Y-104624190D02*
X117784476Y-104576571D01*
X117879714Y-104528952D01*
X117974952Y-104528952D01*
X118070190Y-104576571D01*
X118117809Y-104624190D01*
X118165428Y-104719428D01*
X118165428Y-104814666D01*
X118117809Y-104909904D01*
X118070190Y-104957523D01*
X117974952Y-105005142D01*
X117879714Y-105005142D01*
X117784476Y-104957523D01*
X117736857Y-104909904D01*
X117736857Y-104528952D02*
X117736857Y-104909904D01*
X117689238Y-104957523D01*
X117641619Y-104957523D01*
X117546380Y-104909904D01*
X117498761Y-104814666D01*
X117498761Y-104576571D01*
X117594000Y-104433714D01*
X117736857Y-104338476D01*
X117927333Y-104290857D01*
X118117809Y-104338476D01*
X118260666Y-104433714D01*
X118355904Y-104576571D01*
X118403523Y-104767047D01*
X118355904Y-104957523D01*
X118260666Y-105100380D01*
X118117809Y-105195619D01*
X117927333Y-105243238D01*
X117736857Y-105195619D01*
X117594000Y-105100380D01*
X116641619Y-104433714D02*
X116641619Y-105243238D01*
X116689238Y-105338476D01*
X116736857Y-105386095D01*
X116832095Y-105433714D01*
X116974952Y-105433714D01*
X117070190Y-105386095D01*
X116641619Y-105052761D02*
X116736857Y-105100380D01*
X116927333Y-105100380D01*
X117022571Y-105052761D01*
X117070190Y-105005142D01*
X117117809Y-104909904D01*
X117117809Y-104624190D01*
X117070190Y-104528952D01*
X117022571Y-104481333D01*
X116927333Y-104433714D01*
X116736857Y-104433714D01*
X116641619Y-104481333D01*
X116022571Y-105100380D02*
X116117809Y-105052761D01*
X116165428Y-105005142D01*
X116213047Y-104909904D01*
X116213047Y-104624190D01*
X116165428Y-104528952D01*
X116117809Y-104481333D01*
X116022571Y-104433714D01*
X115879714Y-104433714D01*
X115784476Y-104481333D01*
X115736857Y-104528952D01*
X115689238Y-104624190D01*
X115689238Y-104909904D01*
X115736857Y-105005142D01*
X115784476Y-105052761D01*
X115879714Y-105100380D01*
X116022571Y-105100380D01*
X115117809Y-105100380D02*
X115213047Y-105052761D01*
X115260666Y-105005142D01*
X115308285Y-104909904D01*
X115308285Y-104624190D01*
X115260666Y-104528952D01*
X115213047Y-104481333D01*
X115117809Y-104433714D01*
X114974952Y-104433714D01*
X114879714Y-104481333D01*
X114832095Y-104528952D01*
X114784476Y-104624190D01*
X114784476Y-104909904D01*
X114832095Y-105005142D01*
X114879714Y-105052761D01*
X114974952Y-105100380D01*
X115117809Y-105100380D01*
X113927333Y-104433714D02*
X113927333Y-105243238D01*
X113974952Y-105338476D01*
X114022571Y-105386095D01*
X114117809Y-105433714D01*
X114260666Y-105433714D01*
X114355904Y-105386095D01*
X113927333Y-105052761D02*
X114022571Y-105100380D01*
X114213047Y-105100380D01*
X114308285Y-105052761D01*
X114355904Y-105005142D01*
X114403523Y-104909904D01*
X114403523Y-104624190D01*
X114355904Y-104528952D01*
X114308285Y-104481333D01*
X114213047Y-104433714D01*
X114022571Y-104433714D01*
X113927333Y-104481333D01*
X113308285Y-105100380D02*
X113403523Y-105052761D01*
X113451142Y-104957523D01*
X113451142Y-104100380D01*
X112546380Y-105052761D02*
X112641619Y-105100380D01*
X112832095Y-105100380D01*
X112927333Y-105052761D01*
X112974952Y-104957523D01*
X112974952Y-104576571D01*
X112927333Y-104481333D01*
X112832095Y-104433714D01*
X112641619Y-104433714D01*
X112546380Y-104481333D01*
X112498761Y-104576571D01*
X112498761Y-104671809D01*
X112974952Y-104767047D01*
X112070190Y-105100380D02*
X112070190Y-104433714D01*
X112070190Y-104528952D02*
X112022571Y-104481333D01*
X111927333Y-104433714D01*
X111784476Y-104433714D01*
X111689238Y-104481333D01*
X111641619Y-104576571D01*
X111641619Y-105100380D01*
X111641619Y-104576571D02*
X111594000Y-104481333D01*
X111498761Y-104433714D01*
X111355904Y-104433714D01*
X111260666Y-104481333D01*
X111213047Y-104576571D01*
X111213047Y-105100380D01*
X110308285Y-105100380D02*
X110308285Y-104576571D01*
X110355904Y-104481333D01*
X110451142Y-104433714D01*
X110641619Y-104433714D01*
X110736857Y-104481333D01*
X110308285Y-105052761D02*
X110403523Y-105100380D01*
X110641619Y-105100380D01*
X110736857Y-105052761D01*
X110784476Y-104957523D01*
X110784476Y-104862285D01*
X110736857Y-104767047D01*
X110641619Y-104719428D01*
X110403523Y-104719428D01*
X110308285Y-104671809D01*
X109832095Y-105100380D02*
X109832095Y-104433714D01*
X109832095Y-104100380D02*
X109879714Y-104148000D01*
X109832095Y-104195619D01*
X109784476Y-104148000D01*
X109832095Y-104100380D01*
X109832095Y-104195619D01*
X109213047Y-105100380D02*
X109308285Y-105052761D01*
X109355904Y-104957523D01*
X109355904Y-104100380D01*
X108832095Y-105005142D02*
X108784476Y-105052761D01*
X108832095Y-105100380D01*
X108879714Y-105052761D01*
X108832095Y-105005142D01*
X108832095Y-105100380D01*
X107927333Y-105052761D02*
X108022571Y-105100380D01*
X108213047Y-105100380D01*
X108308285Y-105052761D01*
X108355904Y-105005142D01*
X108403523Y-104909904D01*
X108403523Y-104624190D01*
X108355904Y-104528952D01*
X108308285Y-104481333D01*
X108213047Y-104433714D01*
X108022571Y-104433714D01*
X107927333Y-104481333D01*
X107355904Y-105100380D02*
X107451142Y-105052761D01*
X107498761Y-105005142D01*
X107546380Y-104909904D01*
X107546380Y-104624190D01*
X107498761Y-104528952D01*
X107451142Y-104481333D01*
X107355904Y-104433714D01*
X107213047Y-104433714D01*
X107117809Y-104481333D01*
X107070190Y-104528952D01*
X107022571Y-104624190D01*
X107022571Y-104909904D01*
X107070190Y-105005142D01*
X107117809Y-105052761D01*
X107213047Y-105100380D01*
X107355904Y-105100380D01*
X106594000Y-105100380D02*
X106594000Y-104433714D01*
X106594000Y-104528952D02*
X106546380Y-104481333D01*
X106451142Y-104433714D01*
X106308285Y-104433714D01*
X106213047Y-104481333D01*
X106165428Y-104576571D01*
X106165428Y-105100380D01*
X106165428Y-104576571D02*
X106117809Y-104481333D01*
X106022571Y-104433714D01*
X105879714Y-104433714D01*
X105784476Y-104481333D01*
X105736857Y-104576571D01*
X105736857Y-105100380D01*
X126974952Y-102782666D02*
X126498761Y-102782666D01*
X127070190Y-103068380D02*
X126736857Y-102068380D01*
X126403523Y-103068380D01*
X125403523Y-103163619D02*
X125498761Y-103116000D01*
X125594000Y-103020761D01*
X125736857Y-102877904D01*
X125832095Y-102830285D01*
X125927333Y-102830285D01*
X125879714Y-103068380D02*
X125974952Y-103020761D01*
X126070190Y-102925523D01*
X126117809Y-102735047D01*
X126117809Y-102401714D01*
X126070190Y-102211238D01*
X125974952Y-102116000D01*
X125879714Y-102068380D01*
X125689238Y-102068380D01*
X125594000Y-102116000D01*
X125498761Y-102211238D01*
X125451142Y-102401714D01*
X125451142Y-102735047D01*
X125498761Y-102925523D01*
X125594000Y-103020761D01*
X125689238Y-103068380D01*
X125879714Y-103068380D01*
X125022571Y-102068380D02*
X125022571Y-102877904D01*
X124974952Y-102973142D01*
X124927333Y-103020761D01*
X124832095Y-103068380D01*
X124641619Y-103068380D01*
X124546380Y-103020761D01*
X124498761Y-102973142D01*
X124451142Y-102877904D01*
X124451142Y-102068380D01*
X124022571Y-102782666D02*
X123546380Y-102782666D01*
X124117809Y-103068380D02*
X123784476Y-102068380D01*
X123451142Y-103068380D01*
X121879714Y-103068380D02*
X122355904Y-103068380D01*
X122355904Y-102068380D01*
X121546380Y-103068380D02*
X121546380Y-102068380D01*
X120546380Y-102116000D02*
X120641619Y-102068380D01*
X120784476Y-102068380D01*
X120927333Y-102116000D01*
X121022571Y-102211238D01*
X121070190Y-102306476D01*
X121117809Y-102496952D01*
X121117809Y-102639809D01*
X121070190Y-102830285D01*
X121022571Y-102925523D01*
X120927333Y-103020761D01*
X120784476Y-103068380D01*
X120689238Y-103068380D01*
X120546380Y-103020761D01*
X120498761Y-102973142D01*
X120498761Y-102639809D01*
X120689238Y-102639809D01*
X120070190Y-103068380D02*
X120070190Y-102068380D01*
X120070190Y-102544571D02*
X119498761Y-102544571D01*
X119498761Y-103068380D02*
X119498761Y-102068380D01*
X119165428Y-102068380D02*
X118594000Y-102068380D01*
X118879714Y-103068380D02*
X118879714Y-102068380D01*
X116927333Y-102973142D02*
X116974952Y-103020761D01*
X117117809Y-103068380D01*
X117213047Y-103068380D01*
X117355904Y-103020761D01*
X117451142Y-102925523D01*
X117498761Y-102830285D01*
X117546380Y-102639809D01*
X117546380Y-102496952D01*
X117498761Y-102306476D01*
X117451142Y-102211238D01*
X117355904Y-102116000D01*
X117213047Y-102068380D01*
X117117809Y-102068380D01*
X116974952Y-102116000D01*
X116927333Y-102163619D01*
X116308285Y-102068380D02*
X116117809Y-102068380D01*
X116022571Y-102116000D01*
X115927333Y-102211238D01*
X115879714Y-102401714D01*
X115879714Y-102735047D01*
X115927333Y-102925523D01*
X116022571Y-103020761D01*
X116117809Y-103068380D01*
X116308285Y-103068380D01*
X116403523Y-103020761D01*
X116498761Y-102925523D01*
X116546380Y-102735047D01*
X116546380Y-102401714D01*
X116498761Y-102211238D01*
X116403523Y-102116000D01*
X116308285Y-102068380D01*
X115451142Y-103068380D02*
X115451142Y-102068380D01*
X114879714Y-103068380D01*
X114879714Y-102068380D01*
X114546380Y-102068380D02*
X113974952Y-102068380D01*
X114260666Y-103068380D02*
X114260666Y-102068380D01*
X113070190Y-103068380D02*
X113403523Y-102592190D01*
X113641619Y-103068380D02*
X113641619Y-102068380D01*
X113260666Y-102068380D01*
X113165428Y-102116000D01*
X113117809Y-102163619D01*
X113070190Y-102258857D01*
X113070190Y-102401714D01*
X113117809Y-102496952D01*
X113165428Y-102544571D01*
X113260666Y-102592190D01*
X113641619Y-102592190D01*
X112451142Y-102068380D02*
X112260666Y-102068380D01*
X112165428Y-102116000D01*
X112070190Y-102211238D01*
X112022571Y-102401714D01*
X112022571Y-102735047D01*
X112070190Y-102925523D01*
X112165428Y-103020761D01*
X112260666Y-103068380D01*
X112451142Y-103068380D01*
X112546380Y-103020761D01*
X112641619Y-102925523D01*
X112689238Y-102735047D01*
X112689238Y-102401714D01*
X112641619Y-102211238D01*
X112546380Y-102116000D01*
X112451142Y-102068380D01*
X111117809Y-103068380D02*
X111594000Y-103068380D01*
X111594000Y-102068380D01*
X110165428Y-102068380D02*
X109832095Y-103068380D01*
X109498761Y-102068380D01*
X108641619Y-103068380D02*
X109213047Y-103068380D01*
X108927333Y-103068380D02*
X108927333Y-102068380D01*
X109022571Y-102211238D01*
X109117809Y-102306476D01*
X109213047Y-102354095D01*
X108213047Y-102973142D02*
X108165428Y-103020761D01*
X108213047Y-103068380D01*
X108260666Y-103020761D01*
X108213047Y-102973142D01*
X108213047Y-103068380D01*
X107546380Y-102068380D02*
X107451142Y-102068380D01*
X107355904Y-102116000D01*
X107308285Y-102163619D01*
X107260666Y-102258857D01*
X107213047Y-102449333D01*
X107213047Y-102687428D01*
X107260666Y-102877904D01*
X107308285Y-102973142D01*
X107355904Y-103020761D01*
X107451142Y-103068380D01*
X107546380Y-103068380D01*
X107641619Y-103020761D01*
X107689238Y-102973142D01*
X107736857Y-102877904D01*
X107784476Y-102687428D01*
X107784476Y-102449333D01*
X107736857Y-102258857D01*
X107689238Y-102163619D01*
X107641619Y-102116000D01*
X107546380Y-102068380D01*
D11*
%TO.C,J3*%
X173860000Y-101854000D02*
X173860000Y-103124000D01*
X175130000Y-101854000D02*
X173860000Y-101854000D01*
X180590000Y-104166929D02*
X180590000Y-104564000D01*
X179830000Y-104166929D02*
X179830000Y-104564000D01*
X180590000Y-113224000D02*
X180590000Y-107224000D01*
X179830000Y-113224000D02*
X180590000Y-113224000D01*
X179830000Y-107224000D02*
X179830000Y-113224000D01*
X178940000Y-104564000D02*
X178940000Y-107224000D01*
X178050000Y-104166929D02*
X178050000Y-104564000D01*
X177290000Y-104166929D02*
X177290000Y-104564000D01*
X178050000Y-113224000D02*
X178050000Y-107224000D01*
X177290000Y-113224000D02*
X178050000Y-113224000D01*
X177290000Y-107224000D02*
X177290000Y-113224000D01*
X176400000Y-104564000D02*
X176400000Y-107224000D01*
X175510000Y-104234000D02*
X175510000Y-104564000D01*
X174750000Y-104234000D02*
X174750000Y-104564000D01*
X175410000Y-107224000D02*
X175410000Y-113224000D01*
X175290000Y-107224000D02*
X175290000Y-113224000D01*
X175170000Y-107224000D02*
X175170000Y-113224000D01*
X175050000Y-107224000D02*
X175050000Y-113224000D01*
X174930000Y-107224000D02*
X174930000Y-113224000D01*
X174810000Y-107224000D02*
X174810000Y-113224000D01*
X175510000Y-113224000D02*
X175510000Y-107224000D01*
X174750000Y-113224000D02*
X175510000Y-113224000D01*
X174750000Y-107224000D02*
X174750000Y-113224000D01*
X173800000Y-107224000D02*
X173800000Y-104564000D01*
X181540000Y-107224000D02*
X173800000Y-107224000D01*
X181540000Y-104564000D02*
X181540000Y-107224000D01*
X173800000Y-104564000D02*
X181540000Y-104564000D01*
%TO.C,U2*%
X149670000Y-107925000D02*
X150280000Y-107925000D01*
X149670000Y-107925000D02*
X149670000Y-100305000D01*
X149670000Y-124545000D02*
X149670000Y-123925000D01*
X147550000Y-124545000D02*
X149670000Y-124545000D01*
X133430000Y-124545000D02*
X135550000Y-124545000D01*
X133430000Y-123925000D02*
X133430000Y-124545000D01*
X133430000Y-100305000D02*
X133430000Y-107925000D01*
X149670000Y-100305000D02*
X133430000Y-100305000D01*
%TO.C,SW3*%
X123624000Y-122452000D02*
X123624000Y-120372000D01*
X119454000Y-118692000D02*
X118964000Y-119182000D01*
X118184000Y-122452000D02*
X118184000Y-120372000D01*
X122354000Y-118692000D02*
X122844000Y-119182000D01*
X122354000Y-118692000D02*
X119454000Y-118692000D01*
X122354000Y-124132000D02*
X122844000Y-123642000D01*
X122354000Y-124132000D02*
X119454000Y-124132000D01*
X119454000Y-124132000D02*
X118964000Y-123642000D01*
%TO.C,SW2*%
X191140000Y-116270000D02*
X191140000Y-114190000D01*
X186970000Y-112510000D02*
X186480000Y-113000000D01*
X185700000Y-116270000D02*
X185700000Y-114190000D01*
X189870000Y-112510000D02*
X190360000Y-113000000D01*
X189870000Y-112510000D02*
X186970000Y-112510000D01*
X189870000Y-117950000D02*
X190360000Y-117460000D01*
X189870000Y-117950000D02*
X186970000Y-117950000D01*
X186970000Y-117950000D02*
X186480000Y-117460000D01*
D12*
%TO.C,J4*%
X155000200Y-102911600D02*
X158995620Y-102911600D01*
X155000200Y-103762500D02*
X155000200Y-102911600D01*
X157499560Y-103762500D02*
X155000200Y-103762500D01*
X157499560Y-105162040D02*
X157499560Y-103762500D01*
X157499560Y-114058140D02*
X157499560Y-112638280D01*
X155000200Y-114058140D02*
X157499560Y-114058140D01*
X155000200Y-114909040D02*
X155000200Y-114058140D01*
X158995620Y-114909040D02*
X155000200Y-114909040D01*
X162480000Y-104390000D02*
X162495740Y-113158980D01*
D13*
X154982420Y-103691380D02*
X157481780Y-103691380D01*
X154982420Y-102891280D02*
X154982420Y-103691380D01*
X154982420Y-114088620D02*
X154982420Y-114888720D01*
X157481780Y-114088620D02*
X154982420Y-114088620D01*
%TO.C,J3*%
D10*
X173193333Y-106961380D02*
X173193333Y-107675666D01*
X173240952Y-107818523D01*
X173336190Y-107913761D01*
X173479047Y-107961380D01*
X173574285Y-107961380D01*
X172812380Y-106961380D02*
X172193333Y-106961380D01*
X172526666Y-107342333D01*
X172383809Y-107342333D01*
X172288571Y-107389952D01*
X172240952Y-107437571D01*
X172193333Y-107532809D01*
X172193333Y-107770904D01*
X172240952Y-107866142D01*
X172288571Y-107913761D01*
X172383809Y-107961380D01*
X172669523Y-107961380D01*
X172764761Y-107913761D01*
X172812380Y-107866142D01*
%TO.C,U2*%
X151891904Y-125182380D02*
X151891904Y-125991904D01*
X151844285Y-126087142D01*
X151796666Y-126134761D01*
X151701428Y-126182380D01*
X151510952Y-126182380D01*
X151415714Y-126134761D01*
X151368095Y-126087142D01*
X151320476Y-125991904D01*
X151320476Y-125182380D01*
X150891904Y-125277619D02*
X150844285Y-125230000D01*
X150749047Y-125182380D01*
X150510952Y-125182380D01*
X150415714Y-125230000D01*
X150368095Y-125277619D01*
X150320476Y-125372857D01*
X150320476Y-125468095D01*
X150368095Y-125610952D01*
X150939523Y-126182380D01*
X150320476Y-126182380D01*
%TO.C,SW3*%
X122237333Y-125464380D02*
X122237333Y-124464380D01*
X121856380Y-124464380D01*
X121761142Y-124512000D01*
X121713523Y-124559619D01*
X121665904Y-124654857D01*
X121665904Y-124797714D01*
X121713523Y-124892952D01*
X121761142Y-124940571D01*
X121856380Y-124988190D01*
X122237333Y-124988190D01*
X120713523Y-124512000D02*
X120808761Y-124464380D01*
X120951619Y-124464380D01*
X121094476Y-124512000D01*
X121189714Y-124607238D01*
X121237333Y-124702476D01*
X121284952Y-124892952D01*
X121284952Y-125035809D01*
X121237333Y-125226285D01*
X121189714Y-125321523D01*
X121094476Y-125416761D01*
X120951619Y-125464380D01*
X120856380Y-125464380D01*
X120713523Y-125416761D01*
X120665904Y-125369142D01*
X120665904Y-125035809D01*
X120856380Y-125035809D01*
X120237333Y-125464380D02*
X120237333Y-124464380D01*
X119904000Y-125178666D01*
X119570666Y-124464380D01*
X119570666Y-125464380D01*
%TO.C,SW2*%
X188967619Y-119282380D02*
X189300952Y-118806190D01*
X189539047Y-119282380D02*
X189539047Y-118282380D01*
X189158095Y-118282380D01*
X189062857Y-118330000D01*
X189015238Y-118377619D01*
X188967619Y-118472857D01*
X188967619Y-118615714D01*
X189015238Y-118710952D01*
X189062857Y-118758571D01*
X189158095Y-118806190D01*
X189539047Y-118806190D01*
X188586666Y-119234761D02*
X188443809Y-119282380D01*
X188205714Y-119282380D01*
X188110476Y-119234761D01*
X188062857Y-119187142D01*
X188015238Y-119091904D01*
X188015238Y-118996666D01*
X188062857Y-118901428D01*
X188110476Y-118853809D01*
X188205714Y-118806190D01*
X188396190Y-118758571D01*
X188491428Y-118710952D01*
X188539047Y-118663333D01*
X188586666Y-118568095D01*
X188586666Y-118472857D01*
X188539047Y-118377619D01*
X188491428Y-118330000D01*
X188396190Y-118282380D01*
X188158095Y-118282380D01*
X188015238Y-118330000D01*
X187729523Y-118282380D02*
X187158095Y-118282380D01*
X187443809Y-119282380D02*
X187443809Y-118282380D01*
%TO.C,J4*%
D14*
X161699147Y-107570133D02*
X161989433Y-107570133D01*
X162047490Y-107550780D01*
X162086195Y-107512076D01*
X162105547Y-107454019D01*
X162105547Y-107415314D01*
X161834614Y-107937828D02*
X162105547Y-107937828D01*
X161679795Y-107841066D02*
X161970080Y-107744304D01*
X161970080Y-107995885D01*
X161368342Y-106389638D02*
X161387695Y-106370285D01*
X161407047Y-106312228D01*
X161407047Y-106273523D01*
X161387695Y-106215466D01*
X161348990Y-106176761D01*
X161310285Y-106157409D01*
X161232876Y-106138057D01*
X161174819Y-106138057D01*
X161097409Y-106157409D01*
X161058704Y-106176761D01*
X161020000Y-106215466D01*
X161000647Y-106273523D01*
X161000647Y-106312228D01*
X161020000Y-106370285D01*
X161039352Y-106389638D01*
X161407047Y-106621866D02*
X161387695Y-106583161D01*
X161368342Y-106563809D01*
X161329638Y-106544457D01*
X161213523Y-106544457D01*
X161174819Y-106563809D01*
X161155466Y-106583161D01*
X161136114Y-106621866D01*
X161136114Y-106679923D01*
X161155466Y-106718628D01*
X161174819Y-106737980D01*
X161213523Y-106757333D01*
X161329638Y-106757333D01*
X161368342Y-106737980D01*
X161387695Y-106718628D01*
X161407047Y-106679923D01*
X161407047Y-106621866D01*
X161136114Y-106931504D02*
X161407047Y-106931504D01*
X161174819Y-106931504D02*
X161155466Y-106950857D01*
X161136114Y-106989561D01*
X161136114Y-107047619D01*
X161155466Y-107086323D01*
X161194171Y-107105676D01*
X161407047Y-107105676D01*
X161136114Y-107299200D02*
X161407047Y-107299200D01*
X161174819Y-107299200D02*
X161155466Y-107318552D01*
X161136114Y-107357257D01*
X161136114Y-107415314D01*
X161155466Y-107454019D01*
X161194171Y-107473371D01*
X161407047Y-107473371D01*
X161445752Y-107570133D02*
X161445752Y-107879771D01*
X161000647Y-108053942D02*
X161000647Y-108092647D01*
X161020000Y-108131352D01*
X161039352Y-108150704D01*
X161078057Y-108170057D01*
X161155466Y-108189409D01*
X161252228Y-108189409D01*
X161329638Y-108170057D01*
X161368342Y-108150704D01*
X161387695Y-108131352D01*
X161407047Y-108092647D01*
X161407047Y-108053942D01*
X161387695Y-108015238D01*
X161368342Y-107995885D01*
X161329638Y-107976533D01*
X161252228Y-107957180D01*
X161155466Y-107957180D01*
X161078057Y-107976533D01*
X161039352Y-107995885D01*
X161020000Y-108015238D01*
X161000647Y-108053942D01*
X161407047Y-108576457D02*
X161407047Y-108344228D01*
X161407047Y-108460342D02*
X161000647Y-108460342D01*
X161058704Y-108421638D01*
X161097409Y-108382933D01*
X161116761Y-108344228D01*
X161407047Y-108711923D02*
X161136114Y-108924800D01*
X161136114Y-108711923D02*
X161407047Y-108924800D01*
X161000647Y-109157028D02*
X161000647Y-109195733D01*
X161020000Y-109234438D01*
X161039352Y-109253790D01*
X161078057Y-109273142D01*
X161155466Y-109292495D01*
X161252228Y-109292495D01*
X161329638Y-109273142D01*
X161368342Y-109253790D01*
X161387695Y-109234438D01*
X161407047Y-109195733D01*
X161407047Y-109157028D01*
X161387695Y-109118323D01*
X161368342Y-109098971D01*
X161329638Y-109079619D01*
X161252228Y-109060266D01*
X161155466Y-109060266D01*
X161078057Y-109079619D01*
X161039352Y-109098971D01*
X161020000Y-109118323D01*
X161000647Y-109157028D01*
X161136114Y-109640838D02*
X161407047Y-109640838D01*
X160981295Y-109544076D02*
X161271580Y-109447314D01*
X161271580Y-109698895D01*
%TD*%
M02*
