%TF.GenerationSoftware,KiCad,Pcbnew,5.1.9+dfsg1-1*%
%TF.CreationDate,2021-11-29T12:28:50+01:00*%
%TF.ProjectId,Esp8266AquariumLight,45737038-3236-4364-9171-75617269756d,rev?*%
%TF.SameCoordinates,Original*%
%TF.FileFunction,Copper,L1,Top*%
%TF.FilePolarity,Positive*%
%FSLAX46Y46*%
G04 Gerber Fmt 4.6, Leading zero omitted, Abs format (unit mm)*
G04 Created by KiCad (PCBNEW 5.1.9+dfsg1-1) date 2021-11-29 12:28:50*
%MOMM*%
%LPD*%
G01*
G04 APERTURE LIST*
%TA.AperFunction,ComponentPad*%
%ADD10C,2.700000*%
%TD*%
%TA.AperFunction,SMDPad,CuDef*%
%ADD11R,1.000000X1.500000*%
%TD*%
%TA.AperFunction,SMDPad,CuDef*%
%ADD12C,0.100000*%
%TD*%
%TA.AperFunction,SMDPad,CuDef*%
%ADD13R,5.400000X4.900000*%
%TD*%
%TA.AperFunction,ComponentPad*%
%ADD14C,1.600000*%
%TD*%
%TA.AperFunction,ComponentPad*%
%ADD15R,1.600000X1.600000*%
%TD*%
%TA.AperFunction,ComponentPad*%
%ADD16O,1.700000X1.700000*%
%TD*%
%TA.AperFunction,ComponentPad*%
%ADD17R,1.700000X1.700000*%
%TD*%
%TA.AperFunction,SMDPad,CuDef*%
%ADD18R,2.500000X1.800000*%
%TD*%
%TA.AperFunction,SMDPad,CuDef*%
%ADD19R,0.900000X0.800000*%
%TD*%
%TA.AperFunction,SMDPad,CuDef*%
%ADD20R,10.800000X9.400000*%
%TD*%
%TA.AperFunction,SMDPad,CuDef*%
%ADD21R,1.100000X4.600000*%
%TD*%
%TA.AperFunction,ComponentPad*%
%ADD22C,1.524000*%
%TD*%
%TA.AperFunction,SMDPad,CuDef*%
%ADD23R,2.000000X1.500000*%
%TD*%
%TA.AperFunction,SMDPad,CuDef*%
%ADD24R,2.000000X3.800000*%
%TD*%
%TA.AperFunction,SMDPad,CuDef*%
%ADD25R,1.800000X2.500000*%
%TD*%
%TA.AperFunction,ViaPad*%
%ADD26C,0.800000*%
%TD*%
%TA.AperFunction,Conductor*%
%ADD27C,0.250000*%
%TD*%
%TA.AperFunction,Conductor*%
%ADD28C,0.400000*%
%TD*%
%TA.AperFunction,Conductor*%
%ADD29C,0.254000*%
%TD*%
%TA.AperFunction,Conductor*%
%ADD30C,0.100000*%
%TD*%
G04 APERTURE END LIST*
D10*
%TO.P,J1,2*%
%TO.N,/V12*%
X186130000Y-105320000D03*
%TO.P,J1,1*%
%TO.N,GND*%
%TA.AperFunction,ComponentPad*%
G36*
G01*
X192480000Y-104220001D02*
X192480000Y-106419999D01*
G75*
G02*
X192229999Y-106670000I-250001J0D01*
G01*
X190030001Y-106670000D01*
G75*
G02*
X189780000Y-106419999I0J250001D01*
G01*
X189780000Y-104220001D01*
G75*
G02*
X190030001Y-103970000I250001J0D01*
G01*
X192229999Y-103970000D01*
G75*
G02*
X192480000Y-104220001I0J-250001D01*
G01*
G37*
%TD.AperFunction*%
%TD*%
D11*
%TO.P,JP2,2*%
%TO.N,/BTN_LED+*%
X118360000Y-126400000D03*
%TA.AperFunction,SMDPad,CuDef*%
D12*
%TO.P,JP2,3*%
%TO.N,/5V*%
G36*
X119660000Y-125650602D02*
G01*
X119684534Y-125650602D01*
X119733365Y-125655412D01*
X119781490Y-125664984D01*
X119828445Y-125679228D01*
X119873778Y-125698005D01*
X119917051Y-125721136D01*
X119957850Y-125748396D01*
X119995779Y-125779524D01*
X120030476Y-125814221D01*
X120061604Y-125852150D01*
X120088864Y-125892949D01*
X120111995Y-125936222D01*
X120130772Y-125981555D01*
X120145016Y-126028510D01*
X120154588Y-126076635D01*
X120159398Y-126125466D01*
X120159398Y-126150000D01*
X120160000Y-126150000D01*
X120160000Y-126650000D01*
X120159398Y-126650000D01*
X120159398Y-126674534D01*
X120154588Y-126723365D01*
X120145016Y-126771490D01*
X120130772Y-126818445D01*
X120111995Y-126863778D01*
X120088864Y-126907051D01*
X120061604Y-126947850D01*
X120030476Y-126985779D01*
X119995779Y-127020476D01*
X119957850Y-127051604D01*
X119917051Y-127078864D01*
X119873778Y-127101995D01*
X119828445Y-127120772D01*
X119781490Y-127135016D01*
X119733365Y-127144588D01*
X119684534Y-127149398D01*
X119660000Y-127149398D01*
X119660000Y-127150000D01*
X119110000Y-127150000D01*
X119110000Y-125650000D01*
X119660000Y-125650000D01*
X119660000Y-125650602D01*
G37*
%TD.AperFunction*%
%TA.AperFunction,SMDPad,CuDef*%
%TO.P,JP2,1*%
%TO.N,/V12*%
G36*
X117610000Y-127150000D02*
G01*
X117060000Y-127150000D01*
X117060000Y-127149398D01*
X117035466Y-127149398D01*
X116986635Y-127144588D01*
X116938510Y-127135016D01*
X116891555Y-127120772D01*
X116846222Y-127101995D01*
X116802949Y-127078864D01*
X116762150Y-127051604D01*
X116724221Y-127020476D01*
X116689524Y-126985779D01*
X116658396Y-126947850D01*
X116631136Y-126907051D01*
X116608005Y-126863778D01*
X116589228Y-126818445D01*
X116574984Y-126771490D01*
X116565412Y-126723365D01*
X116560602Y-126674534D01*
X116560602Y-126650000D01*
X116560000Y-126650000D01*
X116560000Y-126150000D01*
X116560602Y-126150000D01*
X116560602Y-126125466D01*
X116565412Y-126076635D01*
X116574984Y-126028510D01*
X116589228Y-125981555D01*
X116608005Y-125936222D01*
X116631136Y-125892949D01*
X116658396Y-125852150D01*
X116689524Y-125814221D01*
X116724221Y-125779524D01*
X116762150Y-125748396D01*
X116802949Y-125721136D01*
X116846222Y-125698005D01*
X116891555Y-125679228D01*
X116938510Y-125664984D01*
X116986635Y-125655412D01*
X117035466Y-125650602D01*
X117060000Y-125650602D01*
X117060000Y-125650000D01*
X117610000Y-125650000D01*
X117610000Y-127150000D01*
G37*
%TD.AperFunction*%
%TD*%
D11*
%TO.P,JP1,2*%
%TO.N,Net-(JP1-Pad2)*%
X118360000Y-122530000D03*
%TA.AperFunction,SMDPad,CuDef*%
D12*
%TO.P,JP1,3*%
%TO.N,/5V*%
G36*
X119660000Y-121780602D02*
G01*
X119684534Y-121780602D01*
X119733365Y-121785412D01*
X119781490Y-121794984D01*
X119828445Y-121809228D01*
X119873778Y-121828005D01*
X119917051Y-121851136D01*
X119957850Y-121878396D01*
X119995779Y-121909524D01*
X120030476Y-121944221D01*
X120061604Y-121982150D01*
X120088864Y-122022949D01*
X120111995Y-122066222D01*
X120130772Y-122111555D01*
X120145016Y-122158510D01*
X120154588Y-122206635D01*
X120159398Y-122255466D01*
X120159398Y-122280000D01*
X120160000Y-122280000D01*
X120160000Y-122780000D01*
X120159398Y-122780000D01*
X120159398Y-122804534D01*
X120154588Y-122853365D01*
X120145016Y-122901490D01*
X120130772Y-122948445D01*
X120111995Y-122993778D01*
X120088864Y-123037051D01*
X120061604Y-123077850D01*
X120030476Y-123115779D01*
X119995779Y-123150476D01*
X119957850Y-123181604D01*
X119917051Y-123208864D01*
X119873778Y-123231995D01*
X119828445Y-123250772D01*
X119781490Y-123265016D01*
X119733365Y-123274588D01*
X119684534Y-123279398D01*
X119660000Y-123279398D01*
X119660000Y-123280000D01*
X119110000Y-123280000D01*
X119110000Y-121780000D01*
X119660000Y-121780000D01*
X119660000Y-121780602D01*
G37*
%TD.AperFunction*%
%TA.AperFunction,SMDPad,CuDef*%
%TO.P,JP1,1*%
%TO.N,/V12*%
G36*
X117610000Y-123280000D02*
G01*
X117060000Y-123280000D01*
X117060000Y-123279398D01*
X117035466Y-123279398D01*
X116986635Y-123274588D01*
X116938510Y-123265016D01*
X116891555Y-123250772D01*
X116846222Y-123231995D01*
X116802949Y-123208864D01*
X116762150Y-123181604D01*
X116724221Y-123150476D01*
X116689524Y-123115779D01*
X116658396Y-123077850D01*
X116631136Y-123037051D01*
X116608005Y-122993778D01*
X116589228Y-122948445D01*
X116574984Y-122901490D01*
X116565412Y-122853365D01*
X116560602Y-122804534D01*
X116560602Y-122780000D01*
X116560000Y-122780000D01*
X116560000Y-122280000D01*
X116560602Y-122280000D01*
X116560602Y-122255466D01*
X116565412Y-122206635D01*
X116574984Y-122158510D01*
X116589228Y-122111555D01*
X116608005Y-122066222D01*
X116631136Y-122022949D01*
X116658396Y-121982150D01*
X116689524Y-121944221D01*
X116724221Y-121909524D01*
X116762150Y-121878396D01*
X116802949Y-121851136D01*
X116846222Y-121828005D01*
X116891555Y-121809228D01*
X116938510Y-121794984D01*
X116986635Y-121785412D01*
X117035466Y-121780602D01*
X117060000Y-121780602D01*
X117060000Y-121780000D01*
X117610000Y-121780000D01*
X117610000Y-123280000D01*
G37*
%TD.AperFunction*%
%TD*%
D13*
%TO.P,L1,2*%
%TO.N,Net-(D2-Pad1)*%
X165430000Y-106030000D03*
%TO.P,L1,1*%
%TO.N,/5V*%
X165430000Y-113930000D03*
%TD*%
D14*
%TO.P,C1,2*%
%TO.N,GND*%
X187630000Y-125550000D03*
D15*
%TO.P,C1,1*%
%TO.N,/VIN*%
X187630000Y-123050000D03*
%TD*%
D16*
%TO.P,J3,3*%
%TO.N,GND*%
X180210000Y-103124000D03*
%TO.P,J3,2*%
%TO.N,/ONEWIRE*%
X177670000Y-103124000D03*
D17*
%TO.P,J3,1*%
%TO.N,/3V3*%
X175130000Y-103124000D03*
%TD*%
D16*
%TO.P,J2,6*%
%TO.N,/BTN_LED+*%
X111252000Y-119888000D03*
%TO.P,J2,5*%
%TO.N,/FAN+*%
X108712000Y-119888000D03*
%TO.P,J2,4*%
%TO.N,GND*%
X111252000Y-117348000D03*
%TO.P,J2,3*%
X108712000Y-117348000D03*
%TO.P,J2,2*%
%TO.N,/BTN*%
X111252000Y-114808000D03*
D17*
%TO.P,J2,1*%
%TO.N,/BTN_LED-*%
X108712000Y-114808000D03*
%TD*%
%TO.P,R3,2*%
%TO.N,Net-(JP1-Pad2)*%
%TA.AperFunction,SMDPad,CuDef*%
G36*
G01*
X120084001Y-105922500D02*
X119183999Y-105922500D01*
G75*
G02*
X118934000Y-105672501I0J249999D01*
G01*
X118934000Y-105147499D01*
G75*
G02*
X119183999Y-104897500I249999J0D01*
G01*
X120084001Y-104897500D01*
G75*
G02*
X120334000Y-105147499I0J-249999D01*
G01*
X120334000Y-105672501D01*
G75*
G02*
X120084001Y-105922500I-249999J0D01*
G01*
G37*
%TD.AperFunction*%
%TO.P,R3,1*%
%TO.N,Net-(Q2-Pad3)*%
%TA.AperFunction,SMDPad,CuDef*%
G36*
G01*
X120084001Y-107747500D02*
X119183999Y-107747500D01*
G75*
G02*
X118934000Y-107497501I0J249999D01*
G01*
X118934000Y-106972499D01*
G75*
G02*
X119183999Y-106722500I249999J0D01*
G01*
X120084001Y-106722500D01*
G75*
G02*
X120334000Y-106972499I0J-249999D01*
G01*
X120334000Y-107497501D01*
G75*
G02*
X120084001Y-107747500I-249999J0D01*
G01*
G37*
%TD.AperFunction*%
%TD*%
%TO.P,R4,2*%
%TO.N,/3V3*%
%TA.AperFunction,SMDPad,CuDef*%
G36*
G01*
X154427500Y-118306001D02*
X154427500Y-117405999D01*
G75*
G02*
X154677499Y-117156000I249999J0D01*
G01*
X155202501Y-117156000D01*
G75*
G02*
X155452500Y-117405999I0J-249999D01*
G01*
X155452500Y-118306001D01*
G75*
G02*
X155202501Y-118556000I-249999J0D01*
G01*
X154677499Y-118556000D01*
G75*
G02*
X154427500Y-118306001I0J249999D01*
G01*
G37*
%TD.AperFunction*%
%TO.P,R4,1*%
%TO.N,/ONEWIRE*%
%TA.AperFunction,SMDPad,CuDef*%
G36*
G01*
X152602500Y-118306001D02*
X152602500Y-117405999D01*
G75*
G02*
X152852499Y-117156000I249999J0D01*
G01*
X153377501Y-117156000D01*
G75*
G02*
X153627500Y-117405999I0J-249999D01*
G01*
X153627500Y-118306001D01*
G75*
G02*
X153377501Y-118556000I-249999J0D01*
G01*
X152852499Y-118556000D01*
G75*
G02*
X152602500Y-118306001I0J249999D01*
G01*
G37*
%TD.AperFunction*%
%TD*%
D18*
%TO.P,D4,2*%
%TO.N,GND*%
X112204000Y-103124000D03*
%TO.P,D4,1*%
%TO.N,/FAN+*%
X108204000Y-103124000D03*
%TD*%
D19*
%TO.P,Q3,3*%
%TO.N,/FAN+*%
X115332000Y-106426000D03*
%TO.P,Q3,2*%
%TO.N,Net-(JP1-Pad2)*%
X117332000Y-105476000D03*
%TO.P,Q3,1*%
%TO.N,Net-(Q2-Pad3)*%
X117332000Y-107376000D03*
%TD*%
D20*
%TO.P,U3,3*%
%TO.N,GND*%
X176775000Y-123550000D03*
D21*
%TO.P,U3,5*%
X173375000Y-114400000D03*
%TO.P,U3,4*%
%TO.N,/5V*%
X175075000Y-114400000D03*
%TO.P,U3,3*%
%TO.N,GND*%
X176775000Y-114400000D03*
%TO.P,U3,2*%
%TO.N,Net-(D2-Pad1)*%
X178475000Y-114400000D03*
%TO.P,U3,1*%
%TO.N,/VIN*%
X180175000Y-114400000D03*
%TD*%
%TO.P,R2,2*%
%TO.N,/FAN*%
%TA.AperFunction,SMDPad,CuDef*%
G36*
G01*
X127196001Y-106026000D02*
X126295999Y-106026000D01*
G75*
G02*
X126046000Y-105776001I0J249999D01*
G01*
X126046000Y-105250999D01*
G75*
G02*
X126295999Y-105001000I249999J0D01*
G01*
X127196001Y-105001000D01*
G75*
G02*
X127446000Y-105250999I0J-249999D01*
G01*
X127446000Y-105776001D01*
G75*
G02*
X127196001Y-106026000I-249999J0D01*
G01*
G37*
%TD.AperFunction*%
%TO.P,R2,1*%
%TO.N,Net-(Q2-Pad1)*%
%TA.AperFunction,SMDPad,CuDef*%
G36*
G01*
X127196001Y-107851000D02*
X126295999Y-107851000D01*
G75*
G02*
X126046000Y-107601001I0J249999D01*
G01*
X126046000Y-107075999D01*
G75*
G02*
X126295999Y-106826000I249999J0D01*
G01*
X127196001Y-106826000D01*
G75*
G02*
X127446000Y-107075999I0J-249999D01*
G01*
X127446000Y-107601001D01*
G75*
G02*
X127196001Y-107851000I-249999J0D01*
G01*
G37*
%TD.AperFunction*%
%TD*%
%TO.P,R1,2*%
%TO.N,/BTN_LED*%
%TA.AperFunction,SMDPad,CuDef*%
G36*
G01*
X127196001Y-110598000D02*
X126295999Y-110598000D01*
G75*
G02*
X126046000Y-110348001I0J249999D01*
G01*
X126046000Y-109822999D01*
G75*
G02*
X126295999Y-109573000I249999J0D01*
G01*
X127196001Y-109573000D01*
G75*
G02*
X127446000Y-109822999I0J-249999D01*
G01*
X127446000Y-110348001D01*
G75*
G02*
X127196001Y-110598000I-249999J0D01*
G01*
G37*
%TD.AperFunction*%
%TO.P,R1,1*%
%TO.N,Net-(Q1-Pad1)*%
%TA.AperFunction,SMDPad,CuDef*%
G36*
G01*
X127196001Y-112423000D02*
X126295999Y-112423000D01*
G75*
G02*
X126046000Y-112173001I0J249999D01*
G01*
X126046000Y-111647999D01*
G75*
G02*
X126295999Y-111398000I249999J0D01*
G01*
X127196001Y-111398000D01*
G75*
G02*
X127446000Y-111647999I0J-249999D01*
G01*
X127446000Y-112173001D01*
G75*
G02*
X127196001Y-112423000I-249999J0D01*
G01*
G37*
%TD.AperFunction*%
%TD*%
D19*
%TO.P,Q2,3*%
%TO.N,Net-(Q2-Pad3)*%
X122190000Y-106426000D03*
%TO.P,Q2,2*%
%TO.N,GND*%
X124190000Y-105476000D03*
%TO.P,Q2,1*%
%TO.N,Net-(Q2-Pad1)*%
X124190000Y-107376000D03*
%TD*%
%TO.P,Q1,3*%
%TO.N,/BTN_LED-*%
X122190000Y-110998000D03*
%TO.P,Q1,2*%
%TO.N,GND*%
X124190000Y-110048000D03*
%TO.P,Q1,1*%
%TO.N,Net-(Q1-Pad1)*%
X124190000Y-111948000D03*
%TD*%
D22*
%TO.P,U5,5*%
%TO.N,N/C*%
X197875000Y-122080000D03*
%TO.P,U5,4*%
%TO.N,/LED_B*%
X197875000Y-119540000D03*
%TO.P,U5,3*%
%TO.N,GND*%
X197875000Y-117000000D03*
%TO.P,U5,2*%
X197875000Y-112000000D03*
%TO.P,U5,1*%
%TO.N,/V12*%
X197875000Y-107000000D03*
%TD*%
%TO.P,U4,5*%
%TO.N,N/C*%
X102475000Y-106920000D03*
%TO.P,U4,4*%
%TO.N,/LED_W*%
X102475000Y-109460000D03*
%TO.P,U4,3*%
%TO.N,GND*%
X102475000Y-112000000D03*
%TO.P,U4,2*%
X102475000Y-117000000D03*
%TO.P,U4,1*%
%TO.N,/V12*%
X102475000Y-122000000D03*
%TD*%
D23*
%TO.P,U1,1*%
%TO.N,GND*%
X159180000Y-125590000D03*
%TO.P,U1,3*%
%TO.N,/5V*%
X159180000Y-120990000D03*
%TO.P,U1,2*%
%TO.N,/3V3*%
X159180000Y-123290000D03*
D24*
X152880000Y-123290000D03*
%TD*%
%TO.P,R9,2*%
%TO.N,GND*%
%TA.AperFunction,SMDPad,CuDef*%
G36*
G01*
X141390000Y-123780001D02*
X141390000Y-122879999D01*
G75*
G02*
X141639999Y-122630000I249999J0D01*
G01*
X142165001Y-122630000D01*
G75*
G02*
X142415000Y-122879999I0J-249999D01*
G01*
X142415000Y-123780001D01*
G75*
G02*
X142165001Y-124030000I-249999J0D01*
G01*
X141639999Y-124030000D01*
G75*
G02*
X141390000Y-123780001I0J249999D01*
G01*
G37*
%TD.AperFunction*%
%TO.P,R9,1*%
%TO.N,/GPIO15*%
%TA.AperFunction,SMDPad,CuDef*%
G36*
G01*
X139565000Y-123780001D02*
X139565000Y-122879999D01*
G75*
G02*
X139814999Y-122630000I249999J0D01*
G01*
X140340001Y-122630000D01*
G75*
G02*
X140590000Y-122879999I0J-249999D01*
G01*
X140590000Y-123780001D01*
G75*
G02*
X140340001Y-124030000I-249999J0D01*
G01*
X139814999Y-124030000D01*
G75*
G02*
X139565000Y-123780001I0J249999D01*
G01*
G37*
%TD.AperFunction*%
%TD*%
%TO.P,R8,2*%
%TO.N,/3V3*%
%TA.AperFunction,SMDPad,CuDef*%
G36*
G01*
X140570000Y-116011999D02*
X140570000Y-116912001D01*
G75*
G02*
X140320001Y-117162000I-249999J0D01*
G01*
X139794999Y-117162000D01*
G75*
G02*
X139545000Y-116912001I0J249999D01*
G01*
X139545000Y-116011999D01*
G75*
G02*
X139794999Y-115762000I249999J0D01*
G01*
X140320001Y-115762000D01*
G75*
G02*
X140570000Y-116011999I0J-249999D01*
G01*
G37*
%TD.AperFunction*%
%TO.P,R8,1*%
%TO.N,/EN*%
%TA.AperFunction,SMDPad,CuDef*%
G36*
G01*
X142395000Y-116011999D02*
X142395000Y-116912001D01*
G75*
G02*
X142145001Y-117162000I-249999J0D01*
G01*
X141619999Y-117162000D01*
G75*
G02*
X141370000Y-116912001I0J249999D01*
G01*
X141370000Y-116011999D01*
G75*
G02*
X141619999Y-115762000I249999J0D01*
G01*
X142145001Y-115762000D01*
G75*
G02*
X142395000Y-116011999I0J-249999D01*
G01*
G37*
%TD.AperFunction*%
%TD*%
%TO.P,R7,2*%
%TO.N,/3V3*%
%TA.AperFunction,SMDPad,CuDef*%
G36*
G01*
X140570000Y-113725999D02*
X140570000Y-114626001D01*
G75*
G02*
X140320001Y-114876000I-249999J0D01*
G01*
X139794999Y-114876000D01*
G75*
G02*
X139545000Y-114626001I0J249999D01*
G01*
X139545000Y-113725999D01*
G75*
G02*
X139794999Y-113476000I249999J0D01*
G01*
X140320001Y-113476000D01*
G75*
G02*
X140570000Y-113725999I0J-249999D01*
G01*
G37*
%TD.AperFunction*%
%TO.P,R7,1*%
%TO.N,/RST*%
%TA.AperFunction,SMDPad,CuDef*%
G36*
G01*
X142395000Y-113725999D02*
X142395000Y-114626001D01*
G75*
G02*
X142145001Y-114876000I-249999J0D01*
G01*
X141619999Y-114876000D01*
G75*
G02*
X141370000Y-114626001I0J249999D01*
G01*
X141370000Y-113725999D01*
G75*
G02*
X141619999Y-113476000I249999J0D01*
G01*
X142145001Y-113476000D01*
G75*
G02*
X142395000Y-113725999I0J-249999D01*
G01*
G37*
%TD.AperFunction*%
%TD*%
%TO.P,R6,2*%
%TO.N,/3V3*%
%TA.AperFunction,SMDPad,CuDef*%
G36*
G01*
X141370000Y-121484001D02*
X141370000Y-120583999D01*
G75*
G02*
X141619999Y-120334000I249999J0D01*
G01*
X142145001Y-120334000D01*
G75*
G02*
X142395000Y-120583999I0J-249999D01*
G01*
X142395000Y-121484001D01*
G75*
G02*
X142145001Y-121734000I-249999J0D01*
G01*
X141619999Y-121734000D01*
G75*
G02*
X141370000Y-121484001I0J249999D01*
G01*
G37*
%TD.AperFunction*%
%TO.P,R6,1*%
%TO.N,/GPIO2*%
%TA.AperFunction,SMDPad,CuDef*%
G36*
G01*
X139545000Y-121484001D02*
X139545000Y-120583999D01*
G75*
G02*
X139794999Y-120334000I249999J0D01*
G01*
X140320001Y-120334000D01*
G75*
G02*
X140570000Y-120583999I0J-249999D01*
G01*
X140570000Y-121484001D01*
G75*
G02*
X140320001Y-121734000I-249999J0D01*
G01*
X139794999Y-121734000D01*
G75*
G02*
X139545000Y-121484001I0J249999D01*
G01*
G37*
%TD.AperFunction*%
%TD*%
%TO.P,R5,2*%
%TO.N,/3V3*%
%TA.AperFunction,SMDPad,CuDef*%
G36*
G01*
X141370000Y-119198001D02*
X141370000Y-118297999D01*
G75*
G02*
X141619999Y-118048000I249999J0D01*
G01*
X142145001Y-118048000D01*
G75*
G02*
X142395000Y-118297999I0J-249999D01*
G01*
X142395000Y-119198001D01*
G75*
G02*
X142145001Y-119448000I-249999J0D01*
G01*
X141619999Y-119448000D01*
G75*
G02*
X141370000Y-119198001I0J249999D01*
G01*
G37*
%TD.AperFunction*%
%TO.P,R5,1*%
%TO.N,/GPIO0*%
%TA.AperFunction,SMDPad,CuDef*%
G36*
G01*
X139545000Y-119198001D02*
X139545000Y-118297999D01*
G75*
G02*
X139794999Y-118048000I249999J0D01*
G01*
X140320001Y-118048000D01*
G75*
G02*
X140570000Y-118297999I0J-249999D01*
G01*
X140570000Y-119198001D01*
G75*
G02*
X140320001Y-119448000I-249999J0D01*
G01*
X139794999Y-119448000D01*
G75*
G02*
X139545000Y-119198001I0J249999D01*
G01*
G37*
%TD.AperFunction*%
%TD*%
D25*
%TO.P,D3,2*%
%TO.N,Net-(D3-Pad2)*%
X155550000Y-106890000D03*
%TO.P,D3,1*%
%TO.N,/5V*%
X155550000Y-110890000D03*
%TD*%
D18*
%TO.P,D2,2*%
%TO.N,GND*%
X180784000Y-109175000D03*
%TO.P,D2,1*%
%TO.N,Net-(D2-Pad1)*%
X176784000Y-109175000D03*
%TD*%
D25*
%TO.P,D1,2*%
%TO.N,/V12*%
X185025000Y-113350000D03*
%TO.P,D1,1*%
%TO.N,/VIN*%
X185025000Y-117350000D03*
%TD*%
D14*
%TO.P,C5,2*%
%TO.N,GND*%
X166775000Y-125600000D03*
D15*
%TO.P,C5,1*%
%TO.N,/5V*%
X166775000Y-123100000D03*
%TD*%
%TO.P,C4,2*%
%TO.N,GND*%
%TA.AperFunction,SMDPad,CuDef*%
G36*
G01*
X158250000Y-118331000D02*
X158250000Y-117381000D01*
G75*
G02*
X158500000Y-117131000I250000J0D01*
G01*
X159000000Y-117131000D01*
G75*
G02*
X159250000Y-117381000I0J-250000D01*
G01*
X159250000Y-118331000D01*
G75*
G02*
X159000000Y-118581000I-250000J0D01*
G01*
X158500000Y-118581000D01*
G75*
G02*
X158250000Y-118331000I0J250000D01*
G01*
G37*
%TD.AperFunction*%
%TO.P,C4,1*%
%TO.N,/3V3*%
%TA.AperFunction,SMDPad,CuDef*%
G36*
G01*
X156350000Y-118331000D02*
X156350000Y-117381000D01*
G75*
G02*
X156600000Y-117131000I250000J0D01*
G01*
X157100000Y-117131000D01*
G75*
G02*
X157350000Y-117381000I0J-250000D01*
G01*
X157350000Y-118331000D01*
G75*
G02*
X157100000Y-118581000I-250000J0D01*
G01*
X156600000Y-118581000D01*
G75*
G02*
X156350000Y-118331000I0J250000D01*
G01*
G37*
%TD.AperFunction*%
%TD*%
%TO.P,C2,2*%
%TO.N,GND*%
%TA.AperFunction,SMDPad,CuDef*%
G36*
G01*
X150081000Y-121470000D02*
X149131000Y-121470000D01*
G75*
G02*
X148881000Y-121220000I0J250000D01*
G01*
X148881000Y-120720000D01*
G75*
G02*
X149131000Y-120470000I250000J0D01*
G01*
X150081000Y-120470000D01*
G75*
G02*
X150331000Y-120720000I0J-250000D01*
G01*
X150331000Y-121220000D01*
G75*
G02*
X150081000Y-121470000I-250000J0D01*
G01*
G37*
%TD.AperFunction*%
%TO.P,C2,1*%
%TO.N,/3V3*%
%TA.AperFunction,SMDPad,CuDef*%
G36*
G01*
X150081000Y-123370000D02*
X149131000Y-123370000D01*
G75*
G02*
X148881000Y-123120000I0J250000D01*
G01*
X148881000Y-122620000D01*
G75*
G02*
X149131000Y-122370000I250000J0D01*
G01*
X150081000Y-122370000D01*
G75*
G02*
X150331000Y-122620000I0J-250000D01*
G01*
X150331000Y-123120000D01*
G75*
G02*
X150081000Y-123370000I-250000J0D01*
G01*
G37*
%TD.AperFunction*%
%TD*%
D26*
%TO.N,GND*%
X128524000Y-109220000D03*
X130048000Y-101600000D03*
X114554000Y-103378000D03*
X136050000Y-111960000D03*
X147000000Y-115960000D03*
X136150000Y-115760000D03*
X136080000Y-117920000D03*
X136030000Y-109890000D03*
X145796000Y-122936000D03*
X173228000Y-104140000D03*
X178816000Y-104394000D03*
X131826000Y-109220000D03*
X131826000Y-111760000D03*
X131826000Y-113792000D03*
X131826000Y-115824000D03*
X131826000Y-118110000D03*
X131826000Y-122174000D03*
X176530000Y-104902000D03*
X152490000Y-107760000D03*
X161100000Y-117940000D03*
%TO.N,/3V3*%
X151130000Y-122936000D03*
X155702000Y-119126000D03*
X166940000Y-101970000D03*
%TO.N,/V12*%
X190754000Y-128016000D03*
%TO.N,/GPIO0*%
X138930000Y-118250000D03*
%TO.N,/GPIO2*%
X139192000Y-120526000D03*
%TO.N,/RST*%
X141986000Y-113414000D03*
X150580000Y-108920000D03*
X157910000Y-102340000D03*
%TO.N,/EN*%
X145470000Y-113660000D03*
%TO.N,/GPIO15*%
X137480000Y-122300000D03*
%TO.N,/TX*%
X138880000Y-110900000D03*
X152908000Y-113060000D03*
%TO.N,/RX*%
X145870000Y-109100000D03*
X152654000Y-110520000D03*
%TO.N,/LED_W*%
X138430000Y-114300000D03*
X131064000Y-110744000D03*
%TO.N,/ONEWIRE*%
X152400000Y-117094000D03*
X164830000Y-102680000D03*
%TO.N,/BTN_LED*%
X144526000Y-122174000D03*
%TO.N,/FAN*%
X126746000Y-104140000D03*
%TO.N,Net-(D3-Pad2)*%
X153860000Y-105030000D03*
%TO.N,/BTN_LED+*%
X118360000Y-124900000D03*
%TO.N,Net-(JP1-Pad2)*%
X119634000Y-104140000D03*
X118364000Y-114554000D03*
%TD*%
D27*
%TO.N,/3V3*%
X141882500Y-121034000D02*
X141882500Y-118748000D01*
X141882500Y-118748000D02*
X141882500Y-118390500D01*
X140057500Y-116565500D02*
X140057500Y-116462000D01*
X141882500Y-118390500D02*
X140057500Y-116565500D01*
X140057500Y-116462000D02*
X140057500Y-114176000D01*
X151494000Y-123300000D02*
X151130000Y-122936000D01*
X156850000Y-117856000D02*
X154940000Y-117856000D01*
X149606000Y-122870000D02*
X148524000Y-122870000D01*
X145288000Y-119634000D02*
X141882500Y-119634000D01*
X148524000Y-122870000D02*
X145288000Y-119634000D01*
X151064000Y-122870000D02*
X151130000Y-122936000D01*
X149606000Y-122870000D02*
X151064000Y-122870000D01*
X166950000Y-101980000D02*
X166940000Y-101970000D01*
X175130000Y-103124000D02*
X174752000Y-103124000D01*
X173598000Y-101970000D02*
X166940000Y-101970000D01*
X174752000Y-103124000D02*
X173598000Y-101970000D01*
X159180000Y-123290000D02*
X152880000Y-123290000D01*
X151504000Y-123290000D02*
X151494000Y-123300000D01*
X152880000Y-123290000D02*
X151504000Y-123290000D01*
X152880000Y-121895000D02*
X154922500Y-119852500D01*
X152880000Y-123290000D02*
X152880000Y-121895000D01*
X154922500Y-119852500D02*
X156800000Y-117975000D01*
X154725000Y-120050000D02*
X154922500Y-119852500D01*
%TO.N,/5V*%
X166825000Y-123050000D02*
X166775000Y-123100000D01*
X175075000Y-111600000D02*
X175075000Y-114400000D01*
X171950000Y-111425000D02*
X174900000Y-111425000D01*
X169445000Y-113930000D02*
X171950000Y-111425000D01*
X174900000Y-111425000D02*
X175075000Y-111600000D01*
X165430000Y-113930000D02*
X169445000Y-113930000D01*
X165430000Y-113930000D02*
X165430000Y-118340000D01*
X166775000Y-119685000D02*
X166775000Y-123100000D01*
X165430000Y-118340000D02*
X166775000Y-119685000D01*
X164665000Y-120990000D02*
X166775000Y-123100000D01*
X159180000Y-120990000D02*
X164665000Y-120990000D01*
X155550000Y-110890000D02*
X155600000Y-110890000D01*
X158640000Y-113930000D02*
X165430000Y-113930000D01*
X155600000Y-110890000D02*
X158640000Y-113930000D01*
X119660000Y-125750000D02*
X119660000Y-122530000D01*
X120920000Y-127660000D02*
X119660000Y-126400000D01*
X161970000Y-127660000D02*
X120920000Y-127660000D01*
X162860000Y-126770000D02*
X161970000Y-127660000D01*
X162860000Y-125540000D02*
X162860000Y-126770000D01*
X165300000Y-123100000D02*
X162860000Y-125540000D01*
X166775000Y-123100000D02*
X165300000Y-123100000D01*
D28*
%TO.N,/V12*%
X186100000Y-112275000D02*
X185025000Y-113350000D01*
X186100000Y-104800000D02*
X186100000Y-112275000D01*
X186100000Y-104800000D02*
X186100000Y-105582000D01*
X186100000Y-105582000D02*
X189992000Y-109474000D01*
X195401000Y-109474000D02*
X197875000Y-107000000D01*
X189992000Y-109474000D02*
X195401000Y-109474000D01*
X185025000Y-113350000D02*
X187264000Y-113350000D01*
X190754000Y-116840000D02*
X190754000Y-128016000D01*
X187264000Y-113350000D02*
X190754000Y-116840000D01*
X117060000Y-125750000D02*
X117060000Y-122530000D01*
X103005000Y-122530000D02*
X102475000Y-122000000D01*
X117060000Y-122530000D02*
X103005000Y-122530000D01*
%TO.N,/VIN*%
X185025000Y-117350000D02*
X184375000Y-117350000D01*
X181425000Y-114400000D02*
X180175000Y-114400000D01*
X184375000Y-117350000D02*
X181425000Y-114400000D01*
X187630000Y-119955000D02*
X185025000Y-117350000D01*
X187630000Y-123050000D02*
X187630000Y-119955000D01*
%TO.N,Net-(D2-Pad1)*%
X168575000Y-109175000D02*
X165430000Y-106030000D01*
X176350000Y-109175000D02*
X168575000Y-109175000D01*
X176350000Y-109400000D02*
X176350000Y-109175000D01*
X178475000Y-111525000D02*
X176350000Y-109400000D01*
X178475000Y-114400000D02*
X178475000Y-111525000D01*
D27*
%TO.N,/GPIO0*%
X139549500Y-118240000D02*
X140057500Y-118748000D01*
X138938000Y-118240000D02*
X139549500Y-118240000D01*
%TO.N,/GPIO2*%
X139549500Y-120526000D02*
X140057500Y-121034000D01*
X139192000Y-120526000D02*
X139549500Y-120526000D01*
%TO.N,/RST*%
X142240000Y-113818500D02*
X141882500Y-114176000D01*
X141882500Y-113517500D02*
X141986000Y-113414000D01*
X141882500Y-114176000D02*
X141882500Y-113517500D01*
X157910000Y-102340000D02*
X157910000Y-104040000D01*
X152630000Y-108920000D02*
X153030000Y-108920000D01*
X150580000Y-108920000D02*
X152630000Y-108920000D01*
X157910000Y-105930000D02*
X157910000Y-102340000D01*
X157910000Y-108160000D02*
X157910000Y-105930000D01*
X157150000Y-108920000D02*
X157910000Y-108160000D01*
X152630000Y-108920000D02*
X157150000Y-108920000D01*
%TO.N,/EN*%
X142136500Y-116208000D02*
X141882500Y-116462000D01*
X141882500Y-116462000D02*
X144618000Y-116462000D01*
X145470000Y-115610000D02*
X145470000Y-113660000D01*
X144618000Y-116462000D02*
X145470000Y-115610000D01*
%TO.N,/GPIO15*%
X138510000Y-123330000D02*
X140077500Y-123330000D01*
X137480000Y-122300000D02*
X138510000Y-123330000D01*
%TO.N,/TX*%
X148410000Y-113060000D02*
X146250000Y-110900000D01*
X152908000Y-113060000D02*
X148410000Y-113060000D01*
X138880000Y-110900000D02*
X146250000Y-110900000D01*
%TO.N,/RX*%
X152654000Y-110520000D02*
X151668000Y-110520000D01*
X151668000Y-110520000D02*
X152030000Y-110520000D01*
X149780000Y-110520000D02*
X151668000Y-110520000D01*
X148370000Y-109100000D02*
X149790000Y-110520000D01*
X145870000Y-109100000D02*
X148370000Y-109100000D01*
X152654000Y-110520000D02*
X149790000Y-110520000D01*
%TO.N,/LED_W*%
X135382000Y-114300000D02*
X138430000Y-114300000D01*
X134874000Y-114300000D02*
X135382000Y-114300000D01*
X131064000Y-110744000D02*
X132080000Y-110744000D01*
X132080000Y-110744000D02*
X133096000Y-111760000D01*
X133096000Y-111760000D02*
X133096000Y-113284000D01*
X134112000Y-114300000D02*
X135382000Y-114300000D01*
X133096000Y-113284000D02*
X134112000Y-114300000D01*
%TO.N,Net-(Q1-Pad1)*%
X126708500Y-111948000D02*
X126746000Y-111910500D01*
X124190000Y-111948000D02*
X126708500Y-111948000D01*
%TO.N,Net-(Q2-Pad1)*%
X126708500Y-107376000D02*
X126746000Y-107338500D01*
X124190000Y-107376000D02*
X126708500Y-107376000D01*
D28*
%TO.N,/FAN+*%
X115332000Y-106426000D02*
X115316000Y-106426000D01*
X108712000Y-119888000D02*
X106426000Y-119888000D01*
X106426000Y-119888000D02*
X105410000Y-118872000D01*
X105410000Y-105918000D02*
X108204000Y-103124000D01*
X105410000Y-118872000D02*
X105410000Y-105918000D01*
X111506000Y-106426000D02*
X108204000Y-103124000D01*
X115332000Y-106426000D02*
X111506000Y-106426000D01*
D27*
%TO.N,/BTN_LED-*%
X108712000Y-114808000D02*
X108712000Y-113030000D01*
X122190000Y-110998000D02*
X109474000Y-110998000D01*
X108712000Y-111760000D02*
X108712000Y-114808000D01*
X109474000Y-110998000D02*
X108712000Y-111760000D01*
%TO.N,/ONEWIRE*%
X153115000Y-117809000D02*
X152400000Y-117094000D01*
X153115000Y-117856000D02*
X153115000Y-117809000D01*
X164830000Y-101630000D02*
X164830000Y-102680000D01*
X165430000Y-101030000D02*
X164830000Y-101630000D01*
X176920000Y-101030000D02*
X165430000Y-101030000D01*
X177670000Y-101780000D02*
X176920000Y-101030000D01*
X177670000Y-103124000D02*
X177670000Y-101780000D01*
%TO.N,Net-(Q2-Pad3)*%
X122190000Y-106426000D02*
X121920000Y-106426000D01*
X121111000Y-107235000D02*
X119634000Y-107235000D01*
X121920000Y-106426000D02*
X121111000Y-107235000D01*
X117473000Y-107235000D02*
X117332000Y-107376000D01*
X119634000Y-107235000D02*
X117473000Y-107235000D01*
%TO.N,/BTN_LED*%
X126896500Y-110236000D02*
X126746000Y-110085500D01*
X144526000Y-122174000D02*
X144526000Y-123444000D01*
X128166500Y-110085500D02*
X129032000Y-110951000D01*
X126746000Y-110085500D02*
X128166500Y-110085500D01*
X129032000Y-122412000D02*
X129032000Y-122936000D01*
X129032000Y-110951000D02*
X129032000Y-122412000D01*
X144526000Y-122174000D02*
X144526000Y-125504000D01*
X144526000Y-125504000D02*
X144020000Y-126010000D01*
X144020000Y-126010000D02*
X129900000Y-126010000D01*
X129032000Y-125142000D02*
X129032000Y-123068000D01*
X129900000Y-126010000D02*
X129032000Y-125142000D01*
X129032000Y-123068000D02*
X129032000Y-122412000D01*
%TO.N,/FAN*%
X126746000Y-105513500D02*
X126746000Y-104140000D01*
%TO.N,Net-(D3-Pad2)*%
X155550000Y-106720000D02*
X153860000Y-105030000D01*
X155550000Y-106890000D02*
X155550000Y-106720000D01*
%TO.N,/BTN_LED+*%
X118360000Y-126400000D02*
X118360000Y-124900000D01*
D28*
%TO.N,Net-(JP1-Pad2)*%
X117398000Y-105410000D02*
X117332000Y-105476000D01*
X119634000Y-105410000D02*
X117398000Y-105410000D01*
X119634000Y-104140000D02*
X119634000Y-105410000D01*
D27*
X118380000Y-122510000D02*
X118360000Y-122530000D01*
X118380000Y-114570000D02*
X118380000Y-122360000D01*
X118364000Y-114554000D02*
X118380000Y-114570000D01*
%TD*%
D29*
%TO.N,GND*%
X129174775Y-100698147D02*
X129517967Y-100801763D01*
X129834489Y-100970062D01*
X130112299Y-101196637D01*
X130340806Y-101472856D01*
X130511310Y-101788197D01*
X130617319Y-102130656D01*
X130658000Y-102517713D01*
X130658001Y-105532419D01*
X130660886Y-105561709D01*
X130660777Y-105577271D01*
X130661677Y-105586442D01*
X130712678Y-106071684D01*
X130724699Y-106130247D01*
X130735914Y-106189040D01*
X130738578Y-106197862D01*
X130882858Y-106663956D01*
X130906033Y-106719086D01*
X130928447Y-106774565D01*
X130932774Y-106782701D01*
X131164838Y-107211894D01*
X131198271Y-107261461D01*
X131231042Y-107311540D01*
X131236867Y-107318681D01*
X131547875Y-107694627D01*
X131590311Y-107736767D01*
X131632174Y-107779517D01*
X131639275Y-107785391D01*
X132017382Y-108093767D01*
X132067191Y-108126859D01*
X132116563Y-108160666D01*
X132124667Y-108165047D01*
X132124675Y-108165051D01*
X132555473Y-108394111D01*
X132610788Y-108416910D01*
X132665760Y-108440471D01*
X132674563Y-108443196D01*
X133141652Y-108584219D01*
X133200369Y-108595845D01*
X133258845Y-108608275D01*
X133268009Y-108609238D01*
X133753596Y-108656850D01*
X133753598Y-108656850D01*
X133785581Y-108660000D01*
X144931978Y-108660000D01*
X144874774Y-108798102D01*
X144835000Y-108998061D01*
X144835000Y-109201939D01*
X144874774Y-109401898D01*
X144952795Y-109590256D01*
X145066063Y-109759774D01*
X145210226Y-109903937D01*
X145379744Y-110017205D01*
X145568102Y-110095226D01*
X145768061Y-110135000D01*
X145971939Y-110135000D01*
X146171898Y-110095226D01*
X146360256Y-110017205D01*
X146529774Y-109903937D01*
X146573711Y-109860000D01*
X148055199Y-109860000D01*
X149170435Y-110975237D01*
X149239999Y-111060001D01*
X149355724Y-111154974D01*
X149487753Y-111225546D01*
X149631014Y-111269003D01*
X149742667Y-111280000D01*
X149752676Y-111280000D01*
X149789999Y-111283676D01*
X149827322Y-111280000D01*
X151950289Y-111280000D01*
X151994226Y-111323937D01*
X152163744Y-111437205D01*
X152352102Y-111515226D01*
X152552061Y-111555000D01*
X152755939Y-111555000D01*
X152955898Y-111515226D01*
X153144256Y-111437205D01*
X153313774Y-111323937D01*
X153457937Y-111179774D01*
X153571205Y-111010256D01*
X153649226Y-110821898D01*
X153689000Y-110621939D01*
X153689000Y-110418061D01*
X153649226Y-110218102D01*
X153571205Y-110029744D01*
X153457937Y-109860226D01*
X153313774Y-109716063D01*
X153259802Y-109680000D01*
X154011928Y-109680000D01*
X154011928Y-112140000D01*
X154024188Y-112264482D01*
X154060498Y-112384180D01*
X154119463Y-112494494D01*
X154198815Y-112591185D01*
X154295506Y-112670537D01*
X154405820Y-112729502D01*
X154525518Y-112765812D01*
X154650000Y-112778072D01*
X156413271Y-112778072D01*
X158076201Y-114441003D01*
X158099999Y-114470001D01*
X158215724Y-114564974D01*
X158347753Y-114635546D01*
X158491014Y-114679003D01*
X158602667Y-114690000D01*
X158602676Y-114690000D01*
X158639999Y-114693676D01*
X158677322Y-114690000D01*
X162091928Y-114690000D01*
X162091928Y-116380000D01*
X162104188Y-116504482D01*
X162140498Y-116624180D01*
X162199463Y-116734494D01*
X162278815Y-116831185D01*
X162375506Y-116910537D01*
X162485820Y-116969502D01*
X162605518Y-117005812D01*
X162730000Y-117018072D01*
X164670001Y-117018072D01*
X164670001Y-118302668D01*
X164666324Y-118340000D01*
X164670001Y-118377333D01*
X164680998Y-118488986D01*
X164694121Y-118532246D01*
X164724454Y-118632246D01*
X164795026Y-118764276D01*
X164860602Y-118844180D01*
X164890000Y-118880001D01*
X164918998Y-118903799D01*
X166015000Y-119999802D01*
X166015000Y-121265199D01*
X165228804Y-120479003D01*
X165205001Y-120449999D01*
X165089276Y-120355026D01*
X164957247Y-120284454D01*
X164813986Y-120240997D01*
X164702333Y-120230000D01*
X164702322Y-120230000D01*
X164665000Y-120226324D01*
X164627678Y-120230000D01*
X160817087Y-120230000D01*
X160805812Y-120115518D01*
X160769502Y-119995820D01*
X160710537Y-119885506D01*
X160631185Y-119788815D01*
X160534494Y-119709463D01*
X160424180Y-119650498D01*
X160304482Y-119614188D01*
X160180000Y-119601928D01*
X158180000Y-119601928D01*
X158055518Y-119614188D01*
X157935820Y-119650498D01*
X157825506Y-119709463D01*
X157728815Y-119788815D01*
X157649463Y-119885506D01*
X157590498Y-119995820D01*
X157554188Y-120115518D01*
X157541928Y-120240000D01*
X157541928Y-121740000D01*
X157554188Y-121864482D01*
X157590498Y-121984180D01*
X157649463Y-122094494D01*
X157686809Y-122140000D01*
X157649463Y-122185506D01*
X157590498Y-122295820D01*
X157554188Y-122415518D01*
X157542913Y-122530000D01*
X154518072Y-122530000D01*
X154518072Y-121390000D01*
X154512848Y-121336954D01*
X155486299Y-120363503D01*
X155486303Y-120363498D01*
X155688801Y-120161000D01*
X155803939Y-120161000D01*
X156003898Y-120121226D01*
X156192256Y-120043205D01*
X156361774Y-119929937D01*
X156505937Y-119785774D01*
X156619205Y-119616256D01*
X156697226Y-119427898D01*
X156737000Y-119227939D01*
X156737000Y-119219072D01*
X157100000Y-119219072D01*
X157273254Y-119202008D01*
X157439850Y-119151472D01*
X157593386Y-119069405D01*
X157727962Y-118958962D01*
X157733342Y-118952406D01*
X157798815Y-119032185D01*
X157895506Y-119111537D01*
X158005820Y-119170502D01*
X158125518Y-119206812D01*
X158250000Y-119219072D01*
X158464250Y-119216000D01*
X158623000Y-119057250D01*
X158623000Y-117983000D01*
X158877000Y-117983000D01*
X158877000Y-119057250D01*
X159035750Y-119216000D01*
X159250000Y-119219072D01*
X159374482Y-119206812D01*
X159494180Y-119170502D01*
X159604494Y-119111537D01*
X159701185Y-119032185D01*
X159780537Y-118935494D01*
X159839502Y-118825180D01*
X159875812Y-118705482D01*
X159888072Y-118581000D01*
X159885000Y-118141750D01*
X159726250Y-117983000D01*
X158877000Y-117983000D01*
X158623000Y-117983000D01*
X158603000Y-117983000D01*
X158603000Y-117729000D01*
X158623000Y-117729000D01*
X158623000Y-116654750D01*
X158877000Y-116654750D01*
X158877000Y-117729000D01*
X159726250Y-117729000D01*
X159885000Y-117570250D01*
X159888072Y-117131000D01*
X159875812Y-117006518D01*
X159839502Y-116886820D01*
X159780537Y-116776506D01*
X159701185Y-116679815D01*
X159604494Y-116600463D01*
X159494180Y-116541498D01*
X159374482Y-116505188D01*
X159250000Y-116492928D01*
X159035750Y-116496000D01*
X158877000Y-116654750D01*
X158623000Y-116654750D01*
X158464250Y-116496000D01*
X158250000Y-116492928D01*
X158125518Y-116505188D01*
X158005820Y-116541498D01*
X157895506Y-116600463D01*
X157798815Y-116679815D01*
X157733342Y-116759594D01*
X157727962Y-116753038D01*
X157593386Y-116642595D01*
X157439850Y-116560528D01*
X157273254Y-116509992D01*
X157100000Y-116492928D01*
X156600000Y-116492928D01*
X156426746Y-116509992D01*
X156260150Y-116560528D01*
X156106614Y-116642595D01*
X155972038Y-116753038D01*
X155890992Y-116851794D01*
X155830462Y-116778038D01*
X155695887Y-116667595D01*
X155542351Y-116585528D01*
X155375755Y-116534992D01*
X155202501Y-116517928D01*
X154677499Y-116517928D01*
X154504245Y-116534992D01*
X154337649Y-116585528D01*
X154184113Y-116667595D01*
X154049538Y-116778038D01*
X154027500Y-116804891D01*
X154005462Y-116778038D01*
X153870887Y-116667595D01*
X153717351Y-116585528D01*
X153550755Y-116534992D01*
X153377501Y-116517928D01*
X153259865Y-116517928D01*
X153203937Y-116434226D01*
X153059774Y-116290063D01*
X152890256Y-116176795D01*
X152701898Y-116098774D01*
X152501939Y-116059000D01*
X152298061Y-116059000D01*
X152098102Y-116098774D01*
X151909744Y-116176795D01*
X151740226Y-116290063D01*
X151596063Y-116434226D01*
X151482795Y-116603744D01*
X151404774Y-116792102D01*
X151365000Y-116992061D01*
X151365000Y-117195939D01*
X151404774Y-117395898D01*
X151482795Y-117584256D01*
X151596063Y-117753774D01*
X151740226Y-117897937D01*
X151909744Y-118011205D01*
X151964428Y-118033856D01*
X151964428Y-118306001D01*
X151981492Y-118479255D01*
X152032028Y-118645851D01*
X152114095Y-118799387D01*
X152224538Y-118933962D01*
X152359113Y-119044405D01*
X152512649Y-119126472D01*
X152679245Y-119177008D01*
X152852499Y-119194072D01*
X153377501Y-119194072D01*
X153550755Y-119177008D01*
X153717351Y-119126472D01*
X153870887Y-119044405D01*
X154005462Y-118933962D01*
X154027500Y-118907109D01*
X154049538Y-118933962D01*
X154184113Y-119044405D01*
X154337649Y-119126472D01*
X154504245Y-119177008D01*
X154521492Y-119178707D01*
X154411502Y-119288697D01*
X154411497Y-119288701D01*
X152948271Y-120751928D01*
X151880000Y-120751928D01*
X151755518Y-120764188D01*
X151635820Y-120800498D01*
X151525506Y-120859463D01*
X151428815Y-120938815D01*
X151349463Y-121035506D01*
X151290498Y-121145820D01*
X151254188Y-121265518D01*
X151241928Y-121390000D01*
X151241928Y-121902987D01*
X151231939Y-121901000D01*
X151028061Y-121901000D01*
X150828102Y-121940774D01*
X150707412Y-121990766D01*
X150702406Y-121986658D01*
X150782185Y-121921185D01*
X150861537Y-121824494D01*
X150920502Y-121714180D01*
X150956812Y-121594482D01*
X150969072Y-121470000D01*
X150966000Y-121255750D01*
X150807250Y-121097000D01*
X149733000Y-121097000D01*
X149733000Y-121117000D01*
X149479000Y-121117000D01*
X149479000Y-121097000D01*
X148404750Y-121097000D01*
X148246000Y-121255750D01*
X148242928Y-121470000D01*
X148247749Y-121518947D01*
X147198802Y-120470000D01*
X148242928Y-120470000D01*
X148246000Y-120684250D01*
X148404750Y-120843000D01*
X149479000Y-120843000D01*
X149479000Y-119993750D01*
X149733000Y-119993750D01*
X149733000Y-120843000D01*
X150807250Y-120843000D01*
X150966000Y-120684250D01*
X150969072Y-120470000D01*
X150956812Y-120345518D01*
X150920502Y-120225820D01*
X150861537Y-120115506D01*
X150782185Y-120018815D01*
X150685494Y-119939463D01*
X150575180Y-119880498D01*
X150455482Y-119844188D01*
X150331000Y-119831928D01*
X149891750Y-119835000D01*
X149733000Y-119993750D01*
X149479000Y-119993750D01*
X149320250Y-119835000D01*
X148881000Y-119831928D01*
X148756518Y-119844188D01*
X148636820Y-119880498D01*
X148526506Y-119939463D01*
X148429815Y-120018815D01*
X148350463Y-120115506D01*
X148291498Y-120225820D01*
X148255188Y-120345518D01*
X148242928Y-120470000D01*
X147198802Y-120470000D01*
X145851804Y-119123003D01*
X145828001Y-119093999D01*
X145712276Y-118999026D01*
X145580247Y-118928454D01*
X145436986Y-118884997D01*
X145325333Y-118874000D01*
X145325322Y-118874000D01*
X145288000Y-118870324D01*
X145250678Y-118874000D01*
X143033072Y-118874000D01*
X143033072Y-118297999D01*
X143016008Y-118124745D01*
X142965472Y-117958149D01*
X142883405Y-117804613D01*
X142772962Y-117670038D01*
X142693713Y-117605000D01*
X142772962Y-117539962D01*
X142883405Y-117405387D01*
X142965472Y-117251851D01*
X142974527Y-117222000D01*
X144580678Y-117222000D01*
X144618000Y-117225676D01*
X144655322Y-117222000D01*
X144655333Y-117222000D01*
X144766986Y-117211003D01*
X144910247Y-117167546D01*
X145042276Y-117096974D01*
X145158001Y-117002001D01*
X145181803Y-116972998D01*
X145981004Y-116173798D01*
X146010001Y-116150001D01*
X146079901Y-116064828D01*
X146104974Y-116034277D01*
X146175546Y-115902247D01*
X146189629Y-115855820D01*
X146219003Y-115758986D01*
X146230000Y-115647333D01*
X146230000Y-115647323D01*
X146233676Y-115610000D01*
X146230000Y-115572677D01*
X146230000Y-114363711D01*
X146273937Y-114319774D01*
X146387205Y-114150256D01*
X146465226Y-113961898D01*
X146505000Y-113761939D01*
X146505000Y-113558061D01*
X146465226Y-113358102D01*
X146387205Y-113169744D01*
X146273937Y-113000226D01*
X146129774Y-112856063D01*
X145960256Y-112742795D01*
X145771898Y-112664774D01*
X145571939Y-112625000D01*
X145368061Y-112625000D01*
X145168102Y-112664774D01*
X144979744Y-112742795D01*
X144810226Y-112856063D01*
X144666063Y-113000226D01*
X144552795Y-113169744D01*
X144474774Y-113358102D01*
X144435000Y-113558061D01*
X144435000Y-113761939D01*
X144474774Y-113961898D01*
X144552795Y-114150256D01*
X144666063Y-114319774D01*
X144710001Y-114363712D01*
X144710000Y-115295198D01*
X144303199Y-115702000D01*
X142974527Y-115702000D01*
X142965472Y-115672149D01*
X142883405Y-115518613D01*
X142772962Y-115384038D01*
X142693713Y-115319000D01*
X142772962Y-115253962D01*
X142883405Y-115119387D01*
X142965472Y-114965851D01*
X143016008Y-114799255D01*
X143033072Y-114626001D01*
X143033072Y-113725999D01*
X143016008Y-113552745D01*
X143014601Y-113548108D01*
X143021000Y-113515939D01*
X143021000Y-113312061D01*
X142981226Y-113112102D01*
X142903205Y-112923744D01*
X142789937Y-112754226D01*
X142645774Y-112610063D01*
X142476256Y-112496795D01*
X142287898Y-112418774D01*
X142087939Y-112379000D01*
X141884061Y-112379000D01*
X141684102Y-112418774D01*
X141495744Y-112496795D01*
X141326226Y-112610063D01*
X141182063Y-112754226D01*
X141068795Y-112923744D01*
X140998949Y-113092366D01*
X140992038Y-113098038D01*
X140970000Y-113124891D01*
X140947962Y-113098038D01*
X140813387Y-112987595D01*
X140659851Y-112905528D01*
X140493255Y-112854992D01*
X140320001Y-112837928D01*
X139794999Y-112837928D01*
X139621745Y-112854992D01*
X139455149Y-112905528D01*
X139301613Y-112987595D01*
X139167038Y-113098038D01*
X139056595Y-113232613D01*
X138974528Y-113386149D01*
X138966228Y-113413512D01*
X138920256Y-113382795D01*
X138731898Y-113304774D01*
X138531939Y-113265000D01*
X138328061Y-113265000D01*
X138128102Y-113304774D01*
X137939744Y-113382795D01*
X137770226Y-113496063D01*
X137726289Y-113540000D01*
X134426802Y-113540000D01*
X133856000Y-112969199D01*
X133856000Y-111797322D01*
X133859676Y-111760000D01*
X133856000Y-111722677D01*
X133856000Y-111722667D01*
X133845003Y-111611014D01*
X133801546Y-111467753D01*
X133771212Y-111411002D01*
X133730974Y-111335723D01*
X133659799Y-111248997D01*
X133636001Y-111219999D01*
X133607004Y-111196202D01*
X133208863Y-110798061D01*
X137845000Y-110798061D01*
X137845000Y-111001939D01*
X137884774Y-111201898D01*
X137962795Y-111390256D01*
X138076063Y-111559774D01*
X138220226Y-111703937D01*
X138389744Y-111817205D01*
X138578102Y-111895226D01*
X138778061Y-111935000D01*
X138981939Y-111935000D01*
X139181898Y-111895226D01*
X139370256Y-111817205D01*
X139539774Y-111703937D01*
X139583711Y-111660000D01*
X145935199Y-111660000D01*
X147846201Y-113571003D01*
X147869999Y-113600001D01*
X147985724Y-113694974D01*
X148117753Y-113765546D01*
X148261014Y-113809003D01*
X148372667Y-113820000D01*
X148372676Y-113820000D01*
X148409999Y-113823676D01*
X148447322Y-113820000D01*
X152204289Y-113820000D01*
X152248226Y-113863937D01*
X152417744Y-113977205D01*
X152606102Y-114055226D01*
X152806061Y-114095000D01*
X153009939Y-114095000D01*
X153209898Y-114055226D01*
X153398256Y-113977205D01*
X153567774Y-113863937D01*
X153711937Y-113719774D01*
X153825205Y-113550256D01*
X153903226Y-113361898D01*
X153943000Y-113161939D01*
X153943000Y-112958061D01*
X153903226Y-112758102D01*
X153825205Y-112569744D01*
X153711937Y-112400226D01*
X153567774Y-112256063D01*
X153398256Y-112142795D01*
X153209898Y-112064774D01*
X153009939Y-112025000D01*
X152806061Y-112025000D01*
X152606102Y-112064774D01*
X152417744Y-112142795D01*
X152248226Y-112256063D01*
X152204289Y-112300000D01*
X148724802Y-112300000D01*
X146813804Y-110389003D01*
X146790001Y-110359999D01*
X146674276Y-110265026D01*
X146542247Y-110194454D01*
X146398986Y-110150997D01*
X146287333Y-110140000D01*
X146287322Y-110140000D01*
X146250000Y-110136324D01*
X146212678Y-110140000D01*
X139583711Y-110140000D01*
X139539774Y-110096063D01*
X139370256Y-109982795D01*
X139181898Y-109904774D01*
X138981939Y-109865000D01*
X138778061Y-109865000D01*
X138578102Y-109904774D01*
X138389744Y-109982795D01*
X138220226Y-110096063D01*
X138076063Y-110240226D01*
X137962795Y-110409744D01*
X137884774Y-110598102D01*
X137845000Y-110798061D01*
X133208863Y-110798061D01*
X132643804Y-110233002D01*
X132620001Y-110203999D01*
X132504276Y-110109026D01*
X132372247Y-110038454D01*
X132228986Y-109994997D01*
X132117333Y-109984000D01*
X132117322Y-109984000D01*
X132080000Y-109980324D01*
X132042678Y-109984000D01*
X131767711Y-109984000D01*
X131723774Y-109940063D01*
X131554256Y-109826795D01*
X131365898Y-109748774D01*
X131165939Y-109709000D01*
X130962061Y-109709000D01*
X130762102Y-109748774D01*
X130573744Y-109826795D01*
X130404226Y-109940063D01*
X130260063Y-110084226D01*
X130146795Y-110253744D01*
X130068774Y-110442102D01*
X130029000Y-110642061D01*
X130029000Y-110845939D01*
X130068774Y-111045898D01*
X130146795Y-111234256D01*
X130260063Y-111403774D01*
X130404226Y-111547937D01*
X130573744Y-111661205D01*
X130762102Y-111739226D01*
X130962061Y-111779000D01*
X131165939Y-111779000D01*
X131365898Y-111739226D01*
X131554256Y-111661205D01*
X131723774Y-111547937D01*
X131766455Y-111505256D01*
X132336000Y-112074802D01*
X132336001Y-113246668D01*
X132332324Y-113284000D01*
X132336001Y-113321333D01*
X132339623Y-113358102D01*
X132346998Y-113432985D01*
X132390454Y-113576246D01*
X132461026Y-113708276D01*
X132520722Y-113781015D01*
X132556000Y-113824001D01*
X132584998Y-113847799D01*
X133548201Y-114811003D01*
X133571999Y-114840001D01*
X133600997Y-114863799D01*
X133687723Y-114934974D01*
X133768735Y-114978276D01*
X133819753Y-115005546D01*
X133963014Y-115049003D01*
X134074667Y-115060000D01*
X134074677Y-115060000D01*
X134112000Y-115063676D01*
X134149322Y-115060000D01*
X137726289Y-115060000D01*
X137770226Y-115103937D01*
X137939744Y-115217205D01*
X138128102Y-115295226D01*
X138328061Y-115335000D01*
X138531939Y-115335000D01*
X138731898Y-115295226D01*
X138920256Y-115217205D01*
X139060157Y-115123727D01*
X139167038Y-115253962D01*
X139246287Y-115319000D01*
X139167038Y-115384038D01*
X139056595Y-115518613D01*
X138974528Y-115672149D01*
X138923992Y-115838745D01*
X138906928Y-116011999D01*
X138906928Y-116912001D01*
X138923992Y-117085255D01*
X138963349Y-117215000D01*
X138828061Y-117215000D01*
X138628102Y-117254774D01*
X138439744Y-117332795D01*
X138270226Y-117446063D01*
X138126063Y-117590226D01*
X138012795Y-117759744D01*
X137934774Y-117948102D01*
X137895000Y-118148061D01*
X137895000Y-118351939D01*
X137934774Y-118551898D01*
X138012795Y-118740256D01*
X138126063Y-118909774D01*
X138270226Y-119053937D01*
X138439744Y-119167205D01*
X138628102Y-119245226D01*
X138828061Y-119285000D01*
X138915497Y-119285000D01*
X138923992Y-119371255D01*
X138967699Y-119515339D01*
X138890102Y-119530774D01*
X138701744Y-119608795D01*
X138532226Y-119722063D01*
X138388063Y-119866226D01*
X138274795Y-120035744D01*
X138196774Y-120224102D01*
X138157000Y-120424061D01*
X138157000Y-120627939D01*
X138196774Y-120827898D01*
X138274795Y-121016256D01*
X138388063Y-121185774D01*
X138532226Y-121329937D01*
X138701744Y-121443205D01*
X138890102Y-121521226D01*
X138911004Y-121525384D01*
X138923992Y-121657255D01*
X138974528Y-121823851D01*
X139056595Y-121977387D01*
X139167038Y-122111962D01*
X139262379Y-122190207D01*
X139187038Y-122252038D01*
X139076595Y-122386613D01*
X138994528Y-122540149D01*
X138985473Y-122570000D01*
X138824802Y-122570000D01*
X138515000Y-122260199D01*
X138515000Y-122198061D01*
X138475226Y-121998102D01*
X138397205Y-121809744D01*
X138283937Y-121640226D01*
X138139774Y-121496063D01*
X137970256Y-121382795D01*
X137781898Y-121304774D01*
X137581939Y-121265000D01*
X137378061Y-121265000D01*
X137178102Y-121304774D01*
X136989744Y-121382795D01*
X136820226Y-121496063D01*
X136676063Y-121640226D01*
X136562795Y-121809744D01*
X136484774Y-121998102D01*
X136445000Y-122198061D01*
X136445000Y-122401939D01*
X136484774Y-122601898D01*
X136562795Y-122790256D01*
X136676063Y-122959774D01*
X136820226Y-123103937D01*
X136989744Y-123217205D01*
X137178102Y-123295226D01*
X137378061Y-123335000D01*
X137440199Y-123335000D01*
X137946201Y-123841003D01*
X137969999Y-123870001D01*
X137998997Y-123893799D01*
X138085723Y-123964974D01*
X138197054Y-124024482D01*
X138217753Y-124035546D01*
X138361014Y-124079003D01*
X138472667Y-124090000D01*
X138472677Y-124090000D01*
X138510000Y-124093676D01*
X138547323Y-124090000D01*
X138985473Y-124090000D01*
X138994528Y-124119851D01*
X139076595Y-124273387D01*
X139187038Y-124407962D01*
X139321613Y-124518405D01*
X139475149Y-124600472D01*
X139641745Y-124651008D01*
X139814999Y-124668072D01*
X140340001Y-124668072D01*
X140513255Y-124651008D01*
X140679851Y-124600472D01*
X140833387Y-124518405D01*
X140914637Y-124451724D01*
X140938815Y-124481185D01*
X141035506Y-124560537D01*
X141145820Y-124619502D01*
X141265518Y-124655812D01*
X141390000Y-124668072D01*
X141616750Y-124665000D01*
X141775500Y-124506250D01*
X141775500Y-123457000D01*
X142029500Y-123457000D01*
X142029500Y-124506250D01*
X142188250Y-124665000D01*
X142415000Y-124668072D01*
X142539482Y-124655812D01*
X142659180Y-124619502D01*
X142769494Y-124560537D01*
X142866185Y-124481185D01*
X142945537Y-124384494D01*
X143004502Y-124274180D01*
X143040812Y-124154482D01*
X143053072Y-124030000D01*
X143050000Y-123615750D01*
X142891250Y-123457000D01*
X142029500Y-123457000D01*
X141775500Y-123457000D01*
X141755500Y-123457000D01*
X141755500Y-123203000D01*
X141775500Y-123203000D01*
X141775500Y-123183000D01*
X142029500Y-123183000D01*
X142029500Y-123203000D01*
X142891250Y-123203000D01*
X143050000Y-123044250D01*
X143053072Y-122630000D01*
X143040812Y-122505518D01*
X143004502Y-122385820D01*
X142945537Y-122275506D01*
X142866185Y-122178815D01*
X142777696Y-122106194D01*
X142883405Y-121977387D01*
X142965472Y-121823851D01*
X143016008Y-121657255D01*
X143033072Y-121484001D01*
X143033072Y-120583999D01*
X143016008Y-120410745D01*
X143010928Y-120394000D01*
X144973199Y-120394000D01*
X147960200Y-123381002D01*
X147983999Y-123410001D01*
X148012997Y-123433799D01*
X148099723Y-123504974D01*
X148231753Y-123575546D01*
X148375014Y-123619003D01*
X148399156Y-123621381D01*
X148503038Y-123747962D01*
X148637614Y-123858405D01*
X148791150Y-123940472D01*
X148957746Y-123991008D01*
X149131000Y-124008072D01*
X150081000Y-124008072D01*
X150254254Y-123991008D01*
X150420850Y-123940472D01*
X150574386Y-123858405D01*
X150607210Y-123831467D01*
X150639744Y-123853205D01*
X150828102Y-123931226D01*
X151028061Y-123971000D01*
X151137123Y-123971000D01*
X151201753Y-124005546D01*
X151241928Y-124017733D01*
X151241928Y-125190000D01*
X151254188Y-125314482D01*
X151290498Y-125434180D01*
X151349463Y-125544494D01*
X151428815Y-125641185D01*
X151525506Y-125720537D01*
X151635820Y-125779502D01*
X151755518Y-125815812D01*
X151880000Y-125828072D01*
X153880000Y-125828072D01*
X154004482Y-125815812D01*
X154124180Y-125779502D01*
X154234494Y-125720537D01*
X154331185Y-125641185D01*
X154410537Y-125544494D01*
X154469502Y-125434180D01*
X154505812Y-125314482D01*
X154518072Y-125190000D01*
X154518072Y-124050000D01*
X157542913Y-124050000D01*
X157554188Y-124164482D01*
X157590498Y-124284180D01*
X157649463Y-124394494D01*
X157686809Y-124440000D01*
X157649463Y-124485506D01*
X157590498Y-124595820D01*
X157554188Y-124715518D01*
X157541928Y-124840000D01*
X157545000Y-125304250D01*
X157703750Y-125463000D01*
X159053000Y-125463000D01*
X159053000Y-125443000D01*
X159307000Y-125443000D01*
X159307000Y-125463000D01*
X160656250Y-125463000D01*
X160815000Y-125304250D01*
X160818072Y-124840000D01*
X160805812Y-124715518D01*
X160769502Y-124595820D01*
X160710537Y-124485506D01*
X160673191Y-124440000D01*
X160710537Y-124394494D01*
X160769502Y-124284180D01*
X160805812Y-124164482D01*
X160818072Y-124040000D01*
X160818072Y-122540000D01*
X160805812Y-122415518D01*
X160769502Y-122295820D01*
X160710537Y-122185506D01*
X160673191Y-122140000D01*
X160710537Y-122094494D01*
X160769502Y-121984180D01*
X160805812Y-121864482D01*
X160817087Y-121750000D01*
X164350199Y-121750000D01*
X164999216Y-122399017D01*
X164875723Y-122465026D01*
X164818822Y-122511724D01*
X164759999Y-122559999D01*
X164736201Y-122588997D01*
X162349003Y-124976196D01*
X162319999Y-124999999D01*
X162282479Y-125045718D01*
X162225026Y-125115724D01*
X162180613Y-125198815D01*
X162154454Y-125247754D01*
X162110997Y-125391015D01*
X162100000Y-125502668D01*
X162100000Y-125502678D01*
X162096324Y-125540000D01*
X162100000Y-125577323D01*
X162100001Y-126455198D01*
X161655199Y-126900000D01*
X160479373Y-126900000D01*
X160534494Y-126870537D01*
X160631185Y-126791185D01*
X160710537Y-126694494D01*
X160769502Y-126584180D01*
X160805812Y-126464482D01*
X160818072Y-126340000D01*
X160815000Y-125875750D01*
X160656250Y-125717000D01*
X159307000Y-125717000D01*
X159307000Y-125737000D01*
X159053000Y-125737000D01*
X159053000Y-125717000D01*
X157703750Y-125717000D01*
X157545000Y-125875750D01*
X157541928Y-126340000D01*
X157554188Y-126464482D01*
X157590498Y-126584180D01*
X157649463Y-126694494D01*
X157728815Y-126791185D01*
X157825506Y-126870537D01*
X157880627Y-126900000D01*
X121234802Y-126900000D01*
X120798072Y-126463271D01*
X120798072Y-126150000D01*
X120795664Y-126125550D01*
X120795664Y-126100991D01*
X120783404Y-125976510D01*
X120764282Y-125880377D01*
X120727973Y-125760681D01*
X120690464Y-125670125D01*
X120631498Y-125559808D01*
X120577042Y-125478309D01*
X120497690Y-125381618D01*
X120428382Y-125312310D01*
X120420000Y-125305431D01*
X120420000Y-123624569D01*
X120428382Y-123617690D01*
X120497690Y-123548382D01*
X120577042Y-123451691D01*
X120631498Y-123370192D01*
X120690464Y-123259875D01*
X120727973Y-123169319D01*
X120764282Y-123049623D01*
X120783404Y-122953490D01*
X120795664Y-122829009D01*
X120795664Y-122804450D01*
X120798072Y-122780000D01*
X120798072Y-122280000D01*
X120795664Y-122255550D01*
X120795664Y-122230991D01*
X120783404Y-122106510D01*
X120764282Y-122010377D01*
X120727973Y-121890681D01*
X120690464Y-121800125D01*
X120631498Y-121689808D01*
X120577042Y-121608309D01*
X120497690Y-121511618D01*
X120428382Y-121442310D01*
X120331691Y-121362958D01*
X120250192Y-121308502D01*
X120139875Y-121249536D01*
X120049319Y-121212027D01*
X119929623Y-121175718D01*
X119833490Y-121156596D01*
X119709009Y-121144336D01*
X119684450Y-121144336D01*
X119660000Y-121141928D01*
X119140000Y-121141928D01*
X119140000Y-115241711D01*
X119167937Y-115213774D01*
X119281205Y-115044256D01*
X119359226Y-114855898D01*
X119399000Y-114655939D01*
X119399000Y-114452061D01*
X119359226Y-114252102D01*
X119281205Y-114063744D01*
X119167937Y-113894226D01*
X119023774Y-113750063D01*
X118854256Y-113636795D01*
X118665898Y-113558774D01*
X118465939Y-113519000D01*
X118262061Y-113519000D01*
X118062102Y-113558774D01*
X117873744Y-113636795D01*
X117704226Y-113750063D01*
X117560063Y-113894226D01*
X117446795Y-114063744D01*
X117368774Y-114252102D01*
X117329000Y-114452061D01*
X117329000Y-114655939D01*
X117368774Y-114855898D01*
X117446795Y-115044256D01*
X117560063Y-115213774D01*
X117620000Y-115273711D01*
X117620001Y-121142913D01*
X117610000Y-121141928D01*
X117060000Y-121141928D01*
X117035550Y-121144336D01*
X117010991Y-121144336D01*
X116886510Y-121156596D01*
X116790377Y-121175718D01*
X116670681Y-121212027D01*
X116580125Y-121249536D01*
X116469808Y-121308502D01*
X116388309Y-121362958D01*
X116291618Y-121442310D01*
X116222310Y-121511618D01*
X116142958Y-121608309D01*
X116088502Y-121689808D01*
X116085727Y-121695000D01*
X103838701Y-121695000D01*
X103818314Y-121592510D01*
X103713005Y-121338273D01*
X103560120Y-121109465D01*
X103365535Y-120914880D01*
X103136727Y-120761995D01*
X102882490Y-120656686D01*
X102612592Y-120603000D01*
X102337408Y-120603000D01*
X102067510Y-120656686D01*
X101813273Y-120761995D01*
X101584465Y-120914880D01*
X101389880Y-121109465D01*
X101236995Y-121338273D01*
X101131686Y-121592510D01*
X101078000Y-121862408D01*
X101078000Y-122137592D01*
X101131686Y-122407490D01*
X101236995Y-122661727D01*
X101389880Y-122890535D01*
X101584465Y-123085120D01*
X101813273Y-123238005D01*
X102067510Y-123343314D01*
X102337408Y-123397000D01*
X102612592Y-123397000D01*
X102838498Y-123352065D01*
X102841311Y-123352918D01*
X103004999Y-123369040D01*
X103046018Y-123365000D01*
X116085727Y-123365000D01*
X116088502Y-123370192D01*
X116142958Y-123451691D01*
X116222310Y-123548382D01*
X116225001Y-123551073D01*
X116225000Y-125378928D01*
X116222310Y-125381618D01*
X116142958Y-125478309D01*
X116088502Y-125559808D01*
X116029536Y-125670125D01*
X115992027Y-125760681D01*
X115955718Y-125880377D01*
X115936596Y-125976510D01*
X115924336Y-126100991D01*
X115924336Y-126125550D01*
X115921928Y-126150000D01*
X115921928Y-126650000D01*
X115924336Y-126674450D01*
X115924336Y-126699009D01*
X115936596Y-126823490D01*
X115955718Y-126919623D01*
X115992027Y-127039319D01*
X116029536Y-127129875D01*
X116088502Y-127240192D01*
X116142958Y-127321691D01*
X116222310Y-127418382D01*
X116291618Y-127487690D01*
X116388309Y-127567042D01*
X116469808Y-127621498D01*
X116580125Y-127680464D01*
X116670681Y-127717973D01*
X116790377Y-127754282D01*
X116886510Y-127773404D01*
X117010991Y-127785664D01*
X117035550Y-127785664D01*
X117060000Y-127788072D01*
X117610000Y-127788072D01*
X117734482Y-127775812D01*
X117735000Y-127775655D01*
X117735518Y-127775812D01*
X117860000Y-127788072D01*
X118860000Y-127788072D01*
X118984482Y-127775812D01*
X118985000Y-127775655D01*
X118985518Y-127775812D01*
X119110000Y-127788072D01*
X119660000Y-127788072D01*
X119684450Y-127785664D01*
X119709009Y-127785664D01*
X119833490Y-127773404D01*
X119929623Y-127754282D01*
X119937186Y-127751988D01*
X120356201Y-128171003D01*
X120379999Y-128200001D01*
X120408997Y-128223799D01*
X120495723Y-128294974D01*
X120516270Y-128305957D01*
X100685000Y-128314698D01*
X100685000Y-117965565D01*
X101689040Y-117965565D01*
X101756020Y-118205656D01*
X102005048Y-118322756D01*
X102272135Y-118389023D01*
X102547017Y-118401910D01*
X102819133Y-118360922D01*
X103078023Y-118267636D01*
X103193980Y-118205656D01*
X103260960Y-117965565D01*
X102475000Y-117179605D01*
X101689040Y-117965565D01*
X100685000Y-117965565D01*
X100685000Y-117072017D01*
X101073090Y-117072017D01*
X101114078Y-117344133D01*
X101207364Y-117603023D01*
X101269344Y-117718980D01*
X101509435Y-117785960D01*
X102295395Y-117000000D01*
X102654605Y-117000000D01*
X103440565Y-117785960D01*
X103680656Y-117718980D01*
X103797756Y-117469952D01*
X103864023Y-117202865D01*
X103876910Y-116927983D01*
X103835922Y-116655867D01*
X103742636Y-116396977D01*
X103680656Y-116281020D01*
X103440565Y-116214040D01*
X102654605Y-117000000D01*
X102295395Y-117000000D01*
X101509435Y-116214040D01*
X101269344Y-116281020D01*
X101152244Y-116530048D01*
X101085977Y-116797135D01*
X101073090Y-117072017D01*
X100685000Y-117072017D01*
X100685000Y-116034435D01*
X101689040Y-116034435D01*
X102475000Y-116820395D01*
X103260960Y-116034435D01*
X103193980Y-115794344D01*
X102944952Y-115677244D01*
X102677865Y-115610977D01*
X102402983Y-115598090D01*
X102130867Y-115639078D01*
X101871977Y-115732364D01*
X101756020Y-115794344D01*
X101689040Y-116034435D01*
X100685000Y-116034435D01*
X100685000Y-112965565D01*
X101689040Y-112965565D01*
X101756020Y-113205656D01*
X102005048Y-113322756D01*
X102272135Y-113389023D01*
X102547017Y-113401910D01*
X102819133Y-113360922D01*
X103078023Y-113267636D01*
X103193980Y-113205656D01*
X103260960Y-112965565D01*
X102475000Y-112179605D01*
X101689040Y-112965565D01*
X100685000Y-112965565D01*
X100685000Y-112072017D01*
X101073090Y-112072017D01*
X101114078Y-112344133D01*
X101207364Y-112603023D01*
X101269344Y-112718980D01*
X101509435Y-112785960D01*
X102295395Y-112000000D01*
X102654605Y-112000000D01*
X103440565Y-112785960D01*
X103680656Y-112718980D01*
X103797756Y-112469952D01*
X103864023Y-112202865D01*
X103876910Y-111927983D01*
X103835922Y-111655867D01*
X103742636Y-111396977D01*
X103680656Y-111281020D01*
X103440565Y-111214040D01*
X102654605Y-112000000D01*
X102295395Y-112000000D01*
X101509435Y-111214040D01*
X101269344Y-111281020D01*
X101152244Y-111530048D01*
X101085977Y-111797135D01*
X101073090Y-112072017D01*
X100685000Y-112072017D01*
X100685000Y-106782408D01*
X101078000Y-106782408D01*
X101078000Y-107057592D01*
X101131686Y-107327490D01*
X101236995Y-107581727D01*
X101389880Y-107810535D01*
X101584465Y-108005120D01*
X101813273Y-108158005D01*
X101890515Y-108190000D01*
X101813273Y-108221995D01*
X101584465Y-108374880D01*
X101389880Y-108569465D01*
X101236995Y-108798273D01*
X101131686Y-109052510D01*
X101078000Y-109322408D01*
X101078000Y-109597592D01*
X101131686Y-109867490D01*
X101236995Y-110121727D01*
X101389880Y-110350535D01*
X101584465Y-110545120D01*
X101813273Y-110698005D01*
X101884943Y-110727692D01*
X101871977Y-110732364D01*
X101756020Y-110794344D01*
X101689040Y-111034435D01*
X102475000Y-111820395D01*
X103260960Y-111034435D01*
X103193980Y-110794344D01*
X103058240Y-110730515D01*
X103136727Y-110698005D01*
X103365535Y-110545120D01*
X103560120Y-110350535D01*
X103713005Y-110121727D01*
X103818314Y-109867490D01*
X103872000Y-109597592D01*
X103872000Y-109322408D01*
X103818314Y-109052510D01*
X103713005Y-108798273D01*
X103560120Y-108569465D01*
X103365535Y-108374880D01*
X103136727Y-108221995D01*
X103059485Y-108190000D01*
X103136727Y-108158005D01*
X103365535Y-108005120D01*
X103560120Y-107810535D01*
X103713005Y-107581727D01*
X103818314Y-107327490D01*
X103872000Y-107057592D01*
X103872000Y-106782408D01*
X103818314Y-106512510D01*
X103713005Y-106258273D01*
X103560120Y-106029465D01*
X103448655Y-105918000D01*
X104570960Y-105918000D01*
X104575001Y-105959029D01*
X104575000Y-118830981D01*
X104570960Y-118872000D01*
X104575000Y-118913018D01*
X104587082Y-119035688D01*
X104634828Y-119193086D01*
X104712364Y-119338145D01*
X104816709Y-119465291D01*
X104848579Y-119491446D01*
X105806558Y-120449426D01*
X105832709Y-120481291D01*
X105935591Y-120565724D01*
X105959854Y-120585636D01*
X106104913Y-120663172D01*
X106262311Y-120710918D01*
X106426000Y-120727040D01*
X106467018Y-120723000D01*
X107483935Y-120723000D01*
X107558525Y-120834632D01*
X107765368Y-121041475D01*
X108008589Y-121203990D01*
X108278842Y-121315932D01*
X108565740Y-121373000D01*
X108858260Y-121373000D01*
X109145158Y-121315932D01*
X109415411Y-121203990D01*
X109658632Y-121041475D01*
X109865475Y-120834632D01*
X109982000Y-120660240D01*
X110098525Y-120834632D01*
X110305368Y-121041475D01*
X110548589Y-121203990D01*
X110818842Y-121315932D01*
X111105740Y-121373000D01*
X111398260Y-121373000D01*
X111685158Y-121315932D01*
X111955411Y-121203990D01*
X112198632Y-121041475D01*
X112405475Y-120834632D01*
X112567990Y-120591411D01*
X112679932Y-120321158D01*
X112737000Y-120034260D01*
X112737000Y-119741740D01*
X112679932Y-119454842D01*
X112567990Y-119184589D01*
X112405475Y-118941368D01*
X112198632Y-118734525D01*
X112016466Y-118612805D01*
X112133355Y-118543178D01*
X112349588Y-118348269D01*
X112523641Y-118114920D01*
X112648825Y-117852099D01*
X112693476Y-117704890D01*
X112572155Y-117475000D01*
X111379000Y-117475000D01*
X111379000Y-117495000D01*
X111125000Y-117495000D01*
X111125000Y-117475000D01*
X108839000Y-117475000D01*
X108839000Y-117495000D01*
X108585000Y-117495000D01*
X108585000Y-117475000D01*
X107391845Y-117475000D01*
X107270524Y-117704890D01*
X107315175Y-117852099D01*
X107440359Y-118114920D01*
X107614412Y-118348269D01*
X107830645Y-118543178D01*
X107947534Y-118612805D01*
X107765368Y-118734525D01*
X107558525Y-118941368D01*
X107483935Y-119053000D01*
X106771868Y-119053000D01*
X106245000Y-118526133D01*
X106245000Y-113958000D01*
X107223928Y-113958000D01*
X107223928Y-115658000D01*
X107236188Y-115782482D01*
X107272498Y-115902180D01*
X107331463Y-116012494D01*
X107410815Y-116109185D01*
X107507506Y-116188537D01*
X107617820Y-116247502D01*
X107698466Y-116271966D01*
X107614412Y-116347731D01*
X107440359Y-116581080D01*
X107315175Y-116843901D01*
X107270524Y-116991110D01*
X107391845Y-117221000D01*
X108585000Y-117221000D01*
X108585000Y-117201000D01*
X108839000Y-117201000D01*
X108839000Y-117221000D01*
X111125000Y-117221000D01*
X111125000Y-117201000D01*
X111379000Y-117201000D01*
X111379000Y-117221000D01*
X112572155Y-117221000D01*
X112693476Y-116991110D01*
X112648825Y-116843901D01*
X112523641Y-116581080D01*
X112349588Y-116347731D01*
X112133355Y-116152822D01*
X112016466Y-116083195D01*
X112198632Y-115961475D01*
X112405475Y-115754632D01*
X112567990Y-115511411D01*
X112679932Y-115241158D01*
X112737000Y-114954260D01*
X112737000Y-114661740D01*
X112679932Y-114374842D01*
X112567990Y-114104589D01*
X112405475Y-113861368D01*
X112198632Y-113654525D01*
X111955411Y-113492010D01*
X111685158Y-113380068D01*
X111398260Y-113323000D01*
X111105740Y-113323000D01*
X110818842Y-113380068D01*
X110548589Y-113492010D01*
X110305368Y-113654525D01*
X110173513Y-113786380D01*
X110151502Y-113713820D01*
X110092537Y-113603506D01*
X110013185Y-113506815D01*
X109916494Y-113427463D01*
X109806180Y-113368498D01*
X109686482Y-113332188D01*
X109562000Y-113319928D01*
X109472000Y-113319928D01*
X109472000Y-112074801D01*
X109788802Y-111758000D01*
X121213982Y-111758000D01*
X121288815Y-111849185D01*
X121385506Y-111928537D01*
X121495820Y-111987502D01*
X121615518Y-112023812D01*
X121740000Y-112036072D01*
X122640000Y-112036072D01*
X122764482Y-112023812D01*
X122884180Y-111987502D01*
X122994494Y-111928537D01*
X123091185Y-111849185D01*
X123101928Y-111836095D01*
X123101928Y-112348000D01*
X123114188Y-112472482D01*
X123150498Y-112592180D01*
X123209463Y-112702494D01*
X123288815Y-112799185D01*
X123385506Y-112878537D01*
X123495820Y-112937502D01*
X123615518Y-112973812D01*
X123740000Y-112986072D01*
X124640000Y-112986072D01*
X124764482Y-112973812D01*
X124884180Y-112937502D01*
X124994494Y-112878537D01*
X125091185Y-112799185D01*
X125166018Y-112708000D01*
X125591746Y-112708000D01*
X125668038Y-112800962D01*
X125802613Y-112911405D01*
X125956149Y-112993472D01*
X126122745Y-113044008D01*
X126295999Y-113061072D01*
X127196001Y-113061072D01*
X127369255Y-113044008D01*
X127535851Y-112993472D01*
X127689387Y-112911405D01*
X127823962Y-112800962D01*
X127934405Y-112666387D01*
X128016472Y-112512851D01*
X128067008Y-112346255D01*
X128084072Y-112173001D01*
X128084072Y-111647999D01*
X128067008Y-111474745D01*
X128016472Y-111308149D01*
X127934405Y-111154613D01*
X127823962Y-111020038D01*
X127797109Y-110998000D01*
X127823962Y-110975962D01*
X127895271Y-110889072D01*
X128272000Y-111265802D01*
X128272001Y-122374657D01*
X128272000Y-122374667D01*
X128272000Y-123105332D01*
X128272001Y-123105342D01*
X128272000Y-125104677D01*
X128268324Y-125142000D01*
X128272000Y-125179322D01*
X128272000Y-125179332D01*
X128282997Y-125290985D01*
X128326434Y-125434180D01*
X128326454Y-125434246D01*
X128397026Y-125566276D01*
X128412986Y-125585723D01*
X128491999Y-125682001D01*
X128521002Y-125705803D01*
X129336201Y-126521003D01*
X129359999Y-126550001D01*
X129475724Y-126644974D01*
X129607753Y-126715546D01*
X129751014Y-126759003D01*
X129862667Y-126770000D01*
X129862676Y-126770000D01*
X129899999Y-126773676D01*
X129937322Y-126770000D01*
X143982678Y-126770000D01*
X144020000Y-126773676D01*
X144057322Y-126770000D01*
X144057333Y-126770000D01*
X144168986Y-126759003D01*
X144312247Y-126715546D01*
X144444276Y-126644974D01*
X144560001Y-126550001D01*
X144583804Y-126520997D01*
X145036997Y-126067804D01*
X145066001Y-126044001D01*
X145155456Y-125935000D01*
X145160974Y-125928277D01*
X145231546Y-125796247D01*
X145237392Y-125776974D01*
X145275003Y-125652986D01*
X145286000Y-125541333D01*
X145286000Y-125541324D01*
X145289676Y-125504001D01*
X145286000Y-125466678D01*
X145286000Y-122877711D01*
X145329937Y-122833774D01*
X145443205Y-122664256D01*
X145521226Y-122475898D01*
X145561000Y-122275939D01*
X145561000Y-122072061D01*
X145521226Y-121872102D01*
X145443205Y-121683744D01*
X145329937Y-121514226D01*
X145185774Y-121370063D01*
X145016256Y-121256795D01*
X144827898Y-121178774D01*
X144627939Y-121139000D01*
X144424061Y-121139000D01*
X144224102Y-121178774D01*
X144035744Y-121256795D01*
X143866226Y-121370063D01*
X143722063Y-121514226D01*
X143608795Y-121683744D01*
X143530774Y-121872102D01*
X143491000Y-122072061D01*
X143491000Y-122275939D01*
X143530774Y-122475898D01*
X143608795Y-122664256D01*
X143722063Y-122833774D01*
X143766000Y-122877711D01*
X143766001Y-125189198D01*
X143705199Y-125250000D01*
X130214802Y-125250000D01*
X129792000Y-124827199D01*
X129792000Y-110988323D01*
X129795676Y-110951000D01*
X129792000Y-110913677D01*
X129792000Y-110913667D01*
X129781003Y-110802014D01*
X129737546Y-110658753D01*
X129666974Y-110526724D01*
X129572001Y-110410999D01*
X129543004Y-110387202D01*
X128730303Y-109574502D01*
X128706501Y-109545499D01*
X128590776Y-109450526D01*
X128458747Y-109379954D01*
X128315486Y-109336497D01*
X128203833Y-109325500D01*
X128203822Y-109325500D01*
X128166500Y-109321824D01*
X128129178Y-109325500D01*
X127931030Y-109325500D01*
X127823962Y-109195038D01*
X127689387Y-109084595D01*
X127535851Y-109002528D01*
X127369255Y-108951992D01*
X127196001Y-108934928D01*
X126295999Y-108934928D01*
X126122745Y-108951992D01*
X125956149Y-109002528D01*
X125802613Y-109084595D01*
X125668038Y-109195038D01*
X125557595Y-109329613D01*
X125475528Y-109483149D01*
X125424992Y-109649745D01*
X125407928Y-109822999D01*
X125407928Y-110348001D01*
X125424992Y-110521255D01*
X125475528Y-110687851D01*
X125557595Y-110841387D01*
X125668038Y-110975962D01*
X125694891Y-110998000D01*
X125668038Y-111020038D01*
X125557595Y-111154613D01*
X125539749Y-111188000D01*
X125166018Y-111188000D01*
X125091185Y-111096815D01*
X124994494Y-111017463D01*
X124958082Y-110998000D01*
X124994494Y-110978537D01*
X125091185Y-110899185D01*
X125170537Y-110802494D01*
X125229502Y-110692180D01*
X125265812Y-110572482D01*
X125278072Y-110448000D01*
X125275000Y-110333750D01*
X125116250Y-110175000D01*
X124317000Y-110175000D01*
X124317000Y-110195000D01*
X124063000Y-110195000D01*
X124063000Y-110175000D01*
X123263750Y-110175000D01*
X123179143Y-110259607D01*
X123170537Y-110243506D01*
X123091185Y-110146815D01*
X122994494Y-110067463D01*
X122884180Y-110008498D01*
X122764482Y-109972188D01*
X122640000Y-109959928D01*
X121740000Y-109959928D01*
X121615518Y-109972188D01*
X121495820Y-110008498D01*
X121385506Y-110067463D01*
X121288815Y-110146815D01*
X121213982Y-110238000D01*
X109511325Y-110238000D01*
X109474000Y-110234324D01*
X109436675Y-110238000D01*
X109436667Y-110238000D01*
X109325014Y-110248997D01*
X109181753Y-110292454D01*
X109049724Y-110363026D01*
X108933999Y-110457999D01*
X108910201Y-110486998D01*
X108201002Y-111196197D01*
X108171999Y-111219999D01*
X108131784Y-111269002D01*
X108077026Y-111335724D01*
X108015402Y-111451013D01*
X108006454Y-111467754D01*
X107962997Y-111611015D01*
X107952000Y-111722668D01*
X107952000Y-111722678D01*
X107948324Y-111760000D01*
X107952000Y-111797323D01*
X107952001Y-113295026D01*
X107952001Y-113319928D01*
X107862000Y-113319928D01*
X107737518Y-113332188D01*
X107617820Y-113368498D01*
X107507506Y-113427463D01*
X107410815Y-113506815D01*
X107331463Y-113603506D01*
X107272498Y-113713820D01*
X107236188Y-113833518D01*
X107223928Y-113958000D01*
X106245000Y-113958000D01*
X106245000Y-109648000D01*
X123101928Y-109648000D01*
X123105000Y-109762250D01*
X123263750Y-109921000D01*
X124063000Y-109921000D01*
X124063000Y-109171750D01*
X124317000Y-109171750D01*
X124317000Y-109921000D01*
X125116250Y-109921000D01*
X125275000Y-109762250D01*
X125278072Y-109648000D01*
X125265812Y-109523518D01*
X125229502Y-109403820D01*
X125170537Y-109293506D01*
X125091185Y-109196815D01*
X124994494Y-109117463D01*
X124884180Y-109058498D01*
X124764482Y-109022188D01*
X124640000Y-109009928D01*
X124475750Y-109013000D01*
X124317000Y-109171750D01*
X124063000Y-109171750D01*
X123904250Y-109013000D01*
X123740000Y-109009928D01*
X123615518Y-109022188D01*
X123495820Y-109058498D01*
X123385506Y-109117463D01*
X123288815Y-109196815D01*
X123209463Y-109293506D01*
X123150498Y-109403820D01*
X123114188Y-109523518D01*
X123101928Y-109648000D01*
X106245000Y-109648000D01*
X106245000Y-106263867D01*
X107846796Y-104662072D01*
X108561205Y-104662072D01*
X110886559Y-106987427D01*
X110912709Y-107019291D01*
X111036867Y-107121185D01*
X111039854Y-107123636D01*
X111184913Y-107201172D01*
X111342311Y-107248918D01*
X111505999Y-107265040D01*
X111547018Y-107261000D01*
X114417532Y-107261000D01*
X114430815Y-107277185D01*
X114527506Y-107356537D01*
X114637820Y-107415502D01*
X114757518Y-107451812D01*
X114882000Y-107464072D01*
X115782000Y-107464072D01*
X115906482Y-107451812D01*
X116026180Y-107415502D01*
X116136494Y-107356537D01*
X116233185Y-107277185D01*
X116243928Y-107264095D01*
X116243928Y-107776000D01*
X116256188Y-107900482D01*
X116292498Y-108020180D01*
X116351463Y-108130494D01*
X116430815Y-108227185D01*
X116527506Y-108306537D01*
X116637820Y-108365502D01*
X116757518Y-108401812D01*
X116882000Y-108414072D01*
X117782000Y-108414072D01*
X117906482Y-108401812D01*
X118026180Y-108365502D01*
X118136494Y-108306537D01*
X118233185Y-108227185D01*
X118312537Y-108130494D01*
X118371502Y-108020180D01*
X118379140Y-107995000D01*
X118448970Y-107995000D01*
X118556038Y-108125462D01*
X118690613Y-108235905D01*
X118844149Y-108317972D01*
X119010745Y-108368508D01*
X119183999Y-108385572D01*
X120084001Y-108385572D01*
X120257255Y-108368508D01*
X120423851Y-108317972D01*
X120577387Y-108235905D01*
X120711962Y-108125462D01*
X120819030Y-107995000D01*
X121073678Y-107995000D01*
X121111000Y-107998676D01*
X121148322Y-107995000D01*
X121148333Y-107995000D01*
X121259986Y-107984003D01*
X121403247Y-107940546D01*
X121535276Y-107869974D01*
X121651001Y-107775001D01*
X121674803Y-107745998D01*
X121956729Y-107464072D01*
X122640000Y-107464072D01*
X122764482Y-107451812D01*
X122884180Y-107415502D01*
X122994494Y-107356537D01*
X123091185Y-107277185D01*
X123101928Y-107264095D01*
X123101928Y-107776000D01*
X123114188Y-107900482D01*
X123150498Y-108020180D01*
X123209463Y-108130494D01*
X123288815Y-108227185D01*
X123385506Y-108306537D01*
X123495820Y-108365502D01*
X123615518Y-108401812D01*
X123740000Y-108414072D01*
X124640000Y-108414072D01*
X124764482Y-108401812D01*
X124884180Y-108365502D01*
X124994494Y-108306537D01*
X125091185Y-108227185D01*
X125166018Y-108136000D01*
X125591746Y-108136000D01*
X125668038Y-108228962D01*
X125802613Y-108339405D01*
X125956149Y-108421472D01*
X126122745Y-108472008D01*
X126295999Y-108489072D01*
X127196001Y-108489072D01*
X127369255Y-108472008D01*
X127535851Y-108421472D01*
X127689387Y-108339405D01*
X127823962Y-108228962D01*
X127934405Y-108094387D01*
X128016472Y-107940851D01*
X128067008Y-107774255D01*
X128084072Y-107601001D01*
X128084072Y-107075999D01*
X128067008Y-106902745D01*
X128016472Y-106736149D01*
X127934405Y-106582613D01*
X127823962Y-106448038D01*
X127797109Y-106426000D01*
X127823962Y-106403962D01*
X127934405Y-106269387D01*
X128016472Y-106115851D01*
X128067008Y-105949255D01*
X128084072Y-105776001D01*
X128084072Y-105250999D01*
X128067008Y-105077745D01*
X128016472Y-104911149D01*
X127934405Y-104757613D01*
X127823962Y-104623038D01*
X127706220Y-104526409D01*
X127741226Y-104441898D01*
X127781000Y-104241939D01*
X127781000Y-104038061D01*
X127741226Y-103838102D01*
X127663205Y-103649744D01*
X127549937Y-103480226D01*
X127405774Y-103336063D01*
X127236256Y-103222795D01*
X127047898Y-103144774D01*
X126847939Y-103105000D01*
X126644061Y-103105000D01*
X126444102Y-103144774D01*
X126255744Y-103222795D01*
X126086226Y-103336063D01*
X125942063Y-103480226D01*
X125828795Y-103649744D01*
X125750774Y-103838102D01*
X125711000Y-104038061D01*
X125711000Y-104241939D01*
X125750774Y-104441898D01*
X125785780Y-104526409D01*
X125668038Y-104623038D01*
X125557595Y-104757613D01*
X125475528Y-104911149D01*
X125424992Y-105077745D01*
X125407928Y-105250999D01*
X125407928Y-105776001D01*
X125424992Y-105949255D01*
X125475528Y-106115851D01*
X125557595Y-106269387D01*
X125668038Y-106403962D01*
X125694891Y-106426000D01*
X125668038Y-106448038D01*
X125557595Y-106582613D01*
X125539749Y-106616000D01*
X125166018Y-106616000D01*
X125091185Y-106524815D01*
X124994494Y-106445463D01*
X124958082Y-106426000D01*
X124994494Y-106406537D01*
X125091185Y-106327185D01*
X125170537Y-106230494D01*
X125229502Y-106120180D01*
X125265812Y-106000482D01*
X125278072Y-105876000D01*
X125275000Y-105761750D01*
X125116250Y-105603000D01*
X124317000Y-105603000D01*
X124317000Y-105623000D01*
X124063000Y-105623000D01*
X124063000Y-105603000D01*
X123263750Y-105603000D01*
X123179143Y-105687607D01*
X123170537Y-105671506D01*
X123091185Y-105574815D01*
X122994494Y-105495463D01*
X122884180Y-105436498D01*
X122764482Y-105400188D01*
X122640000Y-105387928D01*
X121740000Y-105387928D01*
X121615518Y-105400188D01*
X121495820Y-105436498D01*
X121385506Y-105495463D01*
X121288815Y-105574815D01*
X121209463Y-105671506D01*
X121150498Y-105781820D01*
X121114188Y-105901518D01*
X121101928Y-106026000D01*
X121101928Y-106169270D01*
X120808738Y-106462460D01*
X120711962Y-106344538D01*
X120685109Y-106322500D01*
X120711962Y-106300462D01*
X120822405Y-106165887D01*
X120904472Y-106012351D01*
X120955008Y-105845755D01*
X120972072Y-105672501D01*
X120972072Y-105147499D01*
X120965030Y-105076000D01*
X123101928Y-105076000D01*
X123105000Y-105190250D01*
X123263750Y-105349000D01*
X124063000Y-105349000D01*
X124063000Y-104599750D01*
X124317000Y-104599750D01*
X124317000Y-105349000D01*
X125116250Y-105349000D01*
X125275000Y-105190250D01*
X125278072Y-105076000D01*
X125265812Y-104951518D01*
X125229502Y-104831820D01*
X125170537Y-104721506D01*
X125091185Y-104624815D01*
X124994494Y-104545463D01*
X124884180Y-104486498D01*
X124764482Y-104450188D01*
X124640000Y-104437928D01*
X124475750Y-104441000D01*
X124317000Y-104599750D01*
X124063000Y-104599750D01*
X123904250Y-104441000D01*
X123740000Y-104437928D01*
X123615518Y-104450188D01*
X123495820Y-104486498D01*
X123385506Y-104545463D01*
X123288815Y-104624815D01*
X123209463Y-104721506D01*
X123150498Y-104831820D01*
X123114188Y-104951518D01*
X123101928Y-105076000D01*
X120965030Y-105076000D01*
X120955008Y-104974245D01*
X120904472Y-104807649D01*
X120822405Y-104654113D01*
X120711962Y-104519538D01*
X120626215Y-104449167D01*
X120629226Y-104441898D01*
X120669000Y-104241939D01*
X120669000Y-104038061D01*
X120629226Y-103838102D01*
X120551205Y-103649744D01*
X120437937Y-103480226D01*
X120293774Y-103336063D01*
X120124256Y-103222795D01*
X119935898Y-103144774D01*
X119735939Y-103105000D01*
X119532061Y-103105000D01*
X119332102Y-103144774D01*
X119143744Y-103222795D01*
X118974226Y-103336063D01*
X118830063Y-103480226D01*
X118716795Y-103649744D01*
X118638774Y-103838102D01*
X118599000Y-104038061D01*
X118599000Y-104241939D01*
X118638774Y-104441898D01*
X118641785Y-104449167D01*
X118556038Y-104519538D01*
X118510521Y-104575000D01*
X118172485Y-104575000D01*
X118136494Y-104545463D01*
X118026180Y-104486498D01*
X117906482Y-104450188D01*
X117782000Y-104437928D01*
X116882000Y-104437928D01*
X116757518Y-104450188D01*
X116637820Y-104486498D01*
X116527506Y-104545463D01*
X116430815Y-104624815D01*
X116351463Y-104721506D01*
X116292498Y-104831820D01*
X116256188Y-104951518D01*
X116243928Y-105076000D01*
X116243928Y-105587905D01*
X116233185Y-105574815D01*
X116136494Y-105495463D01*
X116026180Y-105436498D01*
X115906482Y-105400188D01*
X115782000Y-105387928D01*
X114882000Y-105387928D01*
X114757518Y-105400188D01*
X114637820Y-105436498D01*
X114527506Y-105495463D01*
X114430815Y-105574815D01*
X114417532Y-105591000D01*
X111851868Y-105591000D01*
X110919546Y-104658679D01*
X110954000Y-104662072D01*
X111918250Y-104659000D01*
X112077000Y-104500250D01*
X112077000Y-103251000D01*
X112331000Y-103251000D01*
X112331000Y-104500250D01*
X112489750Y-104659000D01*
X113454000Y-104662072D01*
X113578482Y-104649812D01*
X113698180Y-104613502D01*
X113808494Y-104554537D01*
X113905185Y-104475185D01*
X113984537Y-104378494D01*
X114043502Y-104268180D01*
X114079812Y-104148482D01*
X114092072Y-104024000D01*
X114089000Y-103409750D01*
X113930250Y-103251000D01*
X112331000Y-103251000D01*
X112077000Y-103251000D01*
X110477750Y-103251000D01*
X110319000Y-103409750D01*
X110315928Y-104024000D01*
X110319321Y-104058454D01*
X110092072Y-103831205D01*
X110092072Y-102224000D01*
X110315928Y-102224000D01*
X110319000Y-102838250D01*
X110477750Y-102997000D01*
X112077000Y-102997000D01*
X112077000Y-101747750D01*
X112331000Y-101747750D01*
X112331000Y-102997000D01*
X113930250Y-102997000D01*
X114089000Y-102838250D01*
X114092072Y-102224000D01*
X114079812Y-102099518D01*
X114043502Y-101979820D01*
X113984537Y-101869506D01*
X113905185Y-101772815D01*
X113808494Y-101693463D01*
X113698180Y-101634498D01*
X113578482Y-101598188D01*
X113454000Y-101585928D01*
X112489750Y-101589000D01*
X112331000Y-101747750D01*
X112077000Y-101747750D01*
X111918250Y-101589000D01*
X110954000Y-101585928D01*
X110829518Y-101598188D01*
X110709820Y-101634498D01*
X110599506Y-101693463D01*
X110502815Y-101772815D01*
X110423463Y-101869506D01*
X110364498Y-101979820D01*
X110328188Y-102099518D01*
X110315928Y-102224000D01*
X110092072Y-102224000D01*
X110079812Y-102099518D01*
X110043502Y-101979820D01*
X109984537Y-101869506D01*
X109905185Y-101772815D01*
X109808494Y-101693463D01*
X109698180Y-101634498D01*
X109578482Y-101598188D01*
X109454000Y-101585928D01*
X106954000Y-101585928D01*
X106829518Y-101598188D01*
X106709820Y-101634498D01*
X106599506Y-101693463D01*
X106502815Y-101772815D01*
X106423463Y-101869506D01*
X106364498Y-101979820D01*
X106328188Y-102099518D01*
X106315928Y-102224000D01*
X106315928Y-103831204D01*
X104848574Y-105298559D01*
X104816710Y-105324709D01*
X104750802Y-105405018D01*
X104712364Y-105451855D01*
X104634828Y-105596914D01*
X104587082Y-105754312D01*
X104570960Y-105918000D01*
X103448655Y-105918000D01*
X103365535Y-105834880D01*
X103136727Y-105681995D01*
X102882490Y-105576686D01*
X102612592Y-105523000D01*
X102337408Y-105523000D01*
X102067510Y-105576686D01*
X101813273Y-105681995D01*
X101584465Y-105834880D01*
X101389880Y-106029465D01*
X101236995Y-106258273D01*
X101131686Y-106512510D01*
X101078000Y-106782408D01*
X100685000Y-106782408D01*
X100685000Y-100660000D01*
X128785721Y-100660000D01*
X129174775Y-100698147D01*
%TA.AperFunction,Conductor*%
D30*
G36*
X129174775Y-100698147D02*
G01*
X129517967Y-100801763D01*
X129834489Y-100970062D01*
X130112299Y-101196637D01*
X130340806Y-101472856D01*
X130511310Y-101788197D01*
X130617319Y-102130656D01*
X130658000Y-102517713D01*
X130658001Y-105532419D01*
X130660886Y-105561709D01*
X130660777Y-105577271D01*
X130661677Y-105586442D01*
X130712678Y-106071684D01*
X130724699Y-106130247D01*
X130735914Y-106189040D01*
X130738578Y-106197862D01*
X130882858Y-106663956D01*
X130906033Y-106719086D01*
X130928447Y-106774565D01*
X130932774Y-106782701D01*
X131164838Y-107211894D01*
X131198271Y-107261461D01*
X131231042Y-107311540D01*
X131236867Y-107318681D01*
X131547875Y-107694627D01*
X131590311Y-107736767D01*
X131632174Y-107779517D01*
X131639275Y-107785391D01*
X132017382Y-108093767D01*
X132067191Y-108126859D01*
X132116563Y-108160666D01*
X132124667Y-108165047D01*
X132124675Y-108165051D01*
X132555473Y-108394111D01*
X132610788Y-108416910D01*
X132665760Y-108440471D01*
X132674563Y-108443196D01*
X133141652Y-108584219D01*
X133200369Y-108595845D01*
X133258845Y-108608275D01*
X133268009Y-108609238D01*
X133753596Y-108656850D01*
X133753598Y-108656850D01*
X133785581Y-108660000D01*
X144931978Y-108660000D01*
X144874774Y-108798102D01*
X144835000Y-108998061D01*
X144835000Y-109201939D01*
X144874774Y-109401898D01*
X144952795Y-109590256D01*
X145066063Y-109759774D01*
X145210226Y-109903937D01*
X145379744Y-110017205D01*
X145568102Y-110095226D01*
X145768061Y-110135000D01*
X145971939Y-110135000D01*
X146171898Y-110095226D01*
X146360256Y-110017205D01*
X146529774Y-109903937D01*
X146573711Y-109860000D01*
X148055199Y-109860000D01*
X149170435Y-110975237D01*
X149239999Y-111060001D01*
X149355724Y-111154974D01*
X149487753Y-111225546D01*
X149631014Y-111269003D01*
X149742667Y-111280000D01*
X149752676Y-111280000D01*
X149789999Y-111283676D01*
X149827322Y-111280000D01*
X151950289Y-111280000D01*
X151994226Y-111323937D01*
X152163744Y-111437205D01*
X152352102Y-111515226D01*
X152552061Y-111555000D01*
X152755939Y-111555000D01*
X152955898Y-111515226D01*
X153144256Y-111437205D01*
X153313774Y-111323937D01*
X153457937Y-111179774D01*
X153571205Y-111010256D01*
X153649226Y-110821898D01*
X153689000Y-110621939D01*
X153689000Y-110418061D01*
X153649226Y-110218102D01*
X153571205Y-110029744D01*
X153457937Y-109860226D01*
X153313774Y-109716063D01*
X153259802Y-109680000D01*
X154011928Y-109680000D01*
X154011928Y-112140000D01*
X154024188Y-112264482D01*
X154060498Y-112384180D01*
X154119463Y-112494494D01*
X154198815Y-112591185D01*
X154295506Y-112670537D01*
X154405820Y-112729502D01*
X154525518Y-112765812D01*
X154650000Y-112778072D01*
X156413271Y-112778072D01*
X158076201Y-114441003D01*
X158099999Y-114470001D01*
X158215724Y-114564974D01*
X158347753Y-114635546D01*
X158491014Y-114679003D01*
X158602667Y-114690000D01*
X158602676Y-114690000D01*
X158639999Y-114693676D01*
X158677322Y-114690000D01*
X162091928Y-114690000D01*
X162091928Y-116380000D01*
X162104188Y-116504482D01*
X162140498Y-116624180D01*
X162199463Y-116734494D01*
X162278815Y-116831185D01*
X162375506Y-116910537D01*
X162485820Y-116969502D01*
X162605518Y-117005812D01*
X162730000Y-117018072D01*
X164670001Y-117018072D01*
X164670001Y-118302668D01*
X164666324Y-118340000D01*
X164670001Y-118377333D01*
X164680998Y-118488986D01*
X164694121Y-118532246D01*
X164724454Y-118632246D01*
X164795026Y-118764276D01*
X164860602Y-118844180D01*
X164890000Y-118880001D01*
X164918998Y-118903799D01*
X166015000Y-119999802D01*
X166015000Y-121265199D01*
X165228804Y-120479003D01*
X165205001Y-120449999D01*
X165089276Y-120355026D01*
X164957247Y-120284454D01*
X164813986Y-120240997D01*
X164702333Y-120230000D01*
X164702322Y-120230000D01*
X164665000Y-120226324D01*
X164627678Y-120230000D01*
X160817087Y-120230000D01*
X160805812Y-120115518D01*
X160769502Y-119995820D01*
X160710537Y-119885506D01*
X160631185Y-119788815D01*
X160534494Y-119709463D01*
X160424180Y-119650498D01*
X160304482Y-119614188D01*
X160180000Y-119601928D01*
X158180000Y-119601928D01*
X158055518Y-119614188D01*
X157935820Y-119650498D01*
X157825506Y-119709463D01*
X157728815Y-119788815D01*
X157649463Y-119885506D01*
X157590498Y-119995820D01*
X157554188Y-120115518D01*
X157541928Y-120240000D01*
X157541928Y-121740000D01*
X157554188Y-121864482D01*
X157590498Y-121984180D01*
X157649463Y-122094494D01*
X157686809Y-122140000D01*
X157649463Y-122185506D01*
X157590498Y-122295820D01*
X157554188Y-122415518D01*
X157542913Y-122530000D01*
X154518072Y-122530000D01*
X154518072Y-121390000D01*
X154512848Y-121336954D01*
X155486299Y-120363503D01*
X155486303Y-120363498D01*
X155688801Y-120161000D01*
X155803939Y-120161000D01*
X156003898Y-120121226D01*
X156192256Y-120043205D01*
X156361774Y-119929937D01*
X156505937Y-119785774D01*
X156619205Y-119616256D01*
X156697226Y-119427898D01*
X156737000Y-119227939D01*
X156737000Y-119219072D01*
X157100000Y-119219072D01*
X157273254Y-119202008D01*
X157439850Y-119151472D01*
X157593386Y-119069405D01*
X157727962Y-118958962D01*
X157733342Y-118952406D01*
X157798815Y-119032185D01*
X157895506Y-119111537D01*
X158005820Y-119170502D01*
X158125518Y-119206812D01*
X158250000Y-119219072D01*
X158464250Y-119216000D01*
X158623000Y-119057250D01*
X158623000Y-117983000D01*
X158877000Y-117983000D01*
X158877000Y-119057250D01*
X159035750Y-119216000D01*
X159250000Y-119219072D01*
X159374482Y-119206812D01*
X159494180Y-119170502D01*
X159604494Y-119111537D01*
X159701185Y-119032185D01*
X159780537Y-118935494D01*
X159839502Y-118825180D01*
X159875812Y-118705482D01*
X159888072Y-118581000D01*
X159885000Y-118141750D01*
X159726250Y-117983000D01*
X158877000Y-117983000D01*
X158623000Y-117983000D01*
X158603000Y-117983000D01*
X158603000Y-117729000D01*
X158623000Y-117729000D01*
X158623000Y-116654750D01*
X158877000Y-116654750D01*
X158877000Y-117729000D01*
X159726250Y-117729000D01*
X159885000Y-117570250D01*
X159888072Y-117131000D01*
X159875812Y-117006518D01*
X159839502Y-116886820D01*
X159780537Y-116776506D01*
X159701185Y-116679815D01*
X159604494Y-116600463D01*
X159494180Y-116541498D01*
X159374482Y-116505188D01*
X159250000Y-116492928D01*
X159035750Y-116496000D01*
X158877000Y-116654750D01*
X158623000Y-116654750D01*
X158464250Y-116496000D01*
X158250000Y-116492928D01*
X158125518Y-116505188D01*
X158005820Y-116541498D01*
X157895506Y-116600463D01*
X157798815Y-116679815D01*
X157733342Y-116759594D01*
X157727962Y-116753038D01*
X157593386Y-116642595D01*
X157439850Y-116560528D01*
X157273254Y-116509992D01*
X157100000Y-116492928D01*
X156600000Y-116492928D01*
X156426746Y-116509992D01*
X156260150Y-116560528D01*
X156106614Y-116642595D01*
X155972038Y-116753038D01*
X155890992Y-116851794D01*
X155830462Y-116778038D01*
X155695887Y-116667595D01*
X155542351Y-116585528D01*
X155375755Y-116534992D01*
X155202501Y-116517928D01*
X154677499Y-116517928D01*
X154504245Y-116534992D01*
X154337649Y-116585528D01*
X154184113Y-116667595D01*
X154049538Y-116778038D01*
X154027500Y-116804891D01*
X154005462Y-116778038D01*
X153870887Y-116667595D01*
X153717351Y-116585528D01*
X153550755Y-116534992D01*
X153377501Y-116517928D01*
X153259865Y-116517928D01*
X153203937Y-116434226D01*
X153059774Y-116290063D01*
X152890256Y-116176795D01*
X152701898Y-116098774D01*
X152501939Y-116059000D01*
X152298061Y-116059000D01*
X152098102Y-116098774D01*
X151909744Y-116176795D01*
X151740226Y-116290063D01*
X151596063Y-116434226D01*
X151482795Y-116603744D01*
X151404774Y-116792102D01*
X151365000Y-116992061D01*
X151365000Y-117195939D01*
X151404774Y-117395898D01*
X151482795Y-117584256D01*
X151596063Y-117753774D01*
X151740226Y-117897937D01*
X151909744Y-118011205D01*
X151964428Y-118033856D01*
X151964428Y-118306001D01*
X151981492Y-118479255D01*
X152032028Y-118645851D01*
X152114095Y-118799387D01*
X152224538Y-118933962D01*
X152359113Y-119044405D01*
X152512649Y-119126472D01*
X152679245Y-119177008D01*
X152852499Y-119194072D01*
X153377501Y-119194072D01*
X153550755Y-119177008D01*
X153717351Y-119126472D01*
X153870887Y-119044405D01*
X154005462Y-118933962D01*
X154027500Y-118907109D01*
X154049538Y-118933962D01*
X154184113Y-119044405D01*
X154337649Y-119126472D01*
X154504245Y-119177008D01*
X154521492Y-119178707D01*
X154411502Y-119288697D01*
X154411497Y-119288701D01*
X152948271Y-120751928D01*
X151880000Y-120751928D01*
X151755518Y-120764188D01*
X151635820Y-120800498D01*
X151525506Y-120859463D01*
X151428815Y-120938815D01*
X151349463Y-121035506D01*
X151290498Y-121145820D01*
X151254188Y-121265518D01*
X151241928Y-121390000D01*
X151241928Y-121902987D01*
X151231939Y-121901000D01*
X151028061Y-121901000D01*
X150828102Y-121940774D01*
X150707412Y-121990766D01*
X150702406Y-121986658D01*
X150782185Y-121921185D01*
X150861537Y-121824494D01*
X150920502Y-121714180D01*
X150956812Y-121594482D01*
X150969072Y-121470000D01*
X150966000Y-121255750D01*
X150807250Y-121097000D01*
X149733000Y-121097000D01*
X149733000Y-121117000D01*
X149479000Y-121117000D01*
X149479000Y-121097000D01*
X148404750Y-121097000D01*
X148246000Y-121255750D01*
X148242928Y-121470000D01*
X148247749Y-121518947D01*
X147198802Y-120470000D01*
X148242928Y-120470000D01*
X148246000Y-120684250D01*
X148404750Y-120843000D01*
X149479000Y-120843000D01*
X149479000Y-119993750D01*
X149733000Y-119993750D01*
X149733000Y-120843000D01*
X150807250Y-120843000D01*
X150966000Y-120684250D01*
X150969072Y-120470000D01*
X150956812Y-120345518D01*
X150920502Y-120225820D01*
X150861537Y-120115506D01*
X150782185Y-120018815D01*
X150685494Y-119939463D01*
X150575180Y-119880498D01*
X150455482Y-119844188D01*
X150331000Y-119831928D01*
X149891750Y-119835000D01*
X149733000Y-119993750D01*
X149479000Y-119993750D01*
X149320250Y-119835000D01*
X148881000Y-119831928D01*
X148756518Y-119844188D01*
X148636820Y-119880498D01*
X148526506Y-119939463D01*
X148429815Y-120018815D01*
X148350463Y-120115506D01*
X148291498Y-120225820D01*
X148255188Y-120345518D01*
X148242928Y-120470000D01*
X147198802Y-120470000D01*
X145851804Y-119123003D01*
X145828001Y-119093999D01*
X145712276Y-118999026D01*
X145580247Y-118928454D01*
X145436986Y-118884997D01*
X145325333Y-118874000D01*
X145325322Y-118874000D01*
X145288000Y-118870324D01*
X145250678Y-118874000D01*
X143033072Y-118874000D01*
X143033072Y-118297999D01*
X143016008Y-118124745D01*
X142965472Y-117958149D01*
X142883405Y-117804613D01*
X142772962Y-117670038D01*
X142693713Y-117605000D01*
X142772962Y-117539962D01*
X142883405Y-117405387D01*
X142965472Y-117251851D01*
X142974527Y-117222000D01*
X144580678Y-117222000D01*
X144618000Y-117225676D01*
X144655322Y-117222000D01*
X144655333Y-117222000D01*
X144766986Y-117211003D01*
X144910247Y-117167546D01*
X145042276Y-117096974D01*
X145158001Y-117002001D01*
X145181803Y-116972998D01*
X145981004Y-116173798D01*
X146010001Y-116150001D01*
X146079901Y-116064828D01*
X146104974Y-116034277D01*
X146175546Y-115902247D01*
X146189629Y-115855820D01*
X146219003Y-115758986D01*
X146230000Y-115647333D01*
X146230000Y-115647323D01*
X146233676Y-115610000D01*
X146230000Y-115572677D01*
X146230000Y-114363711D01*
X146273937Y-114319774D01*
X146387205Y-114150256D01*
X146465226Y-113961898D01*
X146505000Y-113761939D01*
X146505000Y-113558061D01*
X146465226Y-113358102D01*
X146387205Y-113169744D01*
X146273937Y-113000226D01*
X146129774Y-112856063D01*
X145960256Y-112742795D01*
X145771898Y-112664774D01*
X145571939Y-112625000D01*
X145368061Y-112625000D01*
X145168102Y-112664774D01*
X144979744Y-112742795D01*
X144810226Y-112856063D01*
X144666063Y-113000226D01*
X144552795Y-113169744D01*
X144474774Y-113358102D01*
X144435000Y-113558061D01*
X144435000Y-113761939D01*
X144474774Y-113961898D01*
X144552795Y-114150256D01*
X144666063Y-114319774D01*
X144710001Y-114363712D01*
X144710000Y-115295198D01*
X144303199Y-115702000D01*
X142974527Y-115702000D01*
X142965472Y-115672149D01*
X142883405Y-115518613D01*
X142772962Y-115384038D01*
X142693713Y-115319000D01*
X142772962Y-115253962D01*
X142883405Y-115119387D01*
X142965472Y-114965851D01*
X143016008Y-114799255D01*
X143033072Y-114626001D01*
X143033072Y-113725999D01*
X143016008Y-113552745D01*
X143014601Y-113548108D01*
X143021000Y-113515939D01*
X143021000Y-113312061D01*
X142981226Y-113112102D01*
X142903205Y-112923744D01*
X142789937Y-112754226D01*
X142645774Y-112610063D01*
X142476256Y-112496795D01*
X142287898Y-112418774D01*
X142087939Y-112379000D01*
X141884061Y-112379000D01*
X141684102Y-112418774D01*
X141495744Y-112496795D01*
X141326226Y-112610063D01*
X141182063Y-112754226D01*
X141068795Y-112923744D01*
X140998949Y-113092366D01*
X140992038Y-113098038D01*
X140970000Y-113124891D01*
X140947962Y-113098038D01*
X140813387Y-112987595D01*
X140659851Y-112905528D01*
X140493255Y-112854992D01*
X140320001Y-112837928D01*
X139794999Y-112837928D01*
X139621745Y-112854992D01*
X139455149Y-112905528D01*
X139301613Y-112987595D01*
X139167038Y-113098038D01*
X139056595Y-113232613D01*
X138974528Y-113386149D01*
X138966228Y-113413512D01*
X138920256Y-113382795D01*
X138731898Y-113304774D01*
X138531939Y-113265000D01*
X138328061Y-113265000D01*
X138128102Y-113304774D01*
X137939744Y-113382795D01*
X137770226Y-113496063D01*
X137726289Y-113540000D01*
X134426802Y-113540000D01*
X133856000Y-112969199D01*
X133856000Y-111797322D01*
X133859676Y-111760000D01*
X133856000Y-111722677D01*
X133856000Y-111722667D01*
X133845003Y-111611014D01*
X133801546Y-111467753D01*
X133771212Y-111411002D01*
X133730974Y-111335723D01*
X133659799Y-111248997D01*
X133636001Y-111219999D01*
X133607004Y-111196202D01*
X133208863Y-110798061D01*
X137845000Y-110798061D01*
X137845000Y-111001939D01*
X137884774Y-111201898D01*
X137962795Y-111390256D01*
X138076063Y-111559774D01*
X138220226Y-111703937D01*
X138389744Y-111817205D01*
X138578102Y-111895226D01*
X138778061Y-111935000D01*
X138981939Y-111935000D01*
X139181898Y-111895226D01*
X139370256Y-111817205D01*
X139539774Y-111703937D01*
X139583711Y-111660000D01*
X145935199Y-111660000D01*
X147846201Y-113571003D01*
X147869999Y-113600001D01*
X147985724Y-113694974D01*
X148117753Y-113765546D01*
X148261014Y-113809003D01*
X148372667Y-113820000D01*
X148372676Y-113820000D01*
X148409999Y-113823676D01*
X148447322Y-113820000D01*
X152204289Y-113820000D01*
X152248226Y-113863937D01*
X152417744Y-113977205D01*
X152606102Y-114055226D01*
X152806061Y-114095000D01*
X153009939Y-114095000D01*
X153209898Y-114055226D01*
X153398256Y-113977205D01*
X153567774Y-113863937D01*
X153711937Y-113719774D01*
X153825205Y-113550256D01*
X153903226Y-113361898D01*
X153943000Y-113161939D01*
X153943000Y-112958061D01*
X153903226Y-112758102D01*
X153825205Y-112569744D01*
X153711937Y-112400226D01*
X153567774Y-112256063D01*
X153398256Y-112142795D01*
X153209898Y-112064774D01*
X153009939Y-112025000D01*
X152806061Y-112025000D01*
X152606102Y-112064774D01*
X152417744Y-112142795D01*
X152248226Y-112256063D01*
X152204289Y-112300000D01*
X148724802Y-112300000D01*
X146813804Y-110389003D01*
X146790001Y-110359999D01*
X146674276Y-110265026D01*
X146542247Y-110194454D01*
X146398986Y-110150997D01*
X146287333Y-110140000D01*
X146287322Y-110140000D01*
X146250000Y-110136324D01*
X146212678Y-110140000D01*
X139583711Y-110140000D01*
X139539774Y-110096063D01*
X139370256Y-109982795D01*
X139181898Y-109904774D01*
X138981939Y-109865000D01*
X138778061Y-109865000D01*
X138578102Y-109904774D01*
X138389744Y-109982795D01*
X138220226Y-110096063D01*
X138076063Y-110240226D01*
X137962795Y-110409744D01*
X137884774Y-110598102D01*
X137845000Y-110798061D01*
X133208863Y-110798061D01*
X132643804Y-110233002D01*
X132620001Y-110203999D01*
X132504276Y-110109026D01*
X132372247Y-110038454D01*
X132228986Y-109994997D01*
X132117333Y-109984000D01*
X132117322Y-109984000D01*
X132080000Y-109980324D01*
X132042678Y-109984000D01*
X131767711Y-109984000D01*
X131723774Y-109940063D01*
X131554256Y-109826795D01*
X131365898Y-109748774D01*
X131165939Y-109709000D01*
X130962061Y-109709000D01*
X130762102Y-109748774D01*
X130573744Y-109826795D01*
X130404226Y-109940063D01*
X130260063Y-110084226D01*
X130146795Y-110253744D01*
X130068774Y-110442102D01*
X130029000Y-110642061D01*
X130029000Y-110845939D01*
X130068774Y-111045898D01*
X130146795Y-111234256D01*
X130260063Y-111403774D01*
X130404226Y-111547937D01*
X130573744Y-111661205D01*
X130762102Y-111739226D01*
X130962061Y-111779000D01*
X131165939Y-111779000D01*
X131365898Y-111739226D01*
X131554256Y-111661205D01*
X131723774Y-111547937D01*
X131766455Y-111505256D01*
X132336000Y-112074802D01*
X132336001Y-113246668D01*
X132332324Y-113284000D01*
X132336001Y-113321333D01*
X132339623Y-113358102D01*
X132346998Y-113432985D01*
X132390454Y-113576246D01*
X132461026Y-113708276D01*
X132520722Y-113781015D01*
X132556000Y-113824001D01*
X132584998Y-113847799D01*
X133548201Y-114811003D01*
X133571999Y-114840001D01*
X133600997Y-114863799D01*
X133687723Y-114934974D01*
X133768735Y-114978276D01*
X133819753Y-115005546D01*
X133963014Y-115049003D01*
X134074667Y-115060000D01*
X134074677Y-115060000D01*
X134112000Y-115063676D01*
X134149322Y-115060000D01*
X137726289Y-115060000D01*
X137770226Y-115103937D01*
X137939744Y-115217205D01*
X138128102Y-115295226D01*
X138328061Y-115335000D01*
X138531939Y-115335000D01*
X138731898Y-115295226D01*
X138920256Y-115217205D01*
X139060157Y-115123727D01*
X139167038Y-115253962D01*
X139246287Y-115319000D01*
X139167038Y-115384038D01*
X139056595Y-115518613D01*
X138974528Y-115672149D01*
X138923992Y-115838745D01*
X138906928Y-116011999D01*
X138906928Y-116912001D01*
X138923992Y-117085255D01*
X138963349Y-117215000D01*
X138828061Y-117215000D01*
X138628102Y-117254774D01*
X138439744Y-117332795D01*
X138270226Y-117446063D01*
X138126063Y-117590226D01*
X138012795Y-117759744D01*
X137934774Y-117948102D01*
X137895000Y-118148061D01*
X137895000Y-118351939D01*
X137934774Y-118551898D01*
X138012795Y-118740256D01*
X138126063Y-118909774D01*
X138270226Y-119053937D01*
X138439744Y-119167205D01*
X138628102Y-119245226D01*
X138828061Y-119285000D01*
X138915497Y-119285000D01*
X138923992Y-119371255D01*
X138967699Y-119515339D01*
X138890102Y-119530774D01*
X138701744Y-119608795D01*
X138532226Y-119722063D01*
X138388063Y-119866226D01*
X138274795Y-120035744D01*
X138196774Y-120224102D01*
X138157000Y-120424061D01*
X138157000Y-120627939D01*
X138196774Y-120827898D01*
X138274795Y-121016256D01*
X138388063Y-121185774D01*
X138532226Y-121329937D01*
X138701744Y-121443205D01*
X138890102Y-121521226D01*
X138911004Y-121525384D01*
X138923992Y-121657255D01*
X138974528Y-121823851D01*
X139056595Y-121977387D01*
X139167038Y-122111962D01*
X139262379Y-122190207D01*
X139187038Y-122252038D01*
X139076595Y-122386613D01*
X138994528Y-122540149D01*
X138985473Y-122570000D01*
X138824802Y-122570000D01*
X138515000Y-122260199D01*
X138515000Y-122198061D01*
X138475226Y-121998102D01*
X138397205Y-121809744D01*
X138283937Y-121640226D01*
X138139774Y-121496063D01*
X137970256Y-121382795D01*
X137781898Y-121304774D01*
X137581939Y-121265000D01*
X137378061Y-121265000D01*
X137178102Y-121304774D01*
X136989744Y-121382795D01*
X136820226Y-121496063D01*
X136676063Y-121640226D01*
X136562795Y-121809744D01*
X136484774Y-121998102D01*
X136445000Y-122198061D01*
X136445000Y-122401939D01*
X136484774Y-122601898D01*
X136562795Y-122790256D01*
X136676063Y-122959774D01*
X136820226Y-123103937D01*
X136989744Y-123217205D01*
X137178102Y-123295226D01*
X137378061Y-123335000D01*
X137440199Y-123335000D01*
X137946201Y-123841003D01*
X137969999Y-123870001D01*
X137998997Y-123893799D01*
X138085723Y-123964974D01*
X138197054Y-124024482D01*
X138217753Y-124035546D01*
X138361014Y-124079003D01*
X138472667Y-124090000D01*
X138472677Y-124090000D01*
X138510000Y-124093676D01*
X138547323Y-124090000D01*
X138985473Y-124090000D01*
X138994528Y-124119851D01*
X139076595Y-124273387D01*
X139187038Y-124407962D01*
X139321613Y-124518405D01*
X139475149Y-124600472D01*
X139641745Y-124651008D01*
X139814999Y-124668072D01*
X140340001Y-124668072D01*
X140513255Y-124651008D01*
X140679851Y-124600472D01*
X140833387Y-124518405D01*
X140914637Y-124451724D01*
X140938815Y-124481185D01*
X141035506Y-124560537D01*
X141145820Y-124619502D01*
X141265518Y-124655812D01*
X141390000Y-124668072D01*
X141616750Y-124665000D01*
X141775500Y-124506250D01*
X141775500Y-123457000D01*
X142029500Y-123457000D01*
X142029500Y-124506250D01*
X142188250Y-124665000D01*
X142415000Y-124668072D01*
X142539482Y-124655812D01*
X142659180Y-124619502D01*
X142769494Y-124560537D01*
X142866185Y-124481185D01*
X142945537Y-124384494D01*
X143004502Y-124274180D01*
X143040812Y-124154482D01*
X143053072Y-124030000D01*
X143050000Y-123615750D01*
X142891250Y-123457000D01*
X142029500Y-123457000D01*
X141775500Y-123457000D01*
X141755500Y-123457000D01*
X141755500Y-123203000D01*
X141775500Y-123203000D01*
X141775500Y-123183000D01*
X142029500Y-123183000D01*
X142029500Y-123203000D01*
X142891250Y-123203000D01*
X143050000Y-123044250D01*
X143053072Y-122630000D01*
X143040812Y-122505518D01*
X143004502Y-122385820D01*
X142945537Y-122275506D01*
X142866185Y-122178815D01*
X142777696Y-122106194D01*
X142883405Y-121977387D01*
X142965472Y-121823851D01*
X143016008Y-121657255D01*
X143033072Y-121484001D01*
X143033072Y-120583999D01*
X143016008Y-120410745D01*
X143010928Y-120394000D01*
X144973199Y-120394000D01*
X147960200Y-123381002D01*
X147983999Y-123410001D01*
X148012997Y-123433799D01*
X148099723Y-123504974D01*
X148231753Y-123575546D01*
X148375014Y-123619003D01*
X148399156Y-123621381D01*
X148503038Y-123747962D01*
X148637614Y-123858405D01*
X148791150Y-123940472D01*
X148957746Y-123991008D01*
X149131000Y-124008072D01*
X150081000Y-124008072D01*
X150254254Y-123991008D01*
X150420850Y-123940472D01*
X150574386Y-123858405D01*
X150607210Y-123831467D01*
X150639744Y-123853205D01*
X150828102Y-123931226D01*
X151028061Y-123971000D01*
X151137123Y-123971000D01*
X151201753Y-124005546D01*
X151241928Y-124017733D01*
X151241928Y-125190000D01*
X151254188Y-125314482D01*
X151290498Y-125434180D01*
X151349463Y-125544494D01*
X151428815Y-125641185D01*
X151525506Y-125720537D01*
X151635820Y-125779502D01*
X151755518Y-125815812D01*
X151880000Y-125828072D01*
X153880000Y-125828072D01*
X154004482Y-125815812D01*
X154124180Y-125779502D01*
X154234494Y-125720537D01*
X154331185Y-125641185D01*
X154410537Y-125544494D01*
X154469502Y-125434180D01*
X154505812Y-125314482D01*
X154518072Y-125190000D01*
X154518072Y-124050000D01*
X157542913Y-124050000D01*
X157554188Y-124164482D01*
X157590498Y-124284180D01*
X157649463Y-124394494D01*
X157686809Y-124440000D01*
X157649463Y-124485506D01*
X157590498Y-124595820D01*
X157554188Y-124715518D01*
X157541928Y-124840000D01*
X157545000Y-125304250D01*
X157703750Y-125463000D01*
X159053000Y-125463000D01*
X159053000Y-125443000D01*
X159307000Y-125443000D01*
X159307000Y-125463000D01*
X160656250Y-125463000D01*
X160815000Y-125304250D01*
X160818072Y-124840000D01*
X160805812Y-124715518D01*
X160769502Y-124595820D01*
X160710537Y-124485506D01*
X160673191Y-124440000D01*
X160710537Y-124394494D01*
X160769502Y-124284180D01*
X160805812Y-124164482D01*
X160818072Y-124040000D01*
X160818072Y-122540000D01*
X160805812Y-122415518D01*
X160769502Y-122295820D01*
X160710537Y-122185506D01*
X160673191Y-122140000D01*
X160710537Y-122094494D01*
X160769502Y-121984180D01*
X160805812Y-121864482D01*
X160817087Y-121750000D01*
X164350199Y-121750000D01*
X164999216Y-122399017D01*
X164875723Y-122465026D01*
X164818822Y-122511724D01*
X164759999Y-122559999D01*
X164736201Y-122588997D01*
X162349003Y-124976196D01*
X162319999Y-124999999D01*
X162282479Y-125045718D01*
X162225026Y-125115724D01*
X162180613Y-125198815D01*
X162154454Y-125247754D01*
X162110997Y-125391015D01*
X162100000Y-125502668D01*
X162100000Y-125502678D01*
X162096324Y-125540000D01*
X162100000Y-125577323D01*
X162100001Y-126455198D01*
X161655199Y-126900000D01*
X160479373Y-126900000D01*
X160534494Y-126870537D01*
X160631185Y-126791185D01*
X160710537Y-126694494D01*
X160769502Y-126584180D01*
X160805812Y-126464482D01*
X160818072Y-126340000D01*
X160815000Y-125875750D01*
X160656250Y-125717000D01*
X159307000Y-125717000D01*
X159307000Y-125737000D01*
X159053000Y-125737000D01*
X159053000Y-125717000D01*
X157703750Y-125717000D01*
X157545000Y-125875750D01*
X157541928Y-126340000D01*
X157554188Y-126464482D01*
X157590498Y-126584180D01*
X157649463Y-126694494D01*
X157728815Y-126791185D01*
X157825506Y-126870537D01*
X157880627Y-126900000D01*
X121234802Y-126900000D01*
X120798072Y-126463271D01*
X120798072Y-126150000D01*
X120795664Y-126125550D01*
X120795664Y-126100991D01*
X120783404Y-125976510D01*
X120764282Y-125880377D01*
X120727973Y-125760681D01*
X120690464Y-125670125D01*
X120631498Y-125559808D01*
X120577042Y-125478309D01*
X120497690Y-125381618D01*
X120428382Y-125312310D01*
X120420000Y-125305431D01*
X120420000Y-123624569D01*
X120428382Y-123617690D01*
X120497690Y-123548382D01*
X120577042Y-123451691D01*
X120631498Y-123370192D01*
X120690464Y-123259875D01*
X120727973Y-123169319D01*
X120764282Y-123049623D01*
X120783404Y-122953490D01*
X120795664Y-122829009D01*
X120795664Y-122804450D01*
X120798072Y-122780000D01*
X120798072Y-122280000D01*
X120795664Y-122255550D01*
X120795664Y-122230991D01*
X120783404Y-122106510D01*
X120764282Y-122010377D01*
X120727973Y-121890681D01*
X120690464Y-121800125D01*
X120631498Y-121689808D01*
X120577042Y-121608309D01*
X120497690Y-121511618D01*
X120428382Y-121442310D01*
X120331691Y-121362958D01*
X120250192Y-121308502D01*
X120139875Y-121249536D01*
X120049319Y-121212027D01*
X119929623Y-121175718D01*
X119833490Y-121156596D01*
X119709009Y-121144336D01*
X119684450Y-121144336D01*
X119660000Y-121141928D01*
X119140000Y-121141928D01*
X119140000Y-115241711D01*
X119167937Y-115213774D01*
X119281205Y-115044256D01*
X119359226Y-114855898D01*
X119399000Y-114655939D01*
X119399000Y-114452061D01*
X119359226Y-114252102D01*
X119281205Y-114063744D01*
X119167937Y-113894226D01*
X119023774Y-113750063D01*
X118854256Y-113636795D01*
X118665898Y-113558774D01*
X118465939Y-113519000D01*
X118262061Y-113519000D01*
X118062102Y-113558774D01*
X117873744Y-113636795D01*
X117704226Y-113750063D01*
X117560063Y-113894226D01*
X117446795Y-114063744D01*
X117368774Y-114252102D01*
X117329000Y-114452061D01*
X117329000Y-114655939D01*
X117368774Y-114855898D01*
X117446795Y-115044256D01*
X117560063Y-115213774D01*
X117620000Y-115273711D01*
X117620001Y-121142913D01*
X117610000Y-121141928D01*
X117060000Y-121141928D01*
X117035550Y-121144336D01*
X117010991Y-121144336D01*
X116886510Y-121156596D01*
X116790377Y-121175718D01*
X116670681Y-121212027D01*
X116580125Y-121249536D01*
X116469808Y-121308502D01*
X116388309Y-121362958D01*
X116291618Y-121442310D01*
X116222310Y-121511618D01*
X116142958Y-121608309D01*
X116088502Y-121689808D01*
X116085727Y-121695000D01*
X103838701Y-121695000D01*
X103818314Y-121592510D01*
X103713005Y-121338273D01*
X103560120Y-121109465D01*
X103365535Y-120914880D01*
X103136727Y-120761995D01*
X102882490Y-120656686D01*
X102612592Y-120603000D01*
X102337408Y-120603000D01*
X102067510Y-120656686D01*
X101813273Y-120761995D01*
X101584465Y-120914880D01*
X101389880Y-121109465D01*
X101236995Y-121338273D01*
X101131686Y-121592510D01*
X101078000Y-121862408D01*
X101078000Y-122137592D01*
X101131686Y-122407490D01*
X101236995Y-122661727D01*
X101389880Y-122890535D01*
X101584465Y-123085120D01*
X101813273Y-123238005D01*
X102067510Y-123343314D01*
X102337408Y-123397000D01*
X102612592Y-123397000D01*
X102838498Y-123352065D01*
X102841311Y-123352918D01*
X103004999Y-123369040D01*
X103046018Y-123365000D01*
X116085727Y-123365000D01*
X116088502Y-123370192D01*
X116142958Y-123451691D01*
X116222310Y-123548382D01*
X116225001Y-123551073D01*
X116225000Y-125378928D01*
X116222310Y-125381618D01*
X116142958Y-125478309D01*
X116088502Y-125559808D01*
X116029536Y-125670125D01*
X115992027Y-125760681D01*
X115955718Y-125880377D01*
X115936596Y-125976510D01*
X115924336Y-126100991D01*
X115924336Y-126125550D01*
X115921928Y-126150000D01*
X115921928Y-126650000D01*
X115924336Y-126674450D01*
X115924336Y-126699009D01*
X115936596Y-126823490D01*
X115955718Y-126919623D01*
X115992027Y-127039319D01*
X116029536Y-127129875D01*
X116088502Y-127240192D01*
X116142958Y-127321691D01*
X116222310Y-127418382D01*
X116291618Y-127487690D01*
X116388309Y-127567042D01*
X116469808Y-127621498D01*
X116580125Y-127680464D01*
X116670681Y-127717973D01*
X116790377Y-127754282D01*
X116886510Y-127773404D01*
X117010991Y-127785664D01*
X117035550Y-127785664D01*
X117060000Y-127788072D01*
X117610000Y-127788072D01*
X117734482Y-127775812D01*
X117735000Y-127775655D01*
X117735518Y-127775812D01*
X117860000Y-127788072D01*
X118860000Y-127788072D01*
X118984482Y-127775812D01*
X118985000Y-127775655D01*
X118985518Y-127775812D01*
X119110000Y-127788072D01*
X119660000Y-127788072D01*
X119684450Y-127785664D01*
X119709009Y-127785664D01*
X119833490Y-127773404D01*
X119929623Y-127754282D01*
X119937186Y-127751988D01*
X120356201Y-128171003D01*
X120379999Y-128200001D01*
X120408997Y-128223799D01*
X120495723Y-128294974D01*
X120516270Y-128305957D01*
X100685000Y-128314698D01*
X100685000Y-117965565D01*
X101689040Y-117965565D01*
X101756020Y-118205656D01*
X102005048Y-118322756D01*
X102272135Y-118389023D01*
X102547017Y-118401910D01*
X102819133Y-118360922D01*
X103078023Y-118267636D01*
X103193980Y-118205656D01*
X103260960Y-117965565D01*
X102475000Y-117179605D01*
X101689040Y-117965565D01*
X100685000Y-117965565D01*
X100685000Y-117072017D01*
X101073090Y-117072017D01*
X101114078Y-117344133D01*
X101207364Y-117603023D01*
X101269344Y-117718980D01*
X101509435Y-117785960D01*
X102295395Y-117000000D01*
X102654605Y-117000000D01*
X103440565Y-117785960D01*
X103680656Y-117718980D01*
X103797756Y-117469952D01*
X103864023Y-117202865D01*
X103876910Y-116927983D01*
X103835922Y-116655867D01*
X103742636Y-116396977D01*
X103680656Y-116281020D01*
X103440565Y-116214040D01*
X102654605Y-117000000D01*
X102295395Y-117000000D01*
X101509435Y-116214040D01*
X101269344Y-116281020D01*
X101152244Y-116530048D01*
X101085977Y-116797135D01*
X101073090Y-117072017D01*
X100685000Y-117072017D01*
X100685000Y-116034435D01*
X101689040Y-116034435D01*
X102475000Y-116820395D01*
X103260960Y-116034435D01*
X103193980Y-115794344D01*
X102944952Y-115677244D01*
X102677865Y-115610977D01*
X102402983Y-115598090D01*
X102130867Y-115639078D01*
X101871977Y-115732364D01*
X101756020Y-115794344D01*
X101689040Y-116034435D01*
X100685000Y-116034435D01*
X100685000Y-112965565D01*
X101689040Y-112965565D01*
X101756020Y-113205656D01*
X102005048Y-113322756D01*
X102272135Y-113389023D01*
X102547017Y-113401910D01*
X102819133Y-113360922D01*
X103078023Y-113267636D01*
X103193980Y-113205656D01*
X103260960Y-112965565D01*
X102475000Y-112179605D01*
X101689040Y-112965565D01*
X100685000Y-112965565D01*
X100685000Y-112072017D01*
X101073090Y-112072017D01*
X101114078Y-112344133D01*
X101207364Y-112603023D01*
X101269344Y-112718980D01*
X101509435Y-112785960D01*
X102295395Y-112000000D01*
X102654605Y-112000000D01*
X103440565Y-112785960D01*
X103680656Y-112718980D01*
X103797756Y-112469952D01*
X103864023Y-112202865D01*
X103876910Y-111927983D01*
X103835922Y-111655867D01*
X103742636Y-111396977D01*
X103680656Y-111281020D01*
X103440565Y-111214040D01*
X102654605Y-112000000D01*
X102295395Y-112000000D01*
X101509435Y-111214040D01*
X101269344Y-111281020D01*
X101152244Y-111530048D01*
X101085977Y-111797135D01*
X101073090Y-112072017D01*
X100685000Y-112072017D01*
X100685000Y-106782408D01*
X101078000Y-106782408D01*
X101078000Y-107057592D01*
X101131686Y-107327490D01*
X101236995Y-107581727D01*
X101389880Y-107810535D01*
X101584465Y-108005120D01*
X101813273Y-108158005D01*
X101890515Y-108190000D01*
X101813273Y-108221995D01*
X101584465Y-108374880D01*
X101389880Y-108569465D01*
X101236995Y-108798273D01*
X101131686Y-109052510D01*
X101078000Y-109322408D01*
X101078000Y-109597592D01*
X101131686Y-109867490D01*
X101236995Y-110121727D01*
X101389880Y-110350535D01*
X101584465Y-110545120D01*
X101813273Y-110698005D01*
X101884943Y-110727692D01*
X101871977Y-110732364D01*
X101756020Y-110794344D01*
X101689040Y-111034435D01*
X102475000Y-111820395D01*
X103260960Y-111034435D01*
X103193980Y-110794344D01*
X103058240Y-110730515D01*
X103136727Y-110698005D01*
X103365535Y-110545120D01*
X103560120Y-110350535D01*
X103713005Y-110121727D01*
X103818314Y-109867490D01*
X103872000Y-109597592D01*
X103872000Y-109322408D01*
X103818314Y-109052510D01*
X103713005Y-108798273D01*
X103560120Y-108569465D01*
X103365535Y-108374880D01*
X103136727Y-108221995D01*
X103059485Y-108190000D01*
X103136727Y-108158005D01*
X103365535Y-108005120D01*
X103560120Y-107810535D01*
X103713005Y-107581727D01*
X103818314Y-107327490D01*
X103872000Y-107057592D01*
X103872000Y-106782408D01*
X103818314Y-106512510D01*
X103713005Y-106258273D01*
X103560120Y-106029465D01*
X103448655Y-105918000D01*
X104570960Y-105918000D01*
X104575001Y-105959029D01*
X104575000Y-118830981D01*
X104570960Y-118872000D01*
X104575000Y-118913018D01*
X104587082Y-119035688D01*
X104634828Y-119193086D01*
X104712364Y-119338145D01*
X104816709Y-119465291D01*
X104848579Y-119491446D01*
X105806558Y-120449426D01*
X105832709Y-120481291D01*
X105935591Y-120565724D01*
X105959854Y-120585636D01*
X106104913Y-120663172D01*
X106262311Y-120710918D01*
X106426000Y-120727040D01*
X106467018Y-120723000D01*
X107483935Y-120723000D01*
X107558525Y-120834632D01*
X107765368Y-121041475D01*
X108008589Y-121203990D01*
X108278842Y-121315932D01*
X108565740Y-121373000D01*
X108858260Y-121373000D01*
X109145158Y-121315932D01*
X109415411Y-121203990D01*
X109658632Y-121041475D01*
X109865475Y-120834632D01*
X109982000Y-120660240D01*
X110098525Y-120834632D01*
X110305368Y-121041475D01*
X110548589Y-121203990D01*
X110818842Y-121315932D01*
X111105740Y-121373000D01*
X111398260Y-121373000D01*
X111685158Y-121315932D01*
X111955411Y-121203990D01*
X112198632Y-121041475D01*
X112405475Y-120834632D01*
X112567990Y-120591411D01*
X112679932Y-120321158D01*
X112737000Y-120034260D01*
X112737000Y-119741740D01*
X112679932Y-119454842D01*
X112567990Y-119184589D01*
X112405475Y-118941368D01*
X112198632Y-118734525D01*
X112016466Y-118612805D01*
X112133355Y-118543178D01*
X112349588Y-118348269D01*
X112523641Y-118114920D01*
X112648825Y-117852099D01*
X112693476Y-117704890D01*
X112572155Y-117475000D01*
X111379000Y-117475000D01*
X111379000Y-117495000D01*
X111125000Y-117495000D01*
X111125000Y-117475000D01*
X108839000Y-117475000D01*
X108839000Y-117495000D01*
X108585000Y-117495000D01*
X108585000Y-117475000D01*
X107391845Y-117475000D01*
X107270524Y-117704890D01*
X107315175Y-117852099D01*
X107440359Y-118114920D01*
X107614412Y-118348269D01*
X107830645Y-118543178D01*
X107947534Y-118612805D01*
X107765368Y-118734525D01*
X107558525Y-118941368D01*
X107483935Y-119053000D01*
X106771868Y-119053000D01*
X106245000Y-118526133D01*
X106245000Y-113958000D01*
X107223928Y-113958000D01*
X107223928Y-115658000D01*
X107236188Y-115782482D01*
X107272498Y-115902180D01*
X107331463Y-116012494D01*
X107410815Y-116109185D01*
X107507506Y-116188537D01*
X107617820Y-116247502D01*
X107698466Y-116271966D01*
X107614412Y-116347731D01*
X107440359Y-116581080D01*
X107315175Y-116843901D01*
X107270524Y-116991110D01*
X107391845Y-117221000D01*
X108585000Y-117221000D01*
X108585000Y-117201000D01*
X108839000Y-117201000D01*
X108839000Y-117221000D01*
X111125000Y-117221000D01*
X111125000Y-117201000D01*
X111379000Y-117201000D01*
X111379000Y-117221000D01*
X112572155Y-117221000D01*
X112693476Y-116991110D01*
X112648825Y-116843901D01*
X112523641Y-116581080D01*
X112349588Y-116347731D01*
X112133355Y-116152822D01*
X112016466Y-116083195D01*
X112198632Y-115961475D01*
X112405475Y-115754632D01*
X112567990Y-115511411D01*
X112679932Y-115241158D01*
X112737000Y-114954260D01*
X112737000Y-114661740D01*
X112679932Y-114374842D01*
X112567990Y-114104589D01*
X112405475Y-113861368D01*
X112198632Y-113654525D01*
X111955411Y-113492010D01*
X111685158Y-113380068D01*
X111398260Y-113323000D01*
X111105740Y-113323000D01*
X110818842Y-113380068D01*
X110548589Y-113492010D01*
X110305368Y-113654525D01*
X110173513Y-113786380D01*
X110151502Y-113713820D01*
X110092537Y-113603506D01*
X110013185Y-113506815D01*
X109916494Y-113427463D01*
X109806180Y-113368498D01*
X109686482Y-113332188D01*
X109562000Y-113319928D01*
X109472000Y-113319928D01*
X109472000Y-112074801D01*
X109788802Y-111758000D01*
X121213982Y-111758000D01*
X121288815Y-111849185D01*
X121385506Y-111928537D01*
X121495820Y-111987502D01*
X121615518Y-112023812D01*
X121740000Y-112036072D01*
X122640000Y-112036072D01*
X122764482Y-112023812D01*
X122884180Y-111987502D01*
X122994494Y-111928537D01*
X123091185Y-111849185D01*
X123101928Y-111836095D01*
X123101928Y-112348000D01*
X123114188Y-112472482D01*
X123150498Y-112592180D01*
X123209463Y-112702494D01*
X123288815Y-112799185D01*
X123385506Y-112878537D01*
X123495820Y-112937502D01*
X123615518Y-112973812D01*
X123740000Y-112986072D01*
X124640000Y-112986072D01*
X124764482Y-112973812D01*
X124884180Y-112937502D01*
X124994494Y-112878537D01*
X125091185Y-112799185D01*
X125166018Y-112708000D01*
X125591746Y-112708000D01*
X125668038Y-112800962D01*
X125802613Y-112911405D01*
X125956149Y-112993472D01*
X126122745Y-113044008D01*
X126295999Y-113061072D01*
X127196001Y-113061072D01*
X127369255Y-113044008D01*
X127535851Y-112993472D01*
X127689387Y-112911405D01*
X127823962Y-112800962D01*
X127934405Y-112666387D01*
X128016472Y-112512851D01*
X128067008Y-112346255D01*
X128084072Y-112173001D01*
X128084072Y-111647999D01*
X128067008Y-111474745D01*
X128016472Y-111308149D01*
X127934405Y-111154613D01*
X127823962Y-111020038D01*
X127797109Y-110998000D01*
X127823962Y-110975962D01*
X127895271Y-110889072D01*
X128272000Y-111265802D01*
X128272001Y-122374657D01*
X128272000Y-122374667D01*
X128272000Y-123105332D01*
X128272001Y-123105342D01*
X128272000Y-125104677D01*
X128268324Y-125142000D01*
X128272000Y-125179322D01*
X128272000Y-125179332D01*
X128282997Y-125290985D01*
X128326434Y-125434180D01*
X128326454Y-125434246D01*
X128397026Y-125566276D01*
X128412986Y-125585723D01*
X128491999Y-125682001D01*
X128521002Y-125705803D01*
X129336201Y-126521003D01*
X129359999Y-126550001D01*
X129475724Y-126644974D01*
X129607753Y-126715546D01*
X129751014Y-126759003D01*
X129862667Y-126770000D01*
X129862676Y-126770000D01*
X129899999Y-126773676D01*
X129937322Y-126770000D01*
X143982678Y-126770000D01*
X144020000Y-126773676D01*
X144057322Y-126770000D01*
X144057333Y-126770000D01*
X144168986Y-126759003D01*
X144312247Y-126715546D01*
X144444276Y-126644974D01*
X144560001Y-126550001D01*
X144583804Y-126520997D01*
X145036997Y-126067804D01*
X145066001Y-126044001D01*
X145155456Y-125935000D01*
X145160974Y-125928277D01*
X145231546Y-125796247D01*
X145237392Y-125776974D01*
X145275003Y-125652986D01*
X145286000Y-125541333D01*
X145286000Y-125541324D01*
X145289676Y-125504001D01*
X145286000Y-125466678D01*
X145286000Y-122877711D01*
X145329937Y-122833774D01*
X145443205Y-122664256D01*
X145521226Y-122475898D01*
X145561000Y-122275939D01*
X145561000Y-122072061D01*
X145521226Y-121872102D01*
X145443205Y-121683744D01*
X145329937Y-121514226D01*
X145185774Y-121370063D01*
X145016256Y-121256795D01*
X144827898Y-121178774D01*
X144627939Y-121139000D01*
X144424061Y-121139000D01*
X144224102Y-121178774D01*
X144035744Y-121256795D01*
X143866226Y-121370063D01*
X143722063Y-121514226D01*
X143608795Y-121683744D01*
X143530774Y-121872102D01*
X143491000Y-122072061D01*
X143491000Y-122275939D01*
X143530774Y-122475898D01*
X143608795Y-122664256D01*
X143722063Y-122833774D01*
X143766000Y-122877711D01*
X143766001Y-125189198D01*
X143705199Y-125250000D01*
X130214802Y-125250000D01*
X129792000Y-124827199D01*
X129792000Y-110988323D01*
X129795676Y-110951000D01*
X129792000Y-110913677D01*
X129792000Y-110913667D01*
X129781003Y-110802014D01*
X129737546Y-110658753D01*
X129666974Y-110526724D01*
X129572001Y-110410999D01*
X129543004Y-110387202D01*
X128730303Y-109574502D01*
X128706501Y-109545499D01*
X128590776Y-109450526D01*
X128458747Y-109379954D01*
X128315486Y-109336497D01*
X128203833Y-109325500D01*
X128203822Y-109325500D01*
X128166500Y-109321824D01*
X128129178Y-109325500D01*
X127931030Y-109325500D01*
X127823962Y-109195038D01*
X127689387Y-109084595D01*
X127535851Y-109002528D01*
X127369255Y-108951992D01*
X127196001Y-108934928D01*
X126295999Y-108934928D01*
X126122745Y-108951992D01*
X125956149Y-109002528D01*
X125802613Y-109084595D01*
X125668038Y-109195038D01*
X125557595Y-109329613D01*
X125475528Y-109483149D01*
X125424992Y-109649745D01*
X125407928Y-109822999D01*
X125407928Y-110348001D01*
X125424992Y-110521255D01*
X125475528Y-110687851D01*
X125557595Y-110841387D01*
X125668038Y-110975962D01*
X125694891Y-110998000D01*
X125668038Y-111020038D01*
X125557595Y-111154613D01*
X125539749Y-111188000D01*
X125166018Y-111188000D01*
X125091185Y-111096815D01*
X124994494Y-111017463D01*
X124958082Y-110998000D01*
X124994494Y-110978537D01*
X125091185Y-110899185D01*
X125170537Y-110802494D01*
X125229502Y-110692180D01*
X125265812Y-110572482D01*
X125278072Y-110448000D01*
X125275000Y-110333750D01*
X125116250Y-110175000D01*
X124317000Y-110175000D01*
X124317000Y-110195000D01*
X124063000Y-110195000D01*
X124063000Y-110175000D01*
X123263750Y-110175000D01*
X123179143Y-110259607D01*
X123170537Y-110243506D01*
X123091185Y-110146815D01*
X122994494Y-110067463D01*
X122884180Y-110008498D01*
X122764482Y-109972188D01*
X122640000Y-109959928D01*
X121740000Y-109959928D01*
X121615518Y-109972188D01*
X121495820Y-110008498D01*
X121385506Y-110067463D01*
X121288815Y-110146815D01*
X121213982Y-110238000D01*
X109511325Y-110238000D01*
X109474000Y-110234324D01*
X109436675Y-110238000D01*
X109436667Y-110238000D01*
X109325014Y-110248997D01*
X109181753Y-110292454D01*
X109049724Y-110363026D01*
X108933999Y-110457999D01*
X108910201Y-110486998D01*
X108201002Y-111196197D01*
X108171999Y-111219999D01*
X108131784Y-111269002D01*
X108077026Y-111335724D01*
X108015402Y-111451013D01*
X108006454Y-111467754D01*
X107962997Y-111611015D01*
X107952000Y-111722668D01*
X107952000Y-111722678D01*
X107948324Y-111760000D01*
X107952000Y-111797323D01*
X107952001Y-113295026D01*
X107952001Y-113319928D01*
X107862000Y-113319928D01*
X107737518Y-113332188D01*
X107617820Y-113368498D01*
X107507506Y-113427463D01*
X107410815Y-113506815D01*
X107331463Y-113603506D01*
X107272498Y-113713820D01*
X107236188Y-113833518D01*
X107223928Y-113958000D01*
X106245000Y-113958000D01*
X106245000Y-109648000D01*
X123101928Y-109648000D01*
X123105000Y-109762250D01*
X123263750Y-109921000D01*
X124063000Y-109921000D01*
X124063000Y-109171750D01*
X124317000Y-109171750D01*
X124317000Y-109921000D01*
X125116250Y-109921000D01*
X125275000Y-109762250D01*
X125278072Y-109648000D01*
X125265812Y-109523518D01*
X125229502Y-109403820D01*
X125170537Y-109293506D01*
X125091185Y-109196815D01*
X124994494Y-109117463D01*
X124884180Y-109058498D01*
X124764482Y-109022188D01*
X124640000Y-109009928D01*
X124475750Y-109013000D01*
X124317000Y-109171750D01*
X124063000Y-109171750D01*
X123904250Y-109013000D01*
X123740000Y-109009928D01*
X123615518Y-109022188D01*
X123495820Y-109058498D01*
X123385506Y-109117463D01*
X123288815Y-109196815D01*
X123209463Y-109293506D01*
X123150498Y-109403820D01*
X123114188Y-109523518D01*
X123101928Y-109648000D01*
X106245000Y-109648000D01*
X106245000Y-106263867D01*
X107846796Y-104662072D01*
X108561205Y-104662072D01*
X110886559Y-106987427D01*
X110912709Y-107019291D01*
X111036867Y-107121185D01*
X111039854Y-107123636D01*
X111184913Y-107201172D01*
X111342311Y-107248918D01*
X111505999Y-107265040D01*
X111547018Y-107261000D01*
X114417532Y-107261000D01*
X114430815Y-107277185D01*
X114527506Y-107356537D01*
X114637820Y-107415502D01*
X114757518Y-107451812D01*
X114882000Y-107464072D01*
X115782000Y-107464072D01*
X115906482Y-107451812D01*
X116026180Y-107415502D01*
X116136494Y-107356537D01*
X116233185Y-107277185D01*
X116243928Y-107264095D01*
X116243928Y-107776000D01*
X116256188Y-107900482D01*
X116292498Y-108020180D01*
X116351463Y-108130494D01*
X116430815Y-108227185D01*
X116527506Y-108306537D01*
X116637820Y-108365502D01*
X116757518Y-108401812D01*
X116882000Y-108414072D01*
X117782000Y-108414072D01*
X117906482Y-108401812D01*
X118026180Y-108365502D01*
X118136494Y-108306537D01*
X118233185Y-108227185D01*
X118312537Y-108130494D01*
X118371502Y-108020180D01*
X118379140Y-107995000D01*
X118448970Y-107995000D01*
X118556038Y-108125462D01*
X118690613Y-108235905D01*
X118844149Y-108317972D01*
X119010745Y-108368508D01*
X119183999Y-108385572D01*
X120084001Y-108385572D01*
X120257255Y-108368508D01*
X120423851Y-108317972D01*
X120577387Y-108235905D01*
X120711962Y-108125462D01*
X120819030Y-107995000D01*
X121073678Y-107995000D01*
X121111000Y-107998676D01*
X121148322Y-107995000D01*
X121148333Y-107995000D01*
X121259986Y-107984003D01*
X121403247Y-107940546D01*
X121535276Y-107869974D01*
X121651001Y-107775001D01*
X121674803Y-107745998D01*
X121956729Y-107464072D01*
X122640000Y-107464072D01*
X122764482Y-107451812D01*
X122884180Y-107415502D01*
X122994494Y-107356537D01*
X123091185Y-107277185D01*
X123101928Y-107264095D01*
X123101928Y-107776000D01*
X123114188Y-107900482D01*
X123150498Y-108020180D01*
X123209463Y-108130494D01*
X123288815Y-108227185D01*
X123385506Y-108306537D01*
X123495820Y-108365502D01*
X123615518Y-108401812D01*
X123740000Y-108414072D01*
X124640000Y-108414072D01*
X124764482Y-108401812D01*
X124884180Y-108365502D01*
X124994494Y-108306537D01*
X125091185Y-108227185D01*
X125166018Y-108136000D01*
X125591746Y-108136000D01*
X125668038Y-108228962D01*
X125802613Y-108339405D01*
X125956149Y-108421472D01*
X126122745Y-108472008D01*
X126295999Y-108489072D01*
X127196001Y-108489072D01*
X127369255Y-108472008D01*
X127535851Y-108421472D01*
X127689387Y-108339405D01*
X127823962Y-108228962D01*
X127934405Y-108094387D01*
X128016472Y-107940851D01*
X128067008Y-107774255D01*
X128084072Y-107601001D01*
X128084072Y-107075999D01*
X128067008Y-106902745D01*
X128016472Y-106736149D01*
X127934405Y-106582613D01*
X127823962Y-106448038D01*
X127797109Y-106426000D01*
X127823962Y-106403962D01*
X127934405Y-106269387D01*
X128016472Y-106115851D01*
X128067008Y-105949255D01*
X128084072Y-105776001D01*
X128084072Y-105250999D01*
X128067008Y-105077745D01*
X128016472Y-104911149D01*
X127934405Y-104757613D01*
X127823962Y-104623038D01*
X127706220Y-104526409D01*
X127741226Y-104441898D01*
X127781000Y-104241939D01*
X127781000Y-104038061D01*
X127741226Y-103838102D01*
X127663205Y-103649744D01*
X127549937Y-103480226D01*
X127405774Y-103336063D01*
X127236256Y-103222795D01*
X127047898Y-103144774D01*
X126847939Y-103105000D01*
X126644061Y-103105000D01*
X126444102Y-103144774D01*
X126255744Y-103222795D01*
X126086226Y-103336063D01*
X125942063Y-103480226D01*
X125828795Y-103649744D01*
X125750774Y-103838102D01*
X125711000Y-104038061D01*
X125711000Y-104241939D01*
X125750774Y-104441898D01*
X125785780Y-104526409D01*
X125668038Y-104623038D01*
X125557595Y-104757613D01*
X125475528Y-104911149D01*
X125424992Y-105077745D01*
X125407928Y-105250999D01*
X125407928Y-105776001D01*
X125424992Y-105949255D01*
X125475528Y-106115851D01*
X125557595Y-106269387D01*
X125668038Y-106403962D01*
X125694891Y-106426000D01*
X125668038Y-106448038D01*
X125557595Y-106582613D01*
X125539749Y-106616000D01*
X125166018Y-106616000D01*
X125091185Y-106524815D01*
X124994494Y-106445463D01*
X124958082Y-106426000D01*
X124994494Y-106406537D01*
X125091185Y-106327185D01*
X125170537Y-106230494D01*
X125229502Y-106120180D01*
X125265812Y-106000482D01*
X125278072Y-105876000D01*
X125275000Y-105761750D01*
X125116250Y-105603000D01*
X124317000Y-105603000D01*
X124317000Y-105623000D01*
X124063000Y-105623000D01*
X124063000Y-105603000D01*
X123263750Y-105603000D01*
X123179143Y-105687607D01*
X123170537Y-105671506D01*
X123091185Y-105574815D01*
X122994494Y-105495463D01*
X122884180Y-105436498D01*
X122764482Y-105400188D01*
X122640000Y-105387928D01*
X121740000Y-105387928D01*
X121615518Y-105400188D01*
X121495820Y-105436498D01*
X121385506Y-105495463D01*
X121288815Y-105574815D01*
X121209463Y-105671506D01*
X121150498Y-105781820D01*
X121114188Y-105901518D01*
X121101928Y-106026000D01*
X121101928Y-106169270D01*
X120808738Y-106462460D01*
X120711962Y-106344538D01*
X120685109Y-106322500D01*
X120711962Y-106300462D01*
X120822405Y-106165887D01*
X120904472Y-106012351D01*
X120955008Y-105845755D01*
X120972072Y-105672501D01*
X120972072Y-105147499D01*
X120965030Y-105076000D01*
X123101928Y-105076000D01*
X123105000Y-105190250D01*
X123263750Y-105349000D01*
X124063000Y-105349000D01*
X124063000Y-104599750D01*
X124317000Y-104599750D01*
X124317000Y-105349000D01*
X125116250Y-105349000D01*
X125275000Y-105190250D01*
X125278072Y-105076000D01*
X125265812Y-104951518D01*
X125229502Y-104831820D01*
X125170537Y-104721506D01*
X125091185Y-104624815D01*
X124994494Y-104545463D01*
X124884180Y-104486498D01*
X124764482Y-104450188D01*
X124640000Y-104437928D01*
X124475750Y-104441000D01*
X124317000Y-104599750D01*
X124063000Y-104599750D01*
X123904250Y-104441000D01*
X123740000Y-104437928D01*
X123615518Y-104450188D01*
X123495820Y-104486498D01*
X123385506Y-104545463D01*
X123288815Y-104624815D01*
X123209463Y-104721506D01*
X123150498Y-104831820D01*
X123114188Y-104951518D01*
X123101928Y-105076000D01*
X120965030Y-105076000D01*
X120955008Y-104974245D01*
X120904472Y-104807649D01*
X120822405Y-104654113D01*
X120711962Y-104519538D01*
X120626215Y-104449167D01*
X120629226Y-104441898D01*
X120669000Y-104241939D01*
X120669000Y-104038061D01*
X120629226Y-103838102D01*
X120551205Y-103649744D01*
X120437937Y-103480226D01*
X120293774Y-103336063D01*
X120124256Y-103222795D01*
X119935898Y-103144774D01*
X119735939Y-103105000D01*
X119532061Y-103105000D01*
X119332102Y-103144774D01*
X119143744Y-103222795D01*
X118974226Y-103336063D01*
X118830063Y-103480226D01*
X118716795Y-103649744D01*
X118638774Y-103838102D01*
X118599000Y-104038061D01*
X118599000Y-104241939D01*
X118638774Y-104441898D01*
X118641785Y-104449167D01*
X118556038Y-104519538D01*
X118510521Y-104575000D01*
X118172485Y-104575000D01*
X118136494Y-104545463D01*
X118026180Y-104486498D01*
X117906482Y-104450188D01*
X117782000Y-104437928D01*
X116882000Y-104437928D01*
X116757518Y-104450188D01*
X116637820Y-104486498D01*
X116527506Y-104545463D01*
X116430815Y-104624815D01*
X116351463Y-104721506D01*
X116292498Y-104831820D01*
X116256188Y-104951518D01*
X116243928Y-105076000D01*
X116243928Y-105587905D01*
X116233185Y-105574815D01*
X116136494Y-105495463D01*
X116026180Y-105436498D01*
X115906482Y-105400188D01*
X115782000Y-105387928D01*
X114882000Y-105387928D01*
X114757518Y-105400188D01*
X114637820Y-105436498D01*
X114527506Y-105495463D01*
X114430815Y-105574815D01*
X114417532Y-105591000D01*
X111851868Y-105591000D01*
X110919546Y-104658679D01*
X110954000Y-104662072D01*
X111918250Y-104659000D01*
X112077000Y-104500250D01*
X112077000Y-103251000D01*
X112331000Y-103251000D01*
X112331000Y-104500250D01*
X112489750Y-104659000D01*
X113454000Y-104662072D01*
X113578482Y-104649812D01*
X113698180Y-104613502D01*
X113808494Y-104554537D01*
X113905185Y-104475185D01*
X113984537Y-104378494D01*
X114043502Y-104268180D01*
X114079812Y-104148482D01*
X114092072Y-104024000D01*
X114089000Y-103409750D01*
X113930250Y-103251000D01*
X112331000Y-103251000D01*
X112077000Y-103251000D01*
X110477750Y-103251000D01*
X110319000Y-103409750D01*
X110315928Y-104024000D01*
X110319321Y-104058454D01*
X110092072Y-103831205D01*
X110092072Y-102224000D01*
X110315928Y-102224000D01*
X110319000Y-102838250D01*
X110477750Y-102997000D01*
X112077000Y-102997000D01*
X112077000Y-101747750D01*
X112331000Y-101747750D01*
X112331000Y-102997000D01*
X113930250Y-102997000D01*
X114089000Y-102838250D01*
X114092072Y-102224000D01*
X114079812Y-102099518D01*
X114043502Y-101979820D01*
X113984537Y-101869506D01*
X113905185Y-101772815D01*
X113808494Y-101693463D01*
X113698180Y-101634498D01*
X113578482Y-101598188D01*
X113454000Y-101585928D01*
X112489750Y-101589000D01*
X112331000Y-101747750D01*
X112077000Y-101747750D01*
X111918250Y-101589000D01*
X110954000Y-101585928D01*
X110829518Y-101598188D01*
X110709820Y-101634498D01*
X110599506Y-101693463D01*
X110502815Y-101772815D01*
X110423463Y-101869506D01*
X110364498Y-101979820D01*
X110328188Y-102099518D01*
X110315928Y-102224000D01*
X110092072Y-102224000D01*
X110079812Y-102099518D01*
X110043502Y-101979820D01*
X109984537Y-101869506D01*
X109905185Y-101772815D01*
X109808494Y-101693463D01*
X109698180Y-101634498D01*
X109578482Y-101598188D01*
X109454000Y-101585928D01*
X106954000Y-101585928D01*
X106829518Y-101598188D01*
X106709820Y-101634498D01*
X106599506Y-101693463D01*
X106502815Y-101772815D01*
X106423463Y-101869506D01*
X106364498Y-101979820D01*
X106328188Y-102099518D01*
X106315928Y-102224000D01*
X106315928Y-103831204D01*
X104848574Y-105298559D01*
X104816710Y-105324709D01*
X104750802Y-105405018D01*
X104712364Y-105451855D01*
X104634828Y-105596914D01*
X104587082Y-105754312D01*
X104570960Y-105918000D01*
X103448655Y-105918000D01*
X103365535Y-105834880D01*
X103136727Y-105681995D01*
X102882490Y-105576686D01*
X102612592Y-105523000D01*
X102337408Y-105523000D01*
X102067510Y-105576686D01*
X101813273Y-105681995D01*
X101584465Y-105834880D01*
X101389880Y-106029465D01*
X101236995Y-106258273D01*
X101131686Y-106512510D01*
X101078000Y-106782408D01*
X100685000Y-106782408D01*
X100685000Y-100660000D01*
X128785721Y-100660000D01*
X129174775Y-100698147D01*
G37*
%TD.AperFunction*%
D29*
X199215000Y-111597805D02*
X199142636Y-111396977D01*
X199080656Y-111281020D01*
X198840565Y-111214040D01*
X198054605Y-112000000D01*
X198840565Y-112785960D01*
X199080656Y-112718980D01*
X199197756Y-112469952D01*
X199215000Y-112400449D01*
X199215001Y-116597805D01*
X199142636Y-116396977D01*
X199080656Y-116281020D01*
X198840565Y-116214040D01*
X198054605Y-117000000D01*
X198840565Y-117785960D01*
X199080656Y-117718980D01*
X199197756Y-117469952D01*
X199215001Y-117400448D01*
X199215001Y-119124511D01*
X199113005Y-118878273D01*
X198960120Y-118649465D01*
X198765535Y-118454880D01*
X198536727Y-118301995D01*
X198465057Y-118272308D01*
X198478023Y-118267636D01*
X198593980Y-118205656D01*
X198660960Y-117965565D01*
X197875000Y-117179605D01*
X197089040Y-117965565D01*
X197156020Y-118205656D01*
X197291760Y-118269485D01*
X197213273Y-118301995D01*
X196984465Y-118454880D01*
X196789880Y-118649465D01*
X196636995Y-118878273D01*
X196531686Y-119132510D01*
X196478000Y-119402408D01*
X196478000Y-119677592D01*
X196531686Y-119947490D01*
X196636995Y-120201727D01*
X196789880Y-120430535D01*
X196984465Y-120625120D01*
X197213273Y-120778005D01*
X197290515Y-120810000D01*
X197213273Y-120841995D01*
X196984465Y-120994880D01*
X196789880Y-121189465D01*
X196636995Y-121418273D01*
X196531686Y-121672510D01*
X196478000Y-121942408D01*
X196478000Y-122217592D01*
X196531686Y-122487490D01*
X196636995Y-122741727D01*
X196789880Y-122970535D01*
X196984465Y-123165120D01*
X197213273Y-123318005D01*
X197467510Y-123423314D01*
X197737408Y-123477000D01*
X198012592Y-123477000D01*
X198282490Y-123423314D01*
X198536727Y-123318005D01*
X198765535Y-123165120D01*
X198960120Y-122970535D01*
X199113005Y-122741727D01*
X199215001Y-122495489D01*
X199215001Y-128314473D01*
X191751050Y-128308728D01*
X191789000Y-128117939D01*
X191789000Y-127914061D01*
X191749226Y-127714102D01*
X191671205Y-127525744D01*
X191589000Y-127402715D01*
X191589000Y-117072017D01*
X196473090Y-117072017D01*
X196514078Y-117344133D01*
X196607364Y-117603023D01*
X196669344Y-117718980D01*
X196909435Y-117785960D01*
X197695395Y-117000000D01*
X196909435Y-116214040D01*
X196669344Y-116281020D01*
X196552244Y-116530048D01*
X196485977Y-116797135D01*
X196473090Y-117072017D01*
X191589000Y-117072017D01*
X191589000Y-116881007D01*
X191593039Y-116839999D01*
X191589000Y-116798991D01*
X191589000Y-116798981D01*
X191576918Y-116676311D01*
X191529172Y-116518913D01*
X191451636Y-116373854D01*
X191347291Y-116246709D01*
X191315428Y-116220560D01*
X191129303Y-116034435D01*
X197089040Y-116034435D01*
X197875000Y-116820395D01*
X198660960Y-116034435D01*
X198593980Y-115794344D01*
X198344952Y-115677244D01*
X198077865Y-115610977D01*
X197802983Y-115598090D01*
X197530867Y-115639078D01*
X197271977Y-115732364D01*
X197156020Y-115794344D01*
X197089040Y-116034435D01*
X191129303Y-116034435D01*
X188060433Y-112965565D01*
X197089040Y-112965565D01*
X197156020Y-113205656D01*
X197405048Y-113322756D01*
X197672135Y-113389023D01*
X197947017Y-113401910D01*
X198219133Y-113360922D01*
X198478023Y-113267636D01*
X198593980Y-113205656D01*
X198660960Y-112965565D01*
X197875000Y-112179605D01*
X197089040Y-112965565D01*
X188060433Y-112965565D01*
X187883446Y-112788579D01*
X187857291Y-112756709D01*
X187730146Y-112652364D01*
X187585087Y-112574828D01*
X187427689Y-112527082D01*
X187305019Y-112515000D01*
X187305018Y-112515000D01*
X187264000Y-112510960D01*
X187222982Y-112515000D01*
X186899769Y-112515000D01*
X186922918Y-112438689D01*
X186935000Y-112316019D01*
X186935000Y-112316018D01*
X186939040Y-112275000D01*
X186935000Y-112233982D01*
X186935000Y-112072017D01*
X196473090Y-112072017D01*
X196514078Y-112344133D01*
X196607364Y-112603023D01*
X196669344Y-112718980D01*
X196909435Y-112785960D01*
X197695395Y-112000000D01*
X196909435Y-111214040D01*
X196669344Y-111281020D01*
X196552244Y-111530048D01*
X196485977Y-111797135D01*
X196473090Y-112072017D01*
X186935000Y-112072017D01*
X186935000Y-111034435D01*
X197089040Y-111034435D01*
X197875000Y-111820395D01*
X198660960Y-111034435D01*
X198593980Y-110794344D01*
X198344952Y-110677244D01*
X198077865Y-110610977D01*
X197802983Y-110598090D01*
X197530867Y-110639078D01*
X197271977Y-110732364D01*
X197156020Y-110794344D01*
X197089040Y-111034435D01*
X186935000Y-111034435D01*
X186935000Y-107597867D01*
X189372559Y-110035427D01*
X189398709Y-110067291D01*
X189525854Y-110171636D01*
X189670913Y-110249172D01*
X189828311Y-110296918D01*
X189991999Y-110313040D01*
X190033018Y-110309000D01*
X195359982Y-110309000D01*
X195401000Y-110313040D01*
X195442018Y-110309000D01*
X195442019Y-110309000D01*
X195564689Y-110296918D01*
X195722087Y-110249172D01*
X195867146Y-110171636D01*
X195994291Y-110067291D01*
X196020446Y-110035421D01*
X197671898Y-108383969D01*
X197737408Y-108397000D01*
X198012592Y-108397000D01*
X198282490Y-108343314D01*
X198536727Y-108238005D01*
X198765535Y-108085120D01*
X198960120Y-107890535D01*
X199113005Y-107661727D01*
X199215000Y-107415490D01*
X199215000Y-111597805D01*
%TA.AperFunction,Conductor*%
D30*
G36*
X199215000Y-111597805D02*
G01*
X199142636Y-111396977D01*
X199080656Y-111281020D01*
X198840565Y-111214040D01*
X198054605Y-112000000D01*
X198840565Y-112785960D01*
X199080656Y-112718980D01*
X199197756Y-112469952D01*
X199215000Y-112400449D01*
X199215001Y-116597805D01*
X199142636Y-116396977D01*
X199080656Y-116281020D01*
X198840565Y-116214040D01*
X198054605Y-117000000D01*
X198840565Y-117785960D01*
X199080656Y-117718980D01*
X199197756Y-117469952D01*
X199215001Y-117400448D01*
X199215001Y-119124511D01*
X199113005Y-118878273D01*
X198960120Y-118649465D01*
X198765535Y-118454880D01*
X198536727Y-118301995D01*
X198465057Y-118272308D01*
X198478023Y-118267636D01*
X198593980Y-118205656D01*
X198660960Y-117965565D01*
X197875000Y-117179605D01*
X197089040Y-117965565D01*
X197156020Y-118205656D01*
X197291760Y-118269485D01*
X197213273Y-118301995D01*
X196984465Y-118454880D01*
X196789880Y-118649465D01*
X196636995Y-118878273D01*
X196531686Y-119132510D01*
X196478000Y-119402408D01*
X196478000Y-119677592D01*
X196531686Y-119947490D01*
X196636995Y-120201727D01*
X196789880Y-120430535D01*
X196984465Y-120625120D01*
X197213273Y-120778005D01*
X197290515Y-120810000D01*
X197213273Y-120841995D01*
X196984465Y-120994880D01*
X196789880Y-121189465D01*
X196636995Y-121418273D01*
X196531686Y-121672510D01*
X196478000Y-121942408D01*
X196478000Y-122217592D01*
X196531686Y-122487490D01*
X196636995Y-122741727D01*
X196789880Y-122970535D01*
X196984465Y-123165120D01*
X197213273Y-123318005D01*
X197467510Y-123423314D01*
X197737408Y-123477000D01*
X198012592Y-123477000D01*
X198282490Y-123423314D01*
X198536727Y-123318005D01*
X198765535Y-123165120D01*
X198960120Y-122970535D01*
X199113005Y-122741727D01*
X199215001Y-122495489D01*
X199215001Y-128314473D01*
X191751050Y-128308728D01*
X191789000Y-128117939D01*
X191789000Y-127914061D01*
X191749226Y-127714102D01*
X191671205Y-127525744D01*
X191589000Y-127402715D01*
X191589000Y-117072017D01*
X196473090Y-117072017D01*
X196514078Y-117344133D01*
X196607364Y-117603023D01*
X196669344Y-117718980D01*
X196909435Y-117785960D01*
X197695395Y-117000000D01*
X196909435Y-116214040D01*
X196669344Y-116281020D01*
X196552244Y-116530048D01*
X196485977Y-116797135D01*
X196473090Y-117072017D01*
X191589000Y-117072017D01*
X191589000Y-116881007D01*
X191593039Y-116839999D01*
X191589000Y-116798991D01*
X191589000Y-116798981D01*
X191576918Y-116676311D01*
X191529172Y-116518913D01*
X191451636Y-116373854D01*
X191347291Y-116246709D01*
X191315428Y-116220560D01*
X191129303Y-116034435D01*
X197089040Y-116034435D01*
X197875000Y-116820395D01*
X198660960Y-116034435D01*
X198593980Y-115794344D01*
X198344952Y-115677244D01*
X198077865Y-115610977D01*
X197802983Y-115598090D01*
X197530867Y-115639078D01*
X197271977Y-115732364D01*
X197156020Y-115794344D01*
X197089040Y-116034435D01*
X191129303Y-116034435D01*
X188060433Y-112965565D01*
X197089040Y-112965565D01*
X197156020Y-113205656D01*
X197405048Y-113322756D01*
X197672135Y-113389023D01*
X197947017Y-113401910D01*
X198219133Y-113360922D01*
X198478023Y-113267636D01*
X198593980Y-113205656D01*
X198660960Y-112965565D01*
X197875000Y-112179605D01*
X197089040Y-112965565D01*
X188060433Y-112965565D01*
X187883446Y-112788579D01*
X187857291Y-112756709D01*
X187730146Y-112652364D01*
X187585087Y-112574828D01*
X187427689Y-112527082D01*
X187305019Y-112515000D01*
X187305018Y-112515000D01*
X187264000Y-112510960D01*
X187222982Y-112515000D01*
X186899769Y-112515000D01*
X186922918Y-112438689D01*
X186935000Y-112316019D01*
X186935000Y-112316018D01*
X186939040Y-112275000D01*
X186935000Y-112233982D01*
X186935000Y-112072017D01*
X196473090Y-112072017D01*
X196514078Y-112344133D01*
X196607364Y-112603023D01*
X196669344Y-112718980D01*
X196909435Y-112785960D01*
X197695395Y-112000000D01*
X196909435Y-111214040D01*
X196669344Y-111281020D01*
X196552244Y-111530048D01*
X196485977Y-111797135D01*
X196473090Y-112072017D01*
X186935000Y-112072017D01*
X186935000Y-111034435D01*
X197089040Y-111034435D01*
X197875000Y-111820395D01*
X198660960Y-111034435D01*
X198593980Y-110794344D01*
X198344952Y-110677244D01*
X198077865Y-110610977D01*
X197802983Y-110598090D01*
X197530867Y-110639078D01*
X197271977Y-110732364D01*
X197156020Y-110794344D01*
X197089040Y-111034435D01*
X186935000Y-111034435D01*
X186935000Y-107597867D01*
X189372559Y-110035427D01*
X189398709Y-110067291D01*
X189525854Y-110171636D01*
X189670913Y-110249172D01*
X189828311Y-110296918D01*
X189991999Y-110313040D01*
X190033018Y-110309000D01*
X195359982Y-110309000D01*
X195401000Y-110313040D01*
X195442018Y-110309000D01*
X195442019Y-110309000D01*
X195564689Y-110296918D01*
X195722087Y-110249172D01*
X195867146Y-110171636D01*
X195994291Y-110067291D01*
X196020446Y-110035421D01*
X197671898Y-108383969D01*
X197737408Y-108397000D01*
X198012592Y-108397000D01*
X198282490Y-108343314D01*
X198536727Y-108238005D01*
X198765535Y-108085120D01*
X198960120Y-107890535D01*
X199113005Y-107661727D01*
X199215000Y-107415490D01*
X199215000Y-111597805D01*
G37*
%TD.AperFunction*%
D29*
X164319002Y-101066197D02*
X164289999Y-101089999D01*
X164244840Y-101145026D01*
X164195026Y-101205724D01*
X164132743Y-101322246D01*
X164124454Y-101337754D01*
X164080997Y-101481015D01*
X164070000Y-101592668D01*
X164070000Y-101592678D01*
X164066324Y-101630000D01*
X164070000Y-101667323D01*
X164070000Y-101976289D01*
X164026063Y-102020226D01*
X163912795Y-102189744D01*
X163834774Y-102378102D01*
X163795000Y-102578061D01*
X163795000Y-102781939D01*
X163826824Y-102941928D01*
X162730000Y-102941928D01*
X162605518Y-102954188D01*
X162485820Y-102990498D01*
X162375506Y-103049463D01*
X162278815Y-103128815D01*
X162199463Y-103225506D01*
X162140498Y-103335820D01*
X162104188Y-103455518D01*
X162091928Y-103580000D01*
X162091928Y-108480000D01*
X162104188Y-108604482D01*
X162140498Y-108724180D01*
X162199463Y-108834494D01*
X162278815Y-108931185D01*
X162375506Y-109010537D01*
X162485820Y-109069502D01*
X162605518Y-109105812D01*
X162730000Y-109118072D01*
X167337203Y-109118072D01*
X167955563Y-109736432D01*
X167981709Y-109768291D01*
X168013568Y-109794437D01*
X168013570Y-109794439D01*
X168014360Y-109795087D01*
X168108854Y-109872636D01*
X168253913Y-109950172D01*
X168411311Y-109997918D01*
X168533981Y-110010000D01*
X168533982Y-110010000D01*
X168575000Y-110014040D01*
X168616018Y-110010000D01*
X174895928Y-110010000D01*
X174895928Y-110075000D01*
X174908188Y-110199482D01*
X174944498Y-110319180D01*
X175003463Y-110429494D01*
X175082815Y-110526185D01*
X175179506Y-110605537D01*
X175289820Y-110664502D01*
X175409518Y-110700812D01*
X175534000Y-110713072D01*
X176482204Y-110713072D01*
X177232139Y-111463008D01*
X177060750Y-111465000D01*
X176902000Y-111623750D01*
X176902000Y-114273000D01*
X176922000Y-114273000D01*
X176922000Y-114527000D01*
X176902000Y-114527000D01*
X176902000Y-117176250D01*
X177060750Y-117335000D01*
X177325000Y-117338072D01*
X177449482Y-117325812D01*
X177569180Y-117289502D01*
X177625000Y-117259665D01*
X177680820Y-117289502D01*
X177800518Y-117325812D01*
X177925000Y-117338072D01*
X179025000Y-117338072D01*
X179149482Y-117325812D01*
X179269180Y-117289502D01*
X179325000Y-117259665D01*
X179380820Y-117289502D01*
X179500518Y-117325812D01*
X179625000Y-117338072D01*
X180725000Y-117338072D01*
X180849482Y-117325812D01*
X180969180Y-117289502D01*
X181079494Y-117230537D01*
X181176185Y-117151185D01*
X181255537Y-117054494D01*
X181314502Y-116944180D01*
X181350812Y-116824482D01*
X181363072Y-116700000D01*
X181363072Y-115518939D01*
X183486928Y-117642796D01*
X183486928Y-118600000D01*
X183499188Y-118724482D01*
X183535498Y-118844180D01*
X183594463Y-118954494D01*
X183673815Y-119051185D01*
X183770506Y-119130537D01*
X183880820Y-119189502D01*
X184000518Y-119225812D01*
X184125000Y-119238072D01*
X185732205Y-119238072D01*
X186795001Y-120300869D01*
X186795000Y-121615375D01*
X186705518Y-121624188D01*
X186585820Y-121660498D01*
X186475506Y-121719463D01*
X186378815Y-121798815D01*
X186299463Y-121895506D01*
X186240498Y-122005820D01*
X186204188Y-122125518D01*
X186191928Y-122250000D01*
X186191928Y-123850000D01*
X186204188Y-123974482D01*
X186240498Y-124094180D01*
X186299463Y-124204494D01*
X186378815Y-124301185D01*
X186475506Y-124380537D01*
X186585820Y-124439502D01*
X186705518Y-124475812D01*
X186830000Y-124488072D01*
X186837215Y-124488072D01*
X186816903Y-124557298D01*
X187630000Y-125370395D01*
X188443097Y-124557298D01*
X188422785Y-124488072D01*
X188430000Y-124488072D01*
X188554482Y-124475812D01*
X188674180Y-124439502D01*
X188784494Y-124380537D01*
X188881185Y-124301185D01*
X188960537Y-124204494D01*
X189019502Y-124094180D01*
X189055812Y-123974482D01*
X189068072Y-123850000D01*
X189068072Y-122250000D01*
X189055812Y-122125518D01*
X189019502Y-122005820D01*
X188960537Y-121895506D01*
X188881185Y-121798815D01*
X188784494Y-121719463D01*
X188674180Y-121660498D01*
X188554482Y-121624188D01*
X188465000Y-121615375D01*
X188465000Y-119996007D01*
X188469039Y-119954999D01*
X188465000Y-119913991D01*
X188465000Y-119913981D01*
X188452918Y-119791311D01*
X188405172Y-119633913D01*
X188327636Y-119488854D01*
X188223291Y-119361709D01*
X188191427Y-119335559D01*
X186563072Y-117707205D01*
X186563072Y-116100000D01*
X186550812Y-115975518D01*
X186514502Y-115855820D01*
X186455537Y-115745506D01*
X186376185Y-115648815D01*
X186279494Y-115569463D01*
X186169180Y-115510498D01*
X186049482Y-115474188D01*
X185925000Y-115461928D01*
X184125000Y-115461928D01*
X184000518Y-115474188D01*
X183880820Y-115510498D01*
X183773650Y-115567782D01*
X182044446Y-113838579D01*
X182018291Y-113806709D01*
X181891146Y-113702364D01*
X181746087Y-113624828D01*
X181588689Y-113577082D01*
X181466019Y-113565000D01*
X181466018Y-113565000D01*
X181425000Y-113560960D01*
X181383982Y-113565000D01*
X181363072Y-113565000D01*
X181363072Y-112100000D01*
X181350812Y-111975518D01*
X181314502Y-111855820D01*
X181255537Y-111745506D01*
X181176185Y-111648815D01*
X181079494Y-111569463D01*
X180969180Y-111510498D01*
X180849482Y-111474188D01*
X180725000Y-111461928D01*
X179625000Y-111461928D01*
X179500518Y-111474188D01*
X179380820Y-111510498D01*
X179325000Y-111540335D01*
X179313153Y-111534003D01*
X179314040Y-111525000D01*
X179297918Y-111361311D01*
X179250172Y-111203913D01*
X179172636Y-111058854D01*
X179094439Y-110963570D01*
X179094437Y-110963568D01*
X179068291Y-110931709D01*
X179036432Y-110905563D01*
X178562655Y-110431787D01*
X178564537Y-110429494D01*
X178623502Y-110319180D01*
X178659812Y-110199482D01*
X178672072Y-110075000D01*
X178895928Y-110075000D01*
X178908188Y-110199482D01*
X178944498Y-110319180D01*
X179003463Y-110429494D01*
X179082815Y-110526185D01*
X179179506Y-110605537D01*
X179289820Y-110664502D01*
X179409518Y-110700812D01*
X179534000Y-110713072D01*
X180498250Y-110710000D01*
X180657000Y-110551250D01*
X180657000Y-109302000D01*
X180911000Y-109302000D01*
X180911000Y-110551250D01*
X181069750Y-110710000D01*
X182034000Y-110713072D01*
X182158482Y-110700812D01*
X182278180Y-110664502D01*
X182388494Y-110605537D01*
X182485185Y-110526185D01*
X182564537Y-110429494D01*
X182623502Y-110319180D01*
X182659812Y-110199482D01*
X182672072Y-110075000D01*
X182669000Y-109460750D01*
X182510250Y-109302000D01*
X180911000Y-109302000D01*
X180657000Y-109302000D01*
X179057750Y-109302000D01*
X178899000Y-109460750D01*
X178895928Y-110075000D01*
X178672072Y-110075000D01*
X178672072Y-108275000D01*
X178895928Y-108275000D01*
X178899000Y-108889250D01*
X179057750Y-109048000D01*
X180657000Y-109048000D01*
X180657000Y-107798750D01*
X180911000Y-107798750D01*
X180911000Y-109048000D01*
X182510250Y-109048000D01*
X182669000Y-108889250D01*
X182672072Y-108275000D01*
X182659812Y-108150518D01*
X182623502Y-108030820D01*
X182564537Y-107920506D01*
X182485185Y-107823815D01*
X182388494Y-107744463D01*
X182278180Y-107685498D01*
X182158482Y-107649188D01*
X182034000Y-107636928D01*
X181069750Y-107640000D01*
X180911000Y-107798750D01*
X180657000Y-107798750D01*
X180498250Y-107640000D01*
X179534000Y-107636928D01*
X179409518Y-107649188D01*
X179289820Y-107685498D01*
X179179506Y-107744463D01*
X179082815Y-107823815D01*
X179003463Y-107920506D01*
X178944498Y-108030820D01*
X178908188Y-108150518D01*
X178895928Y-108275000D01*
X178672072Y-108275000D01*
X178659812Y-108150518D01*
X178623502Y-108030820D01*
X178564537Y-107920506D01*
X178485185Y-107823815D01*
X178388494Y-107744463D01*
X178278180Y-107685498D01*
X178158482Y-107649188D01*
X178034000Y-107636928D01*
X175534000Y-107636928D01*
X175409518Y-107649188D01*
X175289820Y-107685498D01*
X175179506Y-107744463D01*
X175082815Y-107823815D01*
X175003463Y-107920506D01*
X174944498Y-108030820D01*
X174908188Y-108150518D01*
X174895928Y-108275000D01*
X174895928Y-108340000D01*
X168920869Y-108340000D01*
X168768072Y-108187203D01*
X168768072Y-103580000D01*
X168755812Y-103455518D01*
X168719502Y-103335820D01*
X168660537Y-103225506D01*
X168581185Y-103128815D01*
X168484494Y-103049463D01*
X168374180Y-102990498D01*
X168254482Y-102954188D01*
X168130000Y-102941928D01*
X167298144Y-102941928D01*
X167430256Y-102887205D01*
X167599774Y-102773937D01*
X167643711Y-102730000D01*
X173283199Y-102730000D01*
X173641928Y-103088730D01*
X173641928Y-103974000D01*
X173654188Y-104098482D01*
X173690498Y-104218180D01*
X173749463Y-104328494D01*
X173828815Y-104425185D01*
X173925506Y-104504537D01*
X174035820Y-104563502D01*
X174155518Y-104599812D01*
X174280000Y-104612072D01*
X175980000Y-104612072D01*
X176104482Y-104599812D01*
X176224180Y-104563502D01*
X176334494Y-104504537D01*
X176431185Y-104425185D01*
X176510537Y-104328494D01*
X176569502Y-104218180D01*
X176591513Y-104145620D01*
X176723368Y-104277475D01*
X176966589Y-104439990D01*
X177236842Y-104551932D01*
X177523740Y-104609000D01*
X177816260Y-104609000D01*
X178103158Y-104551932D01*
X178373411Y-104439990D01*
X178616632Y-104277475D01*
X178823475Y-104070632D01*
X178945195Y-103888466D01*
X179014822Y-104005355D01*
X179209731Y-104221588D01*
X179443080Y-104395641D01*
X179705901Y-104520825D01*
X179853110Y-104565476D01*
X180083000Y-104444155D01*
X180083000Y-103251000D01*
X180337000Y-103251000D01*
X180337000Y-104444155D01*
X180566890Y-104565476D01*
X180714099Y-104520825D01*
X180976920Y-104395641D01*
X181210269Y-104221588D01*
X181405178Y-104005355D01*
X181554157Y-103755252D01*
X181651481Y-103480891D01*
X181530814Y-103251000D01*
X180337000Y-103251000D01*
X180083000Y-103251000D01*
X180063000Y-103251000D01*
X180063000Y-102997000D01*
X180083000Y-102997000D01*
X180083000Y-101803845D01*
X180337000Y-101803845D01*
X180337000Y-102997000D01*
X181530814Y-102997000D01*
X181651481Y-102767109D01*
X181554157Y-102492748D01*
X181405178Y-102242645D01*
X181210269Y-102026412D01*
X180976920Y-101852359D01*
X180714099Y-101727175D01*
X180566890Y-101682524D01*
X180337000Y-101803845D01*
X180083000Y-101803845D01*
X179853110Y-101682524D01*
X179705901Y-101727175D01*
X179443080Y-101852359D01*
X179209731Y-102026412D01*
X179014822Y-102242645D01*
X178945195Y-102359534D01*
X178823475Y-102177368D01*
X178616632Y-101970525D01*
X178430000Y-101845822D01*
X178430000Y-101817322D01*
X178433676Y-101779999D01*
X178430000Y-101742676D01*
X178430000Y-101742667D01*
X178419003Y-101631014D01*
X178375546Y-101487753D01*
X178304974Y-101355724D01*
X178210001Y-101239999D01*
X178181002Y-101216201D01*
X177624801Y-100660000D01*
X199215000Y-100660000D01*
X199215000Y-106584510D01*
X199113005Y-106338273D01*
X198960120Y-106109465D01*
X198765535Y-105914880D01*
X198536727Y-105761995D01*
X198282490Y-105656686D01*
X198012592Y-105603000D01*
X197737408Y-105603000D01*
X197467510Y-105656686D01*
X197213273Y-105761995D01*
X196984465Y-105914880D01*
X196789880Y-106109465D01*
X196636995Y-106338273D01*
X196531686Y-106592510D01*
X196478000Y-106862408D01*
X196478000Y-107137592D01*
X196491031Y-107203102D01*
X195055133Y-108639000D01*
X190337868Y-108639000D01*
X188368868Y-106670000D01*
X189141928Y-106670000D01*
X189154188Y-106794482D01*
X189190498Y-106914180D01*
X189249463Y-107024494D01*
X189328815Y-107121185D01*
X189425506Y-107200537D01*
X189535820Y-107259502D01*
X189655518Y-107295812D01*
X189780000Y-107308072D01*
X190844250Y-107305000D01*
X191003000Y-107146250D01*
X191003000Y-105447000D01*
X191257000Y-105447000D01*
X191257000Y-107146250D01*
X191415750Y-107305000D01*
X192480000Y-107308072D01*
X192604482Y-107295812D01*
X192724180Y-107259502D01*
X192834494Y-107200537D01*
X192931185Y-107121185D01*
X193010537Y-107024494D01*
X193069502Y-106914180D01*
X193105812Y-106794482D01*
X193118072Y-106670000D01*
X193115000Y-105605750D01*
X192956250Y-105447000D01*
X191257000Y-105447000D01*
X191003000Y-105447000D01*
X189303750Y-105447000D01*
X189145000Y-105605750D01*
X189141928Y-106670000D01*
X188368868Y-106670000D01*
X187909597Y-106210730D01*
X188038718Y-105899003D01*
X188115000Y-105515505D01*
X188115000Y-105124495D01*
X188038718Y-104740997D01*
X187889085Y-104379750D01*
X187671851Y-104054636D01*
X187587215Y-103970000D01*
X189141928Y-103970000D01*
X189145000Y-105034250D01*
X189303750Y-105193000D01*
X191003000Y-105193000D01*
X191003000Y-103493750D01*
X191257000Y-103493750D01*
X191257000Y-105193000D01*
X192956250Y-105193000D01*
X193115000Y-105034250D01*
X193118072Y-103970000D01*
X193105812Y-103845518D01*
X193069502Y-103725820D01*
X193010537Y-103615506D01*
X192931185Y-103518815D01*
X192834494Y-103439463D01*
X192724180Y-103380498D01*
X192604482Y-103344188D01*
X192480000Y-103331928D01*
X191415750Y-103335000D01*
X191257000Y-103493750D01*
X191003000Y-103493750D01*
X190844250Y-103335000D01*
X189780000Y-103331928D01*
X189655518Y-103344188D01*
X189535820Y-103380498D01*
X189425506Y-103439463D01*
X189328815Y-103518815D01*
X189249463Y-103615506D01*
X189190498Y-103725820D01*
X189154188Y-103845518D01*
X189141928Y-103970000D01*
X187587215Y-103970000D01*
X187395364Y-103778149D01*
X187070250Y-103560915D01*
X186709003Y-103411282D01*
X186325505Y-103335000D01*
X185934495Y-103335000D01*
X185550997Y-103411282D01*
X185189750Y-103560915D01*
X184864636Y-103778149D01*
X184588149Y-104054636D01*
X184370915Y-104379750D01*
X184221282Y-104740997D01*
X184145000Y-105124495D01*
X184145000Y-105515505D01*
X184221282Y-105899003D01*
X184370915Y-106260250D01*
X184588149Y-106585364D01*
X184864636Y-106861851D01*
X185189750Y-107079085D01*
X185265000Y-107110255D01*
X185265001Y-111461928D01*
X184125000Y-111461928D01*
X184000518Y-111474188D01*
X183880820Y-111510498D01*
X183770506Y-111569463D01*
X183673815Y-111648815D01*
X183594463Y-111745506D01*
X183535498Y-111855820D01*
X183499188Y-111975518D01*
X183486928Y-112100000D01*
X183486928Y-114600000D01*
X183499188Y-114724482D01*
X183535498Y-114844180D01*
X183594463Y-114954494D01*
X183673815Y-115051185D01*
X183770506Y-115130537D01*
X183880820Y-115189502D01*
X184000518Y-115225812D01*
X184125000Y-115238072D01*
X185925000Y-115238072D01*
X186049482Y-115225812D01*
X186169180Y-115189502D01*
X186279494Y-115130537D01*
X186376185Y-115051185D01*
X186455537Y-114954494D01*
X186514502Y-114844180D01*
X186550812Y-114724482D01*
X186563072Y-114600000D01*
X186563072Y-114185000D01*
X186918133Y-114185000D01*
X189919000Y-117185868D01*
X189919001Y-127402714D01*
X189836795Y-127525744D01*
X189758774Y-127714102D01*
X189719000Y-127914061D01*
X189719000Y-128117939D01*
X189756645Y-128307193D01*
X182807966Y-128301845D01*
X182813072Y-128250000D01*
X182811885Y-126542702D01*
X186816903Y-126542702D01*
X186888486Y-126786671D01*
X187143996Y-126907571D01*
X187418184Y-126976300D01*
X187700512Y-126990217D01*
X187980130Y-126948787D01*
X188246292Y-126853603D01*
X188371514Y-126786671D01*
X188443097Y-126542702D01*
X187630000Y-125729605D01*
X186816903Y-126542702D01*
X182811885Y-126542702D01*
X182811243Y-125620512D01*
X186189783Y-125620512D01*
X186231213Y-125900130D01*
X186326397Y-126166292D01*
X186393329Y-126291514D01*
X186637298Y-126363097D01*
X187450395Y-125550000D01*
X187809605Y-125550000D01*
X188622702Y-126363097D01*
X188866671Y-126291514D01*
X188987571Y-126036004D01*
X189056300Y-125761816D01*
X189070217Y-125479488D01*
X189028787Y-125199870D01*
X188933603Y-124933708D01*
X188866671Y-124808486D01*
X188622702Y-124736903D01*
X187809605Y-125550000D01*
X187450395Y-125550000D01*
X186637298Y-124736903D01*
X186393329Y-124808486D01*
X186272429Y-125063996D01*
X186203700Y-125338184D01*
X186189783Y-125620512D01*
X182811243Y-125620512D01*
X182810000Y-123835750D01*
X182651250Y-123677000D01*
X176902000Y-123677000D01*
X176902000Y-123697000D01*
X176648000Y-123697000D01*
X176648000Y-123677000D01*
X170898750Y-123677000D01*
X170740000Y-123835750D01*
X170736928Y-128250000D01*
X170741119Y-128292557D01*
X163555757Y-128287026D01*
X163555344Y-128286986D01*
X163522170Y-128287001D01*
X163488881Y-128286975D01*
X163488467Y-128287015D01*
X162403391Y-128287494D01*
X162510001Y-128200001D01*
X162533803Y-128170998D01*
X163371003Y-127333799D01*
X163400001Y-127310001D01*
X163460959Y-127235724D01*
X163494974Y-127194277D01*
X163565546Y-127062247D01*
X163576450Y-127026300D01*
X163609003Y-126918986D01*
X163620000Y-126807333D01*
X163620000Y-126807324D01*
X163623676Y-126770001D01*
X163620000Y-126732678D01*
X163620000Y-126592702D01*
X165961903Y-126592702D01*
X166033486Y-126836671D01*
X166288996Y-126957571D01*
X166563184Y-127026300D01*
X166845512Y-127040217D01*
X167125130Y-126998787D01*
X167391292Y-126903603D01*
X167516514Y-126836671D01*
X167588097Y-126592702D01*
X166775000Y-125779605D01*
X165961903Y-126592702D01*
X163620000Y-126592702D01*
X163620000Y-125854801D01*
X163804289Y-125670512D01*
X165334783Y-125670512D01*
X165376213Y-125950130D01*
X165471397Y-126216292D01*
X165538329Y-126341514D01*
X165782298Y-126413097D01*
X166595395Y-125600000D01*
X166954605Y-125600000D01*
X167767702Y-126413097D01*
X168011671Y-126341514D01*
X168132571Y-126086004D01*
X168201300Y-125811816D01*
X168215217Y-125529488D01*
X168173787Y-125249870D01*
X168078603Y-124983708D01*
X168011671Y-124858486D01*
X167767702Y-124786903D01*
X166954605Y-125600000D01*
X166595395Y-125600000D01*
X165782298Y-124786903D01*
X165538329Y-124858486D01*
X165417429Y-125113996D01*
X165348700Y-125388184D01*
X165334783Y-125670512D01*
X163804289Y-125670512D01*
X165372726Y-124102076D01*
X165385498Y-124144180D01*
X165444463Y-124254494D01*
X165523815Y-124351185D01*
X165620506Y-124430537D01*
X165730820Y-124489502D01*
X165850518Y-124525812D01*
X165975000Y-124538072D01*
X165982215Y-124538072D01*
X165961903Y-124607298D01*
X166775000Y-125420395D01*
X167588097Y-124607298D01*
X167567785Y-124538072D01*
X167575000Y-124538072D01*
X167699482Y-124525812D01*
X167819180Y-124489502D01*
X167929494Y-124430537D01*
X168026185Y-124351185D01*
X168105537Y-124254494D01*
X168164502Y-124144180D01*
X168200812Y-124024482D01*
X168213072Y-123900000D01*
X168213072Y-122300000D01*
X168200812Y-122175518D01*
X168164502Y-122055820D01*
X168105537Y-121945506D01*
X168026185Y-121848815D01*
X167929494Y-121769463D01*
X167819180Y-121710498D01*
X167699482Y-121674188D01*
X167575000Y-121661928D01*
X167535000Y-121661928D01*
X167535000Y-119722322D01*
X167538676Y-119684999D01*
X167535000Y-119647676D01*
X167535000Y-119647667D01*
X167524003Y-119536014D01*
X167480546Y-119392753D01*
X167409974Y-119260724D01*
X167315001Y-119144999D01*
X167286004Y-119121202D01*
X167014802Y-118850000D01*
X170736928Y-118850000D01*
X170740000Y-123264250D01*
X170898750Y-123423000D01*
X176648000Y-123423000D01*
X176648000Y-118373750D01*
X176902000Y-118373750D01*
X176902000Y-123423000D01*
X182651250Y-123423000D01*
X182810000Y-123264250D01*
X182813072Y-118850000D01*
X182800812Y-118725518D01*
X182764502Y-118605820D01*
X182705537Y-118495506D01*
X182626185Y-118398815D01*
X182529494Y-118319463D01*
X182419180Y-118260498D01*
X182299482Y-118224188D01*
X182175000Y-118211928D01*
X177060750Y-118215000D01*
X176902000Y-118373750D01*
X176648000Y-118373750D01*
X176489250Y-118215000D01*
X171375000Y-118211928D01*
X171250518Y-118224188D01*
X171130820Y-118260498D01*
X171020506Y-118319463D01*
X170923815Y-118398815D01*
X170844463Y-118495506D01*
X170785498Y-118605820D01*
X170749188Y-118725518D01*
X170736928Y-118850000D01*
X167014802Y-118850000D01*
X166190000Y-118025199D01*
X166190000Y-117018072D01*
X168130000Y-117018072D01*
X168254482Y-117005812D01*
X168374180Y-116969502D01*
X168484494Y-116910537D01*
X168581185Y-116831185D01*
X168660537Y-116734494D01*
X168678974Y-116700000D01*
X172186928Y-116700000D01*
X172199188Y-116824482D01*
X172235498Y-116944180D01*
X172294463Y-117054494D01*
X172373815Y-117151185D01*
X172470506Y-117230537D01*
X172580820Y-117289502D01*
X172700518Y-117325812D01*
X172825000Y-117338072D01*
X173089250Y-117335000D01*
X173248000Y-117176250D01*
X173248000Y-114527000D01*
X172348750Y-114527000D01*
X172190000Y-114685750D01*
X172186928Y-116700000D01*
X168678974Y-116700000D01*
X168719502Y-116624180D01*
X168755812Y-116504482D01*
X168768072Y-116380000D01*
X168768072Y-114690000D01*
X169407678Y-114690000D01*
X169445000Y-114693676D01*
X169482322Y-114690000D01*
X169482333Y-114690000D01*
X169593986Y-114679003D01*
X169737247Y-114635546D01*
X169869276Y-114564974D01*
X169985001Y-114470001D01*
X170008804Y-114440997D01*
X172187176Y-112262626D01*
X172190000Y-114114250D01*
X172348750Y-114273000D01*
X173248000Y-114273000D01*
X173248000Y-114253000D01*
X173502000Y-114253000D01*
X173502000Y-114273000D01*
X173522000Y-114273000D01*
X173522000Y-114527000D01*
X173502000Y-114527000D01*
X173502000Y-117176250D01*
X173660750Y-117335000D01*
X173925000Y-117338072D01*
X174049482Y-117325812D01*
X174169180Y-117289502D01*
X174225000Y-117259665D01*
X174280820Y-117289502D01*
X174400518Y-117325812D01*
X174525000Y-117338072D01*
X175625000Y-117338072D01*
X175749482Y-117325812D01*
X175869180Y-117289502D01*
X175925000Y-117259665D01*
X175980820Y-117289502D01*
X176100518Y-117325812D01*
X176225000Y-117338072D01*
X176489250Y-117335000D01*
X176648000Y-117176250D01*
X176648000Y-114527000D01*
X176628000Y-114527000D01*
X176628000Y-114273000D01*
X176648000Y-114273000D01*
X176648000Y-111623750D01*
X176489250Y-111465000D01*
X176225000Y-111461928D01*
X176100518Y-111474188D01*
X175980820Y-111510498D01*
X175925000Y-111540335D01*
X175869180Y-111510498D01*
X175828651Y-111498204D01*
X175824003Y-111451014D01*
X175780546Y-111307753D01*
X175709974Y-111175724D01*
X175615001Y-111059999D01*
X175586003Y-111036201D01*
X175463803Y-110914001D01*
X175440001Y-110884999D01*
X175324276Y-110790026D01*
X175192247Y-110719454D01*
X175048986Y-110675997D01*
X174937333Y-110665000D01*
X174937322Y-110665000D01*
X174900000Y-110661324D01*
X174862678Y-110665000D01*
X171987323Y-110665000D01*
X171950000Y-110661324D01*
X171912677Y-110665000D01*
X171912667Y-110665000D01*
X171801014Y-110675997D01*
X171678792Y-110713072D01*
X171657753Y-110719454D01*
X171525723Y-110790026D01*
X171447542Y-110854188D01*
X171409999Y-110884999D01*
X171386201Y-110913997D01*
X169130199Y-113170000D01*
X168768072Y-113170000D01*
X168768072Y-111480000D01*
X168755812Y-111355518D01*
X168719502Y-111235820D01*
X168660537Y-111125506D01*
X168581185Y-111028815D01*
X168484494Y-110949463D01*
X168374180Y-110890498D01*
X168254482Y-110854188D01*
X168130000Y-110841928D01*
X162730000Y-110841928D01*
X162605518Y-110854188D01*
X162485820Y-110890498D01*
X162375506Y-110949463D01*
X162278815Y-111028815D01*
X162199463Y-111125506D01*
X162140498Y-111235820D01*
X162104188Y-111355518D01*
X162091928Y-111480000D01*
X162091928Y-113170000D01*
X158954802Y-113170000D01*
X157088072Y-111303271D01*
X157088072Y-109680000D01*
X157112678Y-109680000D01*
X157150000Y-109683676D01*
X157187322Y-109680000D01*
X157187333Y-109680000D01*
X157298986Y-109669003D01*
X157442247Y-109625546D01*
X157574276Y-109554974D01*
X157690001Y-109460001D01*
X157713803Y-109430998D01*
X158421004Y-108723798D01*
X158450001Y-108700001D01*
X158544974Y-108584276D01*
X158615546Y-108452247D01*
X158659003Y-108308986D01*
X158670000Y-108197333D01*
X158670000Y-108197324D01*
X158673676Y-108160001D01*
X158670000Y-108122678D01*
X158670000Y-103043711D01*
X158713937Y-102999774D01*
X158827205Y-102830256D01*
X158905226Y-102641898D01*
X158945000Y-102441939D01*
X158945000Y-102238061D01*
X158905226Y-102038102D01*
X158827205Y-101849744D01*
X158713937Y-101680226D01*
X158569774Y-101536063D01*
X158400256Y-101422795D01*
X158211898Y-101344774D01*
X158011939Y-101305000D01*
X157808061Y-101305000D01*
X157608102Y-101344774D01*
X157419744Y-101422795D01*
X157250226Y-101536063D01*
X157106063Y-101680226D01*
X156992795Y-101849744D01*
X156914774Y-102038102D01*
X156875000Y-102238061D01*
X156875000Y-102441939D01*
X156914774Y-102641898D01*
X156992795Y-102830256D01*
X157106063Y-102999774D01*
X157150000Y-103043711D01*
X157150001Y-103220001D01*
X157150000Y-105967332D01*
X157150001Y-105967342D01*
X157150000Y-107845198D01*
X157088072Y-107907126D01*
X157088072Y-105640000D01*
X157075812Y-105515518D01*
X157039502Y-105395820D01*
X156980537Y-105285506D01*
X156901185Y-105188815D01*
X156804494Y-105109463D01*
X156694180Y-105050498D01*
X156574482Y-105014188D01*
X156450000Y-105001928D01*
X154906729Y-105001928D01*
X154895000Y-104990199D01*
X154895000Y-104928061D01*
X154855226Y-104728102D01*
X154777205Y-104539744D01*
X154663937Y-104370226D01*
X154519774Y-104226063D01*
X154350256Y-104112795D01*
X154161898Y-104034774D01*
X153961939Y-103995000D01*
X153758061Y-103995000D01*
X153558102Y-104034774D01*
X153369744Y-104112795D01*
X153200226Y-104226063D01*
X153056063Y-104370226D01*
X152942795Y-104539744D01*
X152864774Y-104728102D01*
X152825000Y-104928061D01*
X152825000Y-105131939D01*
X152864774Y-105331898D01*
X152942795Y-105520256D01*
X153056063Y-105689774D01*
X153200226Y-105833937D01*
X153369744Y-105947205D01*
X153558102Y-106025226D01*
X153758061Y-106065000D01*
X153820199Y-106065000D01*
X154011928Y-106256729D01*
X154011928Y-108140000D01*
X154013898Y-108160000D01*
X151283711Y-108160000D01*
X151239774Y-108116063D01*
X151178195Y-108074917D01*
X151546627Y-107770125D01*
X151588767Y-107727689D01*
X151631517Y-107685826D01*
X151637391Y-107678725D01*
X151945767Y-107300618D01*
X151978859Y-107250809D01*
X152012666Y-107201437D01*
X152017047Y-107193333D01*
X152017051Y-107193325D01*
X152246111Y-106762527D01*
X152268910Y-106707212D01*
X152292471Y-106652240D01*
X152295196Y-106643437D01*
X152436219Y-106176348D01*
X152447845Y-106117631D01*
X152460275Y-106059155D01*
X152461238Y-106049991D01*
X152508850Y-105564404D01*
X152508850Y-105564402D01*
X152512000Y-105532419D01*
X152512000Y-102532279D01*
X152550147Y-102143225D01*
X152653763Y-101800033D01*
X152822062Y-101483511D01*
X153048637Y-101205701D01*
X153324856Y-100977194D01*
X153640197Y-100806690D01*
X153982656Y-100700681D01*
X154369712Y-100660000D01*
X164725198Y-100660000D01*
X164319002Y-101066197D01*
%TA.AperFunction,Conductor*%
D30*
G36*
X164319002Y-101066197D02*
G01*
X164289999Y-101089999D01*
X164244840Y-101145026D01*
X164195026Y-101205724D01*
X164132743Y-101322246D01*
X164124454Y-101337754D01*
X164080997Y-101481015D01*
X164070000Y-101592668D01*
X164070000Y-101592678D01*
X164066324Y-101630000D01*
X164070000Y-101667323D01*
X164070000Y-101976289D01*
X164026063Y-102020226D01*
X163912795Y-102189744D01*
X163834774Y-102378102D01*
X163795000Y-102578061D01*
X163795000Y-102781939D01*
X163826824Y-102941928D01*
X162730000Y-102941928D01*
X162605518Y-102954188D01*
X162485820Y-102990498D01*
X162375506Y-103049463D01*
X162278815Y-103128815D01*
X162199463Y-103225506D01*
X162140498Y-103335820D01*
X162104188Y-103455518D01*
X162091928Y-103580000D01*
X162091928Y-108480000D01*
X162104188Y-108604482D01*
X162140498Y-108724180D01*
X162199463Y-108834494D01*
X162278815Y-108931185D01*
X162375506Y-109010537D01*
X162485820Y-109069502D01*
X162605518Y-109105812D01*
X162730000Y-109118072D01*
X167337203Y-109118072D01*
X167955563Y-109736432D01*
X167981709Y-109768291D01*
X168013568Y-109794437D01*
X168013570Y-109794439D01*
X168014360Y-109795087D01*
X168108854Y-109872636D01*
X168253913Y-109950172D01*
X168411311Y-109997918D01*
X168533981Y-110010000D01*
X168533982Y-110010000D01*
X168575000Y-110014040D01*
X168616018Y-110010000D01*
X174895928Y-110010000D01*
X174895928Y-110075000D01*
X174908188Y-110199482D01*
X174944498Y-110319180D01*
X175003463Y-110429494D01*
X175082815Y-110526185D01*
X175179506Y-110605537D01*
X175289820Y-110664502D01*
X175409518Y-110700812D01*
X175534000Y-110713072D01*
X176482204Y-110713072D01*
X177232139Y-111463008D01*
X177060750Y-111465000D01*
X176902000Y-111623750D01*
X176902000Y-114273000D01*
X176922000Y-114273000D01*
X176922000Y-114527000D01*
X176902000Y-114527000D01*
X176902000Y-117176250D01*
X177060750Y-117335000D01*
X177325000Y-117338072D01*
X177449482Y-117325812D01*
X177569180Y-117289502D01*
X177625000Y-117259665D01*
X177680820Y-117289502D01*
X177800518Y-117325812D01*
X177925000Y-117338072D01*
X179025000Y-117338072D01*
X179149482Y-117325812D01*
X179269180Y-117289502D01*
X179325000Y-117259665D01*
X179380820Y-117289502D01*
X179500518Y-117325812D01*
X179625000Y-117338072D01*
X180725000Y-117338072D01*
X180849482Y-117325812D01*
X180969180Y-117289502D01*
X181079494Y-117230537D01*
X181176185Y-117151185D01*
X181255537Y-117054494D01*
X181314502Y-116944180D01*
X181350812Y-116824482D01*
X181363072Y-116700000D01*
X181363072Y-115518939D01*
X183486928Y-117642796D01*
X183486928Y-118600000D01*
X183499188Y-118724482D01*
X183535498Y-118844180D01*
X183594463Y-118954494D01*
X183673815Y-119051185D01*
X183770506Y-119130537D01*
X183880820Y-119189502D01*
X184000518Y-119225812D01*
X184125000Y-119238072D01*
X185732205Y-119238072D01*
X186795001Y-120300869D01*
X186795000Y-121615375D01*
X186705518Y-121624188D01*
X186585820Y-121660498D01*
X186475506Y-121719463D01*
X186378815Y-121798815D01*
X186299463Y-121895506D01*
X186240498Y-122005820D01*
X186204188Y-122125518D01*
X186191928Y-122250000D01*
X186191928Y-123850000D01*
X186204188Y-123974482D01*
X186240498Y-124094180D01*
X186299463Y-124204494D01*
X186378815Y-124301185D01*
X186475506Y-124380537D01*
X186585820Y-124439502D01*
X186705518Y-124475812D01*
X186830000Y-124488072D01*
X186837215Y-124488072D01*
X186816903Y-124557298D01*
X187630000Y-125370395D01*
X188443097Y-124557298D01*
X188422785Y-124488072D01*
X188430000Y-124488072D01*
X188554482Y-124475812D01*
X188674180Y-124439502D01*
X188784494Y-124380537D01*
X188881185Y-124301185D01*
X188960537Y-124204494D01*
X189019502Y-124094180D01*
X189055812Y-123974482D01*
X189068072Y-123850000D01*
X189068072Y-122250000D01*
X189055812Y-122125518D01*
X189019502Y-122005820D01*
X188960537Y-121895506D01*
X188881185Y-121798815D01*
X188784494Y-121719463D01*
X188674180Y-121660498D01*
X188554482Y-121624188D01*
X188465000Y-121615375D01*
X188465000Y-119996007D01*
X188469039Y-119954999D01*
X188465000Y-119913991D01*
X188465000Y-119913981D01*
X188452918Y-119791311D01*
X188405172Y-119633913D01*
X188327636Y-119488854D01*
X188223291Y-119361709D01*
X188191427Y-119335559D01*
X186563072Y-117707205D01*
X186563072Y-116100000D01*
X186550812Y-115975518D01*
X186514502Y-115855820D01*
X186455537Y-115745506D01*
X186376185Y-115648815D01*
X186279494Y-115569463D01*
X186169180Y-115510498D01*
X186049482Y-115474188D01*
X185925000Y-115461928D01*
X184125000Y-115461928D01*
X184000518Y-115474188D01*
X183880820Y-115510498D01*
X183773650Y-115567782D01*
X182044446Y-113838579D01*
X182018291Y-113806709D01*
X181891146Y-113702364D01*
X181746087Y-113624828D01*
X181588689Y-113577082D01*
X181466019Y-113565000D01*
X181466018Y-113565000D01*
X181425000Y-113560960D01*
X181383982Y-113565000D01*
X181363072Y-113565000D01*
X181363072Y-112100000D01*
X181350812Y-111975518D01*
X181314502Y-111855820D01*
X181255537Y-111745506D01*
X181176185Y-111648815D01*
X181079494Y-111569463D01*
X180969180Y-111510498D01*
X180849482Y-111474188D01*
X180725000Y-111461928D01*
X179625000Y-111461928D01*
X179500518Y-111474188D01*
X179380820Y-111510498D01*
X179325000Y-111540335D01*
X179313153Y-111534003D01*
X179314040Y-111525000D01*
X179297918Y-111361311D01*
X179250172Y-111203913D01*
X179172636Y-111058854D01*
X179094439Y-110963570D01*
X179094437Y-110963568D01*
X179068291Y-110931709D01*
X179036432Y-110905563D01*
X178562655Y-110431787D01*
X178564537Y-110429494D01*
X178623502Y-110319180D01*
X178659812Y-110199482D01*
X178672072Y-110075000D01*
X178895928Y-110075000D01*
X178908188Y-110199482D01*
X178944498Y-110319180D01*
X179003463Y-110429494D01*
X179082815Y-110526185D01*
X179179506Y-110605537D01*
X179289820Y-110664502D01*
X179409518Y-110700812D01*
X179534000Y-110713072D01*
X180498250Y-110710000D01*
X180657000Y-110551250D01*
X180657000Y-109302000D01*
X180911000Y-109302000D01*
X180911000Y-110551250D01*
X181069750Y-110710000D01*
X182034000Y-110713072D01*
X182158482Y-110700812D01*
X182278180Y-110664502D01*
X182388494Y-110605537D01*
X182485185Y-110526185D01*
X182564537Y-110429494D01*
X182623502Y-110319180D01*
X182659812Y-110199482D01*
X182672072Y-110075000D01*
X182669000Y-109460750D01*
X182510250Y-109302000D01*
X180911000Y-109302000D01*
X180657000Y-109302000D01*
X179057750Y-109302000D01*
X178899000Y-109460750D01*
X178895928Y-110075000D01*
X178672072Y-110075000D01*
X178672072Y-108275000D01*
X178895928Y-108275000D01*
X178899000Y-108889250D01*
X179057750Y-109048000D01*
X180657000Y-109048000D01*
X180657000Y-107798750D01*
X180911000Y-107798750D01*
X180911000Y-109048000D01*
X182510250Y-109048000D01*
X182669000Y-108889250D01*
X182672072Y-108275000D01*
X182659812Y-108150518D01*
X182623502Y-108030820D01*
X182564537Y-107920506D01*
X182485185Y-107823815D01*
X182388494Y-107744463D01*
X182278180Y-107685498D01*
X182158482Y-107649188D01*
X182034000Y-107636928D01*
X181069750Y-107640000D01*
X180911000Y-107798750D01*
X180657000Y-107798750D01*
X180498250Y-107640000D01*
X179534000Y-107636928D01*
X179409518Y-107649188D01*
X179289820Y-107685498D01*
X179179506Y-107744463D01*
X179082815Y-107823815D01*
X179003463Y-107920506D01*
X178944498Y-108030820D01*
X178908188Y-108150518D01*
X178895928Y-108275000D01*
X178672072Y-108275000D01*
X178659812Y-108150518D01*
X178623502Y-108030820D01*
X178564537Y-107920506D01*
X178485185Y-107823815D01*
X178388494Y-107744463D01*
X178278180Y-107685498D01*
X178158482Y-107649188D01*
X178034000Y-107636928D01*
X175534000Y-107636928D01*
X175409518Y-107649188D01*
X175289820Y-107685498D01*
X175179506Y-107744463D01*
X175082815Y-107823815D01*
X175003463Y-107920506D01*
X174944498Y-108030820D01*
X174908188Y-108150518D01*
X174895928Y-108275000D01*
X174895928Y-108340000D01*
X168920869Y-108340000D01*
X168768072Y-108187203D01*
X168768072Y-103580000D01*
X168755812Y-103455518D01*
X168719502Y-103335820D01*
X168660537Y-103225506D01*
X168581185Y-103128815D01*
X168484494Y-103049463D01*
X168374180Y-102990498D01*
X168254482Y-102954188D01*
X168130000Y-102941928D01*
X167298144Y-102941928D01*
X167430256Y-102887205D01*
X167599774Y-102773937D01*
X167643711Y-102730000D01*
X173283199Y-102730000D01*
X173641928Y-103088730D01*
X173641928Y-103974000D01*
X173654188Y-104098482D01*
X173690498Y-104218180D01*
X173749463Y-104328494D01*
X173828815Y-104425185D01*
X173925506Y-104504537D01*
X174035820Y-104563502D01*
X174155518Y-104599812D01*
X174280000Y-104612072D01*
X175980000Y-104612072D01*
X176104482Y-104599812D01*
X176224180Y-104563502D01*
X176334494Y-104504537D01*
X176431185Y-104425185D01*
X176510537Y-104328494D01*
X176569502Y-104218180D01*
X176591513Y-104145620D01*
X176723368Y-104277475D01*
X176966589Y-104439990D01*
X177236842Y-104551932D01*
X177523740Y-104609000D01*
X177816260Y-104609000D01*
X178103158Y-104551932D01*
X178373411Y-104439990D01*
X178616632Y-104277475D01*
X178823475Y-104070632D01*
X178945195Y-103888466D01*
X179014822Y-104005355D01*
X179209731Y-104221588D01*
X179443080Y-104395641D01*
X179705901Y-104520825D01*
X179853110Y-104565476D01*
X180083000Y-104444155D01*
X180083000Y-103251000D01*
X180337000Y-103251000D01*
X180337000Y-104444155D01*
X180566890Y-104565476D01*
X180714099Y-104520825D01*
X180976920Y-104395641D01*
X181210269Y-104221588D01*
X181405178Y-104005355D01*
X181554157Y-103755252D01*
X181651481Y-103480891D01*
X181530814Y-103251000D01*
X180337000Y-103251000D01*
X180083000Y-103251000D01*
X180063000Y-103251000D01*
X180063000Y-102997000D01*
X180083000Y-102997000D01*
X180083000Y-101803845D01*
X180337000Y-101803845D01*
X180337000Y-102997000D01*
X181530814Y-102997000D01*
X181651481Y-102767109D01*
X181554157Y-102492748D01*
X181405178Y-102242645D01*
X181210269Y-102026412D01*
X180976920Y-101852359D01*
X180714099Y-101727175D01*
X180566890Y-101682524D01*
X180337000Y-101803845D01*
X180083000Y-101803845D01*
X179853110Y-101682524D01*
X179705901Y-101727175D01*
X179443080Y-101852359D01*
X179209731Y-102026412D01*
X179014822Y-102242645D01*
X178945195Y-102359534D01*
X178823475Y-102177368D01*
X178616632Y-101970525D01*
X178430000Y-101845822D01*
X178430000Y-101817322D01*
X178433676Y-101779999D01*
X178430000Y-101742676D01*
X178430000Y-101742667D01*
X178419003Y-101631014D01*
X178375546Y-101487753D01*
X178304974Y-101355724D01*
X178210001Y-101239999D01*
X178181002Y-101216201D01*
X177624801Y-100660000D01*
X199215000Y-100660000D01*
X199215000Y-106584510D01*
X199113005Y-106338273D01*
X198960120Y-106109465D01*
X198765535Y-105914880D01*
X198536727Y-105761995D01*
X198282490Y-105656686D01*
X198012592Y-105603000D01*
X197737408Y-105603000D01*
X197467510Y-105656686D01*
X197213273Y-105761995D01*
X196984465Y-105914880D01*
X196789880Y-106109465D01*
X196636995Y-106338273D01*
X196531686Y-106592510D01*
X196478000Y-106862408D01*
X196478000Y-107137592D01*
X196491031Y-107203102D01*
X195055133Y-108639000D01*
X190337868Y-108639000D01*
X188368868Y-106670000D01*
X189141928Y-106670000D01*
X189154188Y-106794482D01*
X189190498Y-106914180D01*
X189249463Y-107024494D01*
X189328815Y-107121185D01*
X189425506Y-107200537D01*
X189535820Y-107259502D01*
X189655518Y-107295812D01*
X189780000Y-107308072D01*
X190844250Y-107305000D01*
X191003000Y-107146250D01*
X191003000Y-105447000D01*
X191257000Y-105447000D01*
X191257000Y-107146250D01*
X191415750Y-107305000D01*
X192480000Y-107308072D01*
X192604482Y-107295812D01*
X192724180Y-107259502D01*
X192834494Y-107200537D01*
X192931185Y-107121185D01*
X193010537Y-107024494D01*
X193069502Y-106914180D01*
X193105812Y-106794482D01*
X193118072Y-106670000D01*
X193115000Y-105605750D01*
X192956250Y-105447000D01*
X191257000Y-105447000D01*
X191003000Y-105447000D01*
X189303750Y-105447000D01*
X189145000Y-105605750D01*
X189141928Y-106670000D01*
X188368868Y-106670000D01*
X187909597Y-106210730D01*
X188038718Y-105899003D01*
X188115000Y-105515505D01*
X188115000Y-105124495D01*
X188038718Y-104740997D01*
X187889085Y-104379750D01*
X187671851Y-104054636D01*
X187587215Y-103970000D01*
X189141928Y-103970000D01*
X189145000Y-105034250D01*
X189303750Y-105193000D01*
X191003000Y-105193000D01*
X191003000Y-103493750D01*
X191257000Y-103493750D01*
X191257000Y-105193000D01*
X192956250Y-105193000D01*
X193115000Y-105034250D01*
X193118072Y-103970000D01*
X193105812Y-103845518D01*
X193069502Y-103725820D01*
X193010537Y-103615506D01*
X192931185Y-103518815D01*
X192834494Y-103439463D01*
X192724180Y-103380498D01*
X192604482Y-103344188D01*
X192480000Y-103331928D01*
X191415750Y-103335000D01*
X191257000Y-103493750D01*
X191003000Y-103493750D01*
X190844250Y-103335000D01*
X189780000Y-103331928D01*
X189655518Y-103344188D01*
X189535820Y-103380498D01*
X189425506Y-103439463D01*
X189328815Y-103518815D01*
X189249463Y-103615506D01*
X189190498Y-103725820D01*
X189154188Y-103845518D01*
X189141928Y-103970000D01*
X187587215Y-103970000D01*
X187395364Y-103778149D01*
X187070250Y-103560915D01*
X186709003Y-103411282D01*
X186325505Y-103335000D01*
X185934495Y-103335000D01*
X185550997Y-103411282D01*
X185189750Y-103560915D01*
X184864636Y-103778149D01*
X184588149Y-104054636D01*
X184370915Y-104379750D01*
X184221282Y-104740997D01*
X184145000Y-105124495D01*
X184145000Y-105515505D01*
X184221282Y-105899003D01*
X184370915Y-106260250D01*
X184588149Y-106585364D01*
X184864636Y-106861851D01*
X185189750Y-107079085D01*
X185265000Y-107110255D01*
X185265001Y-111461928D01*
X184125000Y-111461928D01*
X184000518Y-111474188D01*
X183880820Y-111510498D01*
X183770506Y-111569463D01*
X183673815Y-111648815D01*
X183594463Y-111745506D01*
X183535498Y-111855820D01*
X183499188Y-111975518D01*
X183486928Y-112100000D01*
X183486928Y-114600000D01*
X183499188Y-114724482D01*
X183535498Y-114844180D01*
X183594463Y-114954494D01*
X183673815Y-115051185D01*
X183770506Y-115130537D01*
X183880820Y-115189502D01*
X184000518Y-115225812D01*
X184125000Y-115238072D01*
X185925000Y-115238072D01*
X186049482Y-115225812D01*
X186169180Y-115189502D01*
X186279494Y-115130537D01*
X186376185Y-115051185D01*
X186455537Y-114954494D01*
X186514502Y-114844180D01*
X186550812Y-114724482D01*
X186563072Y-114600000D01*
X186563072Y-114185000D01*
X186918133Y-114185000D01*
X189919000Y-117185868D01*
X189919001Y-127402714D01*
X189836795Y-127525744D01*
X189758774Y-127714102D01*
X189719000Y-127914061D01*
X189719000Y-128117939D01*
X189756645Y-128307193D01*
X182807966Y-128301845D01*
X182813072Y-128250000D01*
X182811885Y-126542702D01*
X186816903Y-126542702D01*
X186888486Y-126786671D01*
X187143996Y-126907571D01*
X187418184Y-126976300D01*
X187700512Y-126990217D01*
X187980130Y-126948787D01*
X188246292Y-126853603D01*
X188371514Y-126786671D01*
X188443097Y-126542702D01*
X187630000Y-125729605D01*
X186816903Y-126542702D01*
X182811885Y-126542702D01*
X182811243Y-125620512D01*
X186189783Y-125620512D01*
X186231213Y-125900130D01*
X186326397Y-126166292D01*
X186393329Y-126291514D01*
X186637298Y-126363097D01*
X187450395Y-125550000D01*
X187809605Y-125550000D01*
X188622702Y-126363097D01*
X188866671Y-126291514D01*
X188987571Y-126036004D01*
X189056300Y-125761816D01*
X189070217Y-125479488D01*
X189028787Y-125199870D01*
X188933603Y-124933708D01*
X188866671Y-124808486D01*
X188622702Y-124736903D01*
X187809605Y-125550000D01*
X187450395Y-125550000D01*
X186637298Y-124736903D01*
X186393329Y-124808486D01*
X186272429Y-125063996D01*
X186203700Y-125338184D01*
X186189783Y-125620512D01*
X182811243Y-125620512D01*
X182810000Y-123835750D01*
X182651250Y-123677000D01*
X176902000Y-123677000D01*
X176902000Y-123697000D01*
X176648000Y-123697000D01*
X176648000Y-123677000D01*
X170898750Y-123677000D01*
X170740000Y-123835750D01*
X170736928Y-128250000D01*
X170741119Y-128292557D01*
X163555757Y-128287026D01*
X163555344Y-128286986D01*
X163522170Y-128287001D01*
X163488881Y-128286975D01*
X163488467Y-128287015D01*
X162403391Y-128287494D01*
X162510001Y-128200001D01*
X162533803Y-128170998D01*
X163371003Y-127333799D01*
X163400001Y-127310001D01*
X163460959Y-127235724D01*
X163494974Y-127194277D01*
X163565546Y-127062247D01*
X163576450Y-127026300D01*
X163609003Y-126918986D01*
X163620000Y-126807333D01*
X163620000Y-126807324D01*
X163623676Y-126770001D01*
X163620000Y-126732678D01*
X163620000Y-126592702D01*
X165961903Y-126592702D01*
X166033486Y-126836671D01*
X166288996Y-126957571D01*
X166563184Y-127026300D01*
X166845512Y-127040217D01*
X167125130Y-126998787D01*
X167391292Y-126903603D01*
X167516514Y-126836671D01*
X167588097Y-126592702D01*
X166775000Y-125779605D01*
X165961903Y-126592702D01*
X163620000Y-126592702D01*
X163620000Y-125854801D01*
X163804289Y-125670512D01*
X165334783Y-125670512D01*
X165376213Y-125950130D01*
X165471397Y-126216292D01*
X165538329Y-126341514D01*
X165782298Y-126413097D01*
X166595395Y-125600000D01*
X166954605Y-125600000D01*
X167767702Y-126413097D01*
X168011671Y-126341514D01*
X168132571Y-126086004D01*
X168201300Y-125811816D01*
X168215217Y-125529488D01*
X168173787Y-125249870D01*
X168078603Y-124983708D01*
X168011671Y-124858486D01*
X167767702Y-124786903D01*
X166954605Y-125600000D01*
X166595395Y-125600000D01*
X165782298Y-124786903D01*
X165538329Y-124858486D01*
X165417429Y-125113996D01*
X165348700Y-125388184D01*
X165334783Y-125670512D01*
X163804289Y-125670512D01*
X165372726Y-124102076D01*
X165385498Y-124144180D01*
X165444463Y-124254494D01*
X165523815Y-124351185D01*
X165620506Y-124430537D01*
X165730820Y-124489502D01*
X165850518Y-124525812D01*
X165975000Y-124538072D01*
X165982215Y-124538072D01*
X165961903Y-124607298D01*
X166775000Y-125420395D01*
X167588097Y-124607298D01*
X167567785Y-124538072D01*
X167575000Y-124538072D01*
X167699482Y-124525812D01*
X167819180Y-124489502D01*
X167929494Y-124430537D01*
X168026185Y-124351185D01*
X168105537Y-124254494D01*
X168164502Y-124144180D01*
X168200812Y-124024482D01*
X168213072Y-123900000D01*
X168213072Y-122300000D01*
X168200812Y-122175518D01*
X168164502Y-122055820D01*
X168105537Y-121945506D01*
X168026185Y-121848815D01*
X167929494Y-121769463D01*
X167819180Y-121710498D01*
X167699482Y-121674188D01*
X167575000Y-121661928D01*
X167535000Y-121661928D01*
X167535000Y-119722322D01*
X167538676Y-119684999D01*
X167535000Y-119647676D01*
X167535000Y-119647667D01*
X167524003Y-119536014D01*
X167480546Y-119392753D01*
X167409974Y-119260724D01*
X167315001Y-119144999D01*
X167286004Y-119121202D01*
X167014802Y-118850000D01*
X170736928Y-118850000D01*
X170740000Y-123264250D01*
X170898750Y-123423000D01*
X176648000Y-123423000D01*
X176648000Y-118373750D01*
X176902000Y-118373750D01*
X176902000Y-123423000D01*
X182651250Y-123423000D01*
X182810000Y-123264250D01*
X182813072Y-118850000D01*
X182800812Y-118725518D01*
X182764502Y-118605820D01*
X182705537Y-118495506D01*
X182626185Y-118398815D01*
X182529494Y-118319463D01*
X182419180Y-118260498D01*
X182299482Y-118224188D01*
X182175000Y-118211928D01*
X177060750Y-118215000D01*
X176902000Y-118373750D01*
X176648000Y-118373750D01*
X176489250Y-118215000D01*
X171375000Y-118211928D01*
X171250518Y-118224188D01*
X171130820Y-118260498D01*
X171020506Y-118319463D01*
X170923815Y-118398815D01*
X170844463Y-118495506D01*
X170785498Y-118605820D01*
X170749188Y-118725518D01*
X170736928Y-118850000D01*
X167014802Y-118850000D01*
X166190000Y-118025199D01*
X166190000Y-117018072D01*
X168130000Y-117018072D01*
X168254482Y-117005812D01*
X168374180Y-116969502D01*
X168484494Y-116910537D01*
X168581185Y-116831185D01*
X168660537Y-116734494D01*
X168678974Y-116700000D01*
X172186928Y-116700000D01*
X172199188Y-116824482D01*
X172235498Y-116944180D01*
X172294463Y-117054494D01*
X172373815Y-117151185D01*
X172470506Y-117230537D01*
X172580820Y-117289502D01*
X172700518Y-117325812D01*
X172825000Y-117338072D01*
X173089250Y-117335000D01*
X173248000Y-117176250D01*
X173248000Y-114527000D01*
X172348750Y-114527000D01*
X172190000Y-114685750D01*
X172186928Y-116700000D01*
X168678974Y-116700000D01*
X168719502Y-116624180D01*
X168755812Y-116504482D01*
X168768072Y-116380000D01*
X168768072Y-114690000D01*
X169407678Y-114690000D01*
X169445000Y-114693676D01*
X169482322Y-114690000D01*
X169482333Y-114690000D01*
X169593986Y-114679003D01*
X169737247Y-114635546D01*
X169869276Y-114564974D01*
X169985001Y-114470001D01*
X170008804Y-114440997D01*
X172187176Y-112262626D01*
X172190000Y-114114250D01*
X172348750Y-114273000D01*
X173248000Y-114273000D01*
X173248000Y-114253000D01*
X173502000Y-114253000D01*
X173502000Y-114273000D01*
X173522000Y-114273000D01*
X173522000Y-114527000D01*
X173502000Y-114527000D01*
X173502000Y-117176250D01*
X173660750Y-117335000D01*
X173925000Y-117338072D01*
X174049482Y-117325812D01*
X174169180Y-117289502D01*
X174225000Y-117259665D01*
X174280820Y-117289502D01*
X174400518Y-117325812D01*
X174525000Y-117338072D01*
X175625000Y-117338072D01*
X175749482Y-117325812D01*
X175869180Y-117289502D01*
X175925000Y-117259665D01*
X175980820Y-117289502D01*
X176100518Y-117325812D01*
X176225000Y-117338072D01*
X176489250Y-117335000D01*
X176648000Y-117176250D01*
X176648000Y-114527000D01*
X176628000Y-114527000D01*
X176628000Y-114273000D01*
X176648000Y-114273000D01*
X176648000Y-111623750D01*
X176489250Y-111465000D01*
X176225000Y-111461928D01*
X176100518Y-111474188D01*
X175980820Y-111510498D01*
X175925000Y-111540335D01*
X175869180Y-111510498D01*
X175828651Y-111498204D01*
X175824003Y-111451014D01*
X175780546Y-111307753D01*
X175709974Y-111175724D01*
X175615001Y-111059999D01*
X175586003Y-111036201D01*
X175463803Y-110914001D01*
X175440001Y-110884999D01*
X175324276Y-110790026D01*
X175192247Y-110719454D01*
X175048986Y-110675997D01*
X174937333Y-110665000D01*
X174937322Y-110665000D01*
X174900000Y-110661324D01*
X174862678Y-110665000D01*
X171987323Y-110665000D01*
X171950000Y-110661324D01*
X171912677Y-110665000D01*
X171912667Y-110665000D01*
X171801014Y-110675997D01*
X171678792Y-110713072D01*
X171657753Y-110719454D01*
X171525723Y-110790026D01*
X171447542Y-110854188D01*
X171409999Y-110884999D01*
X171386201Y-110913997D01*
X169130199Y-113170000D01*
X168768072Y-113170000D01*
X168768072Y-111480000D01*
X168755812Y-111355518D01*
X168719502Y-111235820D01*
X168660537Y-111125506D01*
X168581185Y-111028815D01*
X168484494Y-110949463D01*
X168374180Y-110890498D01*
X168254482Y-110854188D01*
X168130000Y-110841928D01*
X162730000Y-110841928D01*
X162605518Y-110854188D01*
X162485820Y-110890498D01*
X162375506Y-110949463D01*
X162278815Y-111028815D01*
X162199463Y-111125506D01*
X162140498Y-111235820D01*
X162104188Y-111355518D01*
X162091928Y-111480000D01*
X162091928Y-113170000D01*
X158954802Y-113170000D01*
X157088072Y-111303271D01*
X157088072Y-109680000D01*
X157112678Y-109680000D01*
X157150000Y-109683676D01*
X157187322Y-109680000D01*
X157187333Y-109680000D01*
X157298986Y-109669003D01*
X157442247Y-109625546D01*
X157574276Y-109554974D01*
X157690001Y-109460001D01*
X157713803Y-109430998D01*
X158421004Y-108723798D01*
X158450001Y-108700001D01*
X158544974Y-108584276D01*
X158615546Y-108452247D01*
X158659003Y-108308986D01*
X158670000Y-108197333D01*
X158670000Y-108197324D01*
X158673676Y-108160001D01*
X158670000Y-108122678D01*
X158670000Y-103043711D01*
X158713937Y-102999774D01*
X158827205Y-102830256D01*
X158905226Y-102641898D01*
X158945000Y-102441939D01*
X158945000Y-102238061D01*
X158905226Y-102038102D01*
X158827205Y-101849744D01*
X158713937Y-101680226D01*
X158569774Y-101536063D01*
X158400256Y-101422795D01*
X158211898Y-101344774D01*
X158011939Y-101305000D01*
X157808061Y-101305000D01*
X157608102Y-101344774D01*
X157419744Y-101422795D01*
X157250226Y-101536063D01*
X157106063Y-101680226D01*
X156992795Y-101849744D01*
X156914774Y-102038102D01*
X156875000Y-102238061D01*
X156875000Y-102441939D01*
X156914774Y-102641898D01*
X156992795Y-102830256D01*
X157106063Y-102999774D01*
X157150000Y-103043711D01*
X157150001Y-103220001D01*
X157150000Y-105967332D01*
X157150001Y-105967342D01*
X157150000Y-107845198D01*
X157088072Y-107907126D01*
X157088072Y-105640000D01*
X157075812Y-105515518D01*
X157039502Y-105395820D01*
X156980537Y-105285506D01*
X156901185Y-105188815D01*
X156804494Y-105109463D01*
X156694180Y-105050498D01*
X156574482Y-105014188D01*
X156450000Y-105001928D01*
X154906729Y-105001928D01*
X154895000Y-104990199D01*
X154895000Y-104928061D01*
X154855226Y-104728102D01*
X154777205Y-104539744D01*
X154663937Y-104370226D01*
X154519774Y-104226063D01*
X154350256Y-104112795D01*
X154161898Y-104034774D01*
X153961939Y-103995000D01*
X153758061Y-103995000D01*
X153558102Y-104034774D01*
X153369744Y-104112795D01*
X153200226Y-104226063D01*
X153056063Y-104370226D01*
X152942795Y-104539744D01*
X152864774Y-104728102D01*
X152825000Y-104928061D01*
X152825000Y-105131939D01*
X152864774Y-105331898D01*
X152942795Y-105520256D01*
X153056063Y-105689774D01*
X153200226Y-105833937D01*
X153369744Y-105947205D01*
X153558102Y-106025226D01*
X153758061Y-106065000D01*
X153820199Y-106065000D01*
X154011928Y-106256729D01*
X154011928Y-108140000D01*
X154013898Y-108160000D01*
X151283711Y-108160000D01*
X151239774Y-108116063D01*
X151178195Y-108074917D01*
X151546627Y-107770125D01*
X151588767Y-107727689D01*
X151631517Y-107685826D01*
X151637391Y-107678725D01*
X151945767Y-107300618D01*
X151978859Y-107250809D01*
X152012666Y-107201437D01*
X152017047Y-107193333D01*
X152017051Y-107193325D01*
X152246111Y-106762527D01*
X152268910Y-106707212D01*
X152292471Y-106652240D01*
X152295196Y-106643437D01*
X152436219Y-106176348D01*
X152447845Y-106117631D01*
X152460275Y-106059155D01*
X152461238Y-106049991D01*
X152508850Y-105564404D01*
X152508850Y-105564402D01*
X152512000Y-105532419D01*
X152512000Y-102532279D01*
X152550147Y-102143225D01*
X152653763Y-101800033D01*
X152822062Y-101483511D01*
X153048637Y-101205701D01*
X153324856Y-100977194D01*
X153640197Y-100806690D01*
X153982656Y-100700681D01*
X154369712Y-100660000D01*
X164725198Y-100660000D01*
X164319002Y-101066197D01*
G37*
%TD.AperFunction*%
%TD*%
M02*
