%TF.GenerationSoftware,KiCad,Pcbnew,5.1.9+dfsg1-1*%
%TF.CreationDate,2021-11-29T12:28:50+01:00*%
%TF.ProjectId,Esp8266AquariumLight,45737038-3236-4364-9171-75617269756d,rev?*%
%TF.SameCoordinates,Original*%
%TF.FileFunction,Soldermask,Top*%
%TF.FilePolarity,Negative*%
%FSLAX46Y46*%
G04 Gerber Fmt 4.6, Leading zero omitted, Abs format (unit mm)*
G04 Created by KiCad (PCBNEW 5.1.9+dfsg1-1) date 2021-11-29 12:28:50*
%MOMM*%
%LPD*%
G01*
G04 APERTURE LIST*
%ADD10C,2.700000*%
%ADD11R,1.000000X1.500000*%
%ADD12C,0.100000*%
%ADD13R,5.400000X4.900000*%
%ADD14C,1.600000*%
%ADD15R,1.600000X1.600000*%
%ADD16O,1.700000X1.700000*%
%ADD17R,1.700000X1.700000*%
%ADD18R,2.500000X1.800000*%
%ADD19R,0.900000X0.800000*%
%ADD20R,10.800000X9.400000*%
%ADD21R,1.100000X4.600000*%
%ADD22C,1.524000*%
%ADD23R,2.000000X1.500000*%
%ADD24R,2.000000X3.800000*%
%ADD25R,1.800000X2.500000*%
G04 APERTURE END LIST*
D10*
%TO.C,J1*%
X186130000Y-105320000D03*
G36*
G01*
X192480000Y-104220001D02*
X192480000Y-106419999D01*
G75*
G02*
X192229999Y-106670000I-250001J0D01*
G01*
X190030001Y-106670000D01*
G75*
G02*
X189780000Y-106419999I0J250001D01*
G01*
X189780000Y-104220001D01*
G75*
G02*
X190030001Y-103970000I250001J0D01*
G01*
X192229999Y-103970000D01*
G75*
G02*
X192480000Y-104220001I0J-250001D01*
G01*
G37*
%TD*%
D11*
%TO.C,JP2*%
X118360000Y-126400000D03*
D12*
G36*
X119660000Y-125650602D02*
G01*
X119684534Y-125650602D01*
X119733365Y-125655412D01*
X119781490Y-125664984D01*
X119828445Y-125679228D01*
X119873778Y-125698005D01*
X119917051Y-125721136D01*
X119957850Y-125748396D01*
X119995779Y-125779524D01*
X120030476Y-125814221D01*
X120061604Y-125852150D01*
X120088864Y-125892949D01*
X120111995Y-125936222D01*
X120130772Y-125981555D01*
X120145016Y-126028510D01*
X120154588Y-126076635D01*
X120159398Y-126125466D01*
X120159398Y-126150000D01*
X120160000Y-126150000D01*
X120160000Y-126650000D01*
X120159398Y-126650000D01*
X120159398Y-126674534D01*
X120154588Y-126723365D01*
X120145016Y-126771490D01*
X120130772Y-126818445D01*
X120111995Y-126863778D01*
X120088864Y-126907051D01*
X120061604Y-126947850D01*
X120030476Y-126985779D01*
X119995779Y-127020476D01*
X119957850Y-127051604D01*
X119917051Y-127078864D01*
X119873778Y-127101995D01*
X119828445Y-127120772D01*
X119781490Y-127135016D01*
X119733365Y-127144588D01*
X119684534Y-127149398D01*
X119660000Y-127149398D01*
X119660000Y-127150000D01*
X119110000Y-127150000D01*
X119110000Y-125650000D01*
X119660000Y-125650000D01*
X119660000Y-125650602D01*
G37*
G36*
X117610000Y-127150000D02*
G01*
X117060000Y-127150000D01*
X117060000Y-127149398D01*
X117035466Y-127149398D01*
X116986635Y-127144588D01*
X116938510Y-127135016D01*
X116891555Y-127120772D01*
X116846222Y-127101995D01*
X116802949Y-127078864D01*
X116762150Y-127051604D01*
X116724221Y-127020476D01*
X116689524Y-126985779D01*
X116658396Y-126947850D01*
X116631136Y-126907051D01*
X116608005Y-126863778D01*
X116589228Y-126818445D01*
X116574984Y-126771490D01*
X116565412Y-126723365D01*
X116560602Y-126674534D01*
X116560602Y-126650000D01*
X116560000Y-126650000D01*
X116560000Y-126150000D01*
X116560602Y-126150000D01*
X116560602Y-126125466D01*
X116565412Y-126076635D01*
X116574984Y-126028510D01*
X116589228Y-125981555D01*
X116608005Y-125936222D01*
X116631136Y-125892949D01*
X116658396Y-125852150D01*
X116689524Y-125814221D01*
X116724221Y-125779524D01*
X116762150Y-125748396D01*
X116802949Y-125721136D01*
X116846222Y-125698005D01*
X116891555Y-125679228D01*
X116938510Y-125664984D01*
X116986635Y-125655412D01*
X117035466Y-125650602D01*
X117060000Y-125650602D01*
X117060000Y-125650000D01*
X117610000Y-125650000D01*
X117610000Y-127150000D01*
G37*
%TD*%
D11*
%TO.C,JP1*%
X118360000Y-122530000D03*
D12*
G36*
X119660000Y-121780602D02*
G01*
X119684534Y-121780602D01*
X119733365Y-121785412D01*
X119781490Y-121794984D01*
X119828445Y-121809228D01*
X119873778Y-121828005D01*
X119917051Y-121851136D01*
X119957850Y-121878396D01*
X119995779Y-121909524D01*
X120030476Y-121944221D01*
X120061604Y-121982150D01*
X120088864Y-122022949D01*
X120111995Y-122066222D01*
X120130772Y-122111555D01*
X120145016Y-122158510D01*
X120154588Y-122206635D01*
X120159398Y-122255466D01*
X120159398Y-122280000D01*
X120160000Y-122280000D01*
X120160000Y-122780000D01*
X120159398Y-122780000D01*
X120159398Y-122804534D01*
X120154588Y-122853365D01*
X120145016Y-122901490D01*
X120130772Y-122948445D01*
X120111995Y-122993778D01*
X120088864Y-123037051D01*
X120061604Y-123077850D01*
X120030476Y-123115779D01*
X119995779Y-123150476D01*
X119957850Y-123181604D01*
X119917051Y-123208864D01*
X119873778Y-123231995D01*
X119828445Y-123250772D01*
X119781490Y-123265016D01*
X119733365Y-123274588D01*
X119684534Y-123279398D01*
X119660000Y-123279398D01*
X119660000Y-123280000D01*
X119110000Y-123280000D01*
X119110000Y-121780000D01*
X119660000Y-121780000D01*
X119660000Y-121780602D01*
G37*
G36*
X117610000Y-123280000D02*
G01*
X117060000Y-123280000D01*
X117060000Y-123279398D01*
X117035466Y-123279398D01*
X116986635Y-123274588D01*
X116938510Y-123265016D01*
X116891555Y-123250772D01*
X116846222Y-123231995D01*
X116802949Y-123208864D01*
X116762150Y-123181604D01*
X116724221Y-123150476D01*
X116689524Y-123115779D01*
X116658396Y-123077850D01*
X116631136Y-123037051D01*
X116608005Y-122993778D01*
X116589228Y-122948445D01*
X116574984Y-122901490D01*
X116565412Y-122853365D01*
X116560602Y-122804534D01*
X116560602Y-122780000D01*
X116560000Y-122780000D01*
X116560000Y-122280000D01*
X116560602Y-122280000D01*
X116560602Y-122255466D01*
X116565412Y-122206635D01*
X116574984Y-122158510D01*
X116589228Y-122111555D01*
X116608005Y-122066222D01*
X116631136Y-122022949D01*
X116658396Y-121982150D01*
X116689524Y-121944221D01*
X116724221Y-121909524D01*
X116762150Y-121878396D01*
X116802949Y-121851136D01*
X116846222Y-121828005D01*
X116891555Y-121809228D01*
X116938510Y-121794984D01*
X116986635Y-121785412D01*
X117035466Y-121780602D01*
X117060000Y-121780602D01*
X117060000Y-121780000D01*
X117610000Y-121780000D01*
X117610000Y-123280000D01*
G37*
%TD*%
D13*
%TO.C,L1*%
X165430000Y-106030000D03*
X165430000Y-113930000D03*
%TD*%
D14*
%TO.C,C1*%
X187630000Y-125550000D03*
D15*
X187630000Y-123050000D03*
%TD*%
D16*
%TO.C,J3*%
X180210000Y-103124000D03*
X177670000Y-103124000D03*
D17*
X175130000Y-103124000D03*
%TD*%
D16*
%TO.C,J2*%
X111252000Y-119888000D03*
X108712000Y-119888000D03*
X111252000Y-117348000D03*
X108712000Y-117348000D03*
X111252000Y-114808000D03*
D17*
X108712000Y-114808000D03*
%TD*%
%TO.C,R3*%
G36*
G01*
X120084001Y-105922500D02*
X119183999Y-105922500D01*
G75*
G02*
X118934000Y-105672501I0J249999D01*
G01*
X118934000Y-105147499D01*
G75*
G02*
X119183999Y-104897500I249999J0D01*
G01*
X120084001Y-104897500D01*
G75*
G02*
X120334000Y-105147499I0J-249999D01*
G01*
X120334000Y-105672501D01*
G75*
G02*
X120084001Y-105922500I-249999J0D01*
G01*
G37*
G36*
G01*
X120084001Y-107747500D02*
X119183999Y-107747500D01*
G75*
G02*
X118934000Y-107497501I0J249999D01*
G01*
X118934000Y-106972499D01*
G75*
G02*
X119183999Y-106722500I249999J0D01*
G01*
X120084001Y-106722500D01*
G75*
G02*
X120334000Y-106972499I0J-249999D01*
G01*
X120334000Y-107497501D01*
G75*
G02*
X120084001Y-107747500I-249999J0D01*
G01*
G37*
%TD*%
%TO.C,R4*%
G36*
G01*
X154427500Y-118306001D02*
X154427500Y-117405999D01*
G75*
G02*
X154677499Y-117156000I249999J0D01*
G01*
X155202501Y-117156000D01*
G75*
G02*
X155452500Y-117405999I0J-249999D01*
G01*
X155452500Y-118306001D01*
G75*
G02*
X155202501Y-118556000I-249999J0D01*
G01*
X154677499Y-118556000D01*
G75*
G02*
X154427500Y-118306001I0J249999D01*
G01*
G37*
G36*
G01*
X152602500Y-118306001D02*
X152602500Y-117405999D01*
G75*
G02*
X152852499Y-117156000I249999J0D01*
G01*
X153377501Y-117156000D01*
G75*
G02*
X153627500Y-117405999I0J-249999D01*
G01*
X153627500Y-118306001D01*
G75*
G02*
X153377501Y-118556000I-249999J0D01*
G01*
X152852499Y-118556000D01*
G75*
G02*
X152602500Y-118306001I0J249999D01*
G01*
G37*
%TD*%
D18*
%TO.C,D4*%
X112204000Y-103124000D03*
X108204000Y-103124000D03*
%TD*%
D19*
%TO.C,Q3*%
X115332000Y-106426000D03*
X117332000Y-105476000D03*
X117332000Y-107376000D03*
%TD*%
D20*
%TO.C,U3*%
X176775000Y-123550000D03*
D21*
X173375000Y-114400000D03*
X175075000Y-114400000D03*
X176775000Y-114400000D03*
X178475000Y-114400000D03*
X180175000Y-114400000D03*
%TD*%
%TO.C,R2*%
G36*
G01*
X127196001Y-106026000D02*
X126295999Y-106026000D01*
G75*
G02*
X126046000Y-105776001I0J249999D01*
G01*
X126046000Y-105250999D01*
G75*
G02*
X126295999Y-105001000I249999J0D01*
G01*
X127196001Y-105001000D01*
G75*
G02*
X127446000Y-105250999I0J-249999D01*
G01*
X127446000Y-105776001D01*
G75*
G02*
X127196001Y-106026000I-249999J0D01*
G01*
G37*
G36*
G01*
X127196001Y-107851000D02*
X126295999Y-107851000D01*
G75*
G02*
X126046000Y-107601001I0J249999D01*
G01*
X126046000Y-107075999D01*
G75*
G02*
X126295999Y-106826000I249999J0D01*
G01*
X127196001Y-106826000D01*
G75*
G02*
X127446000Y-107075999I0J-249999D01*
G01*
X127446000Y-107601001D01*
G75*
G02*
X127196001Y-107851000I-249999J0D01*
G01*
G37*
%TD*%
%TO.C,R1*%
G36*
G01*
X127196001Y-110598000D02*
X126295999Y-110598000D01*
G75*
G02*
X126046000Y-110348001I0J249999D01*
G01*
X126046000Y-109822999D01*
G75*
G02*
X126295999Y-109573000I249999J0D01*
G01*
X127196001Y-109573000D01*
G75*
G02*
X127446000Y-109822999I0J-249999D01*
G01*
X127446000Y-110348001D01*
G75*
G02*
X127196001Y-110598000I-249999J0D01*
G01*
G37*
G36*
G01*
X127196001Y-112423000D02*
X126295999Y-112423000D01*
G75*
G02*
X126046000Y-112173001I0J249999D01*
G01*
X126046000Y-111647999D01*
G75*
G02*
X126295999Y-111398000I249999J0D01*
G01*
X127196001Y-111398000D01*
G75*
G02*
X127446000Y-111647999I0J-249999D01*
G01*
X127446000Y-112173001D01*
G75*
G02*
X127196001Y-112423000I-249999J0D01*
G01*
G37*
%TD*%
D19*
%TO.C,Q2*%
X122190000Y-106426000D03*
X124190000Y-105476000D03*
X124190000Y-107376000D03*
%TD*%
%TO.C,Q1*%
X122190000Y-110998000D03*
X124190000Y-110048000D03*
X124190000Y-111948000D03*
%TD*%
D22*
%TO.C,U5*%
X197875000Y-122080000D03*
X197875000Y-119540000D03*
X197875000Y-117000000D03*
X197875000Y-112000000D03*
X197875000Y-107000000D03*
%TD*%
%TO.C,U4*%
X102475000Y-106920000D03*
X102475000Y-109460000D03*
X102475000Y-112000000D03*
X102475000Y-117000000D03*
X102475000Y-122000000D03*
%TD*%
D23*
%TO.C,U1*%
X159180000Y-125590000D03*
X159180000Y-120990000D03*
X159180000Y-123290000D03*
D24*
X152880000Y-123290000D03*
%TD*%
%TO.C,R9*%
G36*
G01*
X141390000Y-123780001D02*
X141390000Y-122879999D01*
G75*
G02*
X141639999Y-122630000I249999J0D01*
G01*
X142165001Y-122630000D01*
G75*
G02*
X142415000Y-122879999I0J-249999D01*
G01*
X142415000Y-123780001D01*
G75*
G02*
X142165001Y-124030000I-249999J0D01*
G01*
X141639999Y-124030000D01*
G75*
G02*
X141390000Y-123780001I0J249999D01*
G01*
G37*
G36*
G01*
X139565000Y-123780001D02*
X139565000Y-122879999D01*
G75*
G02*
X139814999Y-122630000I249999J0D01*
G01*
X140340001Y-122630000D01*
G75*
G02*
X140590000Y-122879999I0J-249999D01*
G01*
X140590000Y-123780001D01*
G75*
G02*
X140340001Y-124030000I-249999J0D01*
G01*
X139814999Y-124030000D01*
G75*
G02*
X139565000Y-123780001I0J249999D01*
G01*
G37*
%TD*%
%TO.C,R8*%
G36*
G01*
X140570000Y-116011999D02*
X140570000Y-116912001D01*
G75*
G02*
X140320001Y-117162000I-249999J0D01*
G01*
X139794999Y-117162000D01*
G75*
G02*
X139545000Y-116912001I0J249999D01*
G01*
X139545000Y-116011999D01*
G75*
G02*
X139794999Y-115762000I249999J0D01*
G01*
X140320001Y-115762000D01*
G75*
G02*
X140570000Y-116011999I0J-249999D01*
G01*
G37*
G36*
G01*
X142395000Y-116011999D02*
X142395000Y-116912001D01*
G75*
G02*
X142145001Y-117162000I-249999J0D01*
G01*
X141619999Y-117162000D01*
G75*
G02*
X141370000Y-116912001I0J249999D01*
G01*
X141370000Y-116011999D01*
G75*
G02*
X141619999Y-115762000I249999J0D01*
G01*
X142145001Y-115762000D01*
G75*
G02*
X142395000Y-116011999I0J-249999D01*
G01*
G37*
%TD*%
%TO.C,R7*%
G36*
G01*
X140570000Y-113725999D02*
X140570000Y-114626001D01*
G75*
G02*
X140320001Y-114876000I-249999J0D01*
G01*
X139794999Y-114876000D01*
G75*
G02*
X139545000Y-114626001I0J249999D01*
G01*
X139545000Y-113725999D01*
G75*
G02*
X139794999Y-113476000I249999J0D01*
G01*
X140320001Y-113476000D01*
G75*
G02*
X140570000Y-113725999I0J-249999D01*
G01*
G37*
G36*
G01*
X142395000Y-113725999D02*
X142395000Y-114626001D01*
G75*
G02*
X142145001Y-114876000I-249999J0D01*
G01*
X141619999Y-114876000D01*
G75*
G02*
X141370000Y-114626001I0J249999D01*
G01*
X141370000Y-113725999D01*
G75*
G02*
X141619999Y-113476000I249999J0D01*
G01*
X142145001Y-113476000D01*
G75*
G02*
X142395000Y-113725999I0J-249999D01*
G01*
G37*
%TD*%
%TO.C,R6*%
G36*
G01*
X141370000Y-121484001D02*
X141370000Y-120583999D01*
G75*
G02*
X141619999Y-120334000I249999J0D01*
G01*
X142145001Y-120334000D01*
G75*
G02*
X142395000Y-120583999I0J-249999D01*
G01*
X142395000Y-121484001D01*
G75*
G02*
X142145001Y-121734000I-249999J0D01*
G01*
X141619999Y-121734000D01*
G75*
G02*
X141370000Y-121484001I0J249999D01*
G01*
G37*
G36*
G01*
X139545000Y-121484001D02*
X139545000Y-120583999D01*
G75*
G02*
X139794999Y-120334000I249999J0D01*
G01*
X140320001Y-120334000D01*
G75*
G02*
X140570000Y-120583999I0J-249999D01*
G01*
X140570000Y-121484001D01*
G75*
G02*
X140320001Y-121734000I-249999J0D01*
G01*
X139794999Y-121734000D01*
G75*
G02*
X139545000Y-121484001I0J249999D01*
G01*
G37*
%TD*%
%TO.C,R5*%
G36*
G01*
X141370000Y-119198001D02*
X141370000Y-118297999D01*
G75*
G02*
X141619999Y-118048000I249999J0D01*
G01*
X142145001Y-118048000D01*
G75*
G02*
X142395000Y-118297999I0J-249999D01*
G01*
X142395000Y-119198001D01*
G75*
G02*
X142145001Y-119448000I-249999J0D01*
G01*
X141619999Y-119448000D01*
G75*
G02*
X141370000Y-119198001I0J249999D01*
G01*
G37*
G36*
G01*
X139545000Y-119198001D02*
X139545000Y-118297999D01*
G75*
G02*
X139794999Y-118048000I249999J0D01*
G01*
X140320001Y-118048000D01*
G75*
G02*
X140570000Y-118297999I0J-249999D01*
G01*
X140570000Y-119198001D01*
G75*
G02*
X140320001Y-119448000I-249999J0D01*
G01*
X139794999Y-119448000D01*
G75*
G02*
X139545000Y-119198001I0J249999D01*
G01*
G37*
%TD*%
D25*
%TO.C,D3*%
X155550000Y-106890000D03*
X155550000Y-110890000D03*
%TD*%
D18*
%TO.C,D2*%
X180784000Y-109175000D03*
X176784000Y-109175000D03*
%TD*%
D25*
%TO.C,D1*%
X185025000Y-113350000D03*
X185025000Y-117350000D03*
%TD*%
D14*
%TO.C,C5*%
X166775000Y-125600000D03*
D15*
X166775000Y-123100000D03*
%TD*%
%TO.C,C4*%
G36*
G01*
X158250000Y-118331000D02*
X158250000Y-117381000D01*
G75*
G02*
X158500000Y-117131000I250000J0D01*
G01*
X159000000Y-117131000D01*
G75*
G02*
X159250000Y-117381000I0J-250000D01*
G01*
X159250000Y-118331000D01*
G75*
G02*
X159000000Y-118581000I-250000J0D01*
G01*
X158500000Y-118581000D01*
G75*
G02*
X158250000Y-118331000I0J250000D01*
G01*
G37*
G36*
G01*
X156350000Y-118331000D02*
X156350000Y-117381000D01*
G75*
G02*
X156600000Y-117131000I250000J0D01*
G01*
X157100000Y-117131000D01*
G75*
G02*
X157350000Y-117381000I0J-250000D01*
G01*
X157350000Y-118331000D01*
G75*
G02*
X157100000Y-118581000I-250000J0D01*
G01*
X156600000Y-118581000D01*
G75*
G02*
X156350000Y-118331000I0J250000D01*
G01*
G37*
%TD*%
%TO.C,C2*%
G36*
G01*
X150081000Y-121470000D02*
X149131000Y-121470000D01*
G75*
G02*
X148881000Y-121220000I0J250000D01*
G01*
X148881000Y-120720000D01*
G75*
G02*
X149131000Y-120470000I250000J0D01*
G01*
X150081000Y-120470000D01*
G75*
G02*
X150331000Y-120720000I0J-250000D01*
G01*
X150331000Y-121220000D01*
G75*
G02*
X150081000Y-121470000I-250000J0D01*
G01*
G37*
G36*
G01*
X150081000Y-123370000D02*
X149131000Y-123370000D01*
G75*
G02*
X148881000Y-123120000I0J250000D01*
G01*
X148881000Y-122620000D01*
G75*
G02*
X149131000Y-122370000I250000J0D01*
G01*
X150081000Y-122370000D01*
G75*
G02*
X150331000Y-122620000I0J-250000D01*
G01*
X150331000Y-123120000D01*
G75*
G02*
X150081000Y-123370000I-250000J0D01*
G01*
G37*
%TD*%
M02*
