M48
; DRILL file {KiCad 5.1.9+dfsg1-1} date Mon Nov 29 12:28:54 2021
; FORMAT={-:-/ absolute / metric / decimal}
; #@! TF.CreationDate,2021-11-29T12:28:54+01:00
; #@! TF.GenerationSoftware,Kicad,Pcbnew,5.1.9+dfsg1-1
FMAT,2
METRIC
T1C0.400
T2C0.762
T3C0.800
T4C1.000
T5C1.700
%
G90
G05
T1
X114.554Y-103.378
X118.36Y-124.9
X118.364Y-114.554
X119.634Y-104.14
X126.746Y-104.14
X128.524Y-109.22
X130.048Y-101.6
X131.064Y-110.744
X131.826Y-109.22
X131.826Y-111.76
X131.826Y-113.792
X131.826Y-115.824
X131.826Y-118.11
X131.826Y-122.174
X136.03Y-109.89
X136.05Y-111.96
X136.08Y-117.92
X136.15Y-115.76
X137.48Y-122.3
X138.43Y-114.3
X138.88Y-110.9
X138.93Y-118.25
X139.192Y-120.526
X141.986Y-113.414
X144.526Y-122.174
X145.47Y-113.66
X145.796Y-122.936
X145.87Y-109.1
X147.0Y-115.96
X150.58Y-108.92
X151.13Y-122.936
X152.4Y-117.094
X152.49Y-107.76
X152.654Y-110.52
X152.908Y-113.06
X153.86Y-105.03
X155.702Y-119.126
X157.91Y-102.34
X161.1Y-117.94
X164.83Y-102.68
X166.94Y-101.97
X173.228Y-104.14
X176.53Y-104.902
X178.816Y-104.394
X190.754Y-128.016
T2
X102.475Y-106.92
X102.475Y-109.46
X102.475Y-112.0
X102.475Y-117.0
X102.475Y-122.0
X197.875Y-107.0
X197.875Y-112.0
X197.875Y-117.0
X197.875Y-119.54
X197.875Y-122.08
T3
X166.775Y-123.1
X166.775Y-125.6
X187.63Y-123.05
X187.63Y-125.55
T4
X108.712Y-114.808
X108.712Y-117.348
X108.712Y-119.888
X111.252Y-114.808
X111.252Y-117.348
X111.252Y-119.888
X175.13Y-103.124
X177.67Y-103.124
X180.21Y-103.124
T5
X186.13Y-105.32
X191.13Y-105.32
T0
M30
